<svg width="135" height="41" viewBox="0 0 135 41" fill="none" xmlns="http://www.w3.org/2000/svg">
<path d="M109.416 0.784962H9.72059C9.35608 0.784962 8.99858 0.784963 8.63641 0.787308C8.33265 0.789652 8.03123 0.794341 7.72514 0.799031C7.05921 0.806065 6.39561 0.864686 5.73903 0.974893C5.08244 1.08744 4.44922 1.29614 3.85572 1.59862C3.26223 1.90345 2.72247 2.29972 2.25048 2.77103C1.77849 3.24234 1.3836 3.78634 1.08218 4.38427C0.780758 4.97986 0.572802 5.61765 0.462981 6.27655C0.353161 6.93544 0.292407 7.59903 0.285397 8.26731C0.276051 8.57214 0.273716 8.87696 0.269043 9.18414V32.1705C0.273716 32.48 0.276051 32.7778 0.285397 33.0873C0.292407 33.7532 0.353161 34.4192 0.462981 35.0781C0.572802 35.737 0.780758 36.3771 1.08218 36.9727C1.3836 37.5659 1.77615 38.1099 2.25048 38.5765C2.72014 39.0502 3.25989 39.4465 3.85339 39.749C4.44689 40.0514 5.08244 40.2625 5.73669 40.3774C6.39327 40.4852 7.05687 40.5439 7.7228 40.5532C8.02889 40.5603 8.33032 40.5626 8.63408 40.5626C8.99625 40.565 9.35609 40.565 9.71826 40.565H124.66C125.016 40.565 125.378 40.565 125.735 40.5626C126.037 40.5626 126.347 40.5579 126.649 40.5509C127.312 40.5439 127.976 40.4852 128.63 40.375C129.289 40.2625 129.925 40.0491 130.521 39.7466C131.114 39.4441 131.656 39.0479 132.123 38.5742C132.595 38.1052 132.99 37.5612 133.294 36.9703C133.593 36.3748 133.801 35.7346 133.909 35.0757C134.018 34.4168 134.079 33.7532 134.093 33.085C134.098 32.7754 134.098 32.4777 134.098 32.1681C134.105 31.807 134.105 31.4483 134.105 31.0801V10.2674C134.105 9.904 134.105 9.54289 134.098 9.18179C134.098 8.87696 134.098 8.57213 134.093 8.26496C134.082 7.59903 134.021 6.9331 133.909 6.2742C133.801 5.61531 133.593 4.97752 133.294 4.38193C132.682 3.18607 131.712 2.21062 130.521 1.59627C129.925 1.29379 129.287 1.0851 128.63 0.972549C127.974 0.862342 127.312 0.803722 126.649 0.796687C126.347 0.791998 126.037 0.784962 125.735 0.782617C125.38 0.780272 125.018 0.780273 124.66 0.780273H109.416V0.784962Z" fill="#001624"/>
<path d="M8.64101 39.6946C8.33959 39.6946 8.04518 39.6899 7.74609 39.6853C7.12456 39.6759 6.50535 39.6219 5.89316 39.5235C5.3207 39.425 4.76926 39.2397 4.25053 38.9771C3.73882 38.7168 3.2715 38.3768 2.86727 37.9665C2.45603 37.5608 2.11488 37.0919 1.85552 36.5784C1.59382 36.0602 1.41156 35.5044 1.3181 34.9299C1.21763 34.3132 1.16155 33.6895 1.15454 33.0658C1.14753 32.8571 1.13818 32.1584 1.13818 32.1584V9.18608C1.13818 9.18608 1.14753 8.49669 1.15454 8.29738C1.16155 7.67366 1.21763 7.04994 1.3181 6.43559C1.41156 5.86111 1.59382 5.30304 1.85786 4.78249C2.11722 4.26663 2.45603 3.79766 2.86493 3.39201C3.2715 2.98166 3.74116 2.63932 4.25287 2.37435C4.76926 2.11408 5.3207 1.93118 5.89083 1.83504C6.50536 1.73421 7.12689 1.67794 7.74843 1.6709L8.64335 1.65918H125.733L126.637 1.67325C127.254 1.68028 127.871 1.73421 128.478 1.83504C129.053 1.93352 129.612 2.11642 130.135 2.38139C131.163 2.91366 132 3.75545 132.528 4.78718C132.785 5.30539 132.965 5.85642 133.058 6.42621C133.161 7.04759 133.219 7.67366 133.231 8.30207C133.233 8.58345 133.233 8.88594 133.233 9.18842C133.24 9.56125 133.24 9.91532 133.24 10.2741V31.0868C133.24 31.4479 133.24 31.7996 133.233 32.156C133.233 32.4796 133.233 32.775 133.229 33.0799C133.217 33.6966 133.161 34.3132 133.06 34.9229C132.969 35.4997 132.787 36.0601 132.525 36.583C132.264 37.0919 131.925 37.5585 131.518 37.9618C131.114 38.3721 130.644 38.7168 130.13 38.9795C129.609 39.2444 129.053 39.4297 128.478 39.5258C127.866 39.6243 127.247 39.6806 126.625 39.6876C126.336 39.6946 126.032 39.6993 125.735 39.6993L124.66 39.7017L8.64101 39.6946Z" fill="#FBFBFB"/>
<path d="M32.666 20.5662C32.6893 18.8123 33.6053 17.192 35.0937 16.2729C34.1497 14.9199 32.6262 14.0922 30.9813 14.0406C29.2499 13.8577 27.5745 15.0794 26.6913 15.0794C25.7917 15.0794 24.4341 14.057 22.9737 14.0875C21.0507 14.1508 19.3006 15.2224 18.3636 16.9083C16.3705 20.3716 17.8566 25.4599 19.7656 28.2596C20.7213 29.6313 21.8382 31.1602 23.2985 31.1062C24.7285 31.0476 25.2613 30.1918 26.988 30.1918C28.6961 30.1918 29.1984 31.1062 30.6892 31.0711C32.222 31.0476 33.1894 29.6947 34.11 28.3112C34.7969 27.3334 35.325 26.2548 35.6755 25.1129C33.853 24.3414 32.6683 22.55 32.666 20.5662ZM29.8527 12.1999C30.6892 11.1916 31.1004 9.89728 31.0023 8.58887C29.7242 8.72252 28.5442 9.33687 27.696 10.3053C26.8595 11.262 26.4342 12.5118 26.5184 13.7803C27.8105 13.7944 29.0396 13.2105 29.8527 12.1999Z" fill="#001624"/>
<path d="M49.8169 27.7761H45.1274L43.9988 31.1128H42.0127L46.4546 18.7626H48.5178L52.962 31.1128H50.9408L49.8169 27.7761ZM45.6111 26.2356H49.3286L47.4944 20.819H47.443C47.4453 20.819 45.6111 26.2356 45.6111 26.2356ZM62.5584 26.6107C62.5584 29.4081 61.0653 31.2066 58.8129 31.2066C57.6492 31.2676 56.5534 30.6556 55.9902 29.6309H55.9482V34.0907H54.1069V22.1087H55.8898V23.607H55.9225C56.509 22.5894 57.6072 21.9773 58.7801 22.0149C61.0583 22.0172 62.5584 23.8227 62.5584 26.6107ZM60.6658 26.6107C60.6658 24.7888 59.7265 23.5906 58.2941 23.5906C56.8875 23.5906 55.9412 24.8146 55.9412 26.6131C55.9412 28.428 56.8875 29.6426 58.2941 29.6426C59.7265 29.6426 60.6658 28.4514 60.6658 26.6107ZM72.4329 26.6107C72.4329 29.4081 70.9398 31.2066 68.6873 31.2066C67.5237 31.2676 66.4278 30.6556 65.8647 29.6309H65.8227V34.0907H63.9814V22.1087H65.7642V23.607H65.797C66.3858 22.5894 67.4816 21.9773 68.6546 22.0149C70.9328 22.0172 72.4329 23.8227 72.4329 26.6107ZM70.5403 26.6107C70.5403 24.7888 69.6009 23.5906 68.1686 23.5906C66.762 23.5906 65.8157 24.8146 65.8157 26.6131C65.8157 28.428 66.762 29.6426 68.1686 29.6426C69.6009 29.6426 70.5403 28.4514 70.5403 26.6107ZM78.959 27.6729C79.0969 28.8969 80.2816 29.7012 81.9008 29.7012C83.4523 29.7012 84.5692 28.8969 84.5692 27.7925C84.5692 26.8335 83.8963 26.2614 82.3004 25.8674L80.7045 25.4829C78.445 24.9342 77.3958 23.8743 77.3958 22.1532C77.3958 20.0218 79.2464 18.5586 81.8728 18.5586C84.4734 18.5586 86.2562 20.0218 86.317 22.1532H84.4571C84.3449 20.9198 83.3308 20.1765 81.8471 20.1765C80.3633 20.1765 79.3492 20.9292 79.3492 22.0242C79.3492 22.8989 79.9988 23.41 81.5854 23.804L82.9406 24.1393C85.4665 24.7372 86.5133 25.7572 86.5133 27.5627C86.5133 29.8724 84.679 31.3215 81.763 31.3215C79.0338 31.3215 77.1902 29.9076 77.0711 27.6753C77.0734 27.6729 78.959 27.6729 78.959 27.6729ZM90.4925 19.9796V22.111H92.1982V23.5742H90.4925V28.5382C90.4925 29.3096 90.8336 29.6684 91.5837 29.6684C91.787 29.6637 91.9879 29.6496 92.1889 29.6262V31.08C91.8501 31.1433 91.5089 31.1714 91.1654 31.1667C89.3499 31.1667 88.6396 30.482 88.6396 28.7375V23.5765H87.3334V22.1134H88.6396V19.9796H90.4925ZM93.1843 26.6107C93.1843 23.7782 94.8479 21.9985 97.4392 21.9985C100.04 21.9985 101.697 23.7782 101.697 26.6107C101.697 29.4527 100.049 31.223 97.4392 31.223C94.8316 31.2254 93.1843 29.4527 93.1843 26.6107ZM99.8202 26.6107C99.8202 24.6669 98.9323 23.5202 97.4392 23.5202C95.9485 23.5202 95.0605 24.6762 95.0605 26.6107C95.0605 28.5616 95.9485 29.6989 97.4392 29.6989C98.9323 29.7012 99.8202 28.564 99.8202 26.6107ZM103.215 22.1087H104.972V23.6398H105.014C105.26 22.6527 106.159 21.975 107.171 22.0125C107.384 22.0125 107.596 22.036 107.802 22.0805V23.8087C107.533 23.7266 107.255 23.6891 106.975 23.6961C106.433 23.675 105.909 23.8907 105.54 24.2894C105.171 24.688 104.993 25.2273 105.057 25.7689V31.1081H103.213V22.1087H103.215ZM116.296 28.4678C116.048 30.1022 114.461 31.223 112.433 31.223C109.823 31.223 108.204 29.4691 108.204 26.6529C108.204 23.8298 109.833 21.9961 112.356 21.9961C114.838 21.9961 116.398 23.7078 116.398 26.4372V27.0703H110.062V27.1829C110.003 27.8535 110.232 28.5171 110.695 29.0048C111.157 29.4925 111.805 29.7575 112.475 29.734C113.37 29.8185 114.211 29.3026 114.548 28.4678H116.296ZM110.069 25.7807H114.555C114.588 25.178 114.37 24.5895 113.952 24.1557C113.534 23.7219 112.954 23.4827 112.354 23.4945C111.749 23.4898 111.167 23.7289 110.737 24.1604C110.309 24.5895 110.066 25.1734 110.069 25.7807Z" fill="#001624"/>
<path d="M45.3817 9.46791C46.1645 9.41163 46.9286 9.70943 47.4683 10.2816C48.0081 10.8514 48.2628 11.6345 48.1646 12.4154C48.1646 14.3123 47.1435 15.4003 45.3817 15.4003H43.2461V9.46556H45.3817V9.46791ZM44.1644 14.5632H45.2789C45.8374 14.596 46.3818 14.3756 46.7603 13.9629C47.1389 13.5503 47.3118 12.9852 47.23 12.4294C47.3048 11.876 47.1319 11.318 46.7533 10.9076C46.3748 10.4973 45.835 10.2769 45.2789 10.3074H44.1644V14.5632ZM49.1997 13.161C49.1226 12.3567 49.5058 11.5806 50.1881 11.1562C50.8704 10.7294 51.735 10.7294 52.4173 11.1562C53.0995 11.5806 53.4827 12.3567 53.4056 13.161C53.4827 13.9653 53.1019 14.7414 52.4173 15.1682C51.735 15.5949 50.8704 15.5949 50.1858 15.1682C49.5058 14.7438 49.1226 13.9653 49.1997 13.161ZM52.5037 13.161C52.5037 12.1903 52.0691 11.6228 51.3074 11.6228C50.541 11.6228 50.111 12.1903 50.111 13.161C50.111 14.1411 50.541 14.7039 51.3074 14.7039C52.0691 14.7039 52.5037 14.1365 52.5037 13.161ZM59.0041 15.4027H58.0905L57.1676 12.1058H57.0975L56.1792 15.4027H55.2749L54.0435 10.924H54.9361L55.7352 14.3405H55.8006L56.7166 10.924H57.5624L58.4784 14.3405H58.5485L59.3429 10.924H60.2238L59.0041 15.4027ZM61.2636 10.924H62.1118V11.6345H62.1772C62.4062 11.1116 62.9413 10.7904 63.5091 10.8373C63.9484 10.8045 64.3806 10.9733 64.6797 11.2969C64.9812 11.6205 65.119 12.0636 65.0536 12.5021V15.4003H64.1727V12.7225C64.1727 12.0027 63.8619 11.6463 63.21 11.6463C62.9109 11.6322 62.6212 11.7494 62.4179 11.9675C62.2123 12.1856 62.1141 12.4834 62.1445 12.7812V15.4003H61.2636V10.924ZM66.4579 9.1748H67.3388V15.4003H66.4579V9.1748ZM68.5608 13.161C68.4837 12.3567 68.8669 11.5806 69.5515 11.1562C70.2338 10.7294 71.0984 10.7294 71.7807 11.1562C72.463 11.5806 72.8485 12.3567 72.7714 13.161C72.8485 13.9653 72.4676 14.7414 71.783 15.1682C71.0984 15.5949 70.2338 15.5949 69.5515 15.1682C68.8669 14.7438 68.4837 13.9653 68.5608 13.161ZM71.8648 13.161C71.8648 12.1903 71.4302 11.6228 70.6684 11.6228C69.902 11.6228 69.4721 12.1903 69.4721 13.161C69.4721 14.1411 69.902 14.7039 70.6684 14.7039C71.4302 14.7039 71.8648 14.1365 71.8648 13.161ZM73.699 14.1365C73.699 13.3298 74.2972 12.8656 75.358 12.7999L76.566 12.7296V12.3427C76.566 11.869 76.2553 11.604 75.6524 11.604C75.1617 11.604 74.8206 11.7846 74.7224 12.1011H73.8696C73.9584 11.332 74.6804 10.8396 75.6921 10.8396C76.8114 10.8396 77.4422 11.3977 77.4422 12.345V15.405H76.5941V14.7743H76.524C76.2366 15.2338 75.7225 15.5035 75.1828 15.4777C74.8042 15.5176 74.4257 15.3933 74.143 15.1377C73.8626 14.8821 73.699 14.5187 73.699 14.1365ZM76.566 13.7543V13.3791L75.4748 13.4494C74.8603 13.4916 74.5823 13.7003 74.5823 14.0966C74.5823 14.4999 74.9304 14.7344 75.4094 14.7344C75.6921 14.7625 75.9772 14.6758 76.1945 14.4905C76.4141 14.3029 76.5473 14.038 76.566 13.7543ZM78.6012 13.161C78.6012 11.7447 79.3256 10.849 80.4541 10.849C81.0219 10.8232 81.557 11.128 81.8234 11.6345H81.8888V9.1748H82.7697V15.4027H81.9262V14.6945H81.8561C81.571 15.1963 81.0289 15.4988 80.4541 15.4754C79.3185 15.4754 78.6012 14.5796 78.6012 13.161ZM79.5101 13.161C79.5101 14.1107 79.9564 14.6828 80.7018 14.6828C81.4449 14.6828 81.9028 14.1036 81.9028 13.1657C81.9028 12.2325 81.4378 11.6439 80.7018 11.6439C79.9634 11.6439 79.5101 12.2184 79.5101 13.161ZM86.4125 13.161C86.3354 12.3567 86.7186 11.5806 87.4008 11.1562C88.0831 10.7294 88.9477 10.7294 89.63 11.1562C90.3122 11.5806 90.6954 12.3567 90.6183 13.161C90.6954 13.9653 90.3146 14.7414 89.63 15.1682C88.9477 15.5949 88.0831 15.5949 87.3985 15.1682C86.7162 14.7438 86.333 13.9653 86.4125 13.161ZM89.7164 13.161C89.7164 12.1903 89.2818 11.6228 88.5201 11.6228C87.7537 11.6228 87.3237 12.1903 87.3237 13.161C87.3237 14.1411 87.7537 14.7039 88.5201 14.7039C89.2818 14.7039 89.7164 14.1365 89.7164 13.161ZM91.803 10.924H92.6512V11.6345H92.7166C92.9456 11.1116 93.4807 10.7904 94.0485 10.8373C94.4878 10.8045 94.92 10.9733 95.2191 11.2969C95.5205 11.6205 95.6561 12.0636 95.593 12.5021V15.4003H94.7121V12.7225C94.7121 12.0027 94.4013 11.6463 93.7494 11.6463C93.4503 11.6322 93.1629 11.7494 92.9573 11.9675C92.754 12.1856 92.6535 12.4834 92.6862 12.7812V15.4003H91.8053V10.924H91.803ZM100.57 9.81025V10.9452H101.537V11.6885H100.57V13.9911C100.57 14.46 100.762 14.6664 101.201 14.6664C101.313 14.6664 101.425 14.6594 101.537 14.6453V15.3816C101.378 15.4097 101.22 15.4261 101.058 15.4285C100.079 15.4285 99.689 15.0814 99.689 14.2185V11.6885H98.9787V10.9452H99.6867V9.81025H100.57ZM102.738 9.1748H103.612V11.6416H103.682C103.921 11.114 104.465 10.7927 105.042 10.8396C105.479 10.8162 105.904 10.9897 106.203 11.3109C106.5 11.6345 106.638 12.073 106.58 12.5091V15.4003H105.699V12.7249C105.699 12.0097 105.367 11.6463 104.745 11.6463C104.439 11.6205 104.138 11.733 103.921 11.9534C103.703 12.1715 103.596 12.4763 103.622 12.7835V15.4003H102.741V9.1748H102.738ZM111.713 14.1927C111.465 15.0369 110.652 15.5832 109.778 15.4871C109.185 15.5035 108.613 15.2549 108.215 14.8094C107.818 14.3639 107.636 13.766 107.718 13.1751C107.638 12.5818 107.82 11.9816 108.215 11.5337C108.61 11.0835 109.178 10.8303 109.776 10.8349C111.017 10.8349 111.767 11.6861 111.767 13.093V13.4002H108.617V13.4494C108.589 13.7824 108.704 14.1107 108.928 14.3545C109.155 14.5984 109.472 14.7367 109.804 14.732C110.236 14.7836 110.655 14.5703 110.867 14.188L111.713 14.1927ZM108.617 12.7507H110.872C110.893 12.4458 110.788 12.148 110.578 11.9276C110.37 11.7049 110.075 11.5853 109.771 11.59C109.463 11.5853 109.166 11.7072 108.949 11.9276C108.732 12.1434 108.613 12.4411 108.617 12.7507Z" fill="#001624"/>
</svg>
