<svg width="34" height="41" viewBox="0 0 34 41" fill="none" xmlns="http://www.w3.org/2000/svg">
<path d="M33.1495 31.7727C32.5442 33.1703 31.8277 34.4566 30.9976 35.6393C29.866 37.2516 28.9396 38.3676 28.2255 38.9874C27.1187 40.0046 25.9328 40.5256 24.6629 40.5552C23.7512 40.5552 22.6518 40.296 21.372 39.77C20.088 39.2466 18.908 38.9874 17.8291 38.9874C16.6976 38.9874 15.4839 39.2466 14.1859 39.77C12.8859 40.296 11.8386 40.57 11.0379 40.5972C9.82002 40.649 8.60623 40.1132 7.39463 38.9874C6.62131 38.3133 5.65406 37.1578 4.49534 35.5208C3.25213 33.7727 2.23002 31.7455 1.42931 29.4345C0.571703 26.9383 0.141846 24.5211 0.141846 22.181C0.141846 19.5002 0.72145 17.1882 1.88241 15.2508C2.79481 13.6945 4.00866 12.4669 5.52784 11.5657C7.04702 10.6644 8.68855 10.2052 10.4562 10.1759C11.4235 10.1759 12.6919 10.4749 14.2682 11.0625C15.84 11.6521 16.8492 11.9511 17.2917 11.9511C17.6226 11.9511 18.7438 11.6015 20.6444 10.9044C22.4418 10.258 23.9587 9.99043 25.2015 10.0959C28.5689 10.3675 31.0989 11.6941 32.7813 14.0841C29.7697 15.9078 28.2799 18.4621 28.3096 21.7387C28.3367 24.291 29.2632 26.4149 31.0841 28.1012C31.9092 28.884 32.8308 29.4889 33.8561 29.9185C33.6337 30.5629 33.3991 31.1802 33.1495 31.7727ZM25.4263 1.40081C25.4263 3.40127 24.695 5.26909 23.2374 6.99793C21.4783 9.05318 19.3505 10.2408 17.0432 10.0534C17.0138 9.81343 16.9967 9.56086 16.9967 9.29536C16.9967 7.37498 17.8333 5.3197 19.3189 3.63926C20.0606 2.78842 21.0039 2.08096 22.1478 1.51661C23.2892 0.960673 24.3688 0.653226 25.3843 0.600586C25.4139 0.86801 25.4263 1.13549 25.4263 1.40081Z" fill="white"/>
</svg>
