<svg width="117" height="48" viewBox="0 0 117 48" fill="none" xmlns="http://www.w3.org/2000/svg">
<g clip-path="url(#clip0_16_473)">
<path d="M10.6011 18.8435H21.2016C21.2016 14.5116 24.5435 10.974 28.7837 10.6491V0C18.6862 0.324888 10.6011 8.66366 10.6011 18.8435Z" fill="white"/>
<path d="M10.6005 18.8438H0C0 34.7632 12.9003 47.7226 28.7472 47.7226V37.0737C18.7216 37.0737 10.6005 28.9153 10.6005 18.8438Z" fill="white"/>
<path d="M114.914 8.59717C115.16 8.59717 115.376 8.65899 115.622 8.78267C115.837 8.90634 116.022 9.09184 116.145 9.30825C116.268 9.52466 116.329 9.77198 116.329 10.0193C116.329 10.2666 116.268 10.483 116.145 10.7304C116.022 10.9468 115.837 11.1323 115.622 11.2559C115.406 11.3796 115.16 11.4414 114.914 11.4414C114.668 11.4414 114.422 11.3796 114.206 11.2559C113.991 11.1323 113.806 10.9468 113.683 10.7304C113.56 10.514 113.498 10.2666 113.498 10.0193C113.498 9.77198 113.56 9.52466 113.683 9.30825C113.806 9.09184 113.991 8.90634 114.206 8.78267C114.452 8.65899 114.668 8.59717 114.914 8.59717ZM114.914 8.84449C114.729 8.84449 114.514 8.90634 114.329 8.99907C114.145 9.09184 113.991 9.24639 113.898 9.43189C113.806 9.61739 113.744 9.8338 113.744 10.0193C113.744 10.2357 113.806 10.4212 113.898 10.6067C113.991 10.7922 114.145 10.9468 114.329 11.0395C114.514 11.1323 114.698 11.1941 114.914 11.1941C115.129 11.1941 115.314 11.1323 115.499 11.0395C115.683 10.9468 115.837 10.7922 115.93 10.6067C116.022 10.4212 116.083 10.2357 116.083 10.0193C116.083 9.80289 116.022 9.61739 115.93 9.43189C115.837 9.24639 115.683 9.09184 115.499 8.99907C115.283 8.90634 115.099 8.84449 114.914 8.84449ZM114.299 10.8231V9.30825H114.821C115.006 9.30825 115.129 9.30825 115.222 9.33916C115.314 9.37007 115.376 9.43189 115.406 9.49375C115.468 9.55557 115.468 9.6483 115.468 9.71016C115.468 9.8338 115.437 9.92656 115.345 9.98838C115.252 10.0811 115.16 10.1121 115.037 10.1121C115.099 10.143 115.129 10.1739 115.16 10.2048C115.222 10.2666 115.283 10.3594 115.376 10.514L115.56 10.8231H115.252L115.129 10.5758C115.037 10.3903 114.945 10.2666 114.883 10.2357C114.852 10.2048 114.76 10.1739 114.698 10.1739H114.545V10.8231H114.299ZM114.545 9.95747H114.852C115.006 9.95747 115.099 9.92656 115.129 9.89562C115.191 9.86471 115.222 9.80289 115.222 9.74107C115.222 9.71015 115.222 9.6483 115.191 9.61739C115.16 9.58648 115.129 9.55557 115.099 9.52466C115.068 9.49375 114.975 9.49375 114.852 9.49375H114.576V9.95747H114.545Z" fill="white"/>
<path d="M39.9479 16.727C39.2095 16.387 38.6246 15.8614 38.194 15.2122C37.7631 14.5629 37.5476 13.79 37.5476 12.9244C37.5476 12.0588 37.7631 11.2859 38.194 10.6366C38.6246 9.98737 39.2095 9.49274 39.9479 9.12174C40.6867 8.78165 41.4867 8.59619 42.3794 8.59619C43.241 8.59619 44.0718 8.78165 44.8721 9.12174V10.8221C44.2257 10.3893 43.3949 10.1729 42.3794 10.1729C41.7945 10.1729 41.2712 10.2965 40.8098 10.513C40.3481 10.7294 39.9479 11.0385 39.6709 11.4714C39.3942 11.8733 39.2403 12.3679 39.2403 12.9244C39.2403 13.4809 39.3634 13.9755 39.6405 14.4083C39.9172 14.8412 40.2865 15.1503 40.7483 15.3667C41.2097 15.5832 41.7638 15.7068 42.3178 15.7068C43.1794 15.7068 44.0102 15.4904 44.8105 15.0885V16.758C44.0717 17.0671 43.241 17.2217 42.3178 17.2217C41.5175 17.2526 40.6867 17.0671 39.9479 16.727Z" fill="white"/>
<path d="M47.3951 16.6961C46.749 16.3251 46.2257 15.7996 45.8564 15.1503C45.4873 14.5011 45.3026 13.7591 45.3026 12.9244C45.3026 12.0897 45.4873 11.3477 45.8564 10.6985C46.2257 10.0492 46.7183 9.52365 47.3951 9.15265C48.0416 8.78166 48.78 8.59619 49.6111 8.59619C50.4419 8.59619 51.1807 8.78166 51.8268 9.15265C52.4732 9.52365 52.9961 10.0183 53.3655 10.6985C53.7349 11.3477 53.9196 12.0897 53.9196 12.9244C53.9196 13.7591 53.7349 14.5011 53.3655 15.1503C52.9961 15.7996 52.4732 16.3251 51.8268 16.6961C51.1807 17.0671 50.4419 17.2526 49.6111 17.2526C48.78 17.2526 48.0416 17.0671 47.3951 16.6961ZM50.9652 15.3358C51.365 15.0885 51.6728 14.7793 51.8883 14.3465C52.1038 13.9446 52.2269 13.45 52.2269 12.9244C52.2269 12.3988 52.1038 11.9351 51.8883 11.5332C51.6728 11.1004 51.365 10.7912 50.9652 10.5439C50.565 10.2965 50.1341 10.1729 49.6111 10.1729C49.0878 10.1729 48.6569 10.2965 48.257 10.5439C47.8569 10.7912 47.549 11.1004 47.3336 11.5332C47.1181 11.9351 47.0261 12.4298 47.0261 12.9244C47.0261 13.45 47.1181 13.9446 47.3336 14.3465C47.549 14.7793 47.8569 15.0885 48.257 15.3358C48.6569 15.5832 49.0878 15.7068 49.6111 15.7068C50.1341 15.7068 50.5958 15.5522 50.9652 15.3358Z" fill="white"/>
<path d="M67.8603 17.1283H66.1064L64.3521 8.96656L62.6902 17.1283H59.428L57.7664 8.96656L56.0429 17.1283H54.3195L56.1968 8.71924H59.3664L61.0899 16.881L62.7825 8.71924H65.9524L67.8603 17.1283Z" fill="white"/>
<path d="M74.9071 9.05929C75.3688 9.30664 75.7071 9.61578 75.9533 10.0486C76.1996 10.4815 76.3227 10.9761 76.3227 11.5326C76.3227 12.089 76.1996 12.5837 75.9533 13.0165C75.7071 13.4493 75.3688 13.7894 74.9071 14.0058C74.4454 14.2532 73.9532 14.3768 73.3683 14.3768H70.6602V17.1283H69.0598V8.71924H73.3683C73.9532 8.71924 74.4454 8.84288 74.9071 9.05929ZM74.2302 12.4909C74.4761 12.2436 74.5993 11.9345 74.5993 11.5326C74.5993 11.1616 74.4761 10.8524 74.2302 10.6051C73.984 10.3578 73.6761 10.2341 73.276 10.2341H70.6602V12.8929H73.276C73.6761 12.8619 73.984 12.7383 74.2302 12.4909Z" fill="white"/>
<path d="M78.693 16.6961C78.0465 16.3251 77.5236 15.7996 77.1542 15.1503C76.7848 14.5011 76.6001 13.7591 76.6001 12.9244C76.6001 12.0897 76.7848 11.3477 77.1542 10.6985C77.5236 10.0492 78.0157 9.52365 78.693 9.15265C79.339 8.78166 80.0778 8.59619 80.9086 8.59619C81.7397 8.59619 82.4782 8.78166 83.1246 9.15265C83.7707 9.52365 84.294 10.0183 84.663 10.6985C85.0324 11.3477 85.2171 12.0897 85.2171 12.9244C85.2171 13.7591 85.0324 14.5011 84.663 15.1503C84.294 15.7996 83.7707 16.3251 83.1246 16.6961C82.4782 17.0671 81.7397 17.2526 80.9086 17.2526C80.1086 17.2526 79.3698 17.0671 78.693 16.6961ZM82.2935 15.3358C82.6936 15.0885 83.0014 14.7793 83.2169 14.3465C83.4321 13.9446 83.5552 13.45 83.5552 12.9244C83.5552 12.3988 83.4321 11.9351 83.2169 11.5332C83.0014 11.1004 82.6936 10.7912 82.2935 10.5439C81.8933 10.2965 81.4627 10.1729 80.9394 10.1729C80.4161 10.1729 79.9855 10.2965 79.5853 10.5439C79.1851 10.7912 78.8776 11.1004 78.6622 11.5332C78.4467 11.9351 78.3543 12.4298 78.3543 12.9244C78.3543 13.45 78.4467 13.9446 78.6622 14.3465C78.8776 14.7793 79.1851 15.0885 79.5853 15.3358C79.9855 15.5832 80.4161 15.7068 80.9394 15.7068C81.4319 15.6759 81.8933 15.5522 82.2935 15.3358Z" fill="white"/>
<path d="M87.8299 16.7883C87.2758 16.4791 86.8452 16.0463 86.5066 15.5207C86.1987 14.9952 86.014 14.3768 86.014 13.6967V8.71924H87.6144V13.7894C87.6144 14.1604 87.7067 14.5005 87.8914 14.7787C88.0761 15.057 88.3224 15.3043 88.6298 15.4589C88.9377 15.6135 89.2763 15.7062 89.6764 15.7062C90.0455 15.7062 90.4149 15.6135 90.7227 15.4589C91.0305 15.3043 91.2768 15.057 91.4611 14.7787C91.6458 14.5005 91.7382 14.1604 91.7382 13.7894V8.71924H93.3385V13.6658C93.3385 14.3459 93.1846 14.9642 92.8768 15.4898C92.5693 16.0154 92.1383 16.4482 91.5535 16.7574C90.9997 17.0665 90.3841 17.2211 89.6764 17.2211C88.9992 17.252 88.3839 17.0974 87.8299 16.7883Z" fill="white"/>
<path d="M102.605 8.71924V17.1283H99.3738L96.4194 8.96656V17.1283H94.8499V8.71924H98.1121L101.036 16.881V8.71924H102.605Z" fill="white"/>
<path d="M110.172 9.24479C110.85 9.58487 111.403 10.0795 111.803 10.7288C112.204 11.378 112.388 12.089 112.388 12.9238C112.388 13.7585 112.204 14.4696 111.803 15.1188C111.403 15.7681 110.85 16.2627 110.172 16.6028C109.495 16.9428 108.726 17.1283 107.895 17.1283H104.51V8.71924H107.895C108.726 8.71924 109.465 8.90474 110.172 9.24479ZM109.311 15.2734C109.741 15.057 110.08 14.7169 110.326 14.315C110.573 13.9131 110.696 13.4184 110.696 12.8929C110.696 12.3673 110.573 11.9036 110.326 11.5017C110.08 11.0998 109.741 10.7906 109.311 10.5433C108.88 10.3269 108.418 10.2032 107.864 10.2032H106.11V15.5826H107.864C108.418 15.6135 108.88 15.5207 109.311 15.2734Z" fill="white"/>
<path d="M44.6193 35.9893C44.9664 36.1799 45.2343 36.4376 45.4237 36.7631C45.6206 37.0885 45.7194 37.4534 45.7194 37.8582C45.7194 38.3263 45.6087 38.743 45.3882 39.1079C45.1673 39.465 44.8598 39.7469 44.4654 39.9532C44.0791 40.1517 43.6336 40.2507 43.1289 40.2507H38.1493V31.8589H43.0224C43.5193 31.8589 43.9607 31.9541 44.3473 32.1446C44.7414 32.335 45.0489 32.6048 45.2698 32.954C45.4907 33.2952 45.601 33.6841 45.601 34.1207C45.601 34.5173 45.5144 34.8785 45.3408 35.2039C45.1673 35.5212 44.9268 35.783 44.6193 35.9893ZM39.7581 35.3823H42.8806C43.1803 35.3823 43.4246 35.287 43.614 35.0967C43.8031 34.8982 43.8978 34.6483 43.8978 34.3467C43.8978 34.0451 43.8031 33.7991 43.614 33.6087C43.4246 33.4103 43.1803 33.3111 42.8806 33.3111H39.7581V35.3823ZM42.9987 38.7985C43.2984 38.7985 43.543 38.6994 43.732 38.5009C43.9215 38.3025 44.0162 38.0485 44.0162 37.7391C44.0162 37.4218 43.9215 37.1637 43.732 36.9656C43.543 36.7671 43.2984 36.6677 42.9987 36.6677H39.7581V38.7985H42.9987Z" fill="white"/>
<path d="M50.5126 40.3703C49.6849 40.3703 48.9434 40.1878 48.2892 39.8225C47.6424 39.4497 47.1377 38.9378 46.7751 38.2872C46.4125 37.6285 46.2308 36.8826 46.2308 36.0492C46.2308 35.2159 46.4125 34.4741 46.7751 33.8233C47.1377 33.1647 47.6424 32.6528 48.2892 32.2878C48.9434 31.9228 49.6849 31.7402 50.5126 31.7402C51.3407 31.7402 52.0778 31.9228 52.7245 32.2878C53.3791 32.6528 53.8875 33.1647 54.2505 33.8233C54.6209 34.4741 54.8062 35.2159 54.8062 36.0492C54.8062 36.8826 54.6209 37.6285 54.2505 38.2872C53.8875 38.9378 53.3791 39.4497 52.7245 39.8225C52.0778 40.1878 51.3407 40.3703 50.5126 40.3703ZM50.5126 38.8108C51.0251 38.8108 51.4746 38.692 51.8609 38.4537C52.2554 38.2157 52.5588 37.8903 52.7719 37.4777C52.9924 37.0572 53.1031 36.581 53.1031 36.0492C53.1031 35.5335 52.9924 35.0692 52.7719 34.6566C52.5588 34.2361 52.2554 33.9067 51.8609 33.6686C51.4746 33.4305 51.0251 33.3115 50.5126 33.3115C50.0001 33.3115 49.5469 33.4305 49.1524 33.6686C48.7661 33.9067 48.4664 34.2361 48.2537 34.6566C48.0406 35.0692 47.9343 35.5335 47.9343 36.0492C47.9343 36.581 48.0406 37.0572 48.2537 37.4777C48.4664 37.8903 48.7661 38.2157 49.1524 38.4537C49.5469 38.692 50.0001 38.8108 50.5126 38.8108Z" fill="white"/>
<path d="M63.6401 31.978V40.37H60.4347L57.4776 32.2161V40.37H55.9165V31.978H59.1693L62.0787 40.132V31.978H63.6401Z" fill="white"/>
<path d="M68.2635 31.978C69.0994 31.978 69.8601 32.1526 70.5462 32.5018C71.2325 32.8509 71.7724 33.3429 72.1668 33.9778C72.569 34.6127 72.7699 35.3426 72.7699 36.1681C72.7699 36.9933 72.569 37.7272 72.1668 38.3703C71.7724 39.0049 71.2325 39.4971 70.5462 39.846C69.8601 40.1953 69.0994 40.37 68.2635 40.37H64.9045V31.978H68.2635ZM68.2635 38.87C68.7919 38.87 69.2689 38.7591 69.6947 38.5368C70.1206 38.3066 70.4555 37.9853 70.7001 37.5727C70.9446 37.1601 71.0667 36.6917 71.0667 36.1681C71.0667 35.6442 70.9446 35.1802 70.7001 34.7754C70.4555 34.3628 70.1206 34.0452 69.6947 33.823C69.2689 33.6008 68.7919 33.4898 68.2635 33.4898H66.513V38.87H68.2635Z" fill="white"/>
<path d="M76.5449 40.4239C75.9932 40.4239 75.4215 40.3684 74.8299 40.2571C74.2464 40.1461 73.7539 39.9875 73.3517 39.7812V38.1025C73.7772 38.3487 74.3056 38.5393 74.9365 38.6741C75.5751 38.8011 76.1745 38.8644 76.7343 38.8644C77.5151 38.8644 78.059 38.781 78.3665 38.6145C78.674 38.4477 78.8279 38.2414 78.8279 37.9956C78.8279 37.7972 78.7409 37.6304 78.5678 37.4956C78.3942 37.3608 78.1774 37.2535 77.9173 37.1742C77.6568 37.0949 77.2901 36.9996 76.8172 36.8886C76.1231 36.7299 75.5514 36.571 75.1022 36.4123C74.6604 36.2459 74.2782 35.9956 73.9548 35.6624C73.6314 35.3291 73.4697 34.8889 73.4697 34.3412C73.4697 33.8889 73.5881 33.4723 73.8246 33.0914C74.0692 32.7105 74.4632 32.401 75.0075 32.163C75.5596 31.9169 76.273 31.7939 77.1484 31.7939C77.6135 31.7939 78.0945 31.8297 78.5914 31.9011C79.088 31.9646 79.502 32.0638 79.8332 32.1987V33.9008C79.5257 33.7421 79.0921 33.6152 78.5322 33.5199C77.9724 33.4168 77.4518 33.3652 76.9708 33.3652C76.2929 33.3652 75.8156 33.4406 75.5396 33.5914C75.2717 33.7421 75.1377 33.9286 75.1377 34.1509C75.1377 34.3412 75.2203 34.4998 75.386 34.6268C75.5514 34.7459 75.7605 34.845 76.0128 34.9247C76.273 34.9958 76.6319 35.0833 77.0892 35.1865C77.7911 35.3451 78.3705 35.5078 78.8279 35.6743C79.2852 35.8333 79.6793 36.0831 80.0105 36.4242C80.342 36.7657 80.5074 37.2178 80.5074 37.7812C80.5074 38.2891 80.3653 38.7415 80.0815 39.1381C79.8055 39.5351 79.3718 39.8486 78.7805 40.0787C78.1892 40.3088 77.444 40.4239 76.5449 40.4239Z" fill="white"/>
<path d="M73.786 21.8494V23.7475H78.4067V25.2422H73.786V27.2115H78.6425V28.7063H72.183V20.3428H78.6425V21.8494H73.786Z" fill="white"/>
<path d="M83.0339 28.8249C82.4839 28.8249 81.9143 28.7695 81.3247 28.6588C80.7432 28.5481 80.252 28.3899 79.8512 28.1843V26.5116C80.2757 26.7568 80.8021 26.9466 81.4309 27.081C82.0675 27.2075 82.6646 27.2708 83.2227 27.2708C84.0007 27.2708 84.543 27.1878 84.8494 27.0217C85.1559 26.8556 85.3091 26.65 85.3091 26.4048C85.3091 26.2071 85.2225 26.041 85.0497 25.9066C84.8768 25.7721 84.6607 25.6653 84.4012 25.5863C84.1421 25.5072 83.7768 25.4123 83.3052 25.3015C82.6135 25.1434 82.0438 24.9852 81.596 24.827C81.1559 24.6609 80.7747 24.4118 80.4523 24.0796C80.1303 23.7475 79.9693 23.3085 79.9693 22.7628C79.9693 22.312 80.087 21.8968 80.3227 21.5172C80.5663 21.1376 80.9594 20.8292 81.5016 20.5919C82.0516 20.3467 82.763 20.2241 83.635 20.2241C84.0988 20.2241 84.5781 20.2597 85.0734 20.3309C85.5682 20.3942 85.9809 20.493 86.3111 20.6275V22.3239C86.0046 22.1657 85.5723 22.0392 85.0145 21.9443C84.4564 21.8414 83.9378 21.79 83.4585 21.79C82.7826 21.79 82.307 21.8652 82.032 22.0154C81.7648 22.1657 81.6312 22.3516 81.6312 22.573C81.6312 22.7628 81.7137 22.921 81.8788 23.0475C82.0438 23.1662 82.2522 23.265 82.5035 23.3441C82.763 23.4153 83.1205 23.5023 83.5762 23.6051C84.2757 23.7633 84.8531 23.9254 85.3091 24.0915C85.7648 24.2497 86.1578 24.4988 86.488 24.8389C86.8178 25.1789 86.9829 25.6298 86.9829 26.1913C86.9829 26.6974 86.8415 27.1482 86.5587 27.5437C86.2837 27.9391 85.8514 28.2515 85.2618 28.4809C84.6725 28.7102 83.93 28.8249 83.0339 28.8249Z" fill="white"/>
<path d="M94.5147 21.8494H91.6265V28.7063H90.0235V21.8494H87.1354V20.3428H94.5147V21.8494Z" fill="white"/>
<path d="M100.105 26.915H95.8965L95.3073 28.7063H93.6332L96.5331 20.3428H99.5626L102.462 28.7063H100.694L100.105 26.915ZM99.5978 25.4083L98.0066 20.58L96.4032 25.4083H99.5978Z" fill="white"/>
<path d="M108.825 21.8494H105.937V28.7063H104.334V21.8494H101.445V20.3428H108.825V21.8494Z" fill="white"/>
<path d="M111.507 21.8494V23.7475H116.128V25.2422H111.507V27.2115H116.364V28.7063H109.904V20.3428H116.364V21.8494H111.507Z" fill="white"/>
<path d="M45.6737 28.5325H43.2453L39.7798 25.3887V28.5325H38.1764V20.1689H42.5028C43.0528 20.1689 43.5399 20.2876 43.9645 20.5248C44.3887 20.7542 44.7188 21.0785 44.9546 21.4976C45.1981 21.9089 45.3199 22.3834 45.3199 22.9212C45.3199 23.4353 45.2059 23.894 44.9783 24.2973C44.7503 24.6928 44.432 25.0012 44.0233 25.2226C43.6147 25.4441 43.1472 25.5548 42.6205 25.5548L42.149 25.5429L45.6737 28.5325ZM39.7798 24.1906H42.3729C42.7345 24.1906 43.0332 24.0719 43.269 23.8346C43.5048 23.5974 43.6225 23.2929 43.6225 22.9212C43.6225 22.5574 43.5048 22.2608 43.269 22.0314C43.0332 21.7942 42.7345 21.6756 42.3729 21.6756H39.7798V24.1906Z" fill="white"/>
<path d="M47.9588 21.6756V23.5737H52.5795V25.0684H47.9588V27.0377H52.8152V28.5325H46.3557V20.1689H52.8152V21.6756H47.9588Z" fill="white"/>
<path d="M60.0591 26.7411H55.8511L55.2615 28.5325H53.5878L56.4877 20.1689H59.5169L62.4169 28.5325H60.6487L60.0591 26.7411ZM59.5524 25.2345L57.9612 20.4062L56.3578 25.2345H59.5524Z" fill="white"/>
<path d="M68.942 27.0377V28.5325H63.0481V20.1689H64.6511V27.0377H68.942Z" fill="white"/>
</g>
<defs>
<clipPath id="clip0_16_473">
<rect width="116.364" height="48" fill="white"/>
</clipPath>
</defs>
</svg>
