<svg width="51" height="51" viewBox="0 0 51 51" fill="none" xmlns="http://www.w3.org/2000/svg">
<rect x="0.666748" y="0.5" width="50" height="50" rx="25" fill="#BCD6FC" fill-opacity="0.32"/>
<path opacity="0.2" d="M38.1574 31.5004C37.9551 33.0122 37.2107 34.3991 36.0625 35.4031C34.9143 36.4071 33.4405 36.9599 31.9152 36.9588C27.2187 36.9588 22.7145 35.0931 19.3936 31.7721C16.0726 28.4512 14.2069 23.947 14.2069 19.2504C14.2057 17.7252 14.7586 16.2514 15.7626 15.1032C16.7666 13.955 18.1535 13.2105 19.6652 13.0083C19.8887 12.9817 20.1148 13.0282 20.3096 13.1409C20.5044 13.2536 20.6575 13.4263 20.746 13.6333L23.4973 19.7791C23.5649 19.9369 23.5924 20.109 23.5774 20.2801C23.5624 20.4512 23.5054 20.6159 23.4113 20.7596L20.6288 24.0681C20.5301 24.2171 20.4717 24.3891 20.4594 24.5673C20.4471 24.7456 20.4812 24.924 20.5585 25.0851C21.6353 27.2895 23.9139 29.5408 26.1249 30.6072C26.2868 30.6841 26.466 30.7175 26.6448 30.704C26.8236 30.6906 26.9958 30.6307 27.1444 30.5304L30.3996 27.7569C30.5439 27.661 30.7098 27.6025 30.8824 27.5868C31.0549 27.5711 31.2287 27.5987 31.3879 27.6671L37.5285 30.4184C37.7364 30.5063 37.9102 30.6593 38.0236 30.8544C38.137 31.0496 38.184 31.2763 38.1574 31.5004Z" fill="white"/>
<path d="M37.9531 29.467L31.8189 26.7183L31.802 26.7105C31.4836 26.5743 31.1362 26.5196 30.7913 26.5515C30.4464 26.5833 30.1149 26.7006 29.8268 26.8928C29.7928 26.9152 29.7602 26.9396 29.7291 26.9657L26.5598 29.6675C24.552 28.6923 22.4791 26.635 21.5038 24.6532L24.2096 21.4358C24.2356 21.4032 24.2603 21.3707 24.2838 21.3355C24.4718 21.0481 24.5859 20.7187 24.6159 20.3766C24.6459 20.0345 24.5909 19.6903 24.4557 19.3746V19.3589L21.6992 13.2144C21.5204 12.802 21.2131 12.4584 20.8231 12.235C20.4331 12.0116 19.9812 11.9204 19.5351 11.9748C17.7707 12.207 16.1512 13.0735 14.979 14.4125C13.8068 15.7514 13.1621 17.4713 13.1653 19.2509C13.1653 29.5894 21.5768 38.0009 31.9153 38.0009C33.6949 38.0041 35.4147 37.3594 36.7537 36.1872C38.0927 35.015 38.9592 33.3954 39.1913 31.6311C39.2459 31.1851 39.1548 30.7334 38.9317 30.3434C38.7085 29.9534 38.3652 29.646 37.9531 29.467ZM31.9153 35.9175C27.4965 35.9127 23.2601 34.1552 20.1355 31.0307C17.011 27.9061 15.2535 23.6697 15.2486 19.2509C15.2437 17.9794 15.7018 16.7496 16.5373 15.7911C17.3729 14.8327 18.5287 14.2111 19.789 14.0425C19.7885 14.0477 19.7885 14.053 19.789 14.0582L22.5234 20.178L19.832 23.3993C19.8046 23.4307 19.7798 23.4643 19.7577 23.4996C19.5618 23.8002 19.4469 24.1464 19.424 24.5046C19.4012 24.8628 19.4713 25.2207 19.6275 25.5438C20.8072 27.9566 23.2382 30.3694 25.677 31.5478C26.0025 31.7025 26.3625 31.7702 26.722 31.7442C27.0814 31.7181 27.428 31.5993 27.7278 31.3993C27.7612 31.3768 27.7934 31.3524 27.8242 31.3264L30.9895 28.6259L37.1093 31.3668C37.1093 31.3668 37.1197 31.3668 37.1236 31.3668C36.9571 32.6288 36.3365 33.787 35.3779 34.6246C34.4192 35.4622 33.1883 35.9218 31.9153 35.9175Z" fill="white"/>
</svg>
