<svg width="20" height="21" viewBox="0 0 20 21" fill="none" xmlns="http://www.w3.org/2000/svg">
<path d="M17.9422 6.56717L7.94217 16.5672C7.88412 16.6253 7.81519 16.6714 7.73932 16.7028C7.66344 16.7343 7.58212 16.7505 7.49998 16.7505C7.41785 16.7505 7.33652 16.7343 7.26064 16.7028C7.18477 16.6714 7.11584 16.6253 7.05779 16.5672L2.68279 12.1922C2.56552 12.0749 2.49963 11.9158 2.49963 11.75C2.49963 11.5841 2.56552 11.4251 2.68279 11.3078C2.80007 11.1905 2.95913 11.1246 3.12498 11.1246C3.29083 11.1246 3.44989 11.1905 3.56717 11.3078L7.49998 15.2414L17.0578 5.68279C17.1751 5.56552 17.3341 5.49963 17.5 5.49963C17.6658 5.49963 17.8249 5.56552 17.9422 5.68279C18.0594 5.80007 18.1253 5.95913 18.1253 6.12498C18.1253 6.29083 18.0594 6.44989 17.9422 6.56717Z" fill="#5393D1"/>
</svg>
