<svg width="48" height="48" viewBox="0 0 48 48" fill="none" xmlns="http://www.w3.org/2000/svg">
<path opacity="0.2" d="M42 24C42 27.5601 40.9443 31.0402 38.9665 34.0003C36.9886 36.9604 34.1774 39.2675 30.8883 40.6298C27.5992 41.9922 23.98 42.3487 20.4884 41.6541C16.9967 40.9596 13.7894 39.2453 11.2721 36.7279C8.75474 34.2106 7.04041 31.0033 6.34587 27.5116C5.65134 24.02 6.0078 20.4008 7.37018 17.1117C8.73255 13.8226 11.0397 11.0114 13.9997 9.03355C16.9598 7.05568 20.4399 6 24 6C28.7739 6 33.3523 7.89642 36.7279 11.2721C40.1036 14.6477 42 19.2261 42 24Z" fill="#5393D1"/>
<path d="M24 4.5C20.1433 4.5 16.3731 5.64366 13.1664 7.78634C9.95963 9.92903 7.46027 12.9745 5.98436 16.5377C4.50845 20.1008 4.12228 24.0216 4.8747 27.8043C5.62711 31.5869 7.4843 35.0615 10.2114 37.7886C12.9386 40.5157 16.4131 42.3729 20.1957 43.1253C23.9784 43.8777 27.8992 43.4916 31.4623 42.0156C35.0255 40.5397 38.071 38.0404 40.2137 34.8336C42.3564 31.6269 43.5 27.8567 43.5 24C43.4945 18.83 41.4383 13.8732 37.7826 10.2174C34.1268 6.56167 29.1701 4.50546 24 4.5ZM24 40.5C20.7366 40.5 17.5465 39.5323 14.8331 37.7192C12.1197 35.9062 10.0048 33.3293 8.756 30.3143C7.50715 27.2993 7.1804 23.9817 7.81705 20.781C8.45371 17.5803 10.0252 14.6403 12.3327 12.3327C14.6403 10.0252 17.5803 8.4537 20.781 7.81704C23.9817 7.18039 27.2993 7.50714 30.3143 8.75599C33.3293 10.0048 35.9062 12.1197 37.7193 14.8331C39.5323 17.5465 40.5 20.7366 40.5 24C40.495 28.3745 38.7551 32.5685 35.6618 35.6618C32.5685 38.7551 28.3746 40.495 24 40.5ZM31.5 27.75C31.5 29.1424 30.9469 30.4777 29.9623 31.4623C28.9778 32.4469 27.6424 33 26.25 33H25.5V34.5C25.5 34.8978 25.342 35.2794 25.0607 35.5607C24.7794 35.842 24.3978 36 24 36C23.6022 36 23.2207 35.842 22.9393 35.5607C22.658 35.2794 22.5 34.8978 22.5 34.5V33H19.5C19.1022 33 18.7207 32.842 18.4393 32.5607C18.158 32.2794 18 31.8978 18 31.5C18 31.1022 18.158 30.7206 18.4393 30.4393C18.7207 30.158 19.1022 30 19.5 30H26.25C26.8467 30 27.419 29.7629 27.841 29.341C28.263 28.919 28.5 28.3467 28.5 27.75C28.5 27.1533 28.263 26.581 27.841 26.159C27.419 25.7371 26.8467 25.5 26.25 25.5H21.75C20.3576 25.5 19.0223 24.9469 18.0377 23.9623C17.0531 22.9777 16.5 21.6424 16.5 20.25C16.5 18.8576 17.0531 17.5223 18.0377 16.5377C19.0223 15.5531 20.3576 15 21.75 15H22.5V13.5C22.5 13.1022 22.658 12.7206 22.9393 12.4393C23.2207 12.158 23.6022 12 24 12C24.3978 12 24.7794 12.158 25.0607 12.4393C25.342 12.7206 25.5 13.1022 25.5 13.5V15H28.5C28.8978 15 29.2794 15.158 29.5607 15.4393C29.842 15.7206 30 16.1022 30 16.5C30 16.8978 29.842 17.2794 29.5607 17.5607C29.2794 17.842 28.8978 18 28.5 18H21.75C21.1533 18 20.581 18.2371 20.159 18.659C19.7371 19.081 19.5 19.6533 19.5 20.25C19.5 20.8467 19.7371 21.419 20.159 21.841C20.581 22.2629 21.1533 22.5 21.75 22.5H26.25C27.6424 22.5 28.9778 23.0531 29.9623 24.0377C30.9469 25.0223 31.5 26.3576 31.5 27.75Z" fill="#5393D1"/>
</svg>
