<svg width="32" height="32" viewBox="0 0 32 32" fill="none" xmlns="http://www.w3.org/2000/svg">
<path d="M16 29C18.5712 29 21.0846 28.2376 23.2224 26.8091C25.3602 25.3806 27.0265 23.3503 28.0104 20.9749C28.9944 18.5994 29.2518 15.9856 28.7502 13.4638C28.2486 10.9421 27.0105 8.62569 25.1924 6.80761C23.3743 4.98953 21.0579 3.7514 18.5362 3.24979C16.0144 2.74818 13.4005 3.00563 11.0251 3.98957C8.64967 4.97351 6.61935 6.63975 5.19089 8.77759C3.76243 10.9154 2.99999 13.4288 2.99999 16C3.00363 19.4467 4.37444 22.7512 6.81163 25.1884C9.24881 27.6256 12.5533 28.9964 16 29ZM16 5C18.1756 5 20.3023 5.64514 22.1113 6.85383C23.9202 8.06253 25.3301 9.78049 26.1627 11.7905C26.9952 13.8005 27.2131 16.0122 26.7886 18.146C26.3642 20.2798 25.3165 22.2398 23.7782 23.7782C22.2398 25.3166 20.2798 26.3642 18.146 26.7886C16.0122 27.2131 13.8005 26.9952 11.7905 26.1627C9.78049 25.3301 8.06252 23.9202 6.85383 22.1113C5.64513 20.3023 4.99999 18.1756 4.99999 16C5.0033 13.0836 6.16329 10.2877 8.22547 8.22548C10.2877 6.1633 13.0836 5.00331 16 5ZM10.2925 14.7075C10.1996 14.6146 10.1259 14.5043 10.0756 14.3829C10.0253 14.2615 9.99944 14.1314 9.99944 14C9.99944 13.8686 10.0253 13.7385 10.0756 13.6171C10.1259 13.4957 10.1996 13.3854 10.2925 13.2925C10.3854 13.1996 10.4957 13.1259 10.6171 13.0756C10.7385 13.0253 10.8686 12.9994 11 12.9994C11.1314 12.9994 11.2615 13.0253 11.3829 13.0756C11.5043 13.1259 11.6146 13.1996 11.7075 13.2925L16 17.5863L20.2925 13.2925C20.3854 13.1996 20.4957 13.1259 20.6171 13.0756C20.7385 13.0253 20.8686 12.9994 21 12.9994C21.1314 12.9994 21.2615 13.0253 21.3829 13.0756C21.5043 13.1259 21.6146 13.1996 21.7075 13.2925C21.8004 13.3854 21.8741 13.4957 21.9244 13.6171C21.9747 13.7385 22.0006 13.8686 22.0006 14C22.0006 14.1314 21.9747 14.2615 21.9244 14.3829C21.8741 14.5043 21.8004 14.6146 21.7075 14.7075L16.7075 19.7075C16.6146 19.8005 16.5043 19.8742 16.3829 19.9246C16.2615 19.9749 16.1314 20.0008 16 20.0008C15.8686 20.0008 15.7385 19.9749 15.6171 19.9246C15.4957 19.8742 15.3854 19.8005 15.2925 19.7075L10.2925 14.7075Z" fill="#00283C"/>
</svg>
