<svg width="124" height="41" viewBox="0 0 124 41" fill="none" xmlns="http://www.w3.org/2000/svg">
<path d="M30.9887 14.7303H16.7503V18.9552H26.8491C26.3487 24.869 21.421 27.4073 16.7673 27.4073C15.2931 27.4138 13.8323 27.1265 12.4703 26.5622C11.1083 25.9979 9.87237 25.168 8.83463 24.1209C7.79688 23.0737 6.97806 21.8303 6.42615 20.4632C5.87424 19.0961 5.60016 17.6328 5.61995 16.1587C5.61995 9.7628 10.5716 4.83849 16.781 4.83849C21.5711 4.83849 24.3937 7.89201 24.3937 7.89201L27.3506 4.82825C27.3506 4.82825 23.5522 0.601074 16.6263 0.601074C7.80689 0.601074 0.984497 8.04441 0.984497 16.0837C0.984497 23.9614 7.40202 31.6436 16.8492 31.6436C25.1591 31.6436 31.2423 25.9505 31.2423 17.5325C31.2423 15.7561 30.9841 14.7303 30.9841 14.7303H30.9887Z" fill="white"/>
<path d="M42.6539 11.6681C36.8107 11.6681 32.6233 16.2365 32.6233 21.5622C32.6233 26.9688 36.6833 31.6213 42.7221 31.6213C48.1878 31.6213 52.6651 27.4441 52.6651 21.6782C52.6651 15.0822 47.4565 11.6681 42.6539 11.6681ZM42.7107 15.5871C45.5834 15.5871 48.306 17.9105 48.306 21.6532C48.306 25.3152 45.5948 27.7057 42.6971 27.7057C39.5128 27.7057 37.0108 25.156 37.0108 21.6237C37.0108 18.1664 39.49 15.5871 42.7198 15.5871H42.7107Z" fill="white"/>
<path d="M64.4669 11.6681C58.6237 11.6681 54.4363 16.2365 54.4363 21.5622C54.4363 26.9688 58.4963 31.6213 64.5351 31.6213C70.0007 31.6213 74.4781 27.4441 74.4781 21.6782C74.4781 15.0822 69.2695 11.6681 64.4669 11.6681ZM64.5237 15.5871C67.3964 15.5871 70.119 17.9105 70.119 21.6532C70.119 25.3152 67.4078 27.7057 64.5101 27.7057C61.3258 27.7057 58.8238 25.156 58.8238 21.6237C58.8238 18.1664 61.303 15.5871 64.5328 15.5871H64.5237Z" fill="white"/>
<path d="M85.8623 11.6802C80.499 11.6802 76.2843 16.377 76.2843 21.6494C76.2843 27.6541 81.1711 31.6367 85.769 31.6367C88.6121 31.6367 90.1253 30.5074 91.2284 29.2121V31.1795C91.2284 34.622 89.1376 36.6839 85.9828 36.6839C82.935 36.6839 81.4065 34.4173 80.8652 33.1322L77.0303 34.7244C78.3905 37.6016 81.129 40.6006 86.0147 40.6006C91.3603 40.6006 95.4112 37.2423 95.4112 30.1981V12.2795H91.2443V13.9695C89.9592 12.582 88.1982 11.6802 85.8645 11.6802H85.8623ZM86.2489 15.5923C88.8783 15.5923 91.5787 17.8373 91.5787 21.671C91.5787 25.5683 88.8828 27.7155 86.1909 27.7155C83.3319 27.7155 80.6718 25.3955 80.6718 21.7073C80.6718 17.8771 83.4354 15.5923 86.2489 15.5923Z" fill="white"/>
<path d="M114.035 11.6592C108.977 11.6592 104.729 15.6851 104.729 21.6215C104.729 27.906 109.463 31.6328 114.509 31.6328C118.731 31.6328 121.333 29.3242 122.868 27.2544L119.419 24.9594C118.524 26.3468 117.027 27.7058 114.531 27.7058C111.726 27.7058 110.437 26.1706 109.637 24.6807L123.015 19.1309L122.333 17.5047C121.041 14.3204 118.025 11.6592 114.035 11.6592ZM114.209 15.4963C116.032 15.4963 117.343 16.4652 117.901 17.6275L108.966 21.3611C108.58 18.4702 111.32 15.4963 114.198 15.4963H114.209Z" fill="white"/>
<path d="M98.3406 31.0408H102.735V1.63477H98.3406V31.0408Z" fill="white"/>
</svg>
