<svg width="135" height="41" viewBox="0 0 135 41" fill="none" xmlns="http://www.w3.org/2000/svg">
<rect width="135" height="41" fill="#F5F5F5"/>
<g clip-path="url(#clip0_0_1)">
<rect width="1440" height="7466" transform="translate(-1135 -6595)" fill="white"/>
<rect width="1440" height="336" transform="translate(-1135 -171)" fill="#001624"/>
<g clip-path="url(#clip1_0_1)">
<path fill-rule="evenodd" clip-rule="evenodd" d="M129.126 40.7556H5.25073C2.52625 40.7556 0.2948 38.5186 0.2948 35.7822V5.94896C0.2948 3.21489 2.52392 0.975586 5.25073 0.975586H129.126C131.85 0.975586 134.082 3.21255 134.082 5.94896V35.7846C134.082 38.5186 131.852 40.7556 129.126 40.7556Z" fill="#FBFBFB"/>
<path d="M56.1325 31.5988C58.4695 31.5988 60.364 29.7049 60.364 27.3687C60.364 25.0325 58.4695 23.1387 56.1325 23.1387C53.7954 23.1387 51.9009 25.0325 51.9009 27.3687C51.9009 29.7049 53.7954 31.5988 56.1325 31.5988Z" fill="#001624"/>
<path d="M65.362 31.5988C67.6991 31.5988 69.5936 29.7049 69.5936 27.3687C69.5936 25.0325 67.6991 23.1387 65.362 23.1387C63.025 23.1387 61.1304 25.0325 61.1304 27.3687C61.1304 29.7049 63.025 31.5988 65.362 31.5988Z" fill="#001624"/>
<path fill-rule="evenodd" clip-rule="evenodd" d="M129.126 0.978516H5.25085C2.52637 0.978516 0.294922 3.21548 0.294922 5.95189V35.7875C0.294922 38.5215 2.52404 40.7609 5.25085 40.7609H129.126C131.85 40.7609 134.082 38.5239 134.082 35.7875V5.94955C134.082 3.21548 131.853 0.978516 129.126 0.978516ZM129.126 1.77341C131.42 1.77341 133.287 3.64693 133.287 5.94955V35.7851C133.287 38.0878 131.42 39.9613 129.126 39.9613H5.25085C2.95631 39.9613 1.08936 38.0878 1.08936 35.7851V5.94955C1.08936 3.64693 2.95631 1.77341 5.25085 1.77341H129.126Z" fill="#001624"/>
<path fill-rule="evenodd" clip-rule="evenodd" d="M47.2884 11.1635C47.2884 11.9982 47.0431 12.6595 46.5501 13.1566C45.9893 13.7451 45.2626 14.0382 44.3654 14.0382C43.5078 14.0382 42.7765 13.7404 42.1783 13.1425C41.5755 12.5469 41.2764 11.8036 41.2764 10.9219C41.2764 10.0379 41.5755 9.29698 42.1783 8.70139C42.7765 8.1058 43.5078 7.80566 44.3654 7.80566C44.7906 7.80566 45.1995 7.89008 45.5851 8.05422C45.9729 8.2207 46.2837 8.44346 46.515 8.72015L45.9916 9.24538C45.5991 8.77407 45.057 8.53725 44.363 8.53725C43.7368 8.53725 43.1971 8.75766 42.7391 9.20083C42.2811 9.644 42.0545 10.2161 42.0545 10.9219C42.0545 11.6277 42.2834 12.1999 42.7391 12.643C43.1947 13.0862 43.7368 13.3043 44.363 13.3043C45.0266 13.3043 45.5804 13.0815 46.0243 12.6384C46.3117 12.3476 46.4776 11.9466 46.522 11.4308H44.363V10.7132H47.244C47.2744 10.868 47.2884 11.0181 47.2884 11.1635Z" fill="#001624"/>
<path d="M47.2884 11.1635C47.2884 11.9982 47.0431 12.6595 46.5501 13.1566C45.9893 13.7451 45.2626 14.0382 44.3654 14.0382C43.5078 14.0382 42.7765 13.7404 42.1783 13.1425C41.5755 12.5469 41.2764 11.8036 41.2764 10.9219C41.2764 10.0379 41.5755 9.29698 42.1783 8.70139C42.7765 8.1058 43.5078 7.80566 44.3654 7.80566C44.7906 7.80566 45.1995 7.89008 45.5851 8.05422C45.9729 8.2207 46.2837 8.44346 46.515 8.72015L45.9916 9.24538C45.5991 8.77407 45.057 8.53725 44.363 8.53725C43.7368 8.53725 43.1971 8.75766 42.7391 9.20083C42.2811 9.644 42.0545 10.2161 42.0545 10.9219C42.0545 11.6277 42.2834 12.1999 42.7391 12.643C43.1947 13.0862 43.7368 13.3043 44.363 13.3043C45.0266 13.3043 45.5804 13.0815 46.0243 12.6384C46.3117 12.3476 46.4776 11.9466 46.522 11.4308H44.363V10.7132H47.244C47.2744 10.868 47.2884 11.0181 47.2884 11.1635Z" stroke="#001624" stroke-width="0.2"/>
<path fill-rule="evenodd" clip-rule="evenodd" d="M51.8565 8.67104H49.1483V10.5633H51.5878V11.2808H49.1483V13.1731H51.8565V13.907H48.3843V7.93945H51.8565V8.67104Z" fill="#001624"/>
<path d="M51.8565 8.67104H49.1483V10.5633H51.5878V11.2808H49.1483V13.1731H51.8565V13.907H48.3843V7.93945H51.8565V8.67104Z" stroke="#001624" stroke-width="0.2"/>
<path fill-rule="evenodd" clip-rule="evenodd" d="M55.0764 13.9051H54.3124V8.67143H52.6511V7.9375H56.7378V8.67143H55.0764V13.9051Z" fill="#001624"/>
<path d="M55.0764 13.9051H54.3124V8.67143H52.6511V7.9375H56.7378V8.67143H55.0764V13.9051Z" stroke="#001624" stroke-width="0.2"/>
<path fill-rule="evenodd" clip-rule="evenodd" d="M59.6935 13.9051H60.4576V7.9375H59.6935V13.9051Z" fill="#001624"/>
<path d="M59.6935 13.9051H60.4576V7.9375H59.6935V13.9051Z" stroke="#001624" stroke-width="0.2"/>
<path fill-rule="evenodd" clip-rule="evenodd" d="M63.8479 13.9051H63.0838V8.67143H61.4225V7.9375H65.5092V8.67143H63.8479V13.9051Z" fill="#001624"/>
<path d="M63.8479 13.9051H63.0838V8.67143H61.4225V7.9375H65.5092V8.67143H63.8479V13.9051Z" stroke="#001624" stroke-width="0.2"/>
<path fill-rule="evenodd" clip-rule="evenodd" d="M69.4465 12.6341C69.8858 13.0819 70.4255 13.3047 71.0634 13.3047C71.699 13.3047 72.2364 13.0819 72.678 12.6341C73.1173 12.1862 73.3393 11.6164 73.3393 10.9223C73.3393 10.2283 73.1173 9.65612 72.678 9.21061C72.2387 8.76275 71.699 8.53999 71.0634 8.53999C70.4255 8.53999 69.8881 8.76509 69.4488 9.21061C69.0095 9.65612 68.7876 10.2283 68.7876 10.9223C68.7876 11.6164 69.0072 12.1862 69.4465 12.6341ZM73.2435 13.1335C72.657 13.7385 71.9326 14.0386 71.0634 14.0386C70.1942 14.0386 69.4675 13.7385 68.8834 13.1335C68.2992 12.5309 68.0071 11.7946 68.0071 10.9223C68.0071 10.0501 68.2992 9.31144 68.8834 8.70882C69.4675 8.1062 70.1919 7.80371 71.0611 7.80371C71.9256 7.80371 72.65 8.10619 73.2364 8.71116C73.8229 9.31612 74.115 10.0524 74.115 10.92C74.1197 11.7946 73.8276 12.5309 73.2435 13.1335Z" fill="#001624"/>
<path d="M69.4465 12.6341C69.8858 13.0819 70.4255 13.3047 71.0634 13.3047C71.699 13.3047 72.2364 13.0819 72.678 12.6341C73.1173 12.1862 73.3393 11.6164 73.3393 10.9223C73.3393 10.2283 73.1173 9.65612 72.678 9.21061C72.2387 8.76275 71.699 8.53999 71.0634 8.53999C70.4255 8.53999 69.8881 8.76509 69.4488 9.21061C69.0095 9.65612 68.7876 10.2283 68.7876 10.9223C68.7876 11.6164 69.0072 12.1862 69.4465 12.6341ZM73.2435 13.1335C72.657 13.7385 71.9326 14.0386 71.0634 14.0386C70.1942 14.0386 69.4675 13.7385 68.8834 13.1335C68.2992 12.5309 68.0071 11.7946 68.0071 10.9223C68.0071 10.0501 68.2992 9.31144 68.8834 8.70882C69.4675 8.1062 70.1919 7.80371 71.0611 7.80371C71.9256 7.80371 72.65 8.10619 73.2364 8.71116C73.8229 9.31612 74.115 10.0524 74.115 10.92C74.1197 11.7946 73.8276 12.5309 73.2435 13.1335Z" stroke="#001624" stroke-width="0.2"/>
<path fill-rule="evenodd" clip-rule="evenodd" d="M75.1922 13.9051V7.9375H76.1222L79.0125 12.5779H79.0453L79.0125 11.4289V7.9375H79.7789V13.9051H78.9798L75.9563 9.03722H75.9235L75.9563 10.1885V13.9051H75.1922Z" fill="#001624"/>
<path d="M75.1922 13.9051V7.9375H76.1222L79.0125 12.5779H79.0453L79.0125 11.4289V7.9375H79.7789V13.9051H78.9798L75.9563 9.03722H75.9235L75.9563 10.1885V13.9051H75.1922Z" stroke="#001624" stroke-width="0.2"/>
<path d="M105.664 18.9111H103.816V31.3434H105.664V18.9111Z" fill="#001624"/>
<path fill-rule="evenodd" clip-rule="evenodd" d="M120.471 23.3896L118.352 28.7804H118.286L116.087 23.3896H114.094L117.394 30.9212L115.513 35.1138H117.44L122.525 23.3896H120.471Z" fill="#001624"/>
<path fill-rule="evenodd" clip-rule="evenodd" d="M110.206 23.1182C108.867 23.1182 107.482 23.7091 106.907 25.0222L108.547 25.7092C108.898 25.0222 109.552 24.7971 110.236 24.7971C111.192 24.7971 112.164 25.3739 112.181 26.3962V26.5252C111.844 26.3329 111.129 26.0469 110.253 26.0469C108.482 26.0469 106.682 27.0223 106.682 28.8442C106.682 30.5091 108.134 31.5806 109.76 31.5806C111.001 31.5806 111.687 31.0202 112.117 30.3637H112.181V31.3227H113.966V26.5557C113.968 24.3492 112.325 23.1182 110.206 23.1182Z" fill="#001624"/>
<path fill-rule="evenodd" clip-rule="evenodd" d="M98.7312 18.9111H94.301V31.3434H96.1492V26.6327H98.7312C100.78 26.6327 102.795 25.1437 102.795 22.7707C102.795 20.4001 100.78 18.9111 98.7312 18.9111Z" fill="#001624"/>
<path fill-rule="evenodd" clip-rule="evenodd" d="M76.6898 24.084H76.6267C76.2108 23.5869 75.4117 23.1367 74.4093 23.1367C72.3017 23.1367 70.3693 24.9962 70.3693 27.3832C70.3693 29.7538 72.3017 31.5969 74.4093 31.5969C75.414 31.5969 76.2132 31.149 76.6267 30.6378H76.6898V31.2451C76.6898 32.8631 75.8276 33.7283 74.4397 33.7283C73.3064 33.7283 72.6031 32.9123 72.3157 32.2229L70.7035 32.8959C71.1661 34.0167 72.3952 35.3955 74.4397 35.3955C76.6127 35.3955 78.447 34.1129 78.447 30.9895V23.3946H76.6898V24.084Z" fill="#001624"/>
<path fill-rule="evenodd" clip-rule="evenodd" d="M79.7251 31.3434H81.578V18.9111H79.7251V31.3434Z" fill="#001624"/>
<path fill-rule="evenodd" clip-rule="evenodd" d="M90.0554 25.8305C89.7049 24.8856 88.6348 23.1387 86.4477 23.1387C84.277 23.1387 82.4731 24.8551 82.4731 27.3687C82.4731 29.7394 84.2607 31.5988 86.6557 31.5988C88.588 31.5988 89.7049 30.4123 90.1699 29.723L88.7329 28.7616C88.2516 29.4674 87.5997 29.9316 86.6557 29.9316C85.714 29.9316 85.0434 29.4978 84.6135 28.649L90.2494 26.3089L90.0554 25.8305Z" fill="#001624"/>
<path fill-rule="evenodd" clip-rule="evenodd" d="M45.1553 24.4383V26.2321H49.4359C49.3074 27.2427 48.9709 27.979 48.4616 28.4902C47.8377 29.1162 46.8633 29.8033 45.1553 29.8033C42.5196 29.8033 40.461 27.6718 40.461 25.0292C40.461 22.3866 42.5219 20.2551 45.1553 20.2551C46.5759 20.2551 47.6134 20.8155 48.3798 21.5354L49.6415 20.2692C48.5714 19.2445 47.1507 18.459 45.1553 18.459C41.5476 18.459 38.5146 21.4088 38.5146 25.0292C38.5146 28.6496 41.5476 31.5971 45.1553 31.5971C47.104 31.5971 48.5714 30.9569 49.721 29.754C50.901 28.5675 51.2702 26.9027 51.2702 25.5568C51.2702 25.1417 51.2398 24.7572 51.1744 24.4359L45.1553 24.4383Z" fill="#001624"/>
<path fill-rule="evenodd" clip-rule="evenodd" d="M22.4015 20.8637L10.3983 8.8418C10.2605 9.12083 10.1787 9.46318 10.1787 9.87821V31.8539C10.1787 32.2737 10.2628 32.623 10.4054 32.9021L22.4015 20.8637Z" fill="#001624"/>
<path fill-rule="evenodd" clip-rule="evenodd" d="M10.4336 8.76525C10.4383 8.75353 10.4453 8.74415 10.4523 8.73242C10.4453 8.74415 10.4406 8.75587 10.4336 8.76525Z" fill="#001624"/>
<path fill-rule="evenodd" clip-rule="evenodd" d="M23.0955 20.1679L26.792 16.4583L12.6976 8.42262C12.2981 8.19282 11.9219 8.08496 11.5854 8.08496C11.4148 8.08496 11.2583 8.11544 11.1134 8.16937L23.0955 20.1679Z" fill="#001624"/>
<path fill-rule="evenodd" clip-rule="evenodd" d="M32.0049 19.4312L27.6845 16.9668L23.7964 20.8686L27.6845 24.761L32.0049 22.2966C33.3881 21.5111 33.3881 20.2191 32.0049 19.4312Z" fill="#001624"/>
<path fill-rule="evenodd" clip-rule="evenodd" d="M23.1048 21.5674L11.1484 33.5706C11.576 33.7159 12.1111 33.6456 12.6976 33.3126L26.8013 25.2675L23.1048 21.5674Z" fill="#001624"/>
<path fill-rule="evenodd" clip-rule="evenodd" d="M10.4219 32.9404C10.478 33.0436 10.541 33.1374 10.6135 33.2171C10.541 33.1327 10.4733 33.0436 10.4219 32.9404Z" fill="#001624"/>
<path d="M56.1326 24.8057C54.8568 24.8057 53.7539 25.8468 53.7539 27.3686C53.7539 28.8739 54.8544 29.9338 56.1326 29.9338C57.4107 29.9338 58.5112 28.8763 58.5112 27.3686C58.5112 25.8468 57.4107 24.8057 56.1326 24.8057Z" fill="white"/>
<path d="M67.7407 27.3686C67.7407 25.8468 66.6402 24.8057 65.3621 24.8057C64.0863 24.8057 62.9834 25.8468 62.9834 27.3686C62.9834 28.8739 64.0839 29.9338 65.3621 29.9338C66.6402 29.9338 67.7407 28.8739 67.7407 27.3686Z" fill="white"/>
<path fill-rule="evenodd" clip-rule="evenodd" d="M74.5684 29.9344C73.2926 29.9344 72.2224 28.8605 72.2224 27.3879C72.2224 25.8966 73.2926 24.8086 74.5707 24.8086C75.8301 24.8086 76.8208 25.8989 76.8208 27.3879C76.8185 28.8605 75.8278 29.932 74.5684 29.9344Z" fill="#FBFBFB"/>
<path fill-rule="evenodd" clip-rule="evenodd" d="M98.7778 24.9022H96.1468V20.6416H98.7778C100.161 20.6416 100.946 21.7906 100.946 22.7707C100.944 23.7344 100.159 24.9022 98.7778 24.9022Z" fill="white"/>
<path fill-rule="evenodd" clip-rule="evenodd" d="M84.3074 27.2421C84.2606 25.6078 85.5691 24.7754 86.5131 24.7754C87.2468 24.7754 87.8707 25.1459 88.0763 25.6735L84.3074 27.2421Z" fill="white"/>
<path fill-rule="evenodd" clip-rule="evenodd" d="M109.982 29.9322C109.377 29.9322 108.531 29.6273 108.531 28.877C108.531 27.9179 109.582 27.5498 110.491 27.5498C111.302 27.5498 111.688 27.7257 112.181 27.9648C112.038 29.1162 111.05 29.9322 109.982 29.9322Z" fill="#FBFBFB"/>
</g>
</g>
<defs>
<clipPath id="clip0_0_1">
<rect width="1440" height="7466" fill="white" transform="translate(-1135 -6595)"/>
</clipPath>
<clipPath id="clip1_0_1">
<rect width="143" height="102" fill="white" transform="translate(-5 -55)"/>
</clipPath>
</defs>
</svg>
