<svg width="117" height="48" viewBox="0 0 117 48" fill="none" xmlns="http://www.w3.org/2000/svg">
<g clip-path="url(#clip0_16_12)">
<path d="M10.6011 18.8435H21.2016C21.2016 14.5116 24.5435 10.974 28.7837 10.6491V0C18.6862 0.324888 10.6011 8.66366 10.6011 18.8435Z" fill="#377E7F"/>
<path d="M10.6005 18.8438H0C0 34.7632 12.9003 47.7226 28.7472 47.7226V37.0737C18.7216 37.0737 10.6005 28.9153 10.6005 18.8438Z" fill="#00283C"/>
<path d="M114.914 8.59705C115.16 8.59705 115.376 8.65887 115.622 8.78254C115.837 8.90622 116.022 9.09172 116.145 9.30813C116.268 9.52453 116.329 9.77185 116.329 10.0192C116.329 10.2665 116.268 10.4829 116.145 10.7303C116.022 10.9467 115.837 11.1322 115.622 11.2558C115.406 11.3795 115.16 11.4413 114.914 11.4413C114.668 11.4413 114.422 11.3795 114.206 11.2558C113.991 11.1322 113.806 10.9467 113.683 10.7303C113.56 10.5138 113.498 10.2665 113.498 10.0192C113.498 9.77185 113.56 9.52453 113.683 9.30813C113.806 9.09172 113.991 8.90622 114.206 8.78254C114.452 8.65887 114.668 8.59705 114.914 8.59705ZM114.914 8.84436C114.729 8.84436 114.514 8.90622 114.329 8.99895C114.145 9.09172 113.991 9.24627 113.898 9.43177C113.806 9.61727 113.744 9.83368 113.744 10.0192C113.744 10.2356 113.806 10.4211 113.898 10.6066C113.991 10.7921 114.145 10.9467 114.329 11.0394C114.514 11.1322 114.698 11.194 114.914 11.194C115.129 11.194 115.314 11.1322 115.499 11.0394C115.683 10.9467 115.837 10.7921 115.93 10.6066C116.022 10.4211 116.083 10.2356 116.083 10.0192C116.083 9.80276 116.022 9.61727 115.93 9.43177C115.837 9.24627 115.683 9.09172 115.499 8.99895C115.283 8.90622 115.099 8.84436 114.914 8.84436ZM114.299 10.823V9.30813H114.821C115.006 9.30813 115.129 9.30813 115.222 9.33904C115.314 9.36995 115.376 9.43177 115.406 9.49362C115.468 9.55545 115.468 9.64818 115.468 9.71003C115.468 9.83368 115.437 9.92644 115.345 9.98826C115.252 10.081 115.16 10.1119 115.037 10.1119C115.099 10.1428 115.129 10.1738 115.16 10.2047C115.222 10.2665 115.283 10.3593 115.376 10.5138L115.56 10.823H115.252L115.129 10.5757C115.037 10.3902 114.945 10.2665 114.883 10.2356C114.852 10.2047 114.76 10.1738 114.698 10.1738H114.545V10.823H114.299ZM114.545 9.95735H114.852C115.006 9.95735 115.099 9.92644 115.129 9.8955C115.191 9.86459 115.222 9.80276 115.222 9.74094C115.222 9.71003 115.222 9.64818 115.191 9.61727C115.16 9.58636 115.129 9.55545 115.099 9.52453C115.068 9.49362 114.975 9.49362 114.852 9.49362H114.576V9.95735H114.545Z" fill="#001624"/>
<path d="M39.9479 16.7273C39.2095 16.3872 38.6246 15.8616 38.194 15.2124C37.7631 14.5632 37.5476 13.7903 37.5476 12.9246C37.5476 12.059 37.7631 11.2861 38.194 10.6369C38.6246 9.98762 39.2095 9.49298 39.9479 9.12198C40.6867 8.7819 41.4867 8.59644 42.3794 8.59644C43.241 8.59644 44.0718 8.7819 44.8721 9.12198V10.8224C44.2257 10.3895 43.3949 10.1731 42.3794 10.1731C41.7945 10.1731 41.2712 10.2968 40.8098 10.5132C40.3481 10.7296 39.9479 11.0388 39.6709 11.4716C39.3942 11.8735 39.2403 12.3681 39.2403 12.9246C39.2403 13.4811 39.3634 13.9758 39.6405 14.4086C39.9172 14.8414 40.2865 15.1506 40.7483 15.367C41.2097 15.5834 41.7638 15.7071 42.3178 15.7071C43.1794 15.7071 44.0102 15.4907 44.8105 15.0888V16.7582C44.0717 17.0673 43.241 17.2219 42.3178 17.2219C41.5175 17.2528 40.6867 17.0673 39.9479 16.7273Z" fill="#001624"/>
<path d="M47.3951 16.6964C46.749 16.3254 46.2257 15.7998 45.8564 15.1506C45.4873 14.5014 45.3026 13.7594 45.3026 12.9246C45.3026 12.0899 45.4873 11.3479 45.8564 10.6987C46.2257 10.0495 46.7183 9.52389 47.3951 9.15289C48.0416 8.7819 48.78 8.59644 49.6111 8.59644C50.4419 8.59644 51.1807 8.7819 51.8268 9.15289C52.4732 9.52389 52.9961 10.0186 53.3655 10.6987C53.7349 11.3479 53.9196 12.0899 53.9196 12.9246C53.9196 13.7594 53.7349 14.5014 53.3655 15.1506C52.9961 15.7998 52.4732 16.3254 51.8268 16.6964C51.1807 17.0674 50.4419 17.2528 49.6111 17.2528C48.78 17.2528 48.0416 17.0674 47.3951 16.6964ZM50.9652 15.3361C51.365 15.0888 51.6728 14.7796 51.8883 14.3468C52.1038 13.9449 52.2269 13.4502 52.2269 12.9246C52.2269 12.3991 52.1038 11.9353 51.8883 11.5334C51.6728 11.1006 51.365 10.7914 50.9652 10.5441C50.565 10.2968 50.1341 10.1731 49.6111 10.1731C49.0878 10.1731 48.6569 10.2968 48.257 10.5441C47.8569 10.7914 47.549 11.1006 47.3336 11.5334C47.1181 11.9353 47.0261 12.43 47.0261 12.9246C47.0261 13.4502 47.1181 13.9449 47.3336 14.3468C47.549 14.7796 47.8569 15.0888 48.257 15.3361C48.6569 15.5834 49.0878 15.7071 49.6111 15.7071C50.1341 15.7071 50.5958 15.5525 50.9652 15.3361Z" fill="#001624"/>
<path d="M67.8603 17.1286H66.1064L64.3521 8.9668L62.6902 17.1286H59.428L57.7664 8.9668L56.0429 17.1286H54.3195L56.1968 8.71948H59.3664L61.0899 16.8813L62.7825 8.71948H65.9524L67.8603 17.1286Z" fill="#001624"/>
<path d="M74.9071 9.05953C75.3688 9.30689 75.7071 9.61603 75.9533 10.0488C76.1996 10.4817 76.3227 10.9763 76.3227 11.5328C76.3227 12.0893 76.1996 12.584 75.9533 13.0168C75.7071 13.4496 75.3688 13.7897 74.9071 14.0061C74.4454 14.2534 73.9532 14.3771 73.3683 14.3771H70.6602V17.1286H69.0598V8.71948H73.3683C73.9532 8.71948 74.4454 8.84312 74.9071 9.05953ZM74.2302 12.4912C74.4761 12.2439 74.5993 11.9347 74.5993 11.5328C74.5993 11.1618 74.4761 10.8527 74.2302 10.6053C73.984 10.358 73.6761 10.2343 73.276 10.2343H70.6602V12.8931H73.276C73.6761 12.8622 73.984 12.7385 74.2302 12.4912Z" fill="#001624"/>
<path d="M78.693 16.6964C78.0465 16.3254 77.5236 15.7998 77.1542 15.1506C76.7848 14.5014 76.6001 13.7594 76.6001 12.9246C76.6001 12.0899 76.7848 11.3479 77.1542 10.6987C77.5236 10.0495 78.0157 9.52389 78.693 9.15289C79.339 8.7819 80.0778 8.59644 80.9086 8.59644C81.7397 8.59644 82.4782 8.7819 83.1246 9.15289C83.7707 9.52389 84.294 10.0186 84.663 10.6987C85.0324 11.3479 85.2171 12.0899 85.2171 12.9246C85.2171 13.7594 85.0324 14.5014 84.663 15.1506C84.294 15.7998 83.7707 16.3254 83.1246 16.6964C82.4782 17.0674 81.7397 17.2528 80.9086 17.2528C80.1086 17.2528 79.3698 17.0674 78.693 16.6964ZM82.2935 15.3361C82.6936 15.0888 83.0014 14.7796 83.2169 14.3468C83.4321 13.9449 83.5552 13.4502 83.5552 12.9246C83.5552 12.3991 83.4321 11.9353 83.2169 11.5334C83.0014 11.1006 82.6936 10.7914 82.2935 10.5441C81.8933 10.2968 81.4627 10.1731 80.9394 10.1731C80.4161 10.1731 79.9855 10.2968 79.5853 10.5441C79.1851 10.7914 78.8776 11.1006 78.6622 11.5334C78.4467 11.9353 78.3543 12.43 78.3543 12.9246C78.3543 13.4502 78.4467 13.9449 78.6622 14.3468C78.8776 14.7796 79.1851 15.0888 79.5853 15.3361C79.9855 15.5834 80.4161 15.7071 80.9394 15.7071C81.4319 15.6762 81.8933 15.5525 82.2935 15.3361Z" fill="#001624"/>
<path d="M87.8299 16.7885C87.2758 16.4793 86.8452 16.0465 86.5066 15.5209C86.1987 14.9954 86.014 14.3771 86.014 13.6969V8.71948H87.6144V13.7897C87.6144 14.1607 87.7067 14.5007 87.8914 14.779C88.0761 15.0572 88.3224 15.3045 88.6298 15.4591C88.9377 15.6137 89.2763 15.7064 89.6764 15.7064C90.0455 15.7064 90.4149 15.6137 90.7227 15.4591C91.0305 15.3045 91.2768 15.0572 91.4611 14.779C91.6458 14.5007 91.7382 14.1607 91.7382 13.7897V8.71948H93.3385V13.666C93.3385 14.3462 93.1846 14.9645 92.8768 15.49C92.5693 16.0156 92.1383 16.4484 91.5535 16.7576C90.9997 17.0668 90.3841 17.2213 89.6764 17.2213C88.9992 17.2522 88.3839 17.0977 87.8299 16.7885Z" fill="#001624"/>
<path d="M102.605 8.71948V17.1286H99.3738L96.4194 8.9668V17.1286H94.8499V8.71948H98.1121L101.036 16.8813V8.71948H102.605Z" fill="#001624"/>
<path d="M110.172 9.24503C110.85 9.58512 111.403 10.0798 111.803 10.729C112.204 11.3782 112.388 12.0893 112.388 12.924C112.388 13.7588 112.204 14.4698 111.803 15.119C111.403 15.7683 110.85 16.2629 110.172 16.603C109.495 16.9431 108.726 17.1286 107.895 17.1286H104.51V8.71948H107.895C108.726 8.71948 109.465 8.90498 110.172 9.24503ZM109.311 15.2736C109.741 15.0572 110.08 14.7171 110.326 14.3152C110.573 13.9133 110.696 13.4187 110.696 12.8931C110.696 12.3676 110.573 11.9038 110.326 11.5019C110.08 11.1 109.741 10.7908 109.311 10.5435C108.88 10.3271 108.418 10.2034 107.864 10.2034H106.11V15.5828H107.864C108.418 15.6137 108.88 15.5209 109.311 15.2736Z" fill="#001624"/>
<path d="M44.6193 35.9894C44.9664 36.18 45.2343 36.4377 45.4237 36.7632C45.6206 37.0886 45.7194 37.4536 45.7194 37.8583C45.7194 38.3264 45.6087 38.7431 45.3882 39.108C45.1673 39.4651 44.8598 39.747 44.4654 39.9533C44.0791 40.1518 43.6336 40.2508 43.1289 40.2508H38.1493V31.859H43.0224C43.5193 31.859 43.9607 31.9542 44.3473 32.1447C44.7414 32.3351 45.0489 32.605 45.2698 32.9541C45.4907 33.2953 45.601 33.6842 45.601 34.1208C45.601 34.5174 45.5144 34.8786 45.3408 35.204C45.1673 35.5213 44.9268 35.7831 44.6193 35.9894ZM39.7581 35.3824H42.8806C43.1803 35.3824 43.4246 35.2871 43.614 35.0968C43.8031 34.8983 43.8978 34.6485 43.8978 34.3468C43.8978 34.0452 43.8031 33.7993 43.614 33.6088C43.4246 33.4104 43.1803 33.3112 42.8806 33.3112H39.7581V35.3824ZM42.9987 38.7986C43.2984 38.7986 43.543 38.6995 43.732 38.5011C43.9215 38.3026 44.0162 38.0486 44.0162 37.7392C44.0162 37.4219 43.9215 37.1639 43.732 36.9657C43.543 36.7673 43.2984 36.6679 42.9987 36.6679H39.7581V38.7986H42.9987Z" fill="#001624"/>
<path d="M50.5126 40.37C49.6849 40.37 48.9434 40.1875 48.2892 39.8223C47.6424 39.4495 47.1377 38.9375 46.7751 38.287C46.4125 37.6282 46.2308 36.8824 46.2308 36.049C46.2308 35.2156 46.4125 34.4738 46.7751 33.8231C47.1377 33.1644 47.6424 32.6526 48.2892 32.2876C48.9434 31.9225 49.6849 31.74 50.5126 31.74C51.3407 31.74 52.0778 31.9225 52.7245 32.2876C53.3791 32.6526 53.8875 33.1644 54.2505 33.8231C54.6209 34.4738 54.8062 35.2156 54.8062 36.049C54.8062 36.8824 54.6209 37.6282 54.2505 38.287C53.8875 38.9375 53.3791 39.4495 52.7245 39.8223C52.0778 40.1875 51.3407 40.37 50.5126 40.37ZM50.5126 38.8105C51.0251 38.8105 51.4746 38.6917 51.8609 38.4534C52.2554 38.2155 52.5588 37.89 52.7719 37.4774C52.9924 37.057 53.1031 36.5807 53.1031 36.049C53.1031 35.5332 52.9924 35.0689 52.7719 34.6563C52.5588 34.2359 52.2554 33.9064 51.8609 33.6684C51.4746 33.4303 51.0251 33.3113 50.5126 33.3113C50.0001 33.3113 49.5469 33.4303 49.1524 33.6684C48.7661 33.9064 48.4664 34.2359 48.2537 34.6563C48.0406 35.0689 47.9343 35.5332 47.9343 36.049C47.9343 36.5807 48.0406 37.057 48.2537 37.4774C48.4664 37.89 48.7661 38.2155 49.1524 38.4534C49.5469 38.6917 50.0001 38.8105 50.5126 38.8105Z" fill="#001624"/>
<path d="M63.6401 31.9781V40.3701H60.4347L57.4776 32.2162V40.3701H55.9165V31.9781H59.1693L62.0787 40.1321V31.9781H63.6401Z" fill="#001624"/>
<path d="M68.2635 31.9781C69.0994 31.9781 69.8601 32.1527 70.5462 32.5019C71.2325 32.851 71.7724 33.3431 72.1668 33.9779C72.569 34.6128 72.7699 35.3427 72.7699 36.1682C72.7699 36.9934 72.569 37.7274 72.1668 38.3704C71.7724 39.005 71.2325 39.4972 70.5462 39.8462C69.8601 40.1954 69.0994 40.3701 68.2635 40.3701H64.9045V31.9781H68.2635ZM68.2635 38.8702C68.7919 38.8702 69.2689 38.7592 69.6947 38.5369C70.1206 38.3068 70.4555 37.9854 70.7001 37.5728C70.9446 37.1602 71.0667 36.6918 71.0667 36.1682C71.0667 35.6443 70.9446 35.1803 70.7001 34.7755C70.4555 34.3629 70.1206 34.0453 69.6947 33.8232C69.2689 33.601 68.7919 33.4899 68.2635 33.4899H66.513V38.8702H68.2635Z" fill="#001624"/>
<path d="M76.5449 40.4238C75.9932 40.4238 75.4215 40.3683 74.8299 40.257C74.2464 40.146 73.7539 39.9874 73.3517 39.7811V38.1024C73.7772 38.3485 74.3056 38.5392 74.9365 38.674C75.5751 38.801 76.1745 38.8643 76.7343 38.8643C77.5151 38.8643 78.059 38.7809 78.3665 38.6144C78.674 38.4476 78.8279 38.2413 78.8279 37.9955C78.8279 37.7971 78.7409 37.6302 78.5678 37.4954C78.3942 37.3606 78.1774 37.2534 77.9173 37.1741C77.6568 37.0948 77.2901 36.9994 76.8172 36.8885C76.1231 36.7298 75.5514 36.5708 75.1022 36.4122C74.6604 36.2457 74.2782 35.9955 73.9548 35.6622C73.6314 35.329 73.4697 34.8888 73.4697 34.3411C73.4697 33.8888 73.5881 33.4722 73.8246 33.0913C74.0692 32.7104 74.4632 32.4009 75.0075 32.1628C75.5596 31.9168 76.273 31.7938 77.1484 31.7938C77.6135 31.7938 78.0945 31.8295 78.5914 31.901C79.088 31.9644 79.502 32.0636 79.8332 32.1986V33.9007C79.5257 33.742 79.0921 33.615 78.5322 33.5198C77.9724 33.4166 77.4518 33.3651 76.9708 33.3651C76.2929 33.3651 75.8156 33.4405 75.5396 33.5912C75.2717 33.742 75.1377 33.9285 75.1377 34.1508C75.1377 34.3411 75.2203 34.4997 75.386 34.6267C75.5514 34.7458 75.7605 34.8449 76.0128 34.9245C76.273 34.9957 76.6319 35.0832 77.0892 35.1863C77.7911 35.345 78.3705 35.5077 78.8279 35.6742C79.2852 35.8331 79.6793 36.083 80.0105 36.4241C80.342 36.7656 80.5074 37.2177 80.5074 37.7811C80.5074 38.289 80.3653 38.7414 80.0815 39.138C79.8055 39.5349 79.3718 39.8485 78.7805 40.0786C78.1892 40.3087 77.444 40.4238 76.5449 40.4238Z" fill="#001624"/>
<path d="M73.786 21.8493V23.7474H78.4067V25.2421H73.786V27.2114H78.6425V28.7062H72.183V20.3427H78.6425V21.8493H73.786Z" fill="#001624"/>
<path d="M83.0339 28.8249C82.4839 28.8249 81.9143 28.7695 81.3247 28.6588C80.7432 28.5481 80.252 28.3899 79.8512 28.1843V26.5116C80.2757 26.7568 80.8021 26.9466 81.4309 27.081C82.0675 27.2075 82.6646 27.2708 83.2227 27.2708C84.0007 27.2708 84.543 27.1878 84.8494 27.0217C85.1559 26.8556 85.3091 26.65 85.3091 26.4048C85.3091 26.2071 85.2225 26.041 85.0497 25.9066C84.8768 25.7721 84.6607 25.6653 84.4012 25.5863C84.1421 25.5072 83.7768 25.4123 83.3052 25.3015C82.6135 25.1434 82.0438 24.9852 81.596 24.827C81.1559 24.6609 80.7747 24.4118 80.4523 24.0796C80.1303 23.7475 79.9693 23.3085 79.9693 22.7628C79.9693 22.312 80.087 21.8968 80.3227 21.5172C80.5663 21.1376 80.9594 20.8292 81.5016 20.5919C82.0516 20.3467 82.763 20.2241 83.635 20.2241C84.0988 20.2241 84.5781 20.2597 85.0734 20.3309C85.5682 20.3942 85.9809 20.493 86.3111 20.6275V22.3239C86.0046 22.1657 85.5723 22.0392 85.0145 21.9443C84.4564 21.8414 83.9378 21.79 83.4585 21.79C82.7826 21.79 82.307 21.8652 82.032 22.0154C81.7648 22.1657 81.6312 22.3516 81.6312 22.573C81.6312 22.7628 81.7137 22.921 81.8788 23.0475C82.0438 23.1662 82.2522 23.265 82.5035 23.3441C82.763 23.4153 83.1205 23.5023 83.5762 23.6051C84.2757 23.7633 84.8531 23.9254 85.3091 24.0915C85.7648 24.2497 86.1578 24.4988 86.488 24.8389C86.8178 25.1789 86.9829 25.6298 86.9829 26.1913C86.9829 26.6974 86.8415 27.1482 86.5587 27.5437C86.2837 27.9391 85.8514 28.2515 85.2618 28.4809C84.6725 28.7102 83.93 28.8249 83.0339 28.8249Z" fill="#001624"/>
<path d="M94.5147 21.8493H91.6265V28.7062H90.0235V21.8493H87.1354V20.3427H94.5147V21.8493Z" fill="#001624"/>
<path d="M100.105 26.9148H95.8965L95.3073 28.7062H93.6332L96.5331 20.3427H99.5626L102.462 28.7062H100.694L100.105 26.9148ZM99.5978 25.4082L98.0066 20.5799L96.4032 25.4082H99.5978Z" fill="#001624"/>
<path d="M108.825 21.8493H105.937V28.7062H104.334V21.8493H101.445V20.3427H108.825V21.8493Z" fill="#001624"/>
<path d="M111.507 21.8493V23.7474H116.128V25.2421H111.507V27.2114H116.364V28.7062H109.904V20.3427H116.364V21.8493H111.507Z" fill="#001624"/>
<path d="M45.6737 28.5325H43.2453L39.7798 25.3887V28.5325H38.1764V20.1689H42.5028C43.0528 20.1689 43.5399 20.2876 43.9645 20.5248C44.3887 20.7542 44.7188 21.0785 44.9546 21.4976C45.1981 21.9089 45.3199 22.3834 45.3199 22.9212C45.3199 23.4353 45.2059 23.894 44.9783 24.2973C44.7503 24.6928 44.432 25.0012 44.0233 25.2226C43.6147 25.4441 43.1472 25.5548 42.6205 25.5548L42.149 25.5429L45.6737 28.5325ZM39.7798 24.1906H42.3729C42.7345 24.1906 43.0332 24.0719 43.269 23.8346C43.5048 23.5974 43.6225 23.2929 43.6225 22.9212C43.6225 22.5574 43.5048 22.2608 43.269 22.0314C43.0332 21.7942 42.7345 21.6756 42.3729 21.6756H39.7798V24.1906Z" fill="#001624"/>
<path d="M47.9588 21.6756V23.5737H52.5795V25.0684H47.9588V27.0377H52.8152V28.5325H46.3557V20.1689H52.8152V21.6756H47.9588Z" fill="#001624"/>
<path d="M60.0591 26.7411H55.8511L55.2615 28.5325H53.5878L56.4877 20.1689H59.5169L62.4169 28.5325H60.6487L60.0591 26.7411ZM59.5524 25.2345L57.9612 20.4062L56.3578 25.2345H59.5524Z" fill="#001624"/>
<path d="M68.942 27.0377V28.5325H63.0481V20.1689H64.6511V27.0377H68.942Z" fill="#001624"/>
</g>
<defs>
<clipPath id="clip0_16_12">
<rect width="116.364" height="48" fill="white"/>
</clipPath>
</defs>
</svg>
