<svg width="51" height="51" viewBox="0 0 51 51" fill="none" xmlns="http://www.w3.org/2000/svg">
<rect x="0.333374" y="0.166504" width="50" height="50" rx="25" fill="#BCD6FC" fill-opacity="0.32"/>
<path opacity="0.2" d="M37.8319 15.792L25.3319 27.2503L12.8319 15.792H37.8319Z" fill="white"/>
<path d="M37.832 14.7505H12.8319C12.5557 14.7505 12.2907 14.8602 12.0954 15.0556C11.9 15.2509 11.7903 15.5159 11.7903 15.7922V33.5005C11.7903 34.053 12.0098 34.5829 12.4005 34.9736C12.7912 35.3643 13.3211 35.5838 13.8736 35.5838H36.7903C37.3428 35.5838 37.8727 35.3643 38.2634 34.9736C38.6541 34.5829 38.8736 34.053 38.8736 33.5005V15.7922C38.8736 15.5159 38.7639 15.2509 38.5685 15.0556C38.3732 14.8602 38.1082 14.7505 37.832 14.7505ZM25.332 25.8377L15.5103 16.8338H35.1536L25.332 25.8377ZM21.5181 25.1672L13.8736 32.1737V18.1606L21.5181 25.1672ZM23.0598 26.5799L24.6223 28.0187C24.8145 28.1951 25.0659 28.293 25.3267 28.293C25.5876 28.293 25.839 28.1951 26.0312 28.0187L27.5937 26.5799L35.1458 33.5005H15.5103L23.0598 26.5799ZM29.1458 25.1672L36.7903 18.1593V32.175L29.1458 25.1672Z" fill="white"/>
</svg>
