<svg width="48" height="48" viewBox="0 0 48 48" fill="none" xmlns="http://www.w3.org/2000/svg">
<path opacity="0.2" d="M45 21V27C45 27.7956 44.6839 28.5587 44.1213 29.1213C43.5587 29.6839 42.7957 30 42 30H40.5L37.1063 39.5044C37.0022 39.7959 36.8104 40.0481 36.5573 40.2264C36.3042 40.4047 36.0021 40.5002 35.6925 40.5H33.3075C32.9979 40.5002 32.6959 40.4047 32.4427 40.2264C32.1896 40.0481 31.9979 39.7959 31.8938 39.5044L31.1794 37.5H18.3206L17.6063 39.5044C17.5022 39.7959 17.3104 40.0481 17.0573 40.2264C16.8042 40.4047 16.5021 40.5002 16.1925 40.5H13.8075C13.4979 40.5002 13.1959 40.4047 12.9427 40.2264C12.6896 40.0481 12.4979 39.7959 12.3938 39.5044L9.93751 32.625C7.40128 29.8635 5.99583 26.2495 6.00001 22.5C6.00001 18.5218 7.58036 14.7064 10.3934 11.8934C13.2065 9.08035 17.0218 7.5 21 7.5H27C29.9271 7.49915 32.7904 8.35471 35.2372 9.96124C37.684 11.5678 39.6072 13.8551 40.77 16.5413C40.9757 17.018 41.1572 17.5049 41.3138 18H42C42.7957 18 43.5587 18.3161 44.1213 18.8787C44.6839 19.4413 45 20.2044 45 21Z" fill="#5393D1"/>
<path d="M36 21.75C36 22.195 35.868 22.63 35.6208 23C35.3736 23.37 35.0222 23.6584 34.611 23.8287C34.1999 23.999 33.7475 24.0436 33.3111 23.9568C32.8746 23.87 32.4737 23.6557 32.159 23.341C31.8443 23.0263 31.6301 22.6254 31.5432 22.189C31.4564 21.7525 31.501 21.3001 31.6713 20.889C31.8416 20.4778 32.13 20.1264 32.5 19.8792C32.87 19.632 33.305 19.5 33.75 19.5C34.3467 19.5 34.919 19.7371 35.341 20.159C35.7629 20.581 36 21.1533 36 21.75ZM28.5 12H21C20.6022 12 20.2206 12.158 19.9393 12.4393C19.658 12.7206 19.5 13.1022 19.5 13.5C19.5 13.8978 19.658 14.2794 19.9393 14.5607C20.2206 14.842 20.6022 15 21 15H28.5C28.8978 15 29.2794 14.842 29.5607 14.5607C29.842 14.2794 30 13.8978 30 13.5C30 13.1022 29.842 12.7206 29.5607 12.4393C29.2794 12.158 28.8978 12 28.5 12ZM46.5 21V27C46.5 28.1935 46.0259 29.3381 45.182 30.182C44.3381 31.0259 43.1935 31.5 42 31.5H41.5575L38.5181 40.0088C38.31 40.5916 37.9268 41.0958 37.4209 41.4523C36.9151 41.8087 36.3114 42.0001 35.6925 42H33.3075C32.6887 42.0001 32.0849 41.8087 31.5791 41.4523C31.0732 41.0958 30.69 40.5916 30.4819 40.0088L30.1219 39H19.3781L19.0181 40.0088C18.81 40.5916 18.4268 41.0958 17.9209 41.4523C17.4151 41.8087 16.8114 42.0001 16.1925 42H13.8075C13.1887 42.0001 12.5849 41.8087 12.0791 41.4523C11.5732 41.0958 11.19 40.5916 10.9819 40.0088L8.625 33.4163C6.38284 30.8786 4.9789 27.7106 4.605 24.345C4.12092 24.5993 3.71553 24.981 3.43265 25.4489C3.14978 25.9169 3.00017 26.4532 3 27C3 27.3978 2.84196 27.7794 2.56066 28.0607C2.27936 28.342 1.89782 28.5 1.5 28.5C1.10218 28.5 0.720644 28.342 0.43934 28.0607C0.158035 27.7794 0 27.3978 0 27C0.00229196 25.6623 0.451542 24.3637 1.27638 23.3106C2.10121 22.2575 3.25432 21.5102 4.5525 21.1875C4.8876 17.0537 6.76504 13.1972 9.81203 10.3836C12.859 7.57004 16.8527 6.00527 21 6H40.5C40.8978 6 41.2794 6.15804 41.5607 6.43934C41.842 6.72064 42 7.10218 42 7.5C42 7.89782 41.842 8.27936 41.5607 8.56066C41.2794 8.84196 40.8978 9 40.5 9H36.4894C38.9787 10.7466 40.9365 13.1476 42.1463 15.9375C42.2269 16.125 42.3056 16.3125 42.3806 16.5C43.507 16.5956 44.556 17.1116 45.3193 17.9454C46.0825 18.7791 46.5041 19.8696 46.5 21ZM43.5 21C43.5 20.6022 43.342 20.2206 43.0607 19.9393C42.7794 19.658 42.3978 19.5 42 19.5H41.3138C40.9943 19.5003 40.6831 19.3987 40.4254 19.2098C40.1677 19.0209 39.9771 18.7548 39.8813 18.45C39.0219 15.7075 37.3085 13.3114 34.9912 11.6114C32.6739 9.91138 29.874 8.99641 27 9H21C18.3801 8.99986 15.8168 9.76206 13.6226 11.1936C11.4284 12.6252 9.69814 14.6643 8.64286 17.0623C7.58759 19.4603 7.25286 22.1135 7.67951 24.6984C8.10615 27.2834 9.27573 29.6883 11.0456 31.62C11.181 31.7672 11.2855 31.9399 11.3531 32.1281L13.8075 39H16.1925L16.9088 36.9956C17.0127 36.7044 17.2042 36.4524 17.457 36.2741C17.7097 36.0959 18.0114 36.0002 18.3206 36H31.1794C31.4886 36.0002 31.7903 36.0959 32.043 36.2741C32.2958 36.4524 32.4873 36.7044 32.5913 36.9956L33.3075 39H35.6925L39.0881 29.4956C39.1921 29.2044 39.3836 28.9524 39.6363 28.7741C39.8891 28.5959 40.1907 28.5002 40.5 28.5H42C42.3978 28.5 42.7794 28.342 43.0607 28.0607C43.342 27.7794 43.5 27.3978 43.5 27V21Z" fill="#5393D1"/>
</svg>
