<svg width="56" height="56" viewBox="0 0 56 56" fill="none" xmlns="http://www.w3.org/2000/svg">
<g clip-path="url(#clip0_14_190)">
<path d="M1.3125 19.3593C1.55383 19.5379 1.55383 19.5379 1.77994 19.7716C1.86571 19.8589 1.95149 19.9461 2.03987 20.036C2.13046 20.1308 2.22106 20.2255 2.3144 20.3232C2.40928 20.4199 2.50416 20.5166 2.60192 20.6162C2.90489 20.9251 3.20604 21.2358 3.50684 21.5468C3.80804 21.8579 4.10983 22.1683 4.41293 22.4775C4.60149 22.6698 4.78899 22.8632 4.97534 23.0577C5.06077 23.1449 5.1462 23.2322 5.23422 23.322C5.30875 23.3992 5.38328 23.4763 5.46006 23.5558C5.7234 23.7625 5.90264 23.817 6.23438 23.8437C6.46274 23.7188 6.46274 23.7188 6.65821 23.5156C6.73265 23.4454 6.80709 23.3752 6.88379 23.3028C6.95824 23.2287 7.03268 23.1545 7.10938 23.0781C7.21766 22.9702 7.21766 22.9702 7.32813 22.8602C7.45874 22.729 7.58845 22.597 7.71692 22.4637C7.94761 22.243 8.08059 22.2046 8.40137 22.1689C8.84261 22.2122 9.00609 22.307 9.29688 22.6406C9.37891 22.9961 9.37891 22.9961 9.29688 23.4062C9.12097 23.65 8.93151 23.8604 8.7201 24.074C8.53175 24.2807 8.43139 24.468 8.3125 24.7187C8.41464 24.8203 8.51678 24.9218 8.62202 25.0265C9 25.4025 9.37762 25.7789 9.75513 26.1553C9.91873 26.3184 10.0824 26.4813 10.2462 26.6442C10.4813 26.878 10.7161 27.1121 10.9507 27.3463C11.0243 27.4193 11.098 27.4924 11.1738 27.5676C11.2417 27.6355 11.3095 27.7033 11.3795 27.7733C11.4395 27.833 11.4994 27.8928 11.5613 27.9543C11.8486 28.2682 11.8285 28.5276 11.8356 28.9408C11.8387 29.0644 11.8418 29.1881 11.845 29.3155C11.8506 29.5752 11.8555 29.835 11.8595 30.0948C11.8791 30.8156 11.9196 31.3996 12.25 32.0468C12.4698 32.265 12.4698 32.265 12.6875 32.375C12.7509 32.3222 12.8144 32.2695 12.8798 32.2152C12.9652 32.1461 13.0506 32.077 13.1387 32.0058C13.2224 31.9373 13.3062 31.8688 13.3925 31.7982C14.1146 31.3102 14.9067 31.2963 15.75 31.3906C16.8011 31.7036 17.4036 32.4414 17.9375 33.3593C18.0208 33.341 18.1042 33.3227 18.19 33.3038C19.1918 33.1062 19.8743 33.1128 20.7539 33.6533C21.3868 34.1073 21.824 34.6649 21.9844 35.4375C22.0448 36.6196 22.0448 36.6196 21.875 37.1875C21.9472 37.192 22.0194 37.1965 22.0938 37.2011C22.8331 37.4168 23.3669 37.9402 23.7455 38.5982C23.9031 38.967 23.9317 39.304 23.9531 39.7031C24.0749 39.6941 24.1968 39.685 24.3223 39.6757C25.1301 39.6815 25.8056 39.9918 26.4004 40.5302C27.016 41.2007 27.3036 42.036 27.266 42.9435C27.2344 43.2031 27.2344 43.2031 27.1494 43.4532C27.0514 43.7523 27.0033 43.9813 27.0156 44.2968C27.2633 44.7149 27.5987 45.0141 27.959 45.3359C28.0502 45.423 28.1414 45.5102 28.2354 45.5999C28.8931 46.2443 28.8931 46.2443 29.7432 46.5185C30.1282 46.4792 30.3207 46.3929 30.625 46.1562C30.822 45.8935 30.8488 45.6895 30.9053 45.3632C30.7422 44.2758 29.2556 43.2512 28.4864 42.4969C28.3026 42.3164 28.1194 42.1351 27.9363 41.9538C27.8519 41.8716 27.8519 41.8716 27.7658 41.7877C27.4915 41.5154 27.253 41.2754 27.125 40.9062C27.1443 40.5396 27.1728 40.2528 27.3506 39.9287C27.7038 39.735 28.0523 39.7331 28.4375 39.8125C28.752 40.0121 28.9897 40.2701 29.2416 40.5426C29.314 40.6171 29.3865 40.6916 29.4612 40.7683C29.6918 41.006 29.9192 41.2464 30.1465 41.4873C30.375 41.7265 30.6041 41.965 30.8341 42.2027C30.9769 42.3505 31.1187 42.4992 31.2593 42.649C31.6362 43.0424 31.9648 43.3335 32.4844 43.5312C32.9561 43.5312 33.1846 43.4678 33.5713 43.1963C33.8077 42.8596 33.858 42.6464 33.8588 42.2362C33.6813 41.5594 33.1157 41.0784 32.6267 40.6127C32.484 40.4738 32.3413 40.3349 32.1988 40.1959C31.9755 39.9794 31.7518 39.7635 31.5269 39.5487C31.3087 39.3398 31.0925 39.1288 30.8766 38.9174C30.8092 38.854 30.7418 38.7906 30.6723 38.7254C30.343 38.4001 30.2006 38.2217 30.0799 37.7625C30.0781 37.4062 30.0781 37.4062 30.2354 37.0849C30.547 36.8341 30.7586 36.7651 31.1601 36.7944C32.1508 37.0734 33.1293 38.488 33.8386 39.2166C34.018 39.4008 34.1985 39.5838 34.3792 39.7668C34.4335 39.823 34.4877 39.8793 34.5436 39.9373C34.8554 40.2514 35.1185 40.4574 35.5469 40.5781C35.9865 40.5689 36.1648 40.4993 36.5107 40.2226C36.7625 39.9062 36.8594 39.7758 36.8594 39.375C36.6341 38.6932 36.2763 38.3012 35.7614 37.8121C35.6868 37.7392 35.6123 37.6663 35.5355 37.5913C35.2988 37.3599 35.0607 37.13 34.8223 36.9004C34.5074 36.5971 34.194 36.2925 33.8815 35.9869C33.8089 35.918 33.7363 35.849 33.6616 35.778C33.0397 35.1695 33.0397 35.1695 33.0313 34.6718C33.1179 34.3081 33.2078 34.1601 33.4961 33.9199C33.8907 33.7585 34.0438 33.7807 34.4531 33.9062C34.756 34.1357 35.0127 34.4047 35.2751 34.6787C35.3514 34.7559 35.4276 34.8332 35.5062 34.9128C35.7489 35.1594 35.9897 35.4077 36.2305 35.6562C36.4731 35.9043 36.7162 36.1521 36.9595 36.3996C37.1106 36.5536 37.2613 36.7081 37.4115 36.863C37.4795 36.9327 37.5474 37.0024 37.6174 37.0742C37.6771 37.1359 37.7368 37.1975 37.7984 37.2609C38.1324 37.5745 38.4704 37.5591 38.9089 37.5528C39.1875 37.5294 39.1875 37.5294 39.4844 37.29C39.7463 36.9054 39.8125 36.6677 39.8125 36.2031C39.5875 35.7473 39.278 35.4244 38.9185 35.0689C38.8622 35.013 38.806 34.9571 38.748 34.8995C38.6265 34.7788 38.5048 34.6584 38.3828 34.5382C38.1897 34.3479 37.9973 34.1569 37.805 33.9657C37.397 33.5602 36.9881 33.1555 36.5791 32.7509C36.1046 32.2816 35.6305 31.812 35.1573 31.3414C34.9679 31.1534 34.7778 30.966 34.5877 30.7787C34.4715 30.6633 34.3554 30.5479 34.2393 30.4325C34.1378 30.3321 34.0363 30.2317 33.9317 30.1283C33.7168 29.8916 33.5749 29.7207 33.4688 29.4218C33.488 29.0552 33.5166 28.7684 33.6943 28.4443C34.0675 28.2397 34.3811 28.2117 34.7813 28.3281C35.0263 28.5105 35.0263 28.5105 35.2845 28.7526C35.4284 28.887 35.4284 28.887 35.5752 29.0241C36.0742 29.5041 36.5686 29.9882 37.0585 30.4776C37.1673 30.586 37.276 30.6944 37.3848 30.8028C37.6102 31.0275 37.8354 31.2525 38.0604 31.4776C38.3491 31.7663 38.6386 32.0543 38.9283 32.3422C39.152 32.5646 39.3752 32.7876 39.5983 33.0107C39.7049 33.1172 39.8118 33.2236 39.9188 33.3298C40.0672 33.4771 40.2148 33.6252 40.3624 33.7733C40.4466 33.8573 40.5307 33.9413 40.6174 34.0278C40.7969 34.2343 40.7969 34.2343 40.7969 34.4531C41.421 33.9232 42.004 33.3649 42.5755 32.7791C42.7446 32.6076 42.9137 32.4362 43.0829 32.2647C43.3462 31.9973 43.6091 31.7296 43.8713 31.4611C44.1265 31.1999 44.3831 30.9401 44.64 30.6805C44.7572 30.5594 44.7572 30.5594 44.8768 30.4358C44.9506 30.3616 45.0244 30.2874 45.1004 30.211C45.1645 30.1456 45.2287 30.0801 45.2948 30.0127C45.5461 29.8249 45.737 29.783 46.0469 29.75C46.4106 29.8366 46.5586 29.9265 46.7988 30.2148C46.9549 30.5962 46.9189 30.776 46.8125 31.1718C46.6098 31.4337 46.6098 31.4337 46.3417 31.6891C46.2417 31.7859 46.1417 31.8827 46.0386 31.9824C45.9581 32.0586 45.9581 32.0586 45.8759 32.1362C45.7066 32.2964 45.5394 32.4585 45.3726 32.6212C44.8982 33.0832 44.4207 33.542 43.9413 33.9988C43.6476 34.279 43.3564 34.5616 43.0665 34.8457C42.9562 34.9528 42.845 35.059 42.7328 35.1642C42.0806 35.7757 41.6663 36.2277 41.5884 37.1397C41.5245 37.7977 41.1815 38.2596 40.708 38.6982C40.0753 39.2114 39.5537 39.4261 38.7188 39.375C38.712 39.5171 38.7052 39.6592 38.6982 39.8056C38.6092 40.5815 38.2661 41.1924 37.6865 41.7129C37.035 42.2187 36.4682 42.3851 35.6562 42.4375C35.6675 42.5412 35.6788 42.645 35.6904 42.7519C35.6863 43.431 35.3471 44.0204 34.9128 44.5254C34.3514 45.0566 33.7286 45.3791 32.9471 45.3979C32.8263 45.3943 32.8263 45.3943 32.7031 45.3906C32.7027 45.4919 32.7027 45.4919 32.7023 45.5952C32.6619 46.4783 32.3714 47.0659 31.7226 47.6682C30.9042 48.317 30.1253 48.4489 29.0938 48.3437C27.6928 47.9776 26.6811 46.5997 25.7031 45.6093C25.242 45.9933 24.8138 46.3863 24.4043 46.8261C23.6494 47.5777 23.1013 47.8155 22.0322 47.8515C21.1704 47.8265 20.68 47.6573 20.043 47.0927C19.4198 46.383 19.1429 45.9025 19.0313 44.9531C18.9454 44.9357 18.8595 44.9184 18.7711 44.9005C17.7547 44.6748 17.096 44.3867 16.5156 43.5047C16.2311 43.0046 16.1604 42.5698 16.1875 42C16.0686 41.9839 16.0686 41.9839 15.9474 41.9675C15.0004 41.821 14.4241 41.5243 13.7813 40.7968C13.3783 40.2148 13.2663 39.7503 13.2344 39.0468C13.1081 39.0378 12.9817 39.0288 12.8516 39.0195C12.0554 38.918 11.4589 38.5614 10.9375 37.9531C10.4609 37.3267 10.2234 36.6976 10.2466 35.901C10.3661 35.0562 10.7394 34.3452 11.2656 33.6875C11.2233 33.6436 11.181 33.5998 11.1375 33.5546C10.3937 32.7427 10.0707 31.8826 10.0279 30.7869C10.0233 30.6752 10.0187 30.5634 10.014 30.4483C10.0097 30.3329 10.0054 30.2175 10.001 30.0986C9.99626 29.9811 9.99153 29.8636 9.98667 29.7425C9.9751 29.4533 9.96393 29.1642 9.95313 28.875C9.88711 28.8452 9.82109 28.8154 9.75307 28.7847C9.39295 28.5898 9.15409 28.2828 8.88672 27.9795C8.45269 27.4974 8.01786 27.0438 7.51484 26.6319C7.32924 26.4697 7.18906 26.2974 7.03418 26.1064C6.64394 25.7001 6.15071 25.7039 5.61274 25.6612C4.67982 25.4876 4.09707 24.8143 3.45643 24.1642C3.36066 24.0682 3.2649 23.9722 3.16623 23.8733C2.96491 23.6713 2.76398 23.4688 2.56343 23.266C2.2554 22.9546 1.94621 22.6443 1.63678 22.3343C1.44118 22.1376 1.24564 21.941 1.05018 21.7442C0.957444 21.651 0.864713 21.5578 0.769171 21.4618C0.68406 21.3757 0.598948 21.2895 0.511258 21.2007C0.436089 21.1248 0.360919 21.0489 0.283472 20.9707C-0.0281087 20.6316 -0.030127 20.3516 -0.0243484 19.896C4.62122e-06 19.6875 4.61563e-06 19.6875 0.143559 19.4756C0.559362 19.2138 0.850632 19.2396 1.3125 19.3593ZM13.0361 34.5078C12.9745 34.5674 12.9129 34.6271 12.8494 34.6886C12.3836 35.1554 12.0313 35.5759 12.0313 36.2646C12.1649 36.724 12.3036 36.9037 12.6875 37.1875C13.0987 37.3071 13.3416 37.3374 13.7458 37.1905C14.2585 36.8777 14.6479 36.4734 15.0664 36.0459C15.1503 35.9623 15.2342 35.8788 15.3206 35.7927C15.9693 35.1516 15.9693 35.1516 16.2354 34.3027C16.1719 33.7766 16.011 33.6203 15.6406 33.25C14.5592 32.7092 13.7314 33.8286 13.0361 34.5078ZM17.7176 35.7116C17.6552 35.7755 17.5929 35.8394 17.5286 35.9053C17.4623 35.9718 17.3959 36.0382 17.3275 36.1067C17.1883 36.2466 17.0496 36.387 16.9114 36.5279C16.7001 36.7433 16.487 36.9568 16.2736 37.1702C16.1381 37.3067 16.0028 37.4434 15.8675 37.5801C15.804 37.6438 15.7406 37.7075 15.6752 37.7731C15.2348 38.224 14.9844 38.4933 14.9844 39.1494C15.0392 39.5036 15.1309 39.6795 15.4014 39.915C15.7701 40.1774 15.7701 40.1774 16.1875 40.25C16.8448 40.0256 17.2383 39.6974 17.7179 39.2036C17.787 39.1342 17.856 39.0648 17.9272 38.9933C18.072 38.8473 18.2163 38.7009 18.3601 38.5539C18.5807 38.3284 18.8028 38.1044 19.0253 37.8807C19.1661 37.7384 19.3068 37.5961 19.4474 37.4536C19.5138 37.3864 19.5802 37.3192 19.6486 37.2499C20.1179 36.7868 20.1179 36.7868 20.2617 36.1689C20.232 35.7302 20.1914 35.5498 19.9063 35.2187C19.0015 34.7079 18.4112 35.0256 17.7176 35.7116ZM19.1201 40.1338C19.0035 40.2491 19.0035 40.2491 18.8845 40.3668C18.1946 41.0456 18.1946 41.0456 17.8828 41.9384C17.9554 42.4557 18.1187 42.6187 18.4844 42.9843C18.8245 43.1544 19.0928 43.125 19.4688 43.0937C20.1021 42.7439 20.5779 42.232 21.082 41.7197C21.1659 41.6357 21.2498 41.5518 21.3362 41.4653C22.0091 40.8384 22.0091 40.8384 22.251 39.9902C22.2442 39.5713 22.2164 39.5007 21.9365 39.1562C21.7978 39.0479 21.7978 39.0479 21.6563 38.9375C21.6021 38.8833 21.6021 38.8833 21.5469 38.8281C20.4077 38.7316 19.883 39.3624 19.1201 40.1338ZM22.7342 42.4281C22.5827 42.5799 22.5827 42.5799 22.4281 42.7348C22.3766 42.787 22.3251 42.8392 22.272 42.8929C22.1133 43.0536 21.9538 43.2134 21.794 43.3731C21.1186 43.989 21.1186 43.989 20.8496 44.8164C20.8523 45.1828 20.9173 45.3741 21.1504 45.6572C21.4968 45.9953 21.5732 46.0354 22.0527 46.1015C22.461 46.0955 22.6405 45.9951 22.938 45.72C23.0137 45.6505 23.0893 45.5809 23.1673 45.5093C23.5746 45.1205 23.9786 44.7291 24.377 44.331C24.4599 44.2495 24.5428 44.1679 24.6282 44.0839C24.7074 44.0048 24.7866 43.9258 24.8683 43.8444C24.9395 43.7737 25.0107 43.7029 25.084 43.63C25.4096 43.2568 25.4855 43.0567 25.4775 42.5537C25.4213 42.211 25.3582 42.0855 25.1494 41.7881C24.1582 41.0921 23.5003 41.6582 22.7342 42.4281Z" fill="#377E7F"/>
<path d="M14.3076 7.57422C15.2699 7.80064 16.1421 9.00131 16.8349 9.68727C16.9686 9.81913 17.1029 9.95041 17.2377 10.0811C18.9156 11.7077 18.9156 11.7077 18.956 12.8652C18.9455 13.1865 18.9011 13.4178 18.8125 13.7334C18.8125 14.1501 18.8438 14.2285 19.0996 14.54C19.7508 15.1359 20.6123 15.3633 21.4281 15.656C22.3465 15.9864 23.0282 16.3111 23.6463 17.0776C24.1988 17.6357 24.6679 17.7264 25.42 17.7314C25.5945 17.7288 25.7691 17.7244 25.9436 17.7185C26.2228 17.7091 26.5013 17.7066 26.7806 17.7057C27.3741 17.7025 27.9672 17.6904 28.5605 17.6777C29.2468 17.6639 29.933 17.654 30.6194 17.6507C30.8913 17.6479 31.1625 17.6397 31.4342 17.631C32.7077 17.6096 33.5918 17.934 34.6719 18.5938C34.7387 18.6337 34.8056 18.6736 34.8745 18.7148C35.1576 18.8839 35.4381 19.0559 35.7161 19.2333C35.965 19.3764 35.965 19.3764 36.1828 19.3476C36.5311 19.2054 36.7576 18.9546 37.0149 18.689C37.0701 18.6333 37.1253 18.5777 37.1822 18.5203C37.3579 18.3427 37.5325 18.1641 37.707 17.9854C37.8261 17.8646 37.9453 17.7439 38.0646 17.6233C38.3565 17.3278 38.6472 17.0314 38.9375 16.7344C38.8844 16.5791 38.8844 16.5791 38.8302 16.4208C38.738 16.1373 38.6864 15.9337 38.6846 15.6406C38.6827 15.5729 38.6809 15.5053 38.679 15.4355C38.7951 14.7562 39.233 14.314 39.7031 13.8516C39.769 13.7856 39.8348 13.7195 39.9026 13.6514C40.1192 13.4346 40.3369 13.2189 40.5546 13.0032C40.7057 12.8525 40.8568 12.7016 41.0077 12.5507C41.3236 12.2354 41.64 11.9205 41.9569 11.6061C42.3635 11.2025 42.7693 10.798 43.1747 10.3931C43.4862 10.082 43.7981 9.77123 44.11 9.46056C44.2598 9.31142 44.4095 9.16223 44.5592 9.01299C44.7678 8.80508 44.9768 8.59754 45.186 8.39013C45.2481 8.32814 45.3102 8.26615 45.3742 8.20229C45.9147 7.66774 45.9147 7.66774 46.3613 7.62891C46.7493 7.65995 46.8856 7.6916 47.1406 7.98438C47.2515 8.38372 47.3086 8.62928 47.1245 9.00857C46.8844 9.35025 46.6085 9.63913 46.3123 9.93126C46.2515 9.99214 46.1906 10.053 46.1279 10.1158C45.9278 10.3157 45.7269 10.5149 45.5261 10.7141C45.3867 10.853 45.2474 10.992 45.1081 11.131C44.7423 11.496 44.3759 11.8603 44.0093 12.2244C43.635 12.5965 43.2613 12.9692 42.8876 13.3418C42.1548 14.0722 41.4214 14.802 40.6875 15.5313C40.8389 15.8459 40.9833 16.0729 41.2318 16.3195C41.2957 16.3832 41.3595 16.447 41.4253 16.5126C41.4932 16.579 41.561 16.6454 41.6308 16.7139C41.7006 16.783 41.7704 16.852 41.8423 16.9232C42.2404 17.3148 42.6466 17.6899 43.0732 18.0503C43.4934 18.4284 43.8848 18.836 44.2823 19.2376C44.6063 19.5637 44.9298 19.8828 45.2812 20.1797C45.7064 20.5389 46.0932 20.9329 46.4844 21.3281C47.0654 21.9172 47.0654 21.9172 47.6807 22.4697C48.2062 22.9136 48.6795 23.4113 49.1631 23.8997C49.5817 24.3208 50.0061 24.7259 50.4599 25.1093C50.7549 25.3645 51.0245 25.6427 51.2969 25.9219C51.7418 25.7455 52.0362 25.4274 52.3637 25.0913C52.423 25.0314 52.4823 24.9716 52.5434 24.9099C52.7322 24.7191 52.9204 24.5276 53.1084 24.3359C53.2969 24.1444 53.4856 23.953 53.6746 23.762C53.792 23.6432 53.9091 23.5242 54.0259 23.4048C54.657 22.7653 54.657 22.7653 55.1728 22.709C55.5625 22.75 55.5625 22.75 55.8291 22.9141C56.0224 23.2233 56.0829 23.4659 56.0615 23.8316C55.9877 24.1086 55.8851 24.2373 55.6919 24.4483C55.6226 24.5241 55.5532 24.5999 55.4818 24.678C55.0372 25.1443 54.5874 25.6048 54.1319 26.0603C53.9618 26.2305 53.7927 26.4016 53.6236 26.5728C53.5143 26.6824 53.4049 26.792 53.2955 26.9016C53.149 27.0487 53.149 27.0487 52.9996 27.1988C52.6012 27.5595 52.2401 27.8119 51.7002 27.8701C51.6239 27.8798 51.5476 27.8896 51.469 27.8996C51.1909 27.8907 51.0192 27.8329 50.7594 27.7428C50.535 27.6741 50.535 27.6741 50.3125 27.6719C50.0347 27.8824 49.863 28.044 49.6494 28.3076C49.1077 28.9575 49.1077 28.9575 48.5924 29.0861C48.2348 29.0937 48.0765 29.0925 47.7969 28.875C47.5801 28.5963 47.5781 28.439 47.5867 28.0829C47.717 27.5517 47.9558 27.3274 48.3506 26.9678C48.4127 26.9086 48.4748 26.8495 48.5388 26.7885C48.6911 26.6439 48.8453 26.5014 49 26.3594C48.9285 26.288 48.857 26.2167 48.7834 26.1432C48.5294 25.8893 48.2765 25.6344 48.0237 25.3793C47.8638 25.2183 47.7039 25.0574 47.5439 24.8965C47.465 24.8167 47.3862 24.7369 47.3049 24.6547C46.8603 24.2081 46.4055 23.7837 45.928 23.3727C45.5873 23.0712 45.2712 22.7468 44.9531 22.4219C44.3722 21.8327 44.3722 21.8327 43.7568 21.2803C43.3096 20.9026 42.9037 20.4858 42.4922 20.0703C41.7769 19.3488 41.0436 18.6812 40.25 18.0469C40.1568 18.1418 40.0635 18.2368 39.9675 18.3346C39.6208 18.6872 39.273 19.0388 38.9249 19.39C38.7745 19.5421 38.6243 19.6944 38.4745 19.8471C38.2589 20.0667 38.0423 20.2852 37.8254 20.5035C37.7588 20.5718 37.6923 20.64 37.6237 20.7104C37.1634 21.1708 36.8285 21.4294 36.1544 21.4478C35.418 21.3301 34.7748 20.8769 34.1387 20.5078C34.0023 20.4301 33.8659 20.3524 33.7294 20.275C33.4808 20.1337 33.2328 19.9916 32.9852 19.8488C32.5249 19.5856 32.1931 19.5589 31.6702 19.5536C31.5862 19.5523 31.5023 19.5511 31.4157 19.5498C30.5364 19.5377 29.6569 19.5325 28.7775 19.5278C28.3606 19.5254 27.9437 19.5208 27.5268 19.5144C27.023 19.5066 26.5193 19.5026 26.0155 19.5012C25.8238 19.5001 25.6322 19.4976 25.4407 19.4938C24.2464 19.4328 24.2464 19.4328 23.2082 19.9315C23.0881 20.0656 22.9714 20.2028 22.8594 20.3438C22.7593 20.438 22.6592 20.5323 22.5561 20.6294C22.2644 20.9161 21.9736 21.2038 21.6836 21.4922C21.5816 21.5919 21.4797 21.6916 21.3747 21.7943C20.5224 22.612 20.5224 22.612 20.0707 23.6771C20.0845 24.1814 20.1124 24.538 20.4531 24.9375C20.8685 25.2606 21.2406 25.3661 21.7656 25.375C22.4496 25.1392 22.9508 24.7012 23.486 24.2267C23.6037 24.1228 23.7233 24.021 23.8444 23.921C24.0745 23.7293 24.0745 23.7293 24.3165 23.4781C25.2884 22.5959 26.1978 22.6171 27.4594 22.6577C27.7837 22.668 28.1075 22.6712 28.4319 22.6731C28.6389 22.6761 28.8458 22.6795 29.0527 22.6834C29.1492 22.6847 29.2457 22.6861 29.3451 22.6876C29.7316 22.7011 30.0103 22.7163 30.3594 22.89C30.5538 23.1242 30.5524 23.23 30.54 23.5302C30.5893 24.2357 31.0488 24.5792 31.5478 25.0332C31.7188 25.1945 31.8895 25.356 32.0601 25.5177C32.1362 25.5876 32.2122 25.6575 32.2906 25.7296C32.6119 26.0484 32.7003 26.2247 32.751 26.6807C32.7409 27.0434 32.7184 27.1071 32.4707 27.3984C32.1031 27.5902 31.9099 27.603 31.5 27.5625C31.2659 27.4164 31.2659 27.4164 31.0351 27.1934C30.9404 27.1058 30.8457 27.0182 30.748 26.928C30.474 26.6579 30.229 26.3696 29.9824 26.0744C28.958 24.8772 28.958 24.8772 27.5017 24.4228C26.696 24.4279 26.0206 24.5091 25.375 25.0264C25.1909 25.2137 25.0087 25.403 24.8281 25.5938C24.5704 25.8166 24.3034 26.0265 24.0351 26.2363C23.9731 26.2871 23.9111 26.3378 23.8472 26.3901C23.0454 27.031 22.2381 27.2522 21.2187 27.2344C20.3378 27.1229 19.6457 26.7837 19.0312 26.1406C18.3079 25.1371 18.1843 24.2925 18.2656 23.0781C18.4524 22.0521 19.1983 21.3804 19.9062 20.6719C20.0505 20.5264 20.1948 20.3809 20.3391 20.2355C20.9576 19.6124 21.5795 18.9929 22.2031 18.375C22.128 18.0367 22.128 18.0367 21.8729 17.902C21.336 17.64 20.8072 17.3965 20.2459 17.192C19.0973 16.7699 18.2717 16.4129 17.5 15.4219C16.8514 15.9522 16.2702 16.5394 15.6876 17.14C15.3946 17.4416 15.0995 17.7411 14.8047 18.0409C14.4315 18.4207 14.0589 18.801 13.6887 19.1838C13.3876 19.4949 13.0844 19.8039 12.7797 20.1115C12.6646 20.2286 12.5502 20.3464 12.4366 20.465C11.4392 21.5057 11.4392 21.5057 10.8777 21.52C10.5 21.4375 10.5 21.4375 10.2266 21.2666C9.98804 20.879 9.9801 20.6838 10.0625 20.2344C10.5976 19.4565 11.3686 18.8104 12.04 18.1493C12.2427 17.9496 12.4448 17.7494 12.6468 17.549C13.2204 16.98 13.7944 16.4114 14.37 15.8444C14.7236 15.4962 15.0761 15.1468 15.4279 14.7968C15.5618 14.6641 15.696 14.5317 15.8306 14.3998C16.0183 14.2158 16.2046 14.0305 16.3906 13.8448C16.4463 13.7909 16.5019 13.737 16.5593 13.6814C16.8717 13.3663 17.0392 13.137 17.0625 12.6875C16.96 12.4809 16.96 12.4809 16.7745 12.3038C16.7036 12.2288 16.6326 12.1537 16.5595 12.0764C16.4728 11.9893 16.3862 11.9022 16.2969 11.8125C16.2208 11.7353 16.2208 11.7353 16.1433 11.6566C15.7285 11.2357 15.309 10.8196 14.8887 10.4043C14.6403 10.1588 14.3922 9.91295 14.1444 9.66687C14.0876 9.61093 14.0307 9.555 13.9721 9.49736C13.4719 9.00063 13.4719 9.00063 13.4121 8.55176C13.4531 8.20313 13.4531 8.20313 13.6855 7.88867C14 7.65625 14 7.65625 14.3076 7.57422Z" fill="#377E7F"/>
</g>
<defs>
<clipPath id="clip0_14_190">
<rect width="56" height="56" fill="white"/>
</clipPath>
</defs>
</svg>
