<svg width="57" height="56" viewBox="0 0 57 56" fill="none" xmlns="http://www.w3.org/2000/svg">
<g clip-path="url(#clip0_16_93)">
<path d="M25.5169 0.512719C25.7124 0.513645 25.7124 0.513645 25.9118 0.514589C28.6487 0.552281 31.1139 1.56065 33.1458 3.39065C33.2299 3.46566 33.3139 3.54066 33.4005 3.61794C34.3023 4.46929 35.23 5.61017 35.6614 6.78127C35.6551 7.16931 35.6219 7.41962 35.4359 7.75881C35.0802 7.95384 34.7351 7.9649 34.3489 7.87502C34.0353 7.592 33.8588 7.31227 33.641 6.95345C32.2392 4.66343 30.18 3.184 27.5677 2.51565C25.164 1.96757 22.6749 2.52635 20.5677 3.71877C20.2129 3.9498 19.8984 4.20242 19.5833 4.4844C19.5032 4.54911 19.4232 4.61383 19.3406 4.6805C17.4952 6.21307 16.4886 8.48305 16.2205 10.8337C16.0546 13.4142 16.8125 15.8426 18.4896 17.8281C19.2107 18.6361 19.9515 19.2683 20.8958 19.7969C21.0018 19.8616 21.1079 19.9263 21.2171 19.993C21.3254 20.0546 21.4337 20.1162 21.5452 20.1797C21.6888 20.2626 21.6888 20.2626 21.8353 20.3472C22.296 20.4781 22.6493 20.4302 23.1215 20.3787C23.856 20.3145 24.5927 20.3277 25.3295 20.3295C25.6057 20.3301 25.8818 20.3295 26.158 20.3288C26.3375 20.3288 26.517 20.329 26.6965 20.3292C26.8266 20.3295 26.8266 20.3295 26.9592 20.3297C27.4304 20.3332 27.8862 20.3614 28.3543 20.422C28.9073 20.4806 29.2632 20.3619 29.7415 20.0908C29.8153 20.0513 29.8892 20.0117 29.9652 19.9709C32.1962 18.7352 33.831 16.788 34.5677 14.3281C34.7097 13.7508 34.8028 13.165 34.8958 12.5781C35.0453 11.6755 35.0453 11.6755 35.306 11.3682C35.6322 11.2323 35.8579 11.2218 36.2083 11.2656C36.5513 11.4603 36.6284 11.5416 36.7552 11.9219C36.7824 13.3664 36.4525 14.862 35.8802 16.1875C36.0689 16.246 36.2581 16.3026 36.4476 16.3584C36.5529 16.3901 36.6582 16.4219 36.7667 16.4546C37.4523 16.5869 37.9879 16.2543 38.5941 15.9688C44.6851 13.1691 44.6851 13.1691 46.8848 13.8727C47.4441 14.1866 47.723 14.5995 47.9114 15.2031C48.4477 17.2066 48.2702 19.1742 47.9832 21.2042C47.8381 22.0103 47.8381 22.0103 48.1362 22.7355C48.2379 22.8462 48.3408 22.9558 48.4447 23.0645C49.6037 24.3587 51.5208 26.9531 51.5208 28.7656C51.5869 28.7852 51.653 28.8048 51.7211 28.8249C55.2887 29.887 55.2887 29.887 56.1244 31.3035C56.3058 31.6615 56.3485 31.9552 56.3544 32.3501C56.3562 32.456 56.3579 32.5619 56.3597 32.6711C56.3646 33.1572 56.3691 33.6432 56.3716 34.1293C56.3734 34.3849 56.3764 34.6404 56.3806 34.8959C56.3866 35.2657 56.389 35.6355 56.3906 36.0053C56.3931 36.1183 56.3955 36.2312 56.3981 36.3476C56.3953 37.3205 56.0834 38.0437 55.4788 38.8008C54.7025 39.5066 53.5111 39.7423 52.527 40.0338C52.3308 40.0941 52.3308 40.0941 52.1306 40.1557C51.8703 40.2353 51.6088 40.3116 51.3464 40.3841C50.4129 40.6714 50.0234 41.046 49.5521 41.8906C48.9235 42.7999 48.2345 43.6078 47.4739 44.4063C47.409 44.4771 47.344 44.5478 47.277 44.6208C46.0866 45.8791 44.5016 46.8671 42.9896 47.6875C42.9174 47.6875 42.8452 47.6875 42.7708 47.6875C42.7604 47.7599 42.75 47.8324 42.7393 47.907C42.5675 49.0639 42.3636 50.2149 42.1511 51.3649C42.1084 51.5984 42.0666 51.832 42.0258 52.0658C41.9659 52.4077 41.903 52.7489 41.8394 53.09C41.8132 53.2453 41.8132 53.2453 41.7865 53.4036C41.6252 54.2398 41.3117 54.8337 40.6149 55.3408C40.1044 55.5002 39.6255 55.5022 39.0935 55.5006C38.9822 55.5011 38.8708 55.5017 38.7561 55.5023C38.5212 55.503 38.2863 55.5029 38.0514 55.5019C37.6933 55.501 37.3353 55.5042 36.9772 55.5076C36.7484 55.5078 36.5196 55.5077 36.2908 55.5074C36.1843 55.5086 36.0779 55.5099 35.9683 55.5111C35.1702 55.503 34.6947 55.3422 34.1029 54.7832C33.6332 54.0117 33.5049 53.0566 33.3441 52.1787C33.315 52.0259 33.315 52.0259 33.2853 51.87C33.1458 51.1241 33.1458 51.1241 33.1458 50.75C33.0531 50.7645 32.9603 50.7791 32.8647 50.794C32.7364 50.8133 32.6081 50.8327 32.4759 50.8526C32.3515 50.8716 32.2272 50.8906 32.0991 50.9102C30.8731 51.0706 29.6446 51.0959 28.4104 51.0924C28.1623 51.0918 27.9142 51.0924 27.6662 51.0931C25.0846 51.0944 25.0846 51.0944 24.6146 50.8594C24.609 50.9254 24.6034 50.9913 24.5976 51.0592C24.5354 51.7392 24.4376 52.4042 24.307 53.0742C24.2902 53.1681 24.2735 53.262 24.2563 53.3588C24.0813 54.2583 23.7026 54.8012 22.9739 55.3438C22.6669 55.4461 22.4751 55.468 22.1571 55.4708C22.0585 55.4718 21.96 55.4729 21.8584 55.474C21.7521 55.4744 21.6458 55.4749 21.5363 55.4754C21.4266 55.476 21.317 55.4766 21.204 55.4773C20.9718 55.4783 20.7397 55.479 20.5075 55.4794C20.1532 55.4805 19.799 55.4839 19.4447 55.4873C19.219 55.488 18.9934 55.4886 18.7677 55.489C18.6093 55.4911 18.6093 55.4911 18.4476 55.4931C17.7678 55.4909 17.3152 55.3988 16.7625 54.9748C16.2184 54.3838 16.1094 53.7309 15.9671 52.958C15.9405 52.8247 15.9139 52.6913 15.8865 52.5539C15.8036 52.1353 15.7243 51.7163 15.6458 51.2969C15.5695 50.8937 15.493 50.4906 15.4162 50.0875C15.3696 49.841 15.3239 49.5943 15.2792 49.3475C15.2586 49.2362 15.2381 49.1249 15.2169 49.0103C15.1993 48.9129 15.1817 48.8156 15.1636 48.7153C15.0635 48.3092 14.9744 48.0782 14.6217 47.8439C14.5153 47.7878 14.4088 47.7317 14.2991 47.6739C13.0949 46.9989 12.0549 46.1159 11.0521 45.1719C10.9864 45.112 10.9207 45.0521 10.853 44.9903C8.16416 42.4453 6.56362 38.4408 6.44001 34.7801C6.41813 33.8326 6.43298 32.8849 6.45832 31.9375C6.06941 32.0672 6.03666 32.1518 5.82942 32.4912C4.96378 33.83 3.83244 34.8016 2.24952 35.1731C1.65141 35.2723 1.09714 35.3186 0.538402 35.0615C0.276405 34.7035 0.276199 34.4629 0.282054 34.0289C0.347592 33.7323 0.411788 33.6427 0.661449 33.4688C0.990001 33.3842 0.990001 33.3842 1.37922 33.3184C2.51036 33.0952 3.46885 32.6679 4.16145 31.7188C4.05444 31.6869 3.94742 31.655 3.83717 31.6222C2.78072 31.2967 1.71025 30.9497 1.08528 29.9666C0.837309 29.4054 0.804066 28.7982 0.982738 28.2119C1.27969 27.5417 1.80612 27.0002 2.39094 26.5713C3.20778 26.3311 3.9373 26.4021 4.70063 26.7678C5.5432 27.2829 6.03638 28.0345 6.3968 28.9434C6.47276 29.3992 6.47713 29.8362 6.45832 30.2969C6.53051 30.2969 6.6027 30.2969 6.67707 30.2969C6.6813 30.2089 6.6813 30.2089 6.68562 30.1192C6.94887 26.4816 9.10573 22.8435 11.8271 20.4856C14.3599 18.4893 14.3599 18.4893 15.3177 18.5938C15.5775 18.71 15.5775 18.71 15.7552 18.9219C15.8451 19.2749 15.9065 19.5475 15.8005 19.9016C15.5763 20.2255 15.2669 20.392 14.9349 20.5899C14.2553 21.0109 13.6312 21.4667 13.0208 21.9844C12.9405 22.0488 12.8601 22.1133 12.7773 22.1797C10.6479 23.9516 9.28083 26.6538 8.64582 29.3125C8.62776 29.3867 8.60969 29.461 8.59108 29.5374C8.05409 31.8681 8.04474 34.7602 8.64582 37.0781C8.66755 37.1651 8.68928 37.252 8.71167 37.3415C9.62688 40.9146 11.8148 44.0327 14.9921 45.9626C15.32 46.1507 15.6504 46.3301 15.9859 46.5045C16.4154 46.7744 16.6774 47.0586 16.8357 47.5461C16.8551 47.6527 16.8745 47.7593 16.8945 47.8692C16.9175 47.9907 16.9405 48.1122 16.9642 48.2374C16.9872 48.3675 17.0102 48.4977 17.0339 48.6317C17.0593 48.7661 17.0846 48.9005 17.1106 49.039C17.1913 49.4678 17.2698 49.8969 17.348 50.3262C17.4265 50.7562 17.5058 51.1861 17.5865 51.6157C17.6367 51.8829 17.6856 52.1504 17.7333 52.418C17.756 52.5389 17.7786 52.6597 17.8019 52.7842C17.8213 52.8906 17.8406 52.9971 17.8605 53.1067C17.9506 53.4007 18.0219 53.5249 18.2708 53.7031C18.5848 53.7318 18.8746 53.7413 19.1881 53.7352C19.2775 53.7347 19.3668 53.7343 19.4589 53.7338C19.7442 53.7319 20.0295 53.7278 20.3148 53.7237C20.5082 53.722 20.7017 53.7205 20.8952 53.7192C21.3694 53.7156 21.8435 53.7099 22.3177 53.7031C22.3325 53.6116 22.3474 53.5201 22.3627 53.4259C22.4189 53.0825 22.4758 52.7392 22.5333 52.396C22.5579 52.2482 22.5822 52.1004 22.6062 51.9525C22.9654 49.7381 22.9654 49.7381 23.6302 49.2188C24.0391 49.0825 24.3904 49.1271 24.8128 49.1572C27.3282 49.3065 29.8722 49.3122 32.376 49.0239C32.7215 48.9869 33.0653 48.9649 33.4124 48.9522C33.5161 48.9478 33.6197 48.9434 33.7265 48.9389C34.1419 49.0252 34.4136 49.2237 34.6771 49.5469C34.787 49.8386 34.855 50.073 34.9095 50.374C34.9261 50.4534 34.9427 50.5327 34.9599 50.6144C35.0143 50.8778 35.0648 51.1419 35.1146 51.4063C35.1725 51.7086 35.2308 52.0108 35.2897 52.3129C35.3275 52.5085 35.3642 52.7045 35.3996 52.9006C35.4434 53.1331 35.4969 53.3637 35.5521 53.5938C35.9049 53.7702 36.29 53.7163 36.6774 53.7138C36.767 53.7137 36.8565 53.7135 36.9487 53.7134C37.2351 53.7127 37.5215 53.7114 37.8079 53.71C38.0019 53.7094 38.1959 53.7089 38.3898 53.7085C38.8658 53.7073 39.3417 53.7054 39.8177 53.7031C39.8308 53.632 39.844 53.5609 39.8575 53.4876C39.9459 53.0087 40.0344 52.5297 40.1236 52.0509C40.2484 51.3801 40.3723 50.7092 40.4925 50.0376C40.5492 49.721 40.6068 49.4046 40.6644 49.0882C40.6922 48.9346 40.7197 48.7809 40.7468 48.6271C40.7851 48.4099 40.8247 48.1929 40.8645 47.9759C40.8867 47.8515 40.909 47.7271 40.932 47.599C41.099 46.943 41.3364 46.5378 41.8958 46.1563C42.1283 46.0203 42.3633 45.8884 42.5999 45.7598C44.7542 44.5536 46.6899 42.8981 48.0482 40.8242C48.0946 40.7534 48.141 40.6826 48.1889 40.6097C48.2335 40.5415 48.2782 40.4733 48.3242 40.403C49.2745 38.9517 50.7029 38.6462 52.2933 38.1446C52.4479 38.0953 52.6025 38.0461 52.7571 37.9967C53.0377 37.9072 53.3185 37.8181 53.5994 37.7292C53.8185 37.6595 54.0371 37.5883 54.2552 37.5156C54.6744 36.6517 54.6335 35.7566 54.6261 34.8168C54.6243 34.5487 54.6261 34.2808 54.6282 34.0127C54.628 33.8402 54.6275 33.6677 54.6269 33.4953C54.6279 33.3766 54.6279 33.3766 54.6289 33.2556C54.6202 32.621 54.4854 32.1494 54.1141 31.6313C53.8383 31.4377 53.5535 31.3581 53.2319 31.2595C53.0924 31.2148 52.9529 31.17 52.8135 31.1251C52.5954 31.0561 52.3772 30.9879 52.1584 30.9216C51.125 30.6059 50.2817 30.2771 49.7464 29.2827C49.632 29.0201 49.5355 28.7563 49.4427 28.4854C49.3705 28.2914 49.2976 28.0977 49.2239 27.9043C49.1879 27.8094 49.1518 27.7145 49.1146 27.6168C48.6593 26.4805 48.007 25.4617 47.2552 24.5C46.999 24.8206 46.8198 25.1437 46.64 25.5117C46.1326 26.4478 45.4562 27.0096 44.4614 27.3775C42.7712 27.8531 40.8429 27.6169 39.2845 26.8311C37.6956 25.8816 36.6719 24.5101 36.181 22.7364C35.8987 21.2779 35.8418 19.584 36.3177 18.1563C35.4128 17.9567 35.4128 17.9567 34.5733 18.196C34.4094 18.4303 34.2718 18.6735 34.1302 18.9219C33.4649 19.7667 32.7074 20.3877 31.8333 21C31.9059 21.0278 31.9785 21.0556 32.0534 21.0842C33.3946 21.607 33.3946 21.607 33.5833 21.9844C33.6404 22.4125 33.6131 22.5939 33.3782 22.9619C32.9567 23.2402 32.7826 23.2315 32.2965 23.1568C31.8509 23.0578 31.4123 22.9384 30.972 22.8184C27.2974 21.8319 23.268 21.8738 19.6233 22.9708C18.3766 23.3412 18.3766 23.3412 17.7923 23.0645C17.5435 22.7774 17.5127 22.5807 17.5052 22.2031C17.6194 21.8606 17.7419 21.7062 18.0593 21.5328C18.3098 21.421 18.5628 21.3199 18.8177 21.2188C18.9643 21.1474 19.1104 21.0749 19.2552 21C19.1915 20.9521 19.1277 20.9042 19.0621 20.8548C16.6557 18.9932 14.8374 16.4249 14.4427 13.3438C14.0895 10.3316 14.7374 7.30867 16.6114 4.88259C16.6898 4.78728 16.7682 4.69197 16.8489 4.59377C16.9364 4.48718 17.0238 4.3806 17.1138 4.27078C19.2219 1.79617 22.2906 0.496713 25.5169 0.512719ZM44.0423 15.7842C43.8983 15.8265 43.8983 15.8265 43.7514 15.8697C40.5266 16.7253 40.5266 16.7253 37.9583 18.5938C37.5259 20.2459 37.6068 22.1875 38.4441 23.7006C39.1597 24.7606 40.268 25.529 41.5327 25.7856C42.543 25.8928 43.7581 26.0116 44.5973 25.3344C46.3724 23.4699 46.5732 19.8445 46.5152 17.427C46.4872 16.7649 46.3705 16.1583 46.1614 15.5313C45.4083 15.4983 44.7632 15.5671 44.0423 15.7842ZM2.6302 28.875C2.82086 29.333 3.03534 29.4502 3.47145 29.6535C3.87387 29.8074 4.28484 29.8943 4.70832 29.9688C4.6688 29.3233 4.49019 28.9174 4.05207 28.4375C3.34142 27.9638 3.07204 28.2691 2.6302 28.875Z" fill="#377E7F"/>
<path d="M25.8177 5.6875C26.1048 5.79004 26.1048 5.79004 26.3646 5.90625C26.3646 6.08672 26.3646 6.26719 26.3646 6.45312C26.4413 6.45721 26.518 6.4613 26.597 6.46552C27.3526 6.51787 28.0681 6.5728 28.6683 7.08203C28.8225 7.45216 28.7588 7.71131 28.6615 8.09375C28.5384 8.3125 28.5384 8.3125 28.3333 8.42188C27.6104 8.40681 27.0664 8.13022 26.3646 7.875C26.3646 8.81344 26.3646 9.75187 26.3646 10.7188C26.6894 10.827 27.0143 10.9353 27.349 11.0469C28.0412 11.4462 28.6845 11.9813 28.9413 12.7644C29.1275 13.7333 29.1122 14.8032 28.5521 15.6406C27.965 16.3359 27.3478 16.6629 26.474 16.8438C26.4018 17.0964 26.3296 17.3491 26.2552 17.6094C26.0365 17.614 25.8177 17.6138 25.599 17.6094C25.4896 17.5 25.4896 17.5 25.4827 17.165C25.485 17.059 25.4873 16.953 25.4896 16.8438C25.4142 16.8409 25.3387 16.8381 25.261 16.8352C24.2074 16.7716 23.4071 16.4927 22.6458 15.75C22.4335 15.4638 22.4258 15.3444 22.4408 14.9844C22.5525 14.6014 22.6431 14.4423 22.974 14.2188C23.5318 14.1934 23.8421 14.4624 24.2407 14.8126C24.6004 15.0619 24.6004 15.0619 25.4896 15.3125C25.4896 14.2297 25.4896 13.1469 25.4896 12.0312C25.273 11.9952 25.0565 11.9591 24.8333 11.9219C23.9733 11.5619 23.2694 11.099 22.8505 10.2496C22.6219 9.5384 22.6161 8.61763 22.9261 7.92969C23.3483 7.23541 23.9638 6.82509 24.724 6.5625C24.9414 6.51901 25.1601 6.47997 25.3802 6.45312C25.4118 6.3471 25.4434 6.24107 25.4759 6.13184C25.599 5.79688 25.599 5.79688 25.8177 5.6875ZM24.5052 8.3125C24.2506 8.66416 24.243 8.9806 24.2865 9.40625C24.5317 10.0501 24.7946 10.0431 25.4896 10.3906C25.4896 9.59656 25.4896 8.8025 25.4896 7.98438C25.0164 7.98438 24.8764 8.03896 24.5052 8.3125ZM26.3646 12.4688C26.3646 13.4072 26.3646 14.3456 26.3646 15.3125C26.8878 15.1032 27.2008 14.9347 27.4583 14.4375C27.5648 13.9244 27.5072 13.5546 27.2806 13.084C26.9965 12.7351 26.9965 12.7351 26.3646 12.4688Z" fill="#377E7F"/>
<path d="M43.3177 29.6406C43.6193 29.8782 43.705 30.0954 43.8031 30.461C43.8964 30.7519 43.9649 30.9413 44.1517 31.1856C44.5687 31.3392 44.9658 31.2482 45.3959 31.1719C45.4219 31.0492 45.4219 31.0492 45.4484 30.9241C45.6547 30.0535 45.6547 30.0535 45.9701 29.668C46.3756 29.4837 46.6115 29.5226 47.0365 29.6406C47.2888 29.8257 47.3563 29.9223 47.412 30.2332C47.4132 31.0655 47.3017 31.6351 46.734 32.2592C46.1302 32.8286 45.5318 33.1416 44.6986 33.1885C43.8426 33.1502 43.1903 32.8504 42.6068 32.2246C42.0914 31.5855 41.9446 31.0341 41.9642 30.2187C42.0052 29.9688 42.0052 29.9688 42.2308 29.6748C42.6489 29.488 42.8801 29.5191 43.3177 29.6406Z" fill="#377E7F"/>
</g>
<defs>
<clipPath id="clip0_16_93">
<rect width="56" height="56" fill="white" transform="translate(0.333374)"/>
</clipPath>
</defs>
</svg>
