<svg width="56" height="56" viewBox="0 0 56 56" fill="none" xmlns="http://www.w3.org/2000/svg">
<g clip-path="url(#clip0_14_210)">
<path d="M27.9316 8.38082C28.0129 8.38095 28.0942 8.38109 28.178 8.38122C32.8839 8.40186 36.8987 10.2336 40.3594 13.3437C40.4332 13.4096 40.5071 13.4754 40.5832 13.5432C43.657 16.4487 45.5032 20.9778 45.6333 25.1524C45.7336 30.2364 43.9938 34.8022 40.485 38.4846C39.779 39.2034 38.9896 39.8298 38.1855 40.4345C37.1867 41.2101 36.5407 42.1383 36.3614 43.4147C36.2957 44.0465 36.2997 44.6761 36.3009 45.3107C36.2995 45.5707 36.2978 45.8307 36.296 46.0906C36.2935 46.496 36.292 46.9012 36.2933 47.3066C36.2943 47.7009 36.2911 48.0951 36.2873 48.4894C36.2886 48.6087 36.2899 48.7281 36.2913 48.851C36.2746 49.9269 35.9048 50.8256 35.1777 51.625C34.7605 52.0043 34.2498 52.3442 33.6815 52.4209C33.3553 52.5421 33.2966 52.7612 33.1474 53.0673C32.4578 54.3953 31.3779 55.2804 29.9687 55.7812C28.3939 56.2495 26.6462 56.1539 25.178 55.4065C24.0814 54.7778 23.2268 53.9766 22.7013 52.8033C22.5015 52.4468 22.4022 52.3995 22.0185 52.288C21.1479 51.9809 20.4549 51.3468 20.0156 50.5312C19.7335 49.8897 19.7625 49.2528 19.7593 48.565C19.7577 48.438 19.7561 48.3109 19.7544 48.18C19.7493 47.7743 19.7456 47.3686 19.7422 46.9629C19.7376 46.4305 19.7317 45.8982 19.7251 45.3658C19.7242 45.1853 19.7242 45.1853 19.7233 45.0011C19.7041 43.4798 19.5058 42.0323 18.416 40.8857C17.9655 40.4694 17.4691 40.117 16.9757 39.7539C15.2714 38.468 13.9018 36.8162 12.7969 35C12.758 34.9362 12.7191 34.8724 12.679 34.8067C11.6368 33.0619 10.9878 31.0836 10.6094 29.0937C10.5848 28.9698 10.5603 28.8458 10.535 28.7182C9.78345 24.183 10.9914 19.4341 13.6466 15.7157C13.9985 15.2333 14.3692 14.7745 14.7656 14.3281C14.8143 14.2727 14.863 14.2173 14.9132 14.1602C15.0665 13.988 15.2229 13.8193 15.3808 13.6513C15.5217 13.5001 15.5217 13.5001 15.6654 13.3458C16.0488 13.0666 16.2699 13.0735 16.7344 13.125C16.9941 13.2412 16.9941 13.2412 17.1719 13.4531C17.3057 13.8964 17.3292 14.1206 17.124 14.54C16.9078 14.7984 16.6963 15.0197 16.4541 15.2509C13.7687 17.8763 12.2951 21.8728 12.2113 25.5793C12.1863 29.1962 13.2184 32.8224 15.5312 35.6562C15.5827 35.7203 15.6342 35.7843 15.6872 35.8503C16.587 36.963 17.5597 37.9308 18.7168 38.7802C20.1593 39.8472 20.9794 41.0196 21.4375 42.7656C21.4375 42.8739 21.4375 42.9821 21.4375 43.0937C21.5294 43.0925 21.6214 43.0913 21.7162 43.09C22.5835 43.0791 23.4509 43.0707 24.3183 43.0654C24.7643 43.0625 25.2102 43.0587 25.6561 43.0525C26.0866 43.0465 26.517 43.0432 26.9475 43.0418C27.1116 43.0408 27.2757 43.0388 27.4398 43.0359C27.67 43.0319 27.8999 43.0314 28.1302 43.0316C28.2611 43.0304 28.392 43.0292 28.5269 43.028C28.9795 43.1135 29.1439 43.28 29.4219 43.6406C29.4219 44.0406 29.4014 44.2902 29.1553 44.6113C28.7895 44.8746 28.5251 44.857 28.0781 44.8561C28.0077 44.8561 27.9372 44.8562 27.8647 44.8562C27.6315 44.8561 27.3983 44.8552 27.1651 44.8544C27.0036 44.8542 26.8421 44.854 26.6805 44.8539C26.2551 44.8535 25.8297 44.8524 25.4042 44.8512C24.9702 44.8501 24.5362 44.8496 24.1022 44.8491C23.2504 44.8479 22.3986 44.846 21.5469 44.8437C21.5517 45.5016 21.5593 46.1593 21.5696 46.8171C21.5726 47.0407 21.575 47.2643 21.5765 47.4879C21.5788 47.81 21.5839 48.1319 21.5896 48.4539C21.5897 48.5534 21.5898 48.6529 21.59 48.7554C21.6039 49.3618 21.675 49.7326 22.0937 50.2031C22.6561 50.6716 23.078 50.7037 23.7779 50.6972C23.8794 50.698 23.9808 50.6987 24.0854 50.6995C24.4196 50.7014 24.7537 50.7002 25.0879 50.6987C25.3208 50.699 25.5537 50.6994 25.7866 50.7C26.2742 50.7006 26.7619 50.6997 27.2495 50.6976C27.874 50.6951 28.4985 50.6966 29.123 50.6992C29.6038 50.7008 30.0846 50.7003 30.5654 50.6991C30.7956 50.6988 31.0259 50.6992 31.2561 50.7002C31.5781 50.7013 31.9 50.6996 32.222 50.6972C32.3642 50.6985 32.3642 50.6985 32.5093 50.6999C33.1006 50.6916 33.4363 50.5946 33.9062 50.2031C34.4011 49.6471 34.4094 49.1634 34.4104 48.4539C34.4122 48.3505 34.414 48.247 34.4159 48.1404C34.4212 47.8117 34.4235 47.483 34.4258 47.1543C34.4288 46.9307 34.4321 46.7071 34.4356 46.4835C34.4437 45.9369 34.4491 45.3903 34.4531 44.8437C34.3698 44.8454 34.2865 44.8471 34.2007 44.8489C33.8223 44.8558 33.4439 44.86 33.0654 44.8642C32.8688 44.8683 32.8688 44.8683 32.6683 44.8726C32.5417 44.8736 32.4152 44.8747 32.2848 44.8758C32.1686 44.8775 32.0523 44.8792 31.9325 44.881C31.5629 44.8384 31.36 44.7352 31.0625 44.5156C30.8934 44.1774 30.921 43.9037 30.9531 43.5312C31.128 43.2904 31.128 43.2904 31.3906 43.0937C31.7314 43.044 31.7314 43.044 32.1272 43.051C32.3397 43.0531 32.3397 43.0531 32.5566 43.0553C32.7057 43.0589 32.8548 43.0626 33.0039 43.0664C33.1547 43.0686 33.3055 43.0706 33.4563 43.0723C33.8251 43.0775 34.1938 43.0847 34.5625 43.0937C34.5739 43.0248 34.5853 42.9559 34.5971 42.885C34.711 42.2542 34.8674 41.7034 35.1572 41.1318C35.2141 41.0195 35.2141 41.0195 35.2722 40.9049C35.8747 39.7812 36.821 39.0554 37.8386 38.3145C38.8476 37.5513 39.7087 36.6686 40.4687 35.6562C40.5482 35.551 40.6278 35.4459 40.7097 35.3375C43.1648 31.9467 44.2692 27.7014 43.6269 23.5429C43.1191 20.5831 41.903 17.8998 39.9219 15.6406C39.8459 15.5501 39.7699 15.4596 39.6916 15.3663C37.2022 12.4734 33.4964 10.7569 29.75 10.2812C27.7943 10.1794 25.8524 10.2048 23.9531 10.7187C23.8814 10.7374 23.8096 10.7562 23.7357 10.7755C22.347 11.1503 20.8259 11.7822 19.6443 12.6088C19.2692 12.8563 19.0347 12.854 18.5937 12.7968C18.334 12.6806 18.334 12.6806 18.1562 12.4687C18.0672 12.1189 18.0079 11.8452 18.1045 11.4925C18.3552 11.1394 18.7101 10.957 19.0791 10.7461C19.1619 10.6984 19.2447 10.6508 19.33 10.6018C21.9739 9.11743 24.9038 8.37166 27.9316 8.38082ZM24.6094 52.5C25.549 53.5962 26.3837 54.2391 27.8492 54.3589C29.0784 54.3609 30.0959 53.9301 30.9668 53.0742C31.251 52.8254 31.251 52.8254 31.3906 52.5C29.1528 52.5 26.915 52.5 24.6094 52.5Z" fill="#377E7F"/>
<path d="M26.9777 15.0608C27.0986 15.0601 27.0986 15.0601 27.222 15.0594C27.3921 15.0587 27.5623 15.0587 27.7325 15.0592C27.992 15.0595 28.2513 15.0569 28.5108 15.0542C28.6765 15.0539 28.8422 15.0538 29.0079 15.054C29.0851 15.0529 29.1622 15.0519 29.2417 15.0509C29.7209 15.0554 30.0271 15.1243 30.4063 15.4218C30.5856 15.7953 30.6366 16.1461 30.6721 16.5536C30.7263 17.5315 30.7263 17.5315 31.2471 18.3044C31.6972 18.5014 32.0492 18.6459 32.5383 18.5279C32.958 18.2938 33.3125 17.979 33.6692 17.6593C34.0626 17.3341 34.4206 17.1512 34.9397 17.1814C35.6151 17.4229 36.1059 18.0677 36.586 18.58C36.7068 18.7048 36.8279 18.8295 36.9492 18.9539C37.931 19.9681 37.931 19.9681 38.0015 20.4659C37.9351 21.0499 37.6615 21.3402 37.2901 21.7792C36.8126 22.2915 36.8126 22.2915 36.6407 22.9315C36.6768 23.016 36.7129 23.1004 36.7501 23.1874C36.8027 23.3323 36.8027 23.3323 36.8564 23.4801C36.9154 23.6229 36.9154 23.6229 36.9756 23.7685C37.0463 23.9394 37.1169 24.1103 37.1876 24.2812C37.2543 24.2883 37.321 24.2953 37.3897 24.3026C37.6941 24.3363 37.9979 24.3737 38.3018 24.4111C38.4068 24.4221 38.5118 24.4332 38.6199 24.4446C38.7218 24.4577 38.8236 24.4707 38.9286 24.4841C39.0219 24.495 39.1153 24.5059 39.2115 24.5171C39.6079 24.651 39.78 24.8224 40.0313 25.1562C40.0859 25.4841 40.1083 25.7485 40.1039 26.0756C40.1045 26.1634 40.105 26.2511 40.1055 26.3415C40.1059 26.5265 40.1049 26.7115 40.1026 26.8964C40.0997 27.1788 40.1026 27.4608 40.1061 27.7432C40.1057 27.9233 40.105 28.1035 40.1039 28.2836C40.105 28.3676 40.1062 28.4516 40.1073 28.5381C40.0979 28.9676 40.047 29.1821 39.7869 29.529C39.4701 29.7604 39.3323 29.8182 38.9478 29.829C38.8486 29.8352 38.7493 29.8415 38.6471 29.848C38.4931 29.857 38.4931 29.857 38.336 29.8662C37.5373 29.927 37.5373 29.927 36.9116 30.3746C36.6968 30.8873 36.5764 31.2914 36.7501 31.8281C36.8591 32.0183 36.8591 32.0183 36.9962 32.1981C37.0447 32.2647 37.0932 32.3314 37.1431 32.4001C37.1939 32.4685 37.2446 32.5369 37.2969 32.6074C38.0434 33.6254 38.0434 33.6254 37.9532 34.2343C37.8152 34.4255 37.8152 34.4255 37.6289 34.6304C37.5593 34.707 37.4898 34.7836 37.4181 34.8626C37.0154 35.2936 36.6097 35.7206 36.1963 36.1415C36.1114 36.2306 36.0265 36.3196 35.9389 36.4113C35.8557 36.4959 35.7724 36.5804 35.6866 36.6675C35.6125 36.7438 35.5383 36.8202 35.4619 36.8988C35.1584 37.1226 34.9365 37.1645 34.5626 37.1874C34.1388 37.001 33.8495 36.7991 33.5103 36.4821C33.174 36.1833 32.8946 35.9527 32.4844 35.7656C31.9111 35.8439 31.4652 36.039 30.9532 36.3124C30.9359 36.4183 30.9359 36.4183 30.9182 36.5264C30.8651 36.8472 30.81 37.1677 30.7549 37.4882C30.7368 37.5993 30.7187 37.7104 30.7 37.8249C30.6814 37.932 30.6627 38.0392 30.6434 38.1496C30.6268 38.2481 30.6102 38.3466 30.5931 38.4481C30.5065 38.7507 30.4012 38.9263 30.1876 39.1562C29.7973 39.2863 29.4395 39.2854 29.0331 39.2878C28.9524 39.2884 28.8716 39.289 28.7884 39.2897C28.6175 39.2907 28.4467 39.2914 28.2759 39.2918C28.0154 39.2929 27.7551 39.2963 27.4946 39.2997C27.3284 39.3005 27.1622 39.301 26.996 39.3015C26.9185 39.3028 26.841 39.3042 26.7612 39.3055C26.2796 39.3034 25.9769 39.2328 25.5938 38.9374C25.3119 38.4545 25.2771 37.8633 25.1973 37.3173C25.1827 37.2207 25.168 37.124 25.1529 37.0244C25.117 36.7872 25.0817 36.5499 25.0469 36.3124C24.5701 36.0233 24.0856 35.7457 23.5157 35.7656C22.9899 35.9931 22.5814 36.3831 22.1588 36.761C21.8175 37.057 21.5775 37.2016 21.1094 37.1874C20.6621 36.9606 20.3389 36.6625 19.9866 36.3086C19.9343 36.2562 19.8819 36.2037 19.8279 36.1497C19.7181 36.0396 19.6085 35.9292 19.4993 35.8185C19.3317 35.6489 19.1632 35.4802 18.9946 35.3116C18.0676 34.3799 18.0676 34.3799 17.9987 33.8934C18.065 33.3094 18.3387 33.019 18.71 32.58C19.1875 32.0677 19.1875 32.0677 19.3594 31.4277C19.3053 31.3011 19.3053 31.3011 19.2501 31.1718C19.215 31.0752 19.1798 30.9787 19.1437 30.8792C19.1043 30.784 19.065 30.6888 19.0245 30.5908C18.9538 30.4199 18.8832 30.249 18.8126 30.0781C18.7458 30.0704 18.6791 30.0628 18.6104 30.0549C18.3061 30.0189 18.0022 29.9802 17.6983 29.9413C17.5933 29.9294 17.4884 29.9174 17.3802 29.905C17.2784 29.8916 17.1765 29.8782 17.0715 29.8644C16.9315 29.8473 16.9315 29.8473 16.7886 29.8297C16.416 29.7208 16.2302 29.6024 15.9688 29.3124C15.9133 28.9807 15.892 28.7113 15.8962 28.3798C15.8957 28.2894 15.8951 28.1991 15.8946 28.106C15.8942 27.9153 15.8952 27.7245 15.8975 27.5337C15.9004 27.2424 15.8975 26.9516 15.894 26.6603C15.8944 26.4747 15.8951 26.289 15.8962 26.1034C15.8951 26.0167 15.894 25.93 15.8928 25.8406C15.9024 25.3882 15.9343 25.2025 16.2132 24.8285C16.5298 24.5991 16.669 24.5411 17.0523 24.5303C17.1515 24.524 17.2508 24.5177 17.353 24.5113C17.4557 24.5053 17.5584 24.4993 17.6641 24.4931C18.4629 24.4322 18.4629 24.4322 19.0886 23.9847C19.3025 23.474 19.427 23.0657 19.2501 22.5312C19.1289 22.3387 19.1289 22.3387 18.9762 22.1565C18.9223 22.0873 18.8683 22.0182 18.8128 21.9469C18.6992 21.8038 18.5847 21.6614 18.4693 21.5197C18.2048 21.1775 18.0574 20.9374 17.9619 20.5099C18.0872 19.9425 18.4115 19.6549 18.8126 19.2499C18.9696 19.078 19.1266 18.906 19.2834 18.7338C19.4497 18.5592 19.6163 18.3849 19.7833 18.2109C19.8655 18.1209 19.9477 18.031 20.0323 17.9383C20.7248 17.2233 20.7248 17.2233 21.2897 17.1898C21.8071 17.2436 22.1251 17.4748 22.504 17.8144C23.1889 18.4292 23.1889 18.4292 24.0634 18.5685C24.4742 18.4424 24.7255 18.3369 25.0469 18.0468C25.2459 17.5414 25.2754 17.005 25.3174 16.4681C25.3564 16.0205 25.4488 15.6926 25.7032 15.3124C26.0963 15.0373 26.5156 15.0602 26.9777 15.0608ZM27.0157 16.9531C26.9846 17.1114 26.9595 17.2709 26.9371 17.4307C26.9231 17.5276 26.9092 17.6244 26.8948 17.7242C26.8805 17.8262 26.8663 17.9281 26.8516 18.0331C26.8234 18.2334 26.7949 18.4337 26.7662 18.6339C26.7537 18.7231 26.7412 18.8123 26.7284 18.9042C26.6876 19.1406 26.6876 19.1406 26.5782 19.4687C26.362 19.5456 26.362 19.5456 26.0723 19.6054C25.439 19.7575 24.8947 20.0091 24.3242 20.3165C23.8234 20.5707 23.5069 20.6141 22.9688 20.4531C22.675 20.2753 22.4169 20.0664 22.1553 19.8447C22.0858 19.7878 22.0162 19.7309 21.9445 19.6723C21.7744 19.5329 21.6058 19.3916 21.4376 19.2499C20.9807 19.6347 20.5412 20.0243 20.1251 20.4531C20.3273 21.0597 20.7177 21.4831 21.1205 21.9698C21.3718 22.3844 21.3893 22.6005 21.3282 23.0781C21.2 23.3976 21.2 23.3976 21.0274 23.707C20.74 24.2421 20.5322 24.7626 20.3605 25.3446C20.1871 25.6873 20.0399 25.7675 19.6876 25.9218C19.3506 26.0039 19.012 26.0568 18.669 26.1064C18.5776 26.1206 18.4861 26.1347 18.3919 26.1493C18.1677 26.1839 17.9433 26.2171 17.7188 26.2499C17.7188 26.8635 17.7188 27.4771 17.7188 28.1093C17.9618 28.1491 17.9618 28.1491 18.2097 28.1896C18.4221 28.2266 18.6344 28.2636 18.8467 28.3007C18.9535 28.3179 19.0603 28.3351 19.1704 28.3528C19.2729 28.3712 19.3755 28.3895 19.4812 28.4084C19.5757 28.4244 19.6702 28.4405 19.7676 28.457C20.0822 28.5709 20.1738 28.7001 20.3438 28.9843C20.4361 29.1859 20.4361 29.1859 20.5079 29.3906C20.5349 29.4657 20.562 29.5408 20.5899 29.6181C20.617 29.6955 20.644 29.7728 20.6719 29.8525C20.8803 30.4565 20.8803 30.4565 21.1846 31.015C21.3889 31.3938 21.3896 31.6209 21.3282 32.0468C21.1602 32.3632 20.9497 32.6357 20.7266 32.915C20.6692 32.9898 20.6119 33.0646 20.5527 33.1416C20.4118 33.3248 20.2687 33.5063 20.1251 33.6874C20.3105 34.0848 20.5339 34.3377 20.8497 34.6445C20.9391 34.7319 21.0284 34.8193 21.1205 34.9094C21.1891 34.9753 21.2576 35.0413 21.3282 35.1093C21.3878 35.0696 21.4475 35.0298 21.5089 34.9888C21.6825 34.8731 21.8564 34.7579 22.0306 34.6432C22.2144 34.5192 22.3958 34.3914 22.574 34.2595C22.6569 34.1993 22.7398 34.1391 22.8253 34.0771C22.9376 33.9927 22.9376 33.9927 23.0521 33.9066C23.3964 33.7522 23.5919 33.8094 23.9532 33.9062C24.1842 34.0015 24.4121 34.1045 24.6368 34.2138C25.1703 34.4686 25.7043 34.6993 26.2582 34.9059C26.4688 34.9999 26.4688 34.9999 26.6876 35.2187C26.7408 35.4426 26.7408 35.4426 26.7769 35.7147C26.7905 35.8122 26.8041 35.9097 26.8181 36.0102C26.8314 36.1122 26.8447 36.2142 26.8585 36.3193C26.8855 36.5211 26.913 36.7229 26.9409 36.9247C26.9527 37.0144 26.9645 37.104 26.9766 37.1964C26.9953 37.4064 26.9953 37.4064 27.1251 37.5156C27.4179 37.5265 27.7073 37.5307 28.0001 37.5292C28.1231 37.5299 28.1231 37.5299 28.2487 37.5305C28.6493 37.5677 28.6493 37.5677 28.9844 37.4062C29.0155 37.2478 29.0406 37.0883 29.063 36.9285C29.077 36.8317 29.091 36.7348 29.1053 36.635C29.1196 36.5331 29.1338 36.4311 29.1485 36.3261C29.1767 36.1258 29.2052 35.9256 29.2339 35.7254C29.2464 35.6362 29.2589 35.5469 29.2718 35.455C29.3126 35.2187 29.3126 35.2187 29.4219 34.8906C29.6343 34.8137 29.6343 34.8137 29.921 34.7538C30.5775 34.5955 31.161 34.3376 31.7656 34.0428C32.0665 33.9022 32.3171 33.7973 32.6519 33.7947C33.0467 33.9577 33.3634 34.2014 33.7012 34.4599C34.1863 34.8659 34.1863 34.8659 34.7813 34.9999C35.0642 34.7571 35.0642 34.7571 35.3487 34.4531C35.4472 34.3516 35.5458 34.25 35.6473 34.1454C35.7225 34.0665 35.7976 33.9875 35.8751 33.9062C35.6728 33.2996 35.2824 32.8762 34.8796 32.3895C34.6283 31.9748 34.6108 31.7587 34.6719 31.2812C34.8001 30.9616 34.8001 30.9616 34.9727 30.6523C35.2601 30.1172 35.4679 29.5966 35.6396 29.0146C35.8131 28.672 35.9603 28.5917 36.3126 28.4374C36.6495 28.3554 36.9881 28.3024 37.3311 28.2529C37.4225 28.2387 37.514 28.2245 37.6082 28.2099C37.8324 28.1753 38.0568 28.1422 38.2813 28.1093C38.2813 27.4957 38.2813 26.8821 38.2813 26.2499C37.4512 26.1056 36.621 25.9612 35.7657 25.8124C35.6574 25.4515 35.5491 25.0906 35.4376 24.7187C35.3485 24.4823 35.2558 24.2472 35.1573 24.0146C35.0894 23.8524 35.0894 23.8524 35.0201 23.6869C34.8917 23.3894 34.8917 23.3894 34.6719 23.0781C34.5987 22.5795 34.6556 22.2861 34.9351 21.8788C35.0461 21.7325 35.1589 21.5877 35.2735 21.4443C35.3309 21.3695 35.3883 21.2947 35.4474 21.2176C35.5883 21.0344 35.7315 20.8529 35.8751 20.6718C35.6896 20.2745 35.4662 20.0215 35.1504 19.7148C35.0164 19.5837 35.0164 19.5837 34.8796 19.4499C34.8111 19.3839 34.7425 19.3179 34.6719 19.2499C33.9797 19.6934 33.9797 19.6934 33.3458 20.2138C32.9605 20.507 32.7474 20.542 32.2657 20.5624C31.9791 20.4561 31.7385 20.3501 31.4727 20.207C30.8044 19.8694 30.1567 19.6291 29.4219 19.4687C29.3693 19.193 29.3169 18.9173 29.2647 18.6415C29.25 18.5645 29.2352 18.4874 29.2201 18.4081C29.1495 18.0344 29.0845 17.6622 29.0353 17.285C29.0201 16.9672 29.0201 16.9672 28.8751 16.8437C28.5822 16.8328 28.2929 16.8285 28.0001 16.83C27.918 16.8296 27.8359 16.8292 27.7514 16.8287C27.3508 16.7915 27.3508 16.7915 27.0157 16.9531Z" fill="#377E7F"/>
<path d="M30.6848 22.4685C31.1583 22.7679 31.5611 23.0986 31.9375 23.5156C31.9901 23.5691 32.0427 23.6225 32.0969 23.6776C33.1111 24.7586 33.4165 26.1346 33.3936 27.5753C33.2845 28.9302 32.6674 30.2017 31.7188 31.1719C30.4807 32.1796 29.125 32.6486 27.5155 32.5771C26.0414 32.3915 24.7992 31.7931 23.8156 30.6716C22.806 29.3658 22.5279 27.98 22.6406 26.3594C22.823 25.4205 23.1948 24.6281 23.7344 23.8438C23.8021 23.7445 23.8697 23.6453 23.9395 23.543C25.6443 21.7379 28.5102 21.2511 30.6848 22.4685ZM25.4023 24.6299C24.603 25.4651 24.3429 26.3939 24.3526 27.5292C24.457 28.5217 24.9319 29.398 25.6916 30.0324C26.5484 30.6669 27.554 30.9554 28.6152 30.7972C29.699 30.5352 30.555 29.9746 31.1403 29.0263C31.6202 28.1392 31.7649 27.2566 31.5376 26.265C31.1908 25.1841 30.4855 24.4387 29.5313 23.8438C28.0843 23.1973 26.529 23.5749 25.4023 24.6299Z" fill="#377E7F"/>
<path d="M45.8281 7.21878C46.1177 7.40218 46.1513 7.53065 46.252 7.86135C46.271 8.33774 46.0927 8.57638 45.778 8.92844C45.5788 9.13588 45.3759 9.33904 45.1714 9.54129C45.0972 9.61551 45.0229 9.68974 44.9464 9.76621C44.7899 9.92237 44.6331 10.0783 44.4761 10.2339C44.2352 10.4728 43.9952 10.7126 43.7553 10.9525C43.6031 11.1042 43.4508 11.2559 43.2984 11.4075C43.2264 11.4794 43.1544 11.5513 43.0802 11.6253C42.98 11.7245 42.98 11.7245 42.8777 11.8257C42.819 11.884 42.7602 11.9423 42.6997 12.0025C42.4452 12.2326 42.3106 12.2516 41.959 12.2842C41.5625 12.25 41.5625 12.25 41.2959 12.086C41.0569 11.7035 41.0255 11.3694 41.125 10.9375C41.3489 10.5931 41.6336 10.3242 41.9308 10.0424C42.0128 9.9614 42.0948 9.88036 42.1793 9.79686C42.4411 9.53922 42.7059 9.28481 42.9707 9.0303C43.1482 8.85625 43.3255 8.68201 43.5026 8.50756C43.8265 8.1901 44.1507 7.87311 44.4775 7.55868C44.5431 7.4955 44.6087 7.43231 44.6763 7.36722C45.058 7.0289 45.3465 7.11737 45.8281 7.21878Z" fill="#377E7F"/>
<path d="M11.1562 7.2188C11.4858 7.44973 11.7616 7.727 12.0445 8.01219C12.126 8.0925 12.2074 8.17282 12.2913 8.25556C12.4627 8.42548 12.6331 8.59625 12.8028 8.7678C13.0626 9.02949 13.3263 9.28683 13.5905 9.54408C13.7567 9.70996 13.9227 9.87608 14.0884 10.0425C14.1674 10.119 14.2463 10.1954 14.3277 10.2742C14.6819 10.6385 14.9224 10.8903 14.9348 11.4139C14.875 11.8125 14.875 11.8125 14.7041 12.086C14.3165 12.3245 14.1213 12.3324 13.6719 12.25C12.8668 11.6937 12.1711 10.8937 11.4752 10.207C11.3393 10.0736 11.2028 9.94079 11.0656 9.80871C10.8654 9.61576 10.6673 9.42074 10.4697 9.22514C10.4084 9.1669 10.3471 9.10866 10.2839 9.04865C9.88219 8.64473 9.75242 8.35568 9.73438 7.76567C9.82048 7.47603 9.90093 7.36877 10.1377 7.18462C10.526 7.06916 10.7617 7.11704 11.1562 7.2188Z" fill="#377E7F"/>
<path d="M47.9142 24.4434C48.0795 24.4413 48.0795 24.4413 48.2482 24.4392C48.3666 24.4401 48.485 24.441 48.607 24.4419C48.7291 24.4415 48.8513 24.4411 48.9771 24.4406C49.2353 24.4403 49.4935 24.4411 49.7516 24.443C50.147 24.4453 50.5422 24.443 50.9376 24.4402C51.1884 24.4405 51.4392 24.441 51.69 24.4419C51.8084 24.441 51.9267 24.4401 52.0487 24.4392C52.159 24.4406 52.2692 24.442 52.3828 24.4434C52.528 24.4439 52.528 24.4439 52.6761 24.4444C53.0216 24.5179 53.1545 24.6679 53.375 24.9375C53.4526 25.2555 53.4122 25.4781 53.375 25.8125C53.1769 26.105 53.0603 26.1362 52.7188 26.25C52.5489 26.2616 52.3786 26.2673 52.2083 26.2694C52.105 26.2708 52.0016 26.2722 51.8952 26.2736C51.7838 26.2744 51.6723 26.2752 51.5575 26.2761C51.3854 26.2774 51.3854 26.2774 51.2098 26.2787C50.9668 26.2802 50.7239 26.2814 50.481 26.2823C50.1097 26.2842 49.7384 26.289 49.367 26.2938C49.1311 26.2949 48.8951 26.2958 48.6591 26.2966C48.5481 26.2985 48.4371 26.3004 48.3228 26.3024C47.8344 26.3009 47.55 26.2992 47.1253 26.042C46.9059 25.7944 46.8496 25.7007 46.8604 25.375C46.8603 25.3028 46.8601 25.2306 46.86 25.1562C47.0126 24.6173 47.3892 24.4453 47.9142 24.4434Z" fill="#377E7F"/>
<path d="M3.61732 24.4434C3.78267 24.4413 3.78267 24.4413 3.95136 24.4392C4.06974 24.4401 4.18813 24.441 4.3101 24.4419C4.43225 24.4415 4.55441 24.4411 4.68027 24.4406C4.93843 24.4403 5.19659 24.4411 5.45474 24.443C5.85015 24.4453 6.24533 24.443 6.64073 24.4402C6.89152 24.4405 7.14231 24.441 7.39311 24.4419C7.51149 24.441 7.62987 24.4401 7.75185 24.4392C7.86208 24.4406 7.97231 24.442 8.08589 24.4434C8.23109 24.4439 8.23109 24.4439 8.37923 24.4444C8.72475 24.5179 8.8576 24.6679 9.07816 24.9375C9.15569 25.2555 9.11532 25.4781 9.07816 25.8125C8.88002 26.105 8.76343 26.1362 8.42191 26.25C8.25202 26.2616 8.08169 26.2673 7.91141 26.2694C7.80809 26.2708 7.70477 26.2722 7.59832 26.2736C7.48689 26.2744 7.37546 26.2752 7.26066 26.2761C7.08851 26.2774 7.08851 26.2774 6.91288 26.2787C6.66997 26.2802 6.42707 26.2814 6.18416 26.2823C5.81278 26.2842 5.44152 26.289 5.07017 26.2938C4.83419 26.2949 4.5982 26.2958 4.36222 26.2966C4.25124 26.2985 4.14025 26.3004 4.0259 26.3024C3.53756 26.3009 3.25315 26.2992 2.82838 26.042C2.60903 25.7944 2.5527 25.7007 2.56352 25.375C2.56338 25.3028 2.56323 25.2306 2.56309 25.1562C2.71573 24.6173 3.09231 24.4453 3.61732 24.4434Z" fill="#377E7F"/>
<path d="M28 -0.0615845C28.0722 -0.0639813 28.1444 -0.0663782 28.2187 -0.0688477C28.5812 0.0451387 28.6786 0.222642 28.875 0.546814C28.9406 0.948829 28.9363 1.34675 28.9331 1.75336C28.9335 1.87024 28.9339 1.98713 28.9344 2.10756C28.9347 2.35431 28.9339 2.60106 28.932 2.8478C28.9297 3.22519 28.932 3.60235 28.9348 3.97974C28.9345 4.21971 28.934 4.45968 28.9331 4.69965C28.934 4.81234 28.9349 4.92503 28.9358 5.04114C28.9294 5.53191 28.9248 5.82408 28.6663 6.2505C28.4205 6.46808 28.3238 6.52775 28 6.52142C27.8917 6.52354 27.8917 6.52354 27.7812 6.5257C27.4197 6.40565 27.3218 6.23248 27.125 5.90619C27.0592 5.49496 27.0637 5.08762 27.0669 4.67188C27.0665 4.5523 27.0661 4.43273 27.0656 4.30953C27.0653 4.05717 27.0661 3.80481 27.068 3.55246C27.0703 3.16595 27.068 2.77966 27.0652 2.39316C27.0655 2.14785 27.066 1.90254 27.0669 1.65723C27.066 1.54158 27.0651 1.42593 27.0642 1.30678C27.0744 0.507961 27.0744 0.507961 27.3337 0.146324C27.5786 -0.0103886 27.7111 -0.0621488 28 -0.0615845Z" fill="#377E7F"/>
<path d="M20.6719 4.48432C21.007 4.8358 21.1702 5.27707 21.3486 5.72162C21.3785 5.79148 21.4083 5.86134 21.439 5.93332C21.6322 6.41128 21.706 6.80483 21.6563 7.32807C21.4307 7.65619 21.4307 7.65619 21.1094 7.87494C20.6945 7.88222 20.4534 7.85136 20.1237 7.59339C19.8376 7.24425 19.7024 6.8884 19.5508 6.46674C19.5215 6.39074 19.4921 6.31475 19.4619 6.23645C19.2954 5.78517 19.203 5.40978 19.25 4.92182C19.5987 4.30753 20.0244 4.33401 20.6719 4.48432Z" fill="#377E7F"/>
<path d="M36.4219 4.48442C36.6407 4.64848 36.6407 4.64848 36.75 4.92192C36.7735 5.62508 36.5486 6.19146 36.2784 6.82915C36.246 6.90687 36.2137 6.98459 36.1804 7.06467C36.042 7.37511 35.9327 7.6138 35.6554 7.81822C35.299 7.91117 35.025 7.85553 34.6719 7.76567C34.46 7.58794 34.46 7.58794 34.3438 7.32817C34.2876 6.67146 34.4426 6.19833 34.6924 5.60551C34.7244 5.52303 34.7563 5.44055 34.7892 5.35557C34.9472 4.973 35.0568 4.7455 35.3841 4.48228C35.7723 4.32934 36.0241 4.3739 36.4219 4.48442Z" fill="#377E7F"/>
<path d="M48.6582 16.7891C48.9399 17.1204 48.955 17.2978 48.9633 17.7188C48.8491 18.0625 48.6414 18.1763 48.3438 18.375C48.0724 18.5048 47.8093 18.6214 47.5303 18.7305C47.46 18.7598 47.3897 18.7891 47.3173 18.8193C46.8792 18.9937 46.5174 19.0842 46.0469 19.0313C45.6834 18.7626 45.5245 18.6019 45.4316 18.1563C45.5241 17.7125 45.705 17.5756 46.0469 17.2813C46.3208 17.1426 46.5756 17.0266 46.8604 16.9189C46.9306 16.8901 47.0009 16.8613 47.0733 16.8316C47.646 16.6077 48.1005 16.4981 48.6582 16.7891Z" fill="#377E7F"/>
<path d="M8.53448 16.6903C8.78054 16.7803 9.02143 16.8784 9.26272 16.9804C9.34569 17.0133 9.42867 17.0461 9.51415 17.08C10.2757 17.3959 10.2757 17.3959 10.5 17.8281C10.5747 18.2665 10.5346 18.432 10.2881 18.8056C9.91454 19.0572 9.71028 19.0843 9.26913 19.0077C7.52017 18.5077 7.52017 18.5077 7.1094 17.9375C7.06643 17.5991 7.04048 17.3856 7.1094 17.0625C7.52005 16.5793 7.93234 16.513 8.53448 16.6903Z" fill="#377E7F"/>
</g>
<defs>
<clipPath id="clip0_14_210">
<rect width="56" height="56" fill="white"/>
</clipPath>
</defs>
</svg>
