<svg width="56" height="56" viewBox="0 0 56 56" fill="none" xmlns="http://www.w3.org/2000/svg">
<g clip-path="url(#clip0_14_165)">
<path d="M43.867 25.6696C43.9762 25.6687 44.0855 25.6678 44.1981 25.6668C44.5586 25.6642 44.9191 25.6632 45.2795 25.6625C45.531 25.6615 45.7825 25.6605 46.034 25.6595C46.561 25.6577 47.088 25.6569 47.615 25.6566C48.2885 25.656 48.9619 25.6518 49.6354 25.6469C50.1549 25.6436 50.6744 25.6428 51.1938 25.6427C51.442 25.6422 51.6902 25.6409 51.9384 25.6386C52.2866 25.6356 52.6345 25.6362 52.9827 25.6375C53.0841 25.6359 53.1855 25.6343 53.29 25.6326C54.0322 25.6409 54.6179 25.8295 55.2344 26.25C56.015 27.0806 56.0254 27.7837 56.0342 28.8886C56.0374 29.0198 56.0405 29.1509 56.0438 29.286C56.0482 29.9055 56.0476 30.3854 55.7518 30.9386C55.6252 31.1642 55.6252 31.1642 55.5625 31.3906C55.6391 31.6238 55.7549 31.8049 55.8834 32.0136C56.1304 32.5473 56.0622 33.1584 56.0547 33.7353C56.0572 33.9283 56.0572 33.9283 56.0598 34.1252C56.0571 34.7371 56.0388 35.209 55.7505 35.7558C55.6254 35.982 55.6254 35.982 55.5625 36.2031C55.73 36.5319 55.73 36.5319 55.8834 36.7376C56.1494 37.2647 56.0619 37.9165 56.0547 38.4931C56.0572 38.6961 56.0572 38.6961 56.0598 38.9031C56.0551 40.0088 56.0551 40.0088 55.7505 40.5102C55.6245 40.7051 55.6245 40.7051 55.5625 40.9062C55.6407 41.1353 55.7578 41.3187 55.8834 41.5254C56.1282 42.0625 56.0623 42.6715 56.0547 43.251C56.0572 43.4439 56.0572 43.4439 56.0598 43.6408C56.0571 44.2527 56.0388 44.7246 55.7505 45.2714C55.6254 45.4976 55.6254 45.4976 55.5625 45.7187C55.73 46.0476 55.73 46.0476 55.8834 46.2533C56.1494 46.7803 56.0619 47.4322 56.0547 48.0088C56.0572 48.2117 56.0572 48.2117 56.0598 48.4187C56.0551 49.5245 56.0551 49.5245 55.7505 50.0258C55.6245 50.2207 55.6245 50.2207 55.5625 50.4219C55.6407 50.6507 55.7579 50.834 55.8834 51.0405C56.1287 51.5797 56.0623 52.1919 56.0547 52.7734C56.0572 52.9678 56.0572 52.9678 56.0598 53.1661C56.0559 54.0444 55.9522 54.6734 55.3715 55.3463C55.3105 55.3951 55.2494 55.4439 55.1865 55.4941C55.1258 55.5446 55.065 55.5951 55.0024 55.6471C54.3961 56.0429 53.8338 56.0336 53.131 56.0352C53.0185 56.0363 52.906 56.0374 52.7901 56.0385C52.4184 56.0417 52.0467 56.0432 51.675 56.0444C51.416 56.0457 51.157 56.0469 50.898 56.0482C50.3549 56.0505 49.8118 56.0518 49.2687 56.0525C48.5745 56.0537 47.8803 56.059 47.1861 56.0652C46.6509 56.0693 46.1158 56.0704 45.5807 56.0708C45.3248 56.0714 45.069 56.0732 44.8132 56.076C44.4543 56.0798 44.0956 56.0794 43.7367 56.0779C43.632 56.08 43.5274 56.082 43.4196 56.0841C42.6328 56.0744 42.0678 55.8375 41.4531 55.3437C40.7997 54.5415 40.7722 53.8114 40.7627 52.8076C40.7595 52.6978 40.7564 52.5881 40.7531 52.475C40.7474 51.8063 40.8257 51.3259 41.1465 50.7352C41.2649 50.5132 41.2649 50.5132 41.166 50.1826C41.1164 50.0811 41.0668 49.9796 41.0156 49.875C40.754 49.2626 40.7605 48.6838 40.7627 48.0293C40.7609 47.9248 40.7592 47.8203 40.7574 47.7127C40.7569 47.039 40.8571 46.5547 41.125 45.9375C41.2222 45.6699 41.2556 45.5547 41.1513 45.2861C41.1099 45.2112 41.0685 45.1363 41.0259 45.0591C40.7402 44.4571 40.7318 43.9155 40.7422 43.2578C40.7405 43.1505 40.7388 43.0432 40.7371 42.9327C40.7405 42.2782 40.8336 41.8047 41.1513 41.2294C41.3035 40.8377 41.1172 40.5601 40.9571 40.1876C40.7464 39.6326 40.7446 39.1016 40.749 38.5136C40.7468 38.412 40.7447 38.3103 40.7424 38.2056C40.7429 37.5372 40.8587 37.0503 41.1617 36.453C41.2594 36.1171 41.1688 35.9633 41.0156 35.6562C40.7484 35.0274 40.7606 34.428 40.7627 33.7558C40.7601 33.5913 40.7601 33.5913 40.7574 33.4234C40.7569 32.7355 40.8493 32.2389 41.125 31.6094C41.2044 31.3888 41.2044 31.3888 41.2344 31.1719C41.0861 30.8944 41.0861 30.8944 40.9062 30.625C40.7358 30.0884 40.7636 29.5282 40.7559 28.9707C40.7518 28.8618 40.7477 28.753 40.7435 28.6408C40.7331 27.7587 40.9312 27.0277 41.5391 26.3653C42.2281 25.7169 42.9598 25.6702 43.867 25.6696ZM42.5469 28C42.4703 28.2217 42.4703 28.2217 42.4858 28.4447C42.4866 28.5249 42.4873 28.605 42.4881 28.6876C42.4917 28.7698 42.4953 28.8519 42.499 28.9365C42.4997 29.0191 42.5003 29.1016 42.5009 29.1867C42.5059 29.7829 42.5059 29.7829 42.7656 30.2969C43.2685 30.5677 43.7538 30.5473 44.3097 30.5456C44.4589 30.5465 44.4589 30.5465 44.6111 30.5473C44.9393 30.5489 45.2675 30.5488 45.5957 30.5485C45.8241 30.5489 46.0525 30.5494 46.281 30.5499C46.7594 30.5507 47.2379 30.5507 47.7163 30.5501C48.3295 30.5495 48.9425 30.5513 49.5556 30.5539C50.0272 30.5555 50.4988 30.5556 50.9704 30.5553C51.1965 30.5553 51.4225 30.5559 51.6486 30.557C51.9646 30.5583 52.2805 30.5576 52.5966 30.5563C52.7365 30.5576 52.7365 30.5576 52.8793 30.5589C53.4382 30.5539 53.8351 30.493 54.25 30.0781C54.2835 29.7214 54.2804 29.363 54.2842 29.0049C54.2874 28.9047 54.2905 28.8045 54.2938 28.7013C54.2952 28.5561 54.2952 28.5561 54.2966 28.408C54.2982 28.3193 54.2998 28.2307 54.3014 28.1393C54.2267 27.7778 54.1103 27.6734 53.8125 27.4531C53.4714 27.3866 53.1342 27.3922 52.7876 27.3948C52.6838 27.3938 52.5801 27.3929 52.4732 27.3919C52.1302 27.3894 51.7873 27.3902 51.4443 27.3912C51.2059 27.3906 50.9675 27.3899 50.7291 27.3891C50.2294 27.388 49.7297 27.3885 49.23 27.3901C48.5895 27.3919 47.9491 27.3894 47.3087 27.3855C46.8163 27.3831 46.324 27.3833 45.8317 27.3842C45.5955 27.3843 45.3594 27.3835 45.1233 27.3819C44.7931 27.38 44.463 27.3816 44.1328 27.3841C44.0353 27.3828 43.9377 27.3815 43.8372 27.3802C43.2211 27.3896 42.9363 27.4812 42.5469 28ZM42.7037 32.5292C42.4723 32.9471 42.4785 33.2739 42.4854 33.7422C42.4827 33.8238 42.4801 33.9054 42.4774 33.9895C42.4777 34.0692 42.4779 34.1489 42.4781 34.2309C42.478 34.3025 42.4779 34.374 42.4778 34.4478C42.5931 34.8218 42.7884 34.9776 43.0938 35.2187C43.4401 35.2987 43.7786 35.2924 44.1328 35.2878C44.2368 35.2885 44.3407 35.2893 44.4478 35.2901C44.7907 35.292 45.1335 35.2899 45.4765 35.2875C45.715 35.2876 45.9535 35.2879 46.192 35.2883C46.6915 35.2886 47.191 35.287 47.6905 35.284C48.3311 35.2803 48.9716 35.2809 49.6122 35.283C50.1046 35.2841 50.5969 35.2832 51.0892 35.2815C51.3254 35.281 51.5617 35.281 51.7979 35.2817C52.1278 35.2823 52.4576 35.2801 52.7876 35.2771C52.8854 35.2778 52.9832 35.2785 53.0839 35.2792C53.6266 35.2731 53.6266 35.2731 54.0919 35.0117C54.2773 34.7414 54.305 34.597 54.3043 34.2715C54.3044 34.1278 54.3044 34.1278 54.3045 33.9812C54.3023 33.882 54.3001 33.7828 54.2979 33.6806C54.2986 33.581 54.2994 33.4814 54.3002 33.3788C54.3207 32.8642 54.3207 32.8642 54.1114 32.4179C53.8787 32.2309 53.7658 32.224 53.4701 32.2225C53.3783 32.2212 53.2864 32.22 53.1918 32.2187C53.0412 32.2192 53.0412 32.2192 52.8875 32.2197C52.7285 32.2183 52.7285 32.2183 52.5663 32.2169C52.215 32.2143 51.8639 32.2142 51.5126 32.2143C51.2689 32.2136 51.0252 32.2127 50.7815 32.2118C50.2704 32.2103 49.7593 32.2102 49.2481 32.2108C48.5926 32.2115 47.9371 32.2081 47.2815 32.2037C46.7781 32.2009 46.2748 32.2005 45.7713 32.2009C45.5296 32.2008 45.2879 32.1997 45.0462 32.1978C44.7083 32.1953 44.3707 32.1964 44.0329 32.1983C43.9327 32.1969 43.8325 32.1954 43.7293 32.1939C43.1575 32.1972 43.1575 32.1972 42.7037 32.5292ZM42.5469 37.5156C42.4685 37.7479 42.4685 37.7479 42.4819 37.9843C42.4822 38.0694 42.4825 38.1545 42.4828 38.2421C42.4859 38.3295 42.489 38.4168 42.4922 38.5068C42.4919 38.5946 42.4916 38.6823 42.4913 38.7728C42.4977 39.1552 42.5107 39.4171 42.6938 39.7574C43.1131 40.138 43.6641 40.049 44.1956 40.0506C44.3479 40.0517 44.3479 40.0517 44.5034 40.0528C44.8399 40.0549 45.1763 40.0562 45.5128 40.0573C45.6851 40.058 45.6851 40.058 45.8609 40.0586C46.4686 40.0609 47.0762 40.0625 47.6839 40.0635C48.312 40.0647 48.9401 40.0685 49.5681 40.0728C50.0508 40.0757 50.5334 40.0766 51.0161 40.077C51.2477 40.0775 51.4792 40.0788 51.7108 40.0808C52.0347 40.0835 52.3585 40.0834 52.6824 40.0826C52.7781 40.084 52.8738 40.0854 52.9724 40.0869C53.42 40.083 53.6472 40.066 54.0359 39.8245C54.2839 39.5572 54.3201 39.4473 54.3226 39.0879C54.3233 38.9926 54.324 38.8972 54.3248 38.799C54.3227 38.7004 54.3205 38.6017 54.3184 38.5C54.3215 38.3519 54.3215 38.3519 54.3248 38.2009C54.3241 38.1056 54.3234 38.0103 54.3226 37.9121C54.322 37.8255 54.3214 37.7389 54.3208 37.6498C54.2117 37.2746 54.033 37.1738 53.7031 36.9687C53.3607 36.9044 53.0235 36.9078 52.6758 36.9104C52.5218 36.909 52.5218 36.909 52.3647 36.9075C52.0258 36.905 51.687 36.9058 51.3481 36.9068C51.1124 36.9062 50.8766 36.9055 50.6408 36.9047C50.1469 36.9036 49.653 36.9041 49.1591 36.9057C48.5261 36.9076 47.8932 36.905 47.2602 36.9011C46.7734 36.8987 46.2866 36.8989 45.7998 36.8998C45.5664 36.8999 45.3331 36.8991 45.0997 36.8975C44.7734 36.8956 44.4473 36.8972 44.1211 36.8997C44.0247 36.8984 43.9283 36.8971 43.829 36.8958C43.2161 36.9053 42.9344 37.0002 42.5469 37.5156ZM42.7044 42.045C42.553 42.317 42.4909 42.4628 42.4888 42.769C42.4882 42.8487 42.4876 42.9283 42.4871 43.0104C42.4888 43.092 42.4904 43.1737 42.4922 43.2578C42.4905 43.3394 42.4888 43.4211 42.4871 43.5052C42.4876 43.5848 42.4882 43.6645 42.4888 43.7466C42.4893 43.8181 42.4898 43.8897 42.4903 43.9634C42.5803 44.3199 42.7155 44.4811 42.9844 44.7344C43.329 44.817 43.6681 44.8079 44.0211 44.8034C44.1261 44.8042 44.231 44.8049 44.3392 44.8057C44.6863 44.8076 45.0333 44.8055 45.3804 44.8031C45.6215 44.8032 45.8626 44.8035 46.1037 44.8039C46.609 44.8043 47.1143 44.8026 47.6196 44.7996C48.2677 44.7959 48.9157 44.7966 49.5638 44.7986C50.0617 44.7998 50.5595 44.7988 51.0574 44.7972C51.2963 44.7966 51.5353 44.7966 51.7743 44.7973C52.1082 44.7979 52.4419 44.7957 52.7758 44.7927C52.8748 44.7934 52.9738 44.7941 53.0758 44.7949C53.6232 44.7894 53.6232 44.7894 54.0925 44.5265C54.2716 44.2653 54.3062 44.1292 54.3081 43.8149C54.3087 43.7245 54.3092 43.6342 54.3098 43.5411C54.3073 43.4008 54.3073 43.4008 54.3047 43.2578C54.3064 43.1643 54.3081 43.0708 54.3098 42.9745C54.309 42.839 54.309 42.839 54.3081 42.7007C54.3076 42.6187 54.3071 42.5367 54.3066 42.4522C54.2222 42.1041 54.1016 41.9957 53.8125 41.7812C53.4676 41.7145 53.1262 41.7204 52.7758 41.7229C52.6183 41.7215 52.6183 41.7215 52.4577 41.72C52.1106 41.7175 51.7636 41.7183 51.4165 41.7193C51.1754 41.7187 50.9343 41.718 50.6932 41.7172C50.1879 41.7161 49.6826 41.7166 49.1773 41.7182C48.5292 41.7201 47.8812 41.7175 47.2331 41.7136C46.7352 41.7112 46.2374 41.7114 45.7395 41.7123C45.5005 41.7124 45.2616 41.7116 45.0226 41.71C44.6887 41.7081 44.355 41.7097 44.0211 41.7122C43.9221 41.7109 43.8231 41.7096 43.7211 41.7083C43.1539 41.7133 43.1539 41.7133 42.7044 42.045ZM42.6562 46.8125C42.472 47.181 42.5129 47.5902 42.5059 47.9951C42.5018 48.0834 42.4977 48.1718 42.4935 48.2628C42.4922 48.3488 42.4909 48.4349 42.4896 48.5236C42.4875 48.6018 42.4853 48.68 42.4831 48.7606C42.5865 49.1487 42.7806 49.3002 43.0938 49.5469C43.4362 49.6265 43.7707 49.6205 44.1211 49.6159C44.2751 49.6171 44.2751 49.6171 44.4322 49.6182C44.7711 49.6201 45.1098 49.618 45.4487 49.6156C45.6845 49.6157 45.9203 49.616 46.156 49.6164C46.65 49.6168 47.1439 49.6151 47.6378 49.6121C48.2708 49.6084 48.9037 49.6091 49.5367 49.6111C50.0235 49.6123 50.5102 49.6113 50.997 49.6097C51.2304 49.6091 51.4638 49.6091 51.6972 49.6098C52.0235 49.6104 52.3496 49.6082 52.6758 49.6052C52.7722 49.6059 52.8686 49.6066 52.9679 49.6074C53.4162 49.6004 53.6473 49.5816 54.0363 49.3397C54.284 49.0727 54.3201 48.9626 54.3226 48.6035C54.3233 48.5082 54.324 48.4129 54.3248 48.3147C54.3227 48.216 54.3205 48.1173 54.3184 48.0156C54.3215 47.8676 54.3215 47.8676 54.3248 47.7165C54.3241 47.6212 54.3234 47.5259 54.3226 47.4277C54.322 47.3411 54.3214 47.2546 54.3208 47.1654C54.2118 46.7905 54.0326 46.6894 53.7031 46.4844C53.3638 46.4211 53.0302 46.4257 52.6859 46.4295C52.5842 46.4289 52.4826 46.4283 52.3779 46.4277C52.0426 46.4263 51.7074 46.4281 51.3721 46.4301C51.1387 46.4301 50.9054 46.4299 50.6721 46.4296C50.1833 46.4295 49.6946 46.4308 49.2058 46.4333C48.5795 46.4364 47.9532 46.4361 47.3268 46.4347C46.8451 46.434 46.3634 46.4348 45.8816 46.4362C45.6507 46.4367 45.4197 46.4367 45.1888 46.4363C44.866 46.436 44.5432 46.4378 44.2204 46.4402C44.0774 46.4394 44.0774 46.4394 43.9314 46.4387C43.4179 46.445 43.0722 46.4766 42.6562 46.8125ZM42.5469 51.8437C42.4672 52.0633 42.4672 52.0633 42.4781 52.2846C42.4779 52.3643 42.4777 52.444 42.4774 52.526C42.4801 52.6077 42.4827 52.6893 42.4854 52.7734C42.4842 52.855 42.483 52.9367 42.4817 53.0208C42.4873 53.4392 42.5222 53.662 42.7421 54.0278C43.2113 54.4581 43.779 54.3756 44.3866 54.3752C44.4839 54.3756 44.5812 54.376 44.6815 54.3764C45.0032 54.3774 45.3249 54.3776 45.6465 54.3777C45.8702 54.3781 46.0939 54.3784 46.3176 54.3788C46.7864 54.3795 47.2552 54.3797 47.724 54.3796C48.3247 54.3796 48.9254 54.3811 49.5262 54.383C49.9881 54.3842 50.45 54.3844 50.9119 54.3844C51.1334 54.3845 51.3549 54.385 51.5764 54.3858C51.8861 54.3869 52.1958 54.3866 52.5055 54.3859C52.597 54.3865 52.6884 54.3871 52.7826 54.3878C53.3661 54.3846 53.8176 54.3542 54.25 53.9219C54.302 53.5642 54.2905 53.2028 54.291 52.8418C54.295 52.6923 54.295 52.6923 54.2991 52.5397C54.2996 52.4434 54.3 52.3471 54.3004 52.2479C54.3013 52.1599 54.3022 52.072 54.3031 51.9814C54.2258 51.622 54.1091 51.5165 53.8125 51.2969C53.4714 51.2303 53.1342 51.236 52.7876 51.2385C52.6838 51.2376 52.5801 51.2366 52.4732 51.2357C52.1302 51.2332 51.7873 51.2339 51.4443 51.2349C51.2059 51.2343 50.9675 51.2336 50.7291 51.2328C50.2294 51.2317 49.7297 51.2322 49.23 51.2338C48.5895 51.2357 47.9491 51.2331 47.3087 51.2293C46.8163 51.2269 46.324 51.227 45.8317 51.2279C45.5955 51.228 45.3594 51.2273 45.1233 51.2257C44.7931 51.2238 44.463 51.2253 44.1328 51.2278C44.0353 51.2265 43.9377 51.2253 43.8372 51.2239C43.2209 51.2334 42.9367 51.3251 42.5469 51.8437Z" fill="#377E7F"/>
<path d="M25.6096 35.1763C25.7709 35.1754 25.7709 35.1754 25.9354 35.1746C26.2887 35.1731 26.6419 35.1741 26.9951 35.1752C27.2419 35.175 27.4887 35.1746 27.7355 35.1742C28.2518 35.1737 28.7681 35.1744 29.2844 35.176C29.9449 35.1778 30.6054 35.1768 31.2659 35.1748C31.7753 35.1736 32.2846 35.174 32.7939 35.1748C33.0374 35.1751 33.2809 35.1748 33.5244 35.174C33.8652 35.1732 34.2059 35.1745 34.5467 35.1763C34.6964 35.1753 34.6964 35.1753 34.8491 35.1743C35.6008 35.1817 36.1735 35.3306 36.8252 35.7246C37.731 36.6549 37.7669 37.7209 37.7515 38.9529C37.7263 39.5746 37.6455 40.0422 37.3105 40.5781C37.1555 40.886 37.1555 40.886 37.2601 41.1182C37.3752 41.3434 37.3752 41.3434 37.5071 41.5488C37.9728 42.4668 37.833 43.8887 37.5878 44.8604C37.5156 45.0625 37.5156 45.0625 37.3105 45.4043C37.2496 45.56 37.2496 45.56 37.1875 45.7188C37.3528 46.0763 37.3528 46.0763 37.5071 46.2759C37.9603 47.0772 37.8229 48.5801 37.6455 49.458C37.5156 49.875 37.5156 49.875 37.3105 50.1553C37.156 50.4086 37.156 50.4086 37.2601 50.6261C37.3375 50.7736 37.4197 50.9188 37.5071 51.0606C37.962 51.9721 37.8509 53.4127 37.5908 54.3752C37.3345 55.067 36.8367 55.5547 36.1974 55.9038C35.7183 56.0468 35.2536 56.0341 34.756 56.0352C34.5873 56.0369 34.5873 56.0369 34.4151 56.0385C34.0434 56.0417 33.6717 56.0432 33.3 56.0444C33.041 56.0457 32.782 56.047 32.523 56.0482C31.9799 56.0505 31.4368 56.0518 30.8937 56.0526C30.1995 56.0538 29.5053 56.059 28.8111 56.0652C28.2759 56.0693 27.7408 56.0704 27.2057 56.0708C26.9498 56.0714 26.694 56.0732 26.4382 56.0761C26.0793 56.0798 25.7206 56.0794 25.3617 56.078C25.257 56.08 25.1524 56.082 25.0446 56.0841C24.2523 56.0744 23.7045 55.8269 23.0781 55.3438C22.4428 54.5814 22.3821 53.8096 22.3809 52.8555C22.3782 52.7528 22.3755 52.6502 22.3727 52.5444C22.37 51.8717 22.4824 51.3705 22.7718 50.762C22.8886 50.5152 22.8886 50.5152 22.791 50.1758C22.7414 50.0765 22.6918 49.9773 22.6406 49.875C22.3787 49.2629 22.3855 48.6837 22.3877 48.0293C22.3859 47.9248 22.3842 47.8203 22.3824 47.7127C22.3819 47.039 22.4821 46.5548 22.75 45.9375C22.8472 45.6699 22.8806 45.5547 22.7763 45.2862C22.7142 45.1738 22.7142 45.1738 22.6509 45.0591C22.3652 44.4571 22.3568 43.9155 22.3672 43.2578C22.3655 43.1505 22.3638 43.0432 22.3621 42.9327C22.3655 42.2782 22.4586 41.8047 22.7763 41.2295C22.9285 40.8377 22.7422 40.5601 22.5821 40.1876C22.3714 39.6327 22.3696 39.1016 22.374 38.5137C22.3718 38.412 22.3697 38.3104 22.3674 38.2056C22.368 37.4069 22.5029 36.6148 23.0412 35.9932C23.7783 35.2884 24.6327 35.1698 25.6096 35.1763ZM24.1719 37.5156C24.0953 37.7373 24.0953 37.7373 24.1108 37.9604C24.1116 38.0405 24.1123 38.1207 24.1131 38.2033C24.1167 38.2854 24.1203 38.3675 24.124 38.4521C24.1247 38.5347 24.1253 38.6173 24.1259 38.7023C24.1346 39.296 24.1346 39.296 24.3906 39.8125C24.7269 40.0189 24.9831 40.059 25.3746 40.0609C25.5372 40.0626 25.5372 40.0626 25.7031 40.0643C25.8776 40.0646 25.8776 40.0646 26.0556 40.065C26.3019 40.0678 26.5482 40.0705 26.7945 40.0733C27.1829 40.0765 27.5713 40.0791 27.9597 40.0812C28.3344 40.0835 28.7092 40.0878 29.0839 40.0923C29.2005 40.0924 29.317 40.0924 29.4371 40.0924C29.5992 40.0946 29.5992 40.0946 29.7646 40.0968C29.8597 40.0974 29.9548 40.0979 30.0527 40.0985C30.348 40.1495 30.4448 40.2336 30.625 40.4688C30.6724 40.6807 30.6724 40.6807 30.6729 40.9063C30.675 40.9807 30.6771 41.0551 30.6793 41.1318C30.6009 41.438 30.4531 41.5091 30.1875 41.6719C29.9261 41.7118 29.9261 41.7118 29.6327 41.7105C29.4674 41.7111 29.4674 41.7111 29.2987 41.7117C29.1803 41.7107 29.0619 41.7097 28.9399 41.7086C28.6891 41.71 28.4384 41.7114 28.1876 41.7129C27.7922 41.7133 27.3969 41.7129 27.0016 41.7113C26.62 41.7104 26.2385 41.7127 25.8569 41.7155C25.7385 41.714 25.6202 41.7125 25.4982 41.711C24.8509 41.7051 24.8509 41.7051 24.3163 42.0312C24.1829 42.3055 24.1158 42.4685 24.1138 42.769C24.1132 42.8487 24.1126 42.9284 24.1121 43.0104C24.1138 43.0921 24.1154 43.1737 24.1172 43.2578C24.1155 43.3394 24.1138 43.4211 24.1121 43.5052C24.1126 43.5848 24.1132 43.6645 24.1138 43.7466C24.1143 43.8181 24.1148 43.8897 24.1153 43.9634C24.2053 44.32 24.3404 44.4811 24.6094 44.7344C24.9541 44.8165 25.2932 44.8068 25.6461 44.8017C25.7511 44.8023 25.856 44.8029 25.9642 44.8035C26.3113 44.8048 26.6583 44.8021 27.0054 44.7993C27.2465 44.7991 27.4876 44.7991 27.7287 44.7993C28.234 44.7991 28.7393 44.7971 29.2446 44.7937C29.8927 44.7893 30.5407 44.7888 31.1888 44.7897C31.6867 44.79 32.1845 44.7887 32.6824 44.7868C32.9213 44.786 33.1603 44.7857 33.3993 44.7858C33.7332 44.7856 34.0669 44.7833 34.4008 44.7803C34.4998 44.7806 34.5988 44.7809 34.7008 44.7813C35.2314 44.7758 35.2314 44.7758 35.716 44.5796C36.0582 44.2064 36.0021 43.7492 36.0049 43.2646C36.0064 43.143 36.008 43.0213 36.0096 42.8959C35.9842 42.5442 35.9304 42.3104 35.7656 42C35.4059 41.7602 35.289 41.7531 34.8705 41.7475C34.7048 41.7434 34.7048 41.7434 34.5358 41.7392C34.3034 41.7353 34.071 41.7319 33.8385 41.7289C33.7279 41.726 33.6173 41.7231 33.5034 41.7202C33.4023 41.7187 33.3013 41.7172 33.1973 41.7157C32.8739 41.6642 32.7215 41.5662 32.4844 41.3438C32.4301 41.1318 32.4301 41.1318 32.4365 40.9063C32.4367 40.8318 32.4368 40.7574 32.437 40.6807C32.4992 40.4024 32.5885 40.3156 32.8125 40.1406C33.072 40.1003 33.072 40.1003 33.3756 40.1C33.4856 40.0981 33.5956 40.0962 33.7089 40.0943C33.9399 40.0933 34.1709 40.0927 34.4019 40.0926C35.0691 40.0846 35.0691 40.0846 35.6742 39.8292C36.0253 39.4176 36.0051 39.0366 36.0117 38.5137C36.0145 38.3809 36.0174 38.248 36.0203 38.1112C35.9816 37.7051 35.9025 37.5085 35.6562 37.1875C35.3249 36.9666 35.261 36.9412 34.8896 36.9388C34.8006 36.9377 34.7117 36.9366 34.6201 36.9355C34.5229 36.9354 34.4258 36.9353 34.3256 36.9352C34.223 36.9343 34.1203 36.9334 34.0146 36.9325C33.6746 36.9298 33.3345 36.9289 32.9945 36.9282C32.7584 36.9272 32.5223 36.9262 32.2862 36.9252C31.791 36.9234 31.2958 36.9225 30.8006 36.9222C30.1659 36.9216 29.5312 36.9175 28.8965 36.9125C28.4088 36.9092 27.9211 36.9085 27.4334 36.9083C27.1993 36.9079 26.9653 36.9065 26.7314 36.9042C26.404 36.9013 26.0769 36.9018 25.7495 36.9032C25.6044 36.9008 25.6044 36.9008 25.4564 36.8983C24.842 36.9056 24.5605 36.9988 24.1719 37.5156ZM24.3906 46.7031C24.0874 47.0993 24.1277 47.5854 24.124 48.0635C24.1204 48.1456 24.1168 48.2277 24.1131 48.3123C24.1124 48.3925 24.1116 48.4727 24.1108 48.5552C24.1093 48.6275 24.1078 48.6997 24.1063 48.7742C24.2158 49.1512 24.413 49.3055 24.7188 49.5469C25.062 49.6257 25.3969 49.6183 25.7478 49.6124C25.9021 49.6131 25.9021 49.6131 26.0595 49.6137C26.3989 49.6145 26.7382 49.6113 27.0776 49.608C27.3136 49.6075 27.5496 49.6073 27.7857 49.6072C28.2801 49.6065 28.7744 49.604 29.2688 49.6001C29.9028 49.5952 30.5367 49.5936 31.1707 49.5932C31.6579 49.5927 32.1452 49.591 32.6324 49.5889C32.8662 49.588 33.1 49.5872 33.3338 49.5867C33.6603 49.5857 33.9867 49.5833 34.3132 49.5804C34.4584 49.5803 34.4584 49.5803 34.6065 49.5802C34.6956 49.5791 34.7846 49.578 34.8764 49.5769C34.9535 49.5764 35.0307 49.5758 35.1101 49.5753C35.3694 49.5415 35.5435 49.465 35.7656 49.3281C35.9969 48.9124 36.0139 48.5402 36.0117 48.0703C36.0123 47.9496 36.0128 47.8289 36.0134 47.7046C35.9766 47.2668 35.9039 46.9616 35.6013 46.6354C35.1845 46.405 34.7904 46.4396 34.3215 46.4437C34.2198 46.4433 34.118 46.4429 34.0131 46.4424C33.6767 46.4416 33.3403 46.443 33.0039 46.4446C32.7702 46.4447 32.5364 46.4446 32.3027 46.4445C31.8128 46.4445 31.3229 46.4456 30.8331 46.4476C30.2049 46.4501 29.5767 46.4501 28.9485 46.4494C28.4658 46.449 27.9832 46.4498 27.5005 46.4508C27.2689 46.4513 27.0372 46.4514 26.8056 46.4512C26.4819 46.4512 26.1583 46.4526 25.8347 46.4543C25.7388 46.4541 25.6429 46.4538 25.544 46.4535C25.4116 46.4547 25.4116 46.4547 25.2764 46.4559C25.1617 46.4562 25.1617 46.4562 25.0447 46.4565C24.7876 46.4896 24.6126 46.571 24.3906 46.7031ZM24.1719 51.8438C24.0922 52.0633 24.0922 52.0633 24.1031 52.2847C24.1029 52.3643 24.1027 52.444 24.1024 52.5261C24.1051 52.6077 24.1077 52.6893 24.1104 52.7734C24.1092 52.8551 24.108 52.9367 24.1067 53.0208C24.1123 53.4392 24.1472 53.6621 24.3671 54.0278C24.8363 54.4581 25.404 54.3756 26.0116 54.3753C26.1089 54.3756 26.2062 54.376 26.3065 54.3764C26.6282 54.3774 26.9499 54.3776 27.2715 54.3777C27.4952 54.3781 27.7189 54.3785 27.9426 54.3789C28.4114 54.3795 28.8802 54.3797 29.349 54.3796C29.9497 54.3796 30.5504 54.3811 31.1512 54.383C31.6131 54.3842 32.075 54.3844 32.5369 54.3844C32.7584 54.3845 32.9799 54.385 33.2014 54.3858C33.5111 54.3869 33.8208 54.3866 34.1305 54.3859C34.222 54.3866 34.3134 54.3872 34.4076 54.3878C34.9911 54.3847 35.4426 54.3542 35.875 53.9219C36.1206 53.2261 36.0835 52.3328 35.834 51.6523C35.6776 51.3958 35.6776 51.3958 35.4375 51.2969C35.1034 51.2838 34.7716 51.2774 34.4374 51.2758C34.3337 51.2749 34.23 51.274 34.1232 51.2731C33.779 51.2703 33.4348 51.2685 33.0906 51.267C32.9733 51.2664 32.8559 51.2658 32.735 51.2652C32.1138 51.2623 31.4927 51.2602 30.8715 51.2586C30.2293 51.2568 29.5872 51.2519 28.945 51.2463C28.4517 51.2426 27.9585 51.2414 27.4652 51.2407C27.2284 51.24 26.9917 51.2383 26.755 51.2357C26.4237 51.2323 26.0926 51.2322 25.7613 51.2331C25.6634 51.2313 25.5655 51.2295 25.4646 51.2276C24.8467 51.2338 24.5624 51.3231 24.1719 51.8438Z" fill="#377E7F"/>
<path d="M54.8985 -0.035861C54.9755 -0.0376829 55.0524 -0.0395048 55.1317 -0.0413818C55.4163 -0.0404032 55.63 -0.0227776 55.882 0.114396C56.0677 0.450783 56.0441 0.785259 56.0359 1.15915C56.0348 1.24835 56.0337 1.33755 56.0326 1.42946C56.0048 2.81384 55.8953 4.19618 55.7904 5.57647C55.7593 5.98637 55.7308 6.39642 55.703 6.80655C55.6808 7.12521 55.6569 7.44372 55.6325 7.76221C55.6212 7.91352 55.6106 8.06488 55.6006 8.21629C55.5867 8.42644 55.5699 8.6364 55.553 8.84634C55.5442 8.9654 55.5355 9.08446 55.5265 9.20713C55.4374 9.58187 55.3197 9.72126 55.0156 9.95315C54.5452 10.0394 54.3035 10.0641 53.9048 9.79251C53.7559 9.66138 53.6103 9.52633 53.469 9.38705C53.2671 9.18899 53.0556 9.02677 52.8281 8.8594C52.7402 8.94948 52.7402 8.94948 52.6506 9.04137C52.0972 9.60795 51.5422 10.1729 50.9854 10.7362C50.6992 11.0258 50.4136 11.3159 50.1295 11.6075C49.8551 11.8891 49.5791 12.169 49.3019 12.4479C49.1966 12.5544 49.0919 12.6614 48.9878 12.7691C48.8415 12.9202 48.693 13.069 48.5443 13.2177C48.4605 13.303 48.3767 13.3882 48.2904 13.476C47.9401 13.7257 47.6763 13.7633 47.25 13.7813C46.8661 13.5727 46.7347 13.4366 46.5937 13.0225C46.5937 12.3896 47.0246 12.0094 47.449 11.5783C47.5272 11.4984 47.5272 11.4984 47.607 11.4169C47.7785 11.2423 47.9508 11.0685 48.1233 10.8948C48.2119 10.8053 48.2119 10.8053 48.3023 10.7139C48.6146 10.3983 48.9276 10.0833 49.2411 9.7689C49.5641 9.44465 49.8851 9.11841 50.2056 8.79166C50.4532 8.54003 50.7022 8.28988 50.9516 8.04011C51.0706 7.92047 51.189 7.80028 51.3069 7.67954C51.472 7.51065 51.6392 7.34397 51.8069 7.17766C51.9013 7.0824 51.9958 6.98714 52.0931 6.88899C52.4563 6.62393 52.7102 6.57866 53.1562 6.56253C53.4775 6.71975 53.4775 6.71975 53.7031 6.89065C53.8889 6.51902 53.8642 6.09469 53.8911 5.68496C53.898 5.58678 53.9048 5.48859 53.9119 5.38742C53.9339 5.07277 53.9553 4.75809 53.9765 4.44339C53.9978 4.12947 54.0193 3.81557 54.0412 3.50169C54.0548 3.30622 54.0681 3.11072 54.081 2.9152C54.0872 2.82616 54.0934 2.73711 54.0998 2.64538C54.1051 2.56734 54.1103 2.48931 54.1157 2.40891C54.1413 2.18172 54.1896 1.9703 54.25 1.75003C54.1875 1.7672 54.1251 1.78437 54.0607 1.80206C53.8173 1.8583 53.5901 1.88469 53.3411 1.90194C53.2492 1.9085 53.1573 1.91506 53.0625 1.92182C52.9643 1.92844 52.8661 1.93505 52.7649 1.94186C52.6129 1.95255 52.6129 1.95255 52.4578 1.96346C52.1346 1.98611 51.8115 2.00821 51.4883 2.0303C51.2689 2.04558 51.0496 2.06088 50.8303 2.07623C50.2931 2.11374 49.756 2.15076 49.2187 2.18753C49.1993 2.41178 49.1993 2.41178 49.3349 2.59085C49.4889 2.97062 49.4236 3.21339 49.3281 3.6094C49.1327 3.86804 48.9519 4.07539 48.7229 4.2994C48.6272 4.39686 48.6272 4.39686 48.5296 4.49628C48.3159 4.71315 48.0999 4.9276 47.8838 5.14212C47.7299 5.29727 47.5761 5.45256 47.4225 5.60797C47.005 6.02935 46.5855 6.44862 46.1655 6.86742C45.815 7.21718 45.4656 7.56795 45.1161 7.91871C44.2919 8.74607 43.4659 9.57171 42.6388 10.3963C41.7854 11.2472 40.9348 12.1009 40.0855 12.956C39.3564 13.69 38.6255 14.4223 37.8933 15.1533C37.4559 15.5899 37.0192 16.0271 36.5841 16.466C36.175 16.8785 35.7638 17.2888 35.3509 17.6976C35.1997 17.848 35.0493 17.9991 34.8996 18.151C34.6952 18.3583 34.4883 18.5627 34.2805 18.7666C34.1925 18.8578 34.1925 18.8578 34.1028 18.9507C33.7902 19.2515 33.5521 19.3985 33.1237 19.4167C32.7036 19.3595 32.5621 19.3276 32.2711 19.036C32.1986 18.9656 32.1262 18.8952 32.0515 18.8227C31.9778 18.7472 31.9041 18.6716 31.8281 18.5938C31.753 18.5209 31.6779 18.448 31.6005 18.3729C31.353 18.1321 31.1089 17.8881 30.8653 17.6434C30.7734 17.5515 30.6816 17.4597 30.5869 17.365C30.286 17.0641 29.9855 16.7627 29.685 16.4614C29.4755 16.2515 29.2658 16.0418 29.0561 15.832C28.5624 15.338 28.069 14.8437 27.5757 14.3493C27.0136 13.7859 26.4511 13.2228 25.8886 12.6598C24.7327 11.5027 23.5772 10.3453 22.4219 9.18753C21.8013 9.70266 21.2334 10.2556 20.6678 10.8302C20.4691 11.0311 20.2703 11.232 20.0716 11.4328C19.9662 11.5396 19.8608 11.6463 19.7554 11.7531C19.4276 12.085 19.0991 12.4161 18.7705 12.7471C18.7148 12.8032 18.6592 12.8592 18.6018 12.917C18.4881 13.0315 18.3744 13.146 18.2607 13.2605C17.4966 14.0301 16.7329 14.8002 15.9712 15.5723C15.456 16.0946 14.9395 16.6158 14.4217 17.1356C14.1482 17.4102 13.8754 17.6855 13.6039 17.9621C13.3016 18.2703 12.9967 18.5758 12.6915 18.8812C12.6024 18.9729 12.5133 19.0645 12.4215 19.1589C11.7362 19.8381 11.7362 19.8381 11.2743 19.9135C10.9341 19.9062 10.7674 19.8955 10.5 19.6875C10.2768 19.4006 10.2811 19.2516 10.3034 18.8844C10.4016 18.4341 10.5142 18.2788 10.8361 17.9571C10.9321 17.8596 11.0281 17.762 11.127 17.6615C11.2341 17.556 11.3413 17.4505 11.4486 17.345C11.561 17.232 11.6733 17.119 11.7854 17.0057C12.0897 16.6994 12.396 16.3952 12.7027 16.0913C13.0236 15.7729 13.3429 15.4528 13.6623 15.1329C14.1989 14.5961 14.7368 14.0607 15.2755 13.526C15.8982 12.9079 16.519 12.2879 17.1388 11.6667C17.7352 11.069 18.3329 10.4726 18.9312 9.87675C19.1857 9.62323 19.4399 9.3693 19.6936 9.11505C19.9925 8.8158 20.2924 8.51766 20.5932 8.22035C20.7034 8.11107 20.8132 8.00142 20.9227 7.89137C21.0721 7.74124 21.223 7.59259 21.374 7.44402C21.458 7.36043 21.5421 7.27683 21.6286 7.1907C21.9091 6.97365 22.0687 6.90761 22.4219 6.89065C22.8516 7.00901 23.105 7.20497 23.4165 7.51772C23.5446 7.64517 23.5446 7.64517 23.6754 7.7752C23.7675 7.8685 23.8596 7.96181 23.9545 8.05794C24.1019 8.20521 24.1019 8.20521 24.2522 8.35545C24.5209 8.62407 24.7886 8.89369 25.0561 9.16349C25.3361 9.44552 25.617 9.72661 25.8978 10.0078C26.4291 10.5402 26.9596 11.0733 27.4898 11.6068C28.0935 12.2142 28.6982 12.8207 29.303 13.4272C30.5468 14.6744 31.7894 15.9228 33.0312 17.1719C33.7694 16.566 34.4354 15.8918 35.1087 15.2162C35.2402 15.0847 35.3718 14.9531 35.5034 14.8216C35.8589 14.4662 36.214 14.1104 36.569 13.7546C36.9407 13.3822 37.3128 13.0101 37.6848 12.6379C38.3884 11.9339 39.0918 11.2297 39.7951 10.5253C40.5961 9.7231 41.3974 8.9212 42.1987 8.11933C43.8463 6.47053 45.4936 4.82135 47.1406 3.1719C47.0368 3.04976 46.9328 2.92773 46.8287 2.80575C46.7708 2.73779 46.7129 2.66982 46.6533 2.59979C46.5154 2.44187 46.3709 2.28982 46.2246 2.13968C45.9596 1.72181 45.9845 1.47537 46.0469 0.984403C46.2787 0.675348 46.4191 0.562181 46.7978 0.47353C46.9798 0.460414 46.9798 0.460414 47.1654 0.447034C47.3036 0.436118 47.4417 0.425202 47.584 0.413956C47.735 0.404091 47.886 0.394291 48.037 0.384549C48.1935 0.373068 48.35 0.36143 48.5065 0.349642C48.8354 0.325281 49.1643 0.302245 49.4934 0.280248C49.9093 0.252427 50.325 0.222286 50.7407 0.19128C53.5654 -0.0189715 53.5654 -0.0189715 54.8985 -0.035861Z" fill="#377E7F"/>
<path d="M45.5 14.3281C45.8512 14.5877 46.0158 14.7584 46.1289 15.1826C45.9083 16.12 44.7958 16.9073 44.1335 17.5681C44.0195 17.6823 43.9055 17.7964 43.7916 17.9106C43.4845 18.2182 43.1772 18.5254 42.8697 18.8325C42.5473 19.1546 42.2252 19.4769 41.9031 19.7992C41.363 20.3396 40.8226 20.8797 40.2821 21.4196C39.6569 22.0442 39.0322 22.6692 38.4076 23.2943C37.8706 23.8318 37.3334 24.3691 36.796 24.9062C36.4754 25.2267 36.1548 25.5473 35.8343 25.868C35.5337 26.169 35.2329 26.4696 34.9318 26.77C34.8212 26.8805 34.7107 26.991 34.6003 27.1016C34.4501 27.2522 34.2994 27.4024 34.1488 27.5526C34.0645 27.6368 33.9802 27.7211 33.8933 27.8079C33.6239 28.0594 33.4959 28.105 33.1269 28.164C32.6812 28.1065 32.6125 28.069 32.2993 27.7825C32.1845 27.6777 32.1845 27.6777 32.0674 27.5708C31.6603 27.1845 31.2612 26.7911 30.8653 26.3933C30.7734 26.3015 30.6816 26.2096 30.5869 26.115C30.286 25.814 29.9855 25.5127 29.6851 25.2113C29.4755 25.0015 29.2658 24.7917 29.0561 24.582C28.5624 24.0879 28.069 23.5936 27.5757 23.0992C27.0136 22.5358 26.4511 21.9728 25.8886 21.4098C24.7327 20.2527 23.5772 19.0952 22.4219 17.9375C21.9119 18.3635 21.4289 18.806 20.9616 19.2781C20.8634 19.3767 20.8634 19.3767 20.7632 19.4772C20.5459 19.6953 20.329 19.9139 20.1121 20.1324C19.9556 20.2896 19.799 20.4469 19.6425 20.6041C19.3064 20.9416 18.9705 21.2793 18.6347 21.6171C18.1038 22.1511 17.5723 22.6844 17.0407 23.2176C16.8585 23.4004 16.6763 23.5831 16.4941 23.7659C16.4029 23.8573 16.3117 23.9488 16.2178 24.0431C14.9809 25.2839 13.7445 26.5252 12.5093 27.7677C11.675 28.6069 10.8399 29.4452 10.0039 30.2828C9.56178 30.7258 9.12005 31.1692 8.67926 31.6136C8.26525 32.031 7.85025 32.4474 7.43444 32.863C7.2819 33.0159 7.12973 33.1691 6.97797 33.3227C6.77109 33.532 6.56291 33.7399 6.35434 33.9475C6.29432 34.0089 6.23431 34.0702 6.17247 34.1335C5.84423 34.457 5.60957 34.6502 5.14062 34.6719C4.69888 34.5514 4.43498 34.3382 4.10997 34.0222C4.01804 33.9334 3.92611 33.8446 3.83139 33.7532C3.73373 33.6569 3.63608 33.5606 3.53546 33.4615C3.43427 33.3621 3.33308 33.2628 3.22882 33.1605C3.01519 32.9503 2.80232 32.7394 2.58983 32.528C2.31827 32.2583 2.0438 31.9917 1.76851 31.7257C1.5054 31.4702 1.24579 31.2112 0.985652 30.9527C0.837502 30.8106 0.8375 30.8106 0.686356 30.6657C0.596151 30.5745 0.505948 30.4833 0.413009 30.3893C0.333051 30.3106 0.253091 30.2318 0.17071 30.1507C-0.081632 29.7201 -0.116118 29.3605 -4.54485e-06 28.875C0.206071 28.5342 0.472929 28.2761 0.759586 28.0019C0.840311 27.9209 0.921036 27.8398 1.00421 27.7563C1.27074 27.4899 1.5406 27.2272 1.81066 26.9643C1.99672 26.7798 2.18256 26.5951 2.3682 26.4102C2.85684 25.9247 3.34841 25.4423 3.8406 24.9604C4.34181 24.4685 4.83992 23.9735 5.33844 23.4789C6.0657 22.7585 6.79364 22.0389 7.5246 21.3223C7.60154 21.2466 7.67848 21.1708 7.75776 21.0927C7.828 21.024 7.89824 20.9553 7.97062 20.8846C8.03171 20.8247 8.09281 20.7647 8.15576 20.703C8.38658 20.4961 8.52792 20.4535 8.83886 20.4121C9.1875 20.4531 9.1875 20.4531 9.50195 20.6855C9.73437 21 9.73437 21 9.8164 21.3076C9.56794 22.3635 8.16477 23.3489 7.41058 24.1001C7.25961 24.2508 7.10867 24.4016 6.95775 24.5524C6.56296 24.9468 6.16784 25.3409 5.77264 25.7348C5.36844 26.1379 4.96455 26.5413 4.56063 26.9447C3.76989 27.7343 2.97881 28.5235 2.1875 29.3125C2.29081 29.434 2.39427 29.5554 2.49779 29.6767C2.55538 29.7443 2.61298 29.8119 2.67233 29.8815C2.90731 30.151 3.15674 30.4033 3.41027 30.6553C3.56254 30.8071 3.56254 30.8071 3.71789 30.9619C3.82299 31.066 3.92809 31.1702 4.0332 31.2744C4.14089 31.3815 4.24856 31.4887 4.3562 31.5959C4.61742 31.8558 4.8789 32.1155 5.14062 32.375C5.65055 31.9491 6.13319 31.5067 6.60014 31.0343C6.66554 30.9686 6.73094 30.9029 6.79832 30.8352C7.01535 30.6171 7.23199 30.3986 7.44863 30.1801C7.60498 30.0228 7.76135 29.8656 7.91775 29.7083C8.25347 29.3708 8.58903 29.0331 8.92449 28.6953C9.45489 28.1614 9.98596 27.628 10.5172 27.0949C10.6518 26.9597 10.6518 26.9597 10.7892 26.8218C10.9726 26.6377 11.1561 26.4535 11.3396 26.2694C12.5755 25.0287 13.811 23.7875 15.045 22.5448C15.8784 21.7054 16.7128 20.867 17.5483 20.0297C17.9901 19.5868 18.4315 19.1434 18.8717 18.6988C19.2852 18.2812 19.6999 17.8648 20.1157 17.4494C20.2681 17.2967 20.42 17.1435 20.5715 16.9898C20.7781 16.7802 20.9863 16.5724 21.195 16.365C21.2547 16.3036 21.3144 16.2422 21.3759 16.179C21.6427 15.917 21.8554 15.7566 22.2114 15.6364C22.7937 15.6441 23.1277 15.9909 23.5217 16.386C23.6062 16.4702 23.6907 16.5544 23.7778 16.6412C23.8689 16.7331 23.96 16.825 24.0539 16.9196C24.151 17.0168 24.2482 17.1139 24.3483 17.214C24.6138 17.4794 24.8787 17.7456 25.1434 18.0118C25.4205 18.2903 25.6982 18.5682 25.9759 18.8461C26.5012 19.372 27.0259 19.8986 27.5505 20.4253C28.1478 21.0251 28.7458 21.6243 29.3438 22.2234C30.5737 23.4556 31.8027 24.6884 33.0312 25.9219C33.6825 25.3822 34.2782 24.7984 34.8743 24.1989C34.9807 24.0922 35.0872 23.9856 35.1936 23.8791C35.4214 23.6509 35.649 23.4227 35.8765 23.1942C36.236 22.8332 36.596 22.4726 36.9561 22.112C37.7194 21.3474 38.4823 20.5824 39.2451 19.8174C40.0707 18.9894 40.8963 18.1615 41.7224 17.3342C42.0805 16.9756 42.4384 16.6166 42.796 16.2575C43.0179 16.0348 43.24 15.8124 43.4621 15.59C43.6146 15.4372 43.7669 15.2841 43.9191 15.131C44.0094 15.0407 44.0997 14.9503 44.1928 14.8573C44.3107 14.739 44.3107 14.739 44.4311 14.6182C44.7764 14.2963 45.0347 14.2734 45.5 14.3281Z" fill="#377E7F"/>
<path d="M16.349 38.9008C18.1191 40.5393 19.4758 42.93 19.5782 45.3906C19.5838 45.516 19.5894 45.6413 19.5952 45.7704C19.6699 48.2662 18.9395 50.8012 17.2198 52.6572C17.0233 52.8619 16.8243 53.0637 16.625 53.2656C16.5332 53.3712 16.5332 53.3712 16.4396 53.4788C15.11 54.972 12.8484 55.8552 10.9024 56.0332C10.5374 56.0476 10.1748 56.0511 9.8096 56.0478C9.6165 56.0467 9.6165 56.0467 9.4195 56.0456C8.40471 56.0269 7.52009 55.9028 6.56253 55.5625C6.44677 55.5216 6.33102 55.4807 6.21176 55.4386C3.77602 54.4943 1.85944 52.6813 0.751714 50.3154C-0.221801 48.0546 -0.3849 45.3132 0.437528 42.9844C0.474608 42.8724 0.511689 42.7605 0.549893 42.6451C1.42545 40.2833 3.30501 38.4274 5.53116 37.3217C9.18351 35.6761 13.3123 36.2915 16.349 38.9008ZM3.65683 40.9272C2.00424 42.8344 1.58109 45.0254 1.75003 47.4687C1.95173 49.0738 2.75981 50.5459 3.82815 51.7344C3.88483 51.8012 3.94151 51.868 3.99991 51.9369C5.18225 53.2381 7.07997 54.1389 8.82456 54.2724C11.1982 54.3532 13.2888 53.9208 15.0938 52.2812C15.174 52.211 15.2542 52.1408 15.3369 52.0685C16.8972 50.6179 17.7036 48.6918 17.8521 46.5818C17.9095 44.6187 17.3022 42.7683 16.0782 41.2344C15.9788 41.1081 15.9788 41.1081 15.8773 40.9793C14.7162 39.5883 13.0338 38.646 11.2657 38.2812C11.1461 38.2564 11.0265 38.2316 10.9033 38.206C8.06197 37.9653 5.61903 38.8738 3.65683 40.9272Z" fill="#377E7F"/>
<path d="M10.1932 39.9574C10.3906 40.0313 10.3906 40.0313 10.6094 40.2774C10.721 40.5844 10.7465 40.8014 10.7187 41.125C10.7835 41.1436 10.8482 41.1622 10.9148 41.1814C11.4423 41.3432 11.8451 41.4985 12.25 41.8906C12.4191 42.2288 12.3915 42.5025 12.3594 42.875C12.1953 43.1416 12.1953 43.1416 11.9219 43.3125C11.4534 43.387 11.1222 43.3628 10.7187 43.0938C10.7187 43.7796 10.7187 44.4653 10.7187 45.1719C10.8992 45.208 11.0797 45.2441 11.2656 45.2813C12.1438 45.7158 12.5794 46.2886 12.9473 47.1748C13.1171 48.1767 12.9181 49.0297 12.3594 49.875C12.018 50.3066 11.7066 50.6225 11.1767 50.791C10.8144 50.9256 10.8144 50.9256 10.7469 51.1952C10.7147 51.371 10.6848 51.5472 10.6572 51.7237C10.6094 51.9531 10.6094 51.9531 10.4248 52.1787C10.0612 52.3261 9.79456 52.3298 9.40624 52.2813C9.13963 52.1104 9.13963 52.1104 8.96874 51.8438C8.94139 51.4336 8.94139 51.4336 8.96874 51.0781C8.82662 51.0533 8.6845 51.0285 8.53807 51.0029C7.84744 50.85 7.18133 50.5845 6.78124 49.9844C6.73545 49.5647 6.72147 49.3159 6.9453 48.9522C7.35157 48.6982 7.62165 48.7257 8.09374 48.7813C8.38249 48.9256 8.67124 49.07 8.96874 49.2188C8.96874 48.2442 8.96874 47.2697 8.96874 46.2656C8.75217 46.1935 8.53561 46.1213 8.31249 46.0469C7.69988 45.7511 7.37233 45.3212 7.09654 44.7066C6.83799 43.9023 6.93301 43.175 7.31401 42.4303C7.66736 41.825 8.02048 41.5388 8.64061 41.2344C8.74889 41.2344 8.85717 41.2344 8.96874 41.2344C8.95746 41.099 8.94618 40.9637 8.93456 40.8242C8.93651 40.4578 8.95129 40.3817 9.18749 40.0791C9.5674 39.8971 9.78502 39.8811 10.1932 39.9574ZM8.85936 43.3125C8.82327 43.5652 8.78717 43.8178 8.74999 44.0781C8.85827 44.1323 8.85827 44.1323 8.96874 44.1875C8.96874 43.8988 8.96874 43.61 8.96874 43.3125C8.93264 43.3125 8.89655 43.3125 8.85936 43.3125ZM10.7187 47.1406C10.7187 47.7181 10.7187 48.2956 10.7187 48.8906C11.2049 48.4163 11.2049 48.4163 11.2656 47.7969C11.1208 47.434 11.1208 47.434 10.9375 47.1406C10.8653 47.1406 10.7931 47.1406 10.7187 47.1406Z" fill="#377E7F"/>
</g>
<defs>
<clipPath id="clip0_14_165">
<rect width="56" height="56" fill="white"/>
</clipPath>
</defs>
</svg>
