<svg width="56" height="56" viewBox="0 0 56 56" fill="none" xmlns="http://www.w3.org/2000/svg">
<g clip-path="url(#clip0_14_157)">
<path d="M27.918 -0.0410152C28.0287 -0.0409557 28.1394 -0.0408962 28.2534 -0.0408349C30.0612 -0.0363798 31.804 0.0624271 33.5781 0.4375C33.6921 0.461522 33.806 0.485543 33.9235 0.510292C40.4021 1.92344 46.48 5.66899 50.4219 11.0469C50.4683 11.1091 50.5148 11.1714 50.5627 11.2356C51.2753 12.1916 51.9133 13.1809 52.5 14.2188C52.544 14.2961 52.588 14.3735 52.6333 14.4531C54.0198 16.9159 54.9436 19.5679 55.5352 22.3262C55.5678 22.4765 55.5678 22.4765 55.6011 22.6299C55.9629 24.405 56.0448 26.1792 56.041 27.9863C56.0409 28.1477 56.0409 28.1477 56.0408 28.3122C56.0255 34.3624 54.0745 40.2892 50.3125 45.0625C50.2271 45.1711 50.1416 45.2796 50.0536 45.3915C48.7039 47.0681 47.2118 48.6729 45.5 49.9844C45.3712 50.086 45.2425 50.1877 45.1138 50.2894C43.4768 51.566 41.6921 52.6076 39.8125 53.4844C39.7351 53.5209 39.6578 53.5575 39.5781 53.5952C39.3425 53.7058 39.1061 53.8143 38.8691 53.9219C38.7623 53.9716 38.7623 53.9716 38.6533 54.0224C38.2214 54.2135 37.8778 54.3056 37.4063 54.25C37.0428 53.9814 36.8839 53.8206 36.791 53.375C36.8839 52.9293 37.0615 52.7953 37.4063 52.5C37.6931 52.3415 37.9915 52.2197 38.2949 52.0967C39.9944 51.3719 41.59 50.5117 43.0938 49.4375C43.1643 49.3876 43.2349 49.3377 43.3076 49.2864C44.4516 48.4731 45.4799 47.5724 46.4844 46.5938C46.587 46.4955 46.6897 46.3972 46.7954 46.296C47.4384 45.6698 48.0131 45.0062 48.5625 44.2969C48.6083 44.2382 48.6541 44.1794 48.7013 44.1189C52.9971 38.5715 54.839 31.6035 54.0504 24.6472C53.987 24.1934 53.9048 23.7456 53.8125 23.2969C53.7937 23.2002 53.775 23.1035 53.7556 23.0039C52.756 17.9199 50.285 13.3493 46.7031 9.625C46.6518 9.57127 46.6005 9.51753 46.5476 9.46217C45.8418 8.72674 45.1035 8.06019 44.2969 7.4375C44.2383 7.39187 44.1797 7.34624 44.1194 7.29923C38.5339 2.97349 31.5985 1.17737 24.6094 1.96875C19.5329 2.61582 14.5157 4.83279 10.7158 8.28217C9.85847 9.04303 9.85847 9.04303 9.39942 9.04395C8.75589 8.87805 8.29796 8.24319 7.875 7.76563C7.54768 8.47087 7.33106 9.20207 7.1081 9.94586C7.06729 10.0807 7.02648 10.2156 6.98444 10.3546C6.87671 10.7106 6.7695 11.0669 6.66241 11.4231C6.55274 11.7877 6.44256 12.152 6.33243 12.5164C6.11696 13.2295 5.90206 13.9428 5.6875 14.6562C6.49532 14.4249 7.28397 14.1544 8.07282 13.8654C8.31699 13.7768 8.56116 13.6881 8.80533 13.5995C9.18657 13.4607 9.56774 13.3217 9.94883 13.1825C10.3191 13.0474 10.6896 12.9129 11.0601 12.7785C11.2319 12.7155 11.2319 12.7155 11.4071 12.6511C11.513 12.6128 11.619 12.5744 11.7281 12.5349C11.8212 12.5009 11.9143 12.4669 12.0103 12.4319C12.25 12.3594 12.25 12.3594 12.5781 12.3594C12.4622 12.2247 12.3459 12.0903 12.2295 11.9561C12.1601 11.8755 12.0908 11.795 12.0193 11.7121C11.8043 11.4655 11.8043 11.4655 11.4912 11.2109C11.239 10.9052 11.1629 10.6899 11.1956 10.2906C11.3494 9.78962 11.7466 9.50946 12.1406 9.1875C12.2041 9.13544 12.2675 9.08338 12.3328 9.02974C13.4799 8.09756 14.6866 7.29567 15.9688 6.5625C16.0448 6.51853 16.1209 6.47456 16.1993 6.42925C19.3314 4.63581 23.1416 3.51087 26.7618 3.47394C26.8496 3.47287 26.9373 3.4718 27.0277 3.47069C31.3942 3.42842 35.4992 4.14868 39.3853 6.23208C39.5246 6.30673 39.6645 6.38046 39.8048 6.45329C41.6363 7.40445 43.244 8.64223 44.7344 10.0625C44.8818 10.1887 45.0298 10.3141 45.1787 10.4385C46.9211 11.9666 48.3168 13.9528 49.4375 15.9688C49.5118 16.0984 49.5862 16.228 49.6605 16.3575C52.6865 21.7299 53.3795 28.5552 51.7403 34.4777C51.6678 34.7255 51.5925 34.9722 51.5156 35.2188C51.4893 35.3044 51.463 35.3901 51.4359 35.4784C49.6221 41.2768 45.532 46.3273 40.25 49.3281C40.1751 49.3708 40.1001 49.4135 40.0229 49.4575C36.7875 51.2794 32.9564 52.5006 29.2189 52.5222C29.1297 52.523 29.0405 52.5238 28.9485 52.5245C28.662 52.5264 28.3754 52.5271 28.0889 52.5273C27.9419 52.5275 27.9419 52.5275 27.7919 52.5276C26.3072 52.5258 24.8645 52.4748 23.4063 52.1719C23.3111 52.1525 23.2159 52.1332 23.1178 52.1132C18.3664 51.122 14.2111 48.8479 10.7188 45.5C10.6151 45.4022 10.5115 45.3043 10.4047 45.2035C8.65072 43.5067 7.24888 41.4238 6.125 39.2656C6.08413 39.1875 6.04326 39.1093 6.00116 39.0288C4.24045 35.6132 3.45237 31.8923 3.45899 28.0684C3.45887 27.9684 3.45874 27.8684 3.45862 27.7655C3.45966 26.0325 3.55571 24.3187 3.9967 22.6331C4.07709 22.2947 4.07776 22.0021 4.04688 21.6562C3.88501 21.3759 3.88501 21.3759 3.60938 21.2188C3.27724 21.1713 3.06339 21.1408 2.78266 21.3392C2.38198 21.867 2.31858 22.6556 2.1875 23.2969C2.17051 23.3773 2.15352 23.4576 2.13602 23.5405C1.55843 26.4153 1.57564 29.8364 2.1875 32.7031C2.2104 32.8122 2.23329 32.9212 2.25688 33.0335C3.15606 37.2164 4.86245 41.2337 7.65625 44.5156C7.75344 44.6329 7.85056 44.7503 7.94764 44.8677C9.07784 46.2227 10.2938 47.4948 11.7031 48.5625C11.8071 48.6417 11.8071 48.6417 11.9131 48.7226C15.3021 51.2896 19.0444 52.9118 23.1875 53.8125C23.3342 53.8447 23.3342 53.8447 23.4838 53.8776C26.3635 54.4742 29.8305 54.4088 32.7031 53.8125C32.8185 53.7889 32.8185 53.7889 32.9361 53.7648C33.2654 53.6962 33.5932 53.6243 33.9199 53.5446C34.4059 53.4515 34.7611 53.4168 35.2051 53.6484C35.4876 53.9808 35.4986 54.1561 35.4995 54.5781C35.4104 54.8927 35.2467 55.0232 35 55.2344C34.7288 55.3308 34.7288 55.3308 34.4245 55.389C34.2542 55.4225 34.2542 55.4225 34.0804 55.4565C33.962 55.478 33.8436 55.4994 33.7217 55.5215C33.6088 55.5438 33.496 55.566 33.3797 55.589C31.5898 55.9301 29.8394 56.0446 28.0205 56.041C27.859 56.041 27.859 56.041 27.6942 56.0409C25.9045 56.0371 24.179 55.928 22.4219 55.5625C22.3225 55.542 22.2232 55.5215 22.1208 55.5004C21.4841 55.3644 20.8586 55.2004 20.2344 55.0156C20.1448 54.9893 20.0552 54.963 19.9629 54.9359C16.8786 54.0114 13.9355 52.6002 11.375 50.6406C11.3124 50.5934 11.2497 50.5463 11.1852 50.4977C10.2104 49.7621 9.30084 48.9723 8.42188 48.125C8.36106 48.0666 8.30024 48.0082 8.23758 47.948C7.43809 47.176 6.69134 46.3844 6.01563 45.5C5.95911 45.427 5.90259 45.354 5.84436 45.2788C4.87745 44.0247 4.03233 42.7376 3.28125 41.3438C3.24215 41.2721 3.20304 41.2005 3.16275 41.1268C1.86102 38.723 0.964662 36.12 0.41016 33.4482C0.393611 33.3692 0.377062 33.2902 0.360012 33.2089C0.0273533 31.4927 -0.0408498 29.7772 -0.0341763 28.0342C-0.0339318 27.8757 -0.0339318 27.8757 -0.0336823 27.7141C-0.0293405 26.148 0.0244386 24.6188 0.328128 23.0781C0.3451 22.9867 0.362072 22.8952 0.379558 22.801C0.430412 22.5305 0.484166 22.2608 0.540042 21.9912C0.555939 21.9141 0.571836 21.8371 0.588214 21.7577C0.75367 21.0352 0.999959 20.2995 1.63379 19.8652C1.74017 19.7895 1.74017 19.7895 1.8487 19.7123C2.53589 19.3105 3.15571 19.2938 3.9375 19.3594C4.69666 19.5834 5.32625 20.0506 5.73535 20.7334C6.25989 21.946 5.78602 23.4187 5.52133 24.6499C5.39243 25.355 5.3405 26.0437 5.33332 26.7589C5.33171 26.8916 5.33171 26.8916 5.33007 27.027C5.31083 29.0297 5.34474 30.9602 5.79688 32.9219C5.83029 33.0724 5.83029 33.0724 5.86438 33.226C6.79165 37.2964 8.90641 40.9265 11.776 43.9253C11.9004 44.0556 12.0232 44.1874 12.1458 44.3195C12.7489 44.9524 13.4344 45.4799 14.13 46.0062C14.2566 46.1021 14.3827 46.1985 14.5083 46.2956C17.0159 48.2296 20.0004 49.5113 23.0781 50.2031C23.1781 50.2261 23.2781 50.2491 23.3812 50.2728C28.9103 51.4907 35.1489 50.394 39.9219 47.3594C45.0865 44.0342 48.7835 39.0692 50.1669 33.0408C50.4416 31.7528 50.6548 30.4728 50.6628 29.1536C50.6636 29.0689 50.6644 28.9843 50.6652 28.897C50.6886 26.2444 50.6886 26.2444 50.3125 23.625C50.2908 23.5259 50.269 23.4267 50.2467 23.3246C49.3393 19.3126 47.5194 15.7578 44.7442 12.7217C44.5502 12.507 44.3645 12.2887 44.1807 12.0654C43.8188 11.643 43.4128 11.2911 42.9844 10.9375C42.8987 10.8662 42.8987 10.8662 42.8112 10.7934C39.7546 8.25906 36.2764 6.49452 32.375 5.6875C32.2505 5.66064 32.2505 5.66064 32.1235 5.63324C28.4168 4.86574 24.3442 5.2702 20.7813 6.45313C20.7021 6.47935 20.623 6.50557 20.5414 6.53259C19.4051 6.91726 18.3382 7.41926 17.2813 7.98438C17.215 8.01962 17.1487 8.05487 17.0804 8.09119C15.8179 8.76934 14.6555 9.57328 13.5625 10.5C13.6073 10.5568 13.6522 10.6136 13.6984 10.6722C14.2174 11.3439 14.5146 11.8081 14.4375 12.6875C14.2135 13.3099 13.816 13.7164 13.225 14.0002C12.959 14.1058 12.6913 14.2023 12.4209 14.2961C12.2706 14.3501 12.2706 14.3501 12.1173 14.4052C11.7974 14.5198 11.4769 14.6325 11.1563 14.7451C10.9477 14.8194 10.7392 14.8938 10.5308 14.9684C10.2178 15.0802 9.90483 15.1917 9.59146 15.3024C9.05169 15.4929 8.51361 15.687 7.97754 15.8877C7.86975 15.9279 7.76195 15.968 7.65089 16.0093C7.4466 16.0856 7.24259 16.1626 7.03891 16.2404C6.23872 16.5381 5.50146 16.7651 4.68433 16.4161C4.24804 16.156 3.98867 15.7941 3.82813 15.3125C3.74754 14.3859 4.01627 13.5804 4.29126 12.7076C4.33936 12.5517 4.38735 12.3958 4.43525 12.2399C4.53554 11.9145 4.63675 11.5894 4.7387 11.2645C4.86863 10.8503 4.99666 10.4355 5.12405 10.0205C5.22291 9.69888 5.32256 9.37755 5.42247 9.05629C5.46992 8.90352 5.51719 8.7507 5.56426 8.5978C6.19495 6.55451 6.19495 6.55451 6.78809 6.07031C7.31066 5.82136 7.85887 5.7964 8.42188 5.90625C8.75533 6.08584 9.01807 6.30868 9.29688 6.5625C9.4593 6.67078 9.4593 6.67078 9.625 6.78125C9.69733 6.71125 9.69733 6.71125 9.77112 6.63983C11.6998 4.84789 14.0301 3.5118 16.4063 2.40625C16.4822 2.37063 16.5581 2.33501 16.6364 2.29832C18.8787 1.26134 21.2924 0.58029 23.7344 0.21875C23.8567 0.199593 23.979 0.180436 24.105 0.160698C25.3757 -0.0206982 26.6357 -0.0436124 27.918 -0.0410152Z" fill="#377E7F"/>
<path d="M30.0234 14.4443C30.1583 14.4816 30.2932 14.5189 30.4322 14.5573C30.9348 14.6967 31.4361 14.8406 31.9375 14.9844C32.1635 15.0489 32.3894 15.1135 32.6154 15.178C34.1835 15.6264 35.7504 16.0789 37.3161 16.5354C37.6079 16.62 37.8999 16.7037 38.192 16.787C38.2777 16.8116 38.3633 16.8363 38.4516 16.8616C38.6067 16.9062 38.7619 16.9504 38.9173 16.9941C39.7149 17.2249 40.3401 17.555 40.7969 18.2656C41.1128 18.8811 41.1724 19.3661 41.1675 20.0525C41.1683 20.2018 41.1683 20.2018 41.1692 20.3542C41.1706 20.682 41.1697 21.0097 41.1686 21.3375C41.1688 21.5674 41.1691 21.7973 41.1695 22.0271C41.17 22.5091 41.1693 22.991 41.1678 23.473C41.1659 24.0857 41.167 24.6984 41.169 25.3111C41.1702 25.7863 41.1698 26.2615 41.1689 26.7367C41.1687 26.9623 41.169 27.1879 41.1697 27.4135C41.1742 29.0964 41.0772 30.7421 40.5234 32.3477C40.4964 32.4268 40.4694 32.506 40.4415 32.5876C39.8496 34.2311 38.9832 35.7562 37.8438 37.0781C37.7642 37.1715 37.6847 37.2648 37.6028 37.361C37.3606 37.6371 37.112 37.9052 36.8594 38.1719C36.7644 38.274 36.6693 38.376 36.5714 38.4812C34.8758 40.2652 32.7686 41.6128 30.6113 42.7725C30.5389 42.8116 30.4665 42.8508 30.3919 42.8911C29.2663 43.4789 28.1635 43.7535 26.8969 43.4505C24.21 42.5008 21.747 40.6464 19.6875 38.7188C19.5837 38.6222 19.48 38.5256 19.373 38.4261C16.9138 36.0841 15.0315 32.7512 14.8636 29.2976C14.8578 29.031 14.8552 28.7645 14.8539 28.4978C14.853 28.3971 14.8521 28.2963 14.8512 28.1925C14.8485 27.861 14.8467 27.5295 14.8451 27.1981C14.8445 27.0843 14.8439 26.9705 14.8433 26.8533C14.8404 26.2514 14.8383 25.6494 14.8367 25.0475C14.8353 24.5509 14.8322 24.0544 14.8277 23.5578C14.8223 22.9562 14.8196 22.3547 14.8189 21.7531C14.8181 21.5248 14.8165 21.2964 14.8138 21.068C14.7874 18.6324 14.7874 18.6324 15.709 17.623C16.8116 16.9288 18.2173 16.6714 19.4611 16.3161C19.6714 16.2557 19.8817 16.1953 20.092 16.1348C20.5304 16.0089 20.9689 15.8833 21.4075 15.7579C21.9692 15.5972 22.5308 15.436 23.0922 15.2746C23.5255 15.1501 23.9588 15.0258 24.3922 14.9017C24.5993 14.8423 24.8065 14.7828 25.0136 14.7233C25.3024 14.6404 25.5914 14.5578 25.8804 14.4752C25.9655 14.4507 26.0506 14.4263 26.1383 14.401C27.516 14.0086 28.6479 14.0501 30.0234 14.4443ZM26.2594 16.1999C26.1334 16.2355 26.0073 16.2711 25.8775 16.3078C25.4681 16.4238 25.0592 16.5414 24.6504 16.6592C24.3691 16.7396 24.0877 16.8198 23.8063 16.9001C23.3829 17.0209 22.9596 17.1418 22.5364 17.2635C21.7977 17.4757 21.0585 17.6855 20.3175 17.8898C19.9311 17.9964 19.545 18.1043 19.159 18.2125C18.9841 18.2612 18.8089 18.3093 18.6336 18.3569C18.3937 18.422 18.1545 18.4894 17.9153 18.5574C17.7837 18.5938 17.6521 18.6302 17.5166 18.6677C17.0989 18.8431 16.907 19.0036 16.625 19.3594C16.5714 19.6937 16.5511 19.9667 16.556 20.3004C16.5552 20.3941 16.5544 20.4877 16.5536 20.5842C16.5518 20.8939 16.5539 21.2034 16.5562 21.5131C16.5561 21.7303 16.5559 21.9474 16.5554 22.1645C16.5551 22.6207 16.5567 23.0768 16.5597 23.5329C16.5634 24.1113 16.5628 24.6896 16.5607 25.268C16.5596 25.7174 16.5606 26.1668 16.5622 26.6163C16.5628 26.8291 16.5627 27.0419 16.562 27.2547C16.5555 30.491 17.3993 33.5195 19.5781 35.9844C19.6944 36.1185 19.6944 36.1185 19.8131 36.2552C20.0588 36.5336 20.3096 36.8064 20.5625 37.0781C20.6756 37.204 20.6756 37.204 20.7911 37.3323C22.1753 38.8042 23.9169 39.9336 25.6855 40.8877C25.9098 41.0091 26.1318 41.134 26.3538 41.2596C26.4854 41.3312 26.6171 41.4026 26.749 41.4736C26.8597 41.5338 26.9704 41.594 27.0844 41.6561C27.7744 41.8903 28.3969 41.8775 29.0668 41.5843C29.2435 41.4953 29.4188 41.4036 29.5928 41.3096C29.6868 41.2605 29.7809 41.2114 29.8778 41.1609C31.8887 40.0916 33.6814 38.7558 35.3281 37.1875C35.4067 37.1147 35.4852 37.042 35.5661 36.967C37.644 34.9849 39.2405 31.9843 39.3864 29.0856C39.3922 28.8306 39.3948 28.5757 39.3961 28.3206C39.397 28.2243 39.3979 28.128 39.3988 28.0287C39.4015 27.7124 39.4033 27.3961 39.4049 27.0797C39.4058 26.9171 39.4058 26.9171 39.4067 26.7512C39.4096 26.1782 39.4117 25.6053 39.4133 25.0323C39.4148 24.5585 39.4178 24.0848 39.4223 23.611C39.4277 23.0378 39.4304 22.4647 39.4311 21.8914C39.4319 21.6733 39.4336 21.4552 39.4362 21.2371C39.4396 20.9323 39.4396 20.6277 39.4388 20.323C39.4406 20.2331 39.4424 20.1432 39.4443 20.0505C39.4395 19.6162 39.4108 19.4112 39.1581 19.0458C38.7402 18.7503 38.3497 18.6237 37.8593 18.4911C37.7629 18.4635 37.6664 18.4358 37.567 18.4073C37.2494 18.3168 36.9312 18.2288 36.6129 18.1409C36.3915 18.0783 36.1702 18.0156 35.9489 17.9527C35.3671 17.7879 34.7847 17.6253 34.2022 17.4631C33.6093 17.2976 33.0171 17.1299 32.4248 16.9625C31.56 16.7184 30.6951 16.4751 29.8297 16.2335C29.739 16.2082 29.6484 16.1829 29.555 16.1568C29.4714 16.1335 29.3879 16.1102 29.3018 16.0862C29.2295 16.066 29.1572 16.0459 29.0828 16.0251C29.0142 16.0065 28.9456 15.9879 28.875 15.9687C28.8019 15.9489 28.7288 15.929 28.6535 15.9085C27.8178 15.7185 27.0591 15.9677 26.2594 16.1999Z" fill="#377E7F"/>
<path d="M35.2188 23.625C35.9345 24.3073 36.1092 24.9303 36.1548 25.9031C35.9205 27.2339 34.8777 28.0894 33.9614 28.9942C33.8042 29.1512 33.6472 29.3082 33.4902 29.4654C33.1624 29.793 32.8337 30.1197 32.5042 30.4457C32.0826 30.863 31.6629 31.2822 31.2439 31.702C30.9204 32.0259 30.596 32.349 30.2713 32.6718C30.1163 32.826 29.9614 32.9805 29.8068 33.1353C29.5906 33.3512 29.3735 33.5661 29.1559 33.7806C29.0927 33.8442 29.0294 33.9078 28.9642 33.9733C28.3431 34.5816 27.7458 34.8513 26.8789 34.918C26.0279 34.8613 25.5303 34.6381 24.9008 34.049C24.8447 33.9966 24.7886 33.9442 24.7308 33.8903C24.5435 33.7144 24.3575 33.5371 24.1719 33.3594C24.1059 33.2963 24.0399 33.2331 23.972 33.1681C23.5448 32.7578 23.1217 32.3437 22.701 31.9268C22.5551 31.7828 22.4087 31.6393 22.2617 31.4965C20.4828 29.7671 20.4828 29.7671 20.275 28.5973C20.2937 27.7271 20.3751 27.1148 20.9859 26.4722C21.5787 25.9254 22.0604 25.6723 22.8799 25.6553C22.9942 25.6509 23.1086 25.6466 23.2264 25.6421C24.4344 25.8272 25.1892 26.6436 26.0042 27.4822C26.1966 27.6801 26.391 27.8757 26.5858 28.0712C26.7098 28.1967 26.8337 28.3224 26.9575 28.4482C27.0152 28.5064 27.0728 28.5647 27.1322 28.6247C27.4046 28.906 27.6487 29.1584 27.7812 29.5313C27.7651 29.9185 27.7124 30.1304 27.4873 30.4473C27.2344 30.625 27.2344 30.625 26.9336 30.7002C26.0007 30.5029 25.2139 29.3796 24.5684 28.7246C24.3741 28.5276 24.1795 28.3307 23.9847 28.1342C23.8998 28.048 23.8149 27.9618 23.7274 27.873C23.4339 27.5943 23.3341 27.5652 22.9209 27.5352C22.5481 27.534 22.5481 27.534 22.3193 27.6787C22.1811 27.9307 22.1167 28.1433 22.132 28.4322C22.442 29.4091 23.8264 30.4093 24.5462 31.129C24.755 31.3381 24.963 31.5481 25.171 31.7581C25.3046 31.892 25.4382 32.0259 25.572 32.1597C25.6644 32.2533 25.6644 32.2533 25.7588 32.3489C26.1692 32.7758 26.1692 32.7758 26.6875 33.0313C27.311 33.0064 27.6201 32.7245 28.039 32.2991C28.1051 32.2342 28.1711 32.1693 28.2392 32.1024C28.4567 31.8879 28.6721 31.6714 28.8874 31.4547C29.0382 31.3046 29.189 31.1546 29.3399 31.0046C29.6557 30.6901 29.9704 30.3746 30.2845 30.0584C30.6868 29.6537 31.0917 29.2516 31.4975 28.8504C31.8096 28.5411 32.12 28.2304 32.4301 27.9191C32.5788 27.7703 32.7279 27.6219 32.8776 27.4741C33.0869 27.2671 33.2939 27.058 33.5005 26.8483C33.5625 26.7878 33.6245 26.7274 33.6883 26.665C34.0837 26.2578 34.2212 25.9638 34.2344 25.375C34.0821 25.0536 33.9761 24.9651 33.6465 24.835C33.1402 24.8229 32.8526 25.119 32.4928 25.4528C32.3762 25.5702 32.2602 25.6881 32.1447 25.8065C32.0829 25.8689 32.0211 25.9313 31.9574 25.9956C31.7611 26.1938 31.5656 26.3928 31.3701 26.5918C31.1734 26.7915 30.9765 26.9911 30.7794 27.1904C30.657 27.3141 30.5349 27.4381 30.4131 27.5625C29.8855 28.0969 29.8855 28.0969 29.3809 28.1436C28.9844 28.1094 28.9844 28.1094 28.7178 27.9453C28.4803 27.5654 28.4555 27.227 28.5469 26.7969C28.743 26.4799 28.9964 26.2374 29.2655 25.9813C29.3392 25.908 29.4129 25.8348 29.4888 25.7593C29.6447 25.6053 29.8016 25.4523 29.9595 25.3003C30.2002 25.0684 30.4376 24.8334 30.6746 24.5977C30.8268 24.448 30.9791 24.2985 31.1317 24.1493C31.2379 24.0447 31.2379 24.0447 31.3462 23.938C32.4643 22.866 33.9709 22.5833 35.2188 23.625Z" fill="#377E7F"/>
</g>
<defs>
<clipPath id="clip0_14_157">
<rect width="56" height="56" fill="white"/>
</clipPath>
</defs>
</svg>
