<svg width="48" height="48" viewBox="0 0 48 48" fill="none" xmlns="http://www.w3.org/2000/svg">
<g clip-path="url(#clip0_14_197)">
<path d="M38.9063 5.15625C39.0721 5.28542 39.2381 5.41435 39.4043 5.54297C39.5196 5.63277 39.6348 5.7226 39.75 5.8125C40.133 5.49473 40.4885 5.16892 40.834 4.81054C41.2911 4.3534 41.6245 4.11627 42.2813 4.08984C42.8429 4.11005 43.1619 4.26251 43.5703 4.65234C43.9885 5.19371 44.0001 5.97531 44.0604 6.63501C44.0716 6.75112 44.0716 6.75112 44.0831 6.86957C44.1074 7.12263 44.131 7.37576 44.1544 7.6289C44.1712 7.80644 44.1879 7.98398 44.2047 8.16151C44.2397 8.53246 44.2742 8.90345 44.3085 9.27447C44.3523 9.74833 44.3974 10.2221 44.4428 10.6958C44.4777 11.062 44.5119 11.4283 44.5458 11.7946C44.5621 11.9692 44.5787 12.1438 44.5955 12.3184C44.619 12.5631 44.6414 12.8077 44.6635 13.0525C44.6741 13.159 44.6741 13.159 44.6849 13.2677C44.7381 13.8779 44.7462 14.4718 44.4727 15.0293C44.1024 15.4482 43.8499 15.6392 43.2915 15.6763C42.272 15.6725 41.2659 15.6026 40.251 15.5087C40.0784 15.493 39.9057 15.4773 39.7331 15.4616C39.3744 15.4288 39.0158 15.3953 38.6572 15.3616C38.1993 15.3186 37.7412 15.2781 37.283 15.2381C36.9277 15.2067 36.5725 15.1735 36.2174 15.1399C36.0486 15.1241 35.8796 15.1091 35.7106 15.0947C33.8908 14.9385 33.8908 14.9385 33.3391 14.2836C33.072 13.914 33.0303 13.5221 33.0538 13.0748C33.2062 12.1931 34.0717 11.5581 34.6875 10.9687C34.344 10.6031 33.988 10.3223 33.5684 10.0488C33.5061 10.0082 33.4439 9.96749 33.3797 9.9256C33.1913 9.80357 33.002 9.68291 32.8125 9.5625C32.6633 9.46624 32.6633 9.46624 32.5111 9.36804C29.9823 7.82698 26.9326 7.08319 23.9883 7.0957C23.9258 7.09581 23.8633 7.09592 23.7989 7.09603C22.3834 7.10086 21.0002 7.23525 19.6381 7.63586C19.3635 7.69702 19.1242 7.70778 18.8438 7.6875C18.5743 7.50002 18.4098 7.36037 18.3296 7.03381C18.3164 6.83789 18.3164 6.83789 18.375 6.46875C18.9028 5.93707 19.6375 5.86124 20.3438 5.71875C20.4128 5.70432 20.4819 5.68989 20.5531 5.67503C22.7914 5.22679 25.3311 5.24331 27.5625 5.71875C27.6408 5.73533 27.719 5.75192 27.7997 5.76901C30.2883 6.31367 32.7306 7.28116 34.7813 8.8125C34.8358 8.85289 34.8904 8.89328 34.9466 8.9349C35.3031 9.20019 35.653 9.47254 36 9.75C36.0709 9.80631 36.1419 9.86263 36.215 9.92065C36.5005 10.1549 36.7027 10.3456 36.8438 10.6875C36.855 11.1804 36.6363 11.429 36.3175 11.7718C35.8406 12.2581 35.3599 12.7404 34.875 13.2187C35.2176 13.3329 35.5538 13.3591 35.9111 13.392C35.9892 13.3994 36.0673 13.4069 36.1477 13.4145C36.4006 13.4386 36.6535 13.4622 36.9064 13.4857C37.0625 13.5005 37.2186 13.5153 37.3746 13.5301C37.9535 13.5849 38.5324 13.6391 39.1113 13.6934C40.4049 13.8152 41.6985 13.937 43.0313 14.0625C42.66 10.0716 42.66 10.0716 42.2813 6C42.0786 5.97928 42.0786 5.97928 41.9205 6.15342C41.852 6.22352 41.7835 6.29362 41.7129 6.36584C41.6382 6.44155 41.5635 6.51727 41.4866 6.59527C41.4085 6.67534 41.3304 6.7554 41.25 6.83789C41.0959 6.9952 40.9416 7.15231 40.7871 7.3092C40.7186 7.37941 40.6501 7.44961 40.5795 7.52195C40.3021 7.78703 40.0654 7.83136 39.6808 7.82446C39.2468 7.73601 38.9476 7.41195 38.625 7.125C34.1897 3.22333 28.2612 1.36173 22.3934 1.7135C17.7542 2.05391 13.0677 3.83495 9.56251 6.9375C9.45519 7.02958 9.45519 7.02958 9.34571 7.12353C8.14819 8.17136 7.01847 9.29606 6.09376 10.5937C6.04329 10.6644 5.99282 10.735 5.94082 10.8078C2.55741 15.5963 0.900427 21.5201 1.87345 27.3538C2.09919 28.7405 2.09919 28.7405 1.82813 29.2148C1.50401 29.3931 1.20589 29.4223 0.843758 29.3437C0.563626 29.195 0.482831 29.1027 0.377205 28.8007C0.0771576 27.2299 -0.0384507 25.7148 -0.0351487 24.1172C-0.0350665 24.02 -0.0349844 23.9228 -0.0348998 23.8227C-0.0305506 22.2594 0.0444922 20.752 0.375008 19.2187C0.397138 19.1151 0.419269 19.0114 0.44207 18.9046C0.916994 16.7581 1.66625 14.6816 2.71876 12.75C2.75096 12.6895 2.78317 12.629 2.81635 12.5666C3.91425 10.5063 5.32034 8.70683 6.93751 7.03125C7.02186 6.94303 7.10621 6.85481 7.19312 6.76391C7.73021 6.21319 8.30214 5.72542 8.90626 5.25C8.99436 5.17797 9.08246 5.10594 9.17323 5.03173C16.5999 -0.909615 27.142 -1.50509 38.9063 5.15625Z" fill="#377E7F"/>
<path d="M47.1563 18.6563C47.4343 18.8043 47.5168 18.8966 47.6228 19.1961C47.9283 20.7824 48.0383 22.3285 48.0352 23.9414C48.0352 24.0361 48.0351 24.1308 48.0351 24.2284C48.032 25.746 47.942 27.199 47.625 28.6875C47.6075 28.7741 47.5899 28.8607 47.5718 28.9499C47.1735 30.8882 46.5214 32.7228 45.6563 34.5C45.5975 34.6211 45.5975 34.6211 45.5376 34.7447C44.9281 35.9873 44.2248 37.1344 43.4063 38.25C43.3623 38.31 43.3183 38.37 43.273 38.4319C42.6016 39.3379 41.8445 40.1577 41.0625 40.9688C40.9851 41.0501 40.9076 41.1314 40.8278 41.2152C40.3626 41.6937 39.8671 42.1223 39.3424 42.5343C39.2332 42.6203 39.1245 42.7069 39.0162 42.794C37.9722 43.6325 36.8817 44.3381 35.7188 45C35.6587 45.0351 35.5986 45.0703 35.5367 45.1064C30.2354 48.2041 23.5623 48.7153 17.699 47.1969C14.5606 46.3425 11.6292 44.8812 9.09378 42.8438C8.92796 42.7146 8.76197 42.5857 8.59573 42.457C8.48047 42.3672 8.36522 42.2774 8.25003 42.1875C7.76002 42.5923 7.3156 43.0259 6.8749 43.4839C6.41764 43.9098 6.03971 43.9158 5.42947 43.9047C4.95187 43.8528 4.71853 43.6178 4.38284 43.3008C3.87492 42.4664 3.93269 41.2251 3.84231 40.2715C3.82532 40.0943 3.80832 39.9171 3.79132 39.74C3.75597 39.37 3.72106 38.9999 3.6864 38.6299C3.64206 38.1576 3.596 37.6854 3.54952 37.2133C3.51386 36.848 3.47942 36.4825 3.44532 36.1169C3.42888 35.9429 3.41198 35.7688 3.39462 35.5949C3.18236 33.4576 3.18236 33.4576 3.68557 32.8184C4.76634 31.9889 6.27445 32.3753 7.56375 32.4946C7.73873 32.5106 7.91372 32.5265 8.08871 32.5424C8.45292 32.5757 8.81708 32.6095 9.18121 32.6436C9.64633 32.6871 10.1116 32.7286 10.5769 32.7696C10.9374 32.8017 11.2976 32.8352 11.6579 32.869C11.8294 32.8849 12.001 32.9003 12.1726 32.9152C12.4124 32.9362 12.6521 32.959 12.8917 32.9823C12.9615 32.988 13.0312 32.9937 13.1031 32.9995C13.6711 33.0581 14.1938 33.2362 14.6133 33.6365C14.9131 34.1257 15.0309 34.5865 14.9063 35.1563C14.6521 35.688 14.3215 36.058 13.8985 36.4629C13.842 36.5181 13.7856 36.5732 13.7274 36.6301C13.5898 36.7645 13.4512 36.898 13.3125 37.0313C15.6148 39.4576 19.686 40.7168 22.9468 40.8942C23.302 40.9033 23.6564 40.9058 24.0117 40.9043C24.0742 40.9042 24.1367 40.9041 24.2011 40.904C25.6166 40.8992 26.9999 40.7648 28.362 40.3641C28.6365 40.303 28.8758 40.2922 29.1563 40.3125C29.4258 40.5 29.5903 40.6396 29.6704 40.9662C29.6836 41.1621 29.6836 41.1621 29.625 41.5313C29.0973 42.0629 28.3625 42.1388 27.6563 42.2813C27.5872 42.2957 27.5181 42.3101 27.4469 42.325C25.2087 42.7732 22.6689 42.7567 20.4375 42.2813C20.3593 42.2647 20.281 42.2481 20.2004 42.231C17.7117 41.6863 15.2694 40.7188 13.2188 39.1875C13.1642 39.1471 13.1096 39.1067 13.0534 39.0651C11.3052 37.764 11.3052 37.764 11.1826 37.1777C11.1888 36.6935 11.4831 36.4412 11.8128 36.1156C11.9522 35.982 12.0932 35.8504 12.2344 35.7188C12.3294 35.6275 12.4243 35.5361 12.5189 35.4445C12.7506 35.2216 12.9839 35.0007 13.2188 34.7813C11.268 34.5454 9.3118 34.3691 7.35496 34.192C7.24606 34.182 7.13716 34.1721 7.02496 34.1619C6.81883 34.1432 6.61269 34.1246 6.40654 34.1062C6.31333 34.0977 6.22012 34.0892 6.12408 34.0805C6.00282 34.0696 6.00282 34.0696 5.8791 34.0584C5.57442 34.0258 5.27189 33.9822 4.96878 33.9375C5.06455 34.9717 5.16069 36.0058 5.25728 37.0399C5.30212 37.5201 5.34684 38.0002 5.39127 38.4804C5.43414 38.9436 5.47733 39.4068 5.52074 39.87C5.53727 40.0469 5.55368 40.2238 5.56996 40.4007C5.59276 40.6481 5.61597 40.8955 5.63928 41.1428C5.64596 41.2163 5.65264 41.2898 5.65951 41.3656C5.68717 41.6551 5.72017 41.9105 5.81253 42.1875C5.86834 42.1312 5.92416 42.0749 5.98167 42.0169C6.1887 41.8083 6.39593 41.5998 6.60331 41.3916C6.69306 41.3014 6.78272 41.2111 6.87229 41.1207C7.00099 40.9908 7.13002 40.8613 7.25906 40.7318C7.33663 40.6538 7.4142 40.5757 7.49412 40.4953C7.73314 40.2694 7.8354 40.2252 8.16213 40.1719C8.78395 40.2508 9.15097 40.6782 9.60977 41.0812C13.3758 44.3223 18.2201 46.0731 23.1563 46.3125C23.2327 46.3163 23.3092 46.32 23.3879 46.3239C26.9879 46.471 30.612 45.6279 33.8438 44.0625C33.9084 44.0314 33.9731 44.0003 34.0397 43.9682C35.6144 43.2 37.1248 42.2247 38.4375 41.0625C38.5465 40.9688 38.5465 40.9688 38.6576 40.8732C39.8271 39.8483 40.8903 38.7519 41.8125 37.5C41.852 37.4475 41.8914 37.395 41.9321 37.3409C43.4654 35.2988 44.6183 32.9999 45.375 30.5625C45.397 30.4926 45.4189 30.4228 45.4415 30.3508C45.9676 28.6503 46.3221 26.8604 46.3316 25.077C46.3322 24.9942 46.3328 24.9115 46.3335 24.8262C46.3351 24.5605 46.3357 24.2949 46.336 24.0293C46.3362 23.939 46.3364 23.8487 46.3366 23.7557C46.3377 22.5742 46.3056 21.4319 46.0928 20.2669C46.0054 19.7748 45.9127 19.2338 46.1719 18.791C46.4951 18.6052 46.7916 18.5772 47.1563 18.6563Z" fill="#377E7F"/>
<path d="M28.4063 14.3437C28.6392 14.5987 28.6848 14.6938 28.7227 15.0469C28.6703 15.5354 28.6703 15.5354 28.4063 15.75C27.7512 15.9642 27.2095 15.7176 26.5895 15.4947C24.5624 14.7797 22.3033 15.0292 20.3438 15.8437C19.5615 16.2196 18.8514 16.6914 18.1875 17.25C18.1312 17.2939 18.0749 17.3377 18.0168 17.3829C16.3473 18.7194 15.3953 20.9515 15.1231 23.0215C14.9086 25.4783 15.6208 27.7949 17.1563 29.7187C17.2092 29.7861 17.2621 29.8534 17.3167 29.9227C18.7119 31.6094 20.8859 32.5961 23.0215 32.8769C25.5477 33.0974 27.8572 32.3401 29.8125 30.75C29.9054 30.6769 29.9984 30.6038 30.0941 30.5284C30.3969 30.262 30.6394 29.9843 30.8848 29.666C30.9294 29.6082 30.974 29.5504 31.02 29.4909C32.2843 27.8255 33.0925 25.6536 32.9063 23.5312C32.8976 23.4271 32.8889 23.3229 32.8799 23.2156C32.7694 22.1936 32.5151 21.2155 32.0969 20.2745C31.9491 19.9219 31.9188 19.6911 31.9688 19.3125C32.1708 19.0054 32.3123 18.9467 32.666 18.8437C33.0834 18.8437 33.1736 18.9324 33.4688 19.2187C34.7693 21.5108 34.8783 24.4805 34.1982 26.9773C33.3611 29.7697 31.4906 31.9985 28.9453 33.3984C26.4516 34.7039 23.5068 34.9417 20.8169 34.1345C17.9846 33.2137 15.841 31.2894 14.4543 28.6683C13.1749 26.1146 13.0964 23.1357 13.979 20.447C14.908 17.8235 16.8422 15.6618 19.3418 14.4551C22.034 13.2089 25.7268 12.8004 28.4063 14.3437Z" fill="#377E7F"/>
<path d="M24.4687 17.9999C24.6826 18.2138 24.7457 18.3342 24.7775 18.6372C24.7742 18.7285 24.7709 18.8199 24.7676 18.914C24.7638 19.0525 24.7638 19.0525 24.7599 19.1938C24.7566 19.2639 24.7533 19.334 24.75 19.4062C24.8539 19.4029 24.9578 19.3997 25.0649 19.3963C25.2021 19.3937 25.3393 19.3911 25.4765 19.3886C25.5792 19.3851 25.5792 19.3851 25.6838 19.3815C25.9855 19.3774 26.2095 19.3852 26.48 19.5252C26.6908 19.761 26.7097 19.942 26.7352 20.2496C26.7087 20.5523 26.5585 20.7037 26.3437 20.9062C26.0514 21.0524 25.7403 21.0127 25.4194 21.0131C25.2688 21.0149 25.1181 21.0167 24.9675 21.0186C24.7301 21.0213 24.4928 21.0234 24.2553 21.0234C24.0261 21.0237 23.7971 21.027 23.5679 21.0307C23.4624 21.0297 23.4624 21.0297 23.3547 21.0287C22.8244 21.0409 22.5902 21.1834 22.2187 21.5624C22.057 21.9227 22.1076 22.251 22.2129 22.623C22.4719 22.9605 22.7537 23.0607 23.1562 23.1562C23.6638 23.1996 24.1724 23.1927 24.6815 23.1892C25.5235 23.2009 26.121 23.3837 26.777 23.9194C27.382 24.6221 27.626 25.245 27.5947 26.1782C27.4973 26.9621 27.1238 27.6077 26.5312 28.1249C26.0876 28.4063 25.6384 28.6083 25.1074 28.5996C24.9895 28.5976 24.8715 28.5957 24.75 28.5937C24.7549 28.6988 24.7549 28.6988 24.7599 28.8061C24.7624 28.8984 24.7649 28.9908 24.7676 29.0859C24.7725 29.2229 24.7725 29.2229 24.7775 29.3627C24.7457 29.6657 24.6826 29.7861 24.4687 29.9999C24.1076 30.1003 23.8992 30.1284 23.5488 29.9882C23.302 29.7766 23.2334 29.6594 23.1562 29.3437C23.1426 29.0913 23.1477 28.8468 23.1562 28.5937C23.0105 28.5986 23.0105 28.5986 22.8618 28.6036C22.7334 28.6062 22.605 28.6088 22.4765 28.6113C22.4126 28.6136 22.3487 28.616 22.2828 28.6184C21.9917 28.6227 21.783 28.611 21.5229 28.4747C21.3085 28.2395 21.2904 28.0596 21.2648 27.7503C21.2913 27.4476 21.4414 27.2962 21.6562 27.0937C21.9486 26.9475 22.2597 26.9872 22.5806 26.9868C22.7312 26.985 22.8818 26.9832 23.0325 26.9813C23.2699 26.9786 23.5072 26.9765 23.7446 26.9765C23.9739 26.9762 24.2029 26.9729 24.4321 26.9692C24.5024 26.9699 24.5728 26.9705 24.6452 26.9712C25.1755 26.959 25.4098 26.8165 25.7812 26.4374C25.9486 26.0646 25.8967 25.7462 25.7578 25.371C25.5715 25.0916 25.4213 24.9663 25.0947 24.8797C24.8259 24.8411 24.5692 24.8318 24.2977 24.8305C24.1935 24.8287 24.0893 24.8269 23.9819 24.825C23.7653 24.8219 23.5488 24.8201 23.3322 24.8199C22.5267 24.8023 21.8696 24.6571 21.268 24.093C20.6622 23.4422 20.3982 22.7777 20.4115 21.8935C20.4926 21.1534 20.8012 20.4519 21.375 19.9687C21.9721 19.5761 22.4342 19.3926 23.1562 19.4062C23.1524 19.2921 23.1485 19.178 23.1445 19.0605C23.1463 18.7272 23.1684 18.4796 23.3437 18.1874C23.7206 17.8644 23.9987 17.8694 24.4687 17.9999Z" fill="#377E7F"/>
<path d="M14.9062 8.15619C15.1348 8.2558 15.1348 8.2558 15.2812 8.43744C15.3772 8.78275 15.4207 8.99326 15.2703 9.32404C15.0551 9.61471 14.8281 9.76939 14.5254 9.96674C14.4151 10.0402 14.305 10.1139 14.1951 10.1879C14.1407 10.2245 14.0864 10.261 14.0304 10.2987C13.5608 10.6236 13.1223 10.9961 12.691 11.3697C12.5694 11.4728 12.5694 11.4728 12.4453 11.5781C12.3733 11.6409 12.3013 11.7038 12.2271 11.7685C11.9417 11.9415 11.766 11.9427 11.4375 11.9062C11.1172 11.7211 10.9947 11.6076 10.875 11.2558C10.875 10.7641 11.1338 10.5107 11.4551 10.166C13.6818 7.99294 13.6818 7.99294 14.9062 8.15619Z" fill="#377E7F"/>
<path d="M36.75 36.1875C36.9743 36.337 37.0203 36.4366 37.1074 36.6914C37.1338 37.0604 37.0144 37.3085 36.7874 37.597C34.5409 39.8478 34.5409 39.8478 33.4453 39.8906C32.9277 39.8216 32.9277 39.8216 32.7188 39.5625C32.6251 39.2253 32.5811 39.0099 32.7195 38.6832C32.9762 38.3454 33.2873 38.1484 33.6387 37.916C34.2618 37.4921 34.8411 37.0421 35.4019 36.5387C35.8745 36.1175 36.1271 36.054 36.75 36.1875Z" fill="#377E7F"/>
<path d="M40.2188 31.4062C40.4697 31.58 40.5649 31.7021 40.6688 31.987C40.6949 32.3537 40.5505 32.6092 40.3828 32.9238C40.3535 32.9827 40.3241 33.0416 40.2938 33.1023C40.1378 33.4049 40.0384 33.5577 39.75 33.75C39.1028 33.8116 39.1028 33.8116 38.7656 33.6093C38.5609 33.2681 38.532 33.0036 38.625 32.625C39.2709 31.2711 39.2709 31.2711 40.2188 31.4062Z" fill="#377E7F"/>
<path d="M9 14.25C9.23438 14.3906 9.23438 14.3906 9.375 14.625C9.50629 15.2934 9.22446 15.7058 8.88062 16.2711C8.71875 16.5 8.71875 16.5 8.53125 16.5938C7.8595 16.6479 7.8595 16.6479 7.55273 16.4356C7.38296 16.1843 7.33401 16.0529 7.3125 15.75C7.40414 15.5099 7.49741 15.301 7.61719 15.0762C7.64655 15.0173 7.67592 14.9584 7.70618 14.8977C8.01148 14.3054 8.34239 14.1468 9 14.25Z" fill="#377E7F"/>
</g>
<defs>
<clipPath id="clip0_14_197">
<rect width="48" height="48" fill="white"/>
</clipPath>
</defs>
</svg>
