<svg width="57" height="56" viewBox="0 0 57 56" fill="none" xmlns="http://www.w3.org/2000/svg">
<g clip-path="url(#clip0_16_108)">
<path d="M46.9324 2.73213e-05C47.3698 0.446864 47.5122 0.908085 47.6822 1.49197C48.4625 4.41312 48.4625 4.41312 50.387 6.59398C51.4666 7.13541 52.6271 7.52143 53.7765 7.88574C53.8766 7.91775 53.9767 7.94977 54.0799 7.98275C54.2699 8.04276 54.4606 8.10102 54.6518 8.15723C55.0545 8.28315 55.3179 8.39062 55.6412 8.66917C55.8464 9.07766 55.7882 9.29353 55.6824 9.7344C55.4616 10.0341 55.4616 10.0341 55.1679 10.3233C55.0879 10.4035 55.0879 10.4035 55.0062 10.4853C54.8308 10.6603 54.6532 10.8328 54.4754 11.0055C54.3528 11.1268 54.2303 11.2484 54.108 11.37C53.7867 11.6888 53.4634 12.0057 53.1397 12.3221C52.8094 12.6457 52.4809 12.9712 52.1522 13.2966C51.5078 13.9339 50.8614 14.5692 50.2136 15.2032C50.3764 15.7099 50.5821 16.1684 50.8288 16.6387C52.1736 19.2847 52.9829 22.1096 53.3855 25.0469C53.3968 25.1278 53.408 25.2088 53.4197 25.2921C53.8836 29.169 53.4463 33.3512 52.0388 36.9914C51.9381 37.2875 51.9381 37.2875 52.0379 37.537C52.1863 37.7398 52.3383 37.9004 52.5241 38.0694C54.4865 39.991 55.4691 42.7137 55.4978 45.418C55.4859 48.1569 54.5671 50.7564 52.6199 52.7188C52.5296 52.8135 52.4394 52.9083 52.3464 53.0059C52.2562 53.0916 52.1659 53.1773 52.073 53.2657C52.0077 53.3304 51.9424 53.3951 51.8752 53.4618C49.7579 55.4703 47.0079 56.0601 44.1852 56.0308C41.5708 55.9594 39.2442 54.7486 37.4167 52.9375C37.3426 52.8687 37.2684 52.7999 37.192 52.729C35.6303 51.2576 34.4313 48.7507 34.3458 46.6003C34.3366 46.1239 34.3427 45.6482 34.3542 45.1719C34.2596 45.2129 34.165 45.254 34.0675 45.2962C33.1313 45.6833 32.1967 45.9387 31.2029 46.1358C31.0895 46.1584 30.9762 46.1809 30.8594 46.2042C26.1917 47.089 21.2702 46.025 17.3422 43.3561C14.7601 41.5293 12.7278 39.2293 11.2761 36.4219C11.2412 36.3548 11.2062 36.2878 11.1702 36.2187C9.03097 32.0554 8.80213 27.1637 10.1482 22.7204C10.8673 20.5185 12.0417 18.361 13.573 16.625C13.6542 16.5318 13.7354 16.4386 13.8191 16.3426C14.0615 16.0686 14.3082 15.7993 14.5574 15.5313C14.6284 15.453 14.6995 15.3748 14.7727 15.2942C17.6431 12.2637 22.0999 10.2155 26.2729 10.0489C30.4018 9.95662 34.1271 10.754 37.6355 13.0157C37.8154 13.1275 37.9954 13.2392 38.1755 13.3506C38.2861 13.4205 38.3966 13.4905 38.5105 13.5625C38.6865 13.4254 38.6865 13.4254 38.8386 13.2344C38.713 12.265 38.3106 11.3424 37.9731 10.4288C37.8964 10.2201 37.8216 10.0109 37.747 9.80148C37.702 9.6783 37.657 9.55511 37.6106 9.4282C37.5178 9.04379 37.5354 8.80195 37.6355 8.4219C37.7944 8.18563 37.7944 8.18563 37.9909 7.97757C38.0547 7.90862 38.1184 7.83968 38.1841 7.76864C38.4368 7.51047 38.6919 7.25482 38.948 7.00003C36.3627 5.50683 33.4822 4.64366 30.5261 4.26565C30.4079 4.25019 30.4079 4.25019 30.2874 4.23441C24.2202 3.53047 17.781 5.26406 12.9646 9.03714C12.3677 9.51615 11.8025 10.0295 11.2453 10.5539C11.0348 10.748 10.8251 10.9317 10.604 11.1127C10.2798 11.385 10.0198 11.6672 9.74741 11.989C9.58908 12.1757 9.42746 12.3597 9.26377 12.5418C5.64509 16.6058 3.59225 22.0352 3.4011 27.4532C3.39659 27.5776 3.39208 27.7021 3.38743 27.8304C3.26814 34.6076 6.07838 40.6294 10.6784 45.4633C14.9448 49.8311 21.1212 52.3147 27.1893 52.416C28.988 52.4269 30.731 52.2571 32.4879 51.8693C33.0909 51.7418 33.6704 51.6487 34.238 51.96C34.4256 52.3021 34.4452 52.6736 34.3542 53.0469C34.049 53.4102 33.8233 53.5473 33.3605 53.6391C33.2509 53.6612 33.1413 53.6834 33.0284 53.7063C32.911 53.7278 32.7936 53.7493 32.6726 53.7715C32.5505 53.7947 32.4284 53.8178 32.3026 53.8417C25.6625 55.0522 18.741 53.6414 13.1422 49.8509C12.1376 49.153 11.1973 48.3993 10.2917 47.5782C10.168 47.4678 10.0442 47.3574 9.92045 47.247C6.91531 44.5439 4.61464 41.0703 3.18235 37.2969C3.15265 37.219 3.12296 37.141 3.09236 37.0607C2.35353 35.0815 1.83999 32.9486 1.6511 30.8438C1.63912 30.7138 1.62713 30.5838 1.61479 30.4499C1.05642 23.3773 3.41358 16.6621 7.96067 11.2793C9.02864 10.036 10.1878 8.86685 11.4949 7.87503C11.5569 7.82771 11.6189 7.78039 11.6827 7.73163C12.608 7.02845 13.5536 6.3846 14.5574 5.7969C14.6858 5.71888 14.8143 5.64083 14.9427 5.56277C18.6865 3.33037 23.1217 2.24009 27.4636 2.26272C27.5461 2.26296 27.6286 2.26319 27.7136 2.26344C31.7817 2.28193 36.2911 3.11245 39.8033 5.28634C40.1164 5.48881 40.1164 5.48881 40.3586 5.45628C40.682 5.32007 40.8702 5.11615 41.1167 4.86679C41.1931 4.79022 41.1931 4.79022 41.271 4.7121C41.4388 4.54353 41.6054 4.37383 41.7721 4.20413C41.8885 4.08676 42.0051 3.96947 42.1217 3.85227C42.4284 3.54373 42.7341 3.23427 43.0396 2.92457C43.5291 2.4286 44.02 1.93401 44.5109 1.43948C44.6824 1.26642 44.8535 1.09296 45.0246 0.919434C45.1293 0.81362 45.234 0.707813 45.3388 0.602017C45.4302 0.509324 45.5217 0.416631 45.6159 0.321129C45.9914 -0.035928 46.4284 -0.127396 46.9324 2.73213e-05ZM45.4408 2.99654C45.3766 3.05932 45.3124 3.1221 45.2462 3.18678C44.5746 3.84452 43.9068 4.50614 43.2393 5.16802C42.9221 5.48226 42.6038 5.79525 42.2844 6.10722C41.8994 6.48328 41.5165 6.86144 41.1352 7.24119C40.9893 7.38572 40.8427 7.52949 40.6953 7.67248C40.4891 7.87281 40.2859 8.0757 40.0831 8.27944C40.0215 8.33805 39.9599 8.39667 39.8965 8.45705C39.7044 8.64431 39.7044 8.64431 39.4949 8.96878C39.5094 9.4147 39.6064 9.79864 39.7585 10.2159C39.8023 10.338 39.8023 10.338 39.8471 10.4626C39.8927 10.586 39.8927 10.586 39.9392 10.7119C39.9854 10.8398 39.9854 10.8398 40.0325 10.9702C40.1079 11.1783 40.1841 11.3861 40.2605 11.5938C40.6662 11.5938 40.7611 11.4599 41.0389 11.1843C41.1277 11.0937 41.1277 11.0937 41.2182 11.0014C41.2812 10.9385 41.3442 10.8755 41.4091 10.8107C41.6176 10.6019 41.8249 10.3921 42.0323 10.1822C42.1764 10.0374 42.3206 9.89272 42.4649 9.74811C42.8448 9.36691 43.2238 8.98474 43.6026 8.60235C43.9891 8.21249 44.3765 7.82355 44.7639 7.43454C45.5241 6.67081 46.2832 5.90606 47.0417 5.14065C46.9903 4.96804 46.9387 4.79546 46.8871 4.62288C46.8584 4.52677 46.8298 4.43066 46.8002 4.33164C46.6805 3.93803 46.5513 3.54797 46.4197 3.15823C46.3951 3.08491 46.3704 3.0116 46.3451 2.93606C46.2858 2.75942 46.2263 2.58284 46.1667 2.40628C45.9107 2.40628 45.6234 2.8169 45.4408 2.99654ZM47.7591 6.80235C47.6665 6.89505 47.6665 6.89505 47.5721 6.98962C47.4651 7.09592 47.4651 7.09592 47.356 7.20436C47.2775 7.28352 47.199 7.36267 47.1181 7.44423C47.0348 7.5273 46.9516 7.61038 46.8658 7.69597C46.5848 7.97659 46.3046 8.258 46.0244 8.53939C45.824 8.73987 45.6235 8.9403 45.423 9.14068C44.9903 9.57326 44.558 10.0062 44.126 10.4395C43.5014 11.0659 42.8761 11.6917 42.2508 12.3174C41.2362 13.3324 40.2222 14.3479 39.2084 15.3637C38.2235 16.3507 37.2383 17.3374 36.2527 18.3239C36.192 18.3846 36.1313 18.4454 36.0688 18.508C35.7642 18.8128 35.4597 19.1177 35.1551 19.4225C32.627 21.9529 30.0997 24.484 27.573 27.0157C27.6726 27.1369 27.7731 27.2576 27.8738 27.378C27.9296 27.4452 27.9854 27.5125 28.0429 27.5818C28.255 27.8206 28.255 27.8206 28.6667 28.1094C35.3802 21.396 42.0936 14.6825 49.0105 7.76565C48.8335 7.41173 48.7307 7.2371 48.4636 6.97268C48.4072 6.91572 48.3508 6.85876 48.2927 6.80008C48.0731 6.62103 47.9773 6.62174 47.7591 6.80235ZM50.5417 8.64065C48.3761 10.8063 46.2105 12.9719 43.9792 15.2032C44.184 15.6128 44.7416 15.6812 45.155 15.8252C45.3039 15.8799 45.3039 15.8799 45.4558 15.9357C45.5522 15.9696 45.6487 16.0035 45.748 16.0384C45.8361 16.0697 45.9242 16.1009 46.0149 16.1331C46.3403 16.2009 46.5045 16.1799 46.823 16.0782C47.0548 15.8872 47.2585 15.7003 47.4674 15.4869C47.5294 15.4253 47.5913 15.3638 47.6551 15.3004C47.8592 15.0971 48.0616 14.8924 48.2641 14.6875C48.4054 14.5458 48.5469 14.4043 48.6884 14.2628C48.9845 13.9664 49.2798 13.6693 49.5746 13.3716C49.9532 12.9893 50.3332 12.6084 50.7137 12.2281C51.0057 11.936 51.297 11.6435 51.5882 11.3507C51.7282 11.21 51.8684 11.0694 52.0086 10.929C52.204 10.7332 52.3986 10.5366 52.5931 10.3398C52.6515 10.2815 52.71 10.2231 52.7702 10.163C53.0747 9.88991 53.0747 9.88991 53.1667 9.51565C52.3005 9.2269 51.4342 8.93815 50.5417 8.64065ZM48.6824 16.625C48.5901 16.7185 48.4979 16.812 48.4029 16.9083C48.2819 17.0304 48.1608 17.1524 48.0398 17.2744C47.979 17.3361 47.9182 17.3978 47.8556 17.4614C47.2852 18.0353 47.2852 18.0353 46.8632 18.0719C46.4197 18.0418 46.0441 17.912 45.6327 17.7559C45.4673 17.6956 45.302 17.6353 45.1366 17.575C44.8783 17.4793 44.6201 17.3832 44.3619 17.2869C44.1113 17.1939 43.8603 17.1023 43.6092 17.0108C43.5322 16.9816 43.4552 16.9523 43.3758 16.9221C43.0783 16.8139 42.8358 16.729 42.5172 16.7577C42.2679 16.8778 42.1582 17.0522 42.0105 17.2813C42.061 17.3453 42.1114 17.4093 42.1634 17.4752C43.7122 19.5137 44.7506 21.8913 45.2917 24.3907C45.3079 24.4611 45.3241 24.5315 45.3408 24.6041C46.0552 27.8063 45.6554 31.13 44.7029 34.2256C44.6376 34.4461 44.5801 34.6672 44.5261 34.8907C44.5986 34.8972 44.6711 34.9037 44.7459 34.9104C46.5821 35.0826 48.2747 35.3445 49.9113 36.2286C50.1193 36.3343 50.1193 36.3343 50.4324 36.3125C50.7723 35.237 51.1 34.1627 51.3347 33.0586C51.3512 32.9828 51.3676 32.907 51.3846 32.8288C51.6904 31.3272 51.7862 29.8422 51.779 28.3145C51.7787 28.182 51.7787 28.182 51.7784 28.0468C51.773 26.6244 51.7004 25.2413 51.4167 23.8438C51.398 23.7499 51.3792 23.6559 51.3598 23.5592C50.8751 21.2063 50.1363 18.8099 48.9011 16.7344C48.8289 16.6983 48.7567 16.6622 48.6824 16.625ZM24.073 12.1407C23.9535 12.1679 23.9535 12.1679 23.8317 12.1958C20.7924 12.9066 18.2245 14.4861 15.9792 16.625C15.8938 16.7034 15.8083 16.7818 15.7203 16.8626C12.7263 19.6968 11.2729 23.8238 11.0334 27.856C10.9868 29.6299 11.2801 31.4544 11.823 33.1407C11.8557 33.2423 11.8557 33.2423 11.889 33.3461C13.2932 37.6115 16.3828 40.9909 20.3383 43.0466C21.192 43.4745 22.0646 43.8061 22.9792 44.0782C23.0885 44.1107 23.0885 44.1107 23.2 44.1438C26.4574 45.0863 29.8092 44.8751 33.015 43.8254C33.2605 43.75 33.2605 43.75 33.6689 43.6629C34.0606 43.5596 34.2734 43.4785 34.573 43.2032C34.8447 42.6915 34.9959 42.1336 35.16 41.5805C35.9036 39.1008 37.9578 37.272 40.1615 36.0763C40.7856 35.7526 41.4231 35.5613 42.104 35.3931C42.5897 35.1469 42.6981 34.8384 42.8855 34.3438C42.915 34.2681 42.9445 34.1925 42.9749 34.1145C43.0621 33.8802 43.1424 33.6447 43.2204 33.4073C43.2485 33.3223 43.2766 33.2374 43.3055 33.1499C44.1728 30.4503 44.3039 27.3715 43.6511 24.6094C43.6211 24.4814 43.6211 24.4814 43.5905 24.3508C43.1172 22.4183 42.2779 20.0866 40.9167 18.5938C40.4579 18.5938 40.2844 18.8487 39.9773 19.1557C39.8858 19.2453 39.8858 19.2453 39.7924 19.3367C39.5903 19.5351 39.3896 19.7347 39.1889 19.9345C39.0494 20.0727 38.9098 20.2109 38.7702 20.3491C38.4776 20.6392 38.1857 20.9301 37.8942 21.2213C37.5203 21.5947 37.1439 21.9655 36.7668 22.3357C36.4777 22.6204 36.1902 22.9068 35.9033 23.1937C35.7652 23.3312 35.6265 23.468 35.4872 23.6042C35.2926 23.7948 35.1005 23.9877 34.9089 24.1814C34.8507 24.2373 34.7925 24.2932 34.7326 24.3509C34.5524 24.5279 34.5524 24.5279 34.3542 24.8282C34.3542 25.1773 34.3542 25.1773 34.4636 25.4844C34.5025 25.6132 34.5025 25.6132 34.5422 25.7446C34.5845 25.8628 34.5845 25.8628 34.6277 25.9834C35.2947 27.8545 34.9768 29.9765 34.1697 31.7393C33.1896 33.5839 31.5805 34.8009 29.6032 35.4239C27.6553 35.9744 25.5411 35.6891 23.781 34.7169C22.0898 33.7129 20.8811 32.1147 20.35 30.2196C19.9223 28.279 20.0614 26.2085 21.1122 24.4812C21.6824 23.6081 21.6824 23.6081 21.9671 23.3272C22.1298 23.1941 22.1298 23.1941 22.1042 22.9688C22.1702 22.9386 22.2362 22.9084 22.3042 22.8773C22.5703 22.7483 22.5703 22.7483 22.8425 22.4629C23.2493 22.1039 23.7004 21.8701 24.1824 21.6289C24.2563 21.5916 24.3303 21.5543 24.4065 21.5159C25.0647 21.1948 25.7341 20.9172 26.4792 21C26.739 21.1094 26.739 21.1094 26.9167 21.3282C26.9784 21.6301 26.9985 21.9049 26.9167 22.2032C26.6053 22.5066 26.2834 22.6062 25.8708 22.7227C24.4286 23.1888 23.2164 24.1333 22.4935 25.4739C22.1352 26.183 21.8377 26.8713 21.7761 27.6719C21.7674 27.763 21.7586 27.8541 21.7496 27.9479C21.6734 29.4757 22.2469 30.9282 23.2014 32.1012C24.2478 33.2253 25.6676 33.9391 27.2026 34.0332C28.8315 34.0818 30.224 33.559 31.4682 32.516C32.4957 31.5305 33.2301 30.1883 33.2827 28.7498C33.285 28.5797 33.2867 28.4095 33.2878 28.2393C33.2901 28.1552 33.2923 28.0711 33.2947 27.9844C33.2988 27.371 33.1763 26.9223 32.9324 26.3594C32.2361 26.933 31.605 27.5648 30.9704 28.2051C30.8633 28.3128 30.7561 28.4205 30.6489 28.5281C30.389 28.7893 30.1293 29.0508 29.8699 29.3125C29.9769 29.4379 30.084 29.5632 30.1911 29.6885C30.2508 29.7583 30.3104 29.8281 30.3719 29.9C30.457 29.9983 30.5435 30.0956 30.6355 30.1875C30.6997 30.9835 30.6997 30.9835 30.4577 31.2813C30.1269 31.4206 29.8989 31.4219 29.5417 31.3907C29.3095 31.2457 29.3095 31.2457 29.0803 31.0236C28.9863 30.9336 28.8922 30.8436 28.7953 30.7509C28.6795 30.6361 28.5637 30.5212 28.448 30.4063C28.2969 30.2585 28.1458 30.1107 27.9947 29.963C27.5591 29.5356 27.1266 29.1053 26.6952 28.6738C26.4227 28.4015 26.1494 28.1302 25.876 27.8588C25.7022 27.6853 25.5284 27.5118 25.3547 27.3382C25.2731 27.2574 25.1916 27.1767 25.1075 27.0934C25.0323 27.0178 24.957 26.9422 24.8794 26.8643C24.7802 26.7653 24.7802 26.7653 24.6789 26.6642C24.3722 26.3083 24.2876 26.1106 24.3122 25.6348C24.4011 25.2657 24.4011 25.2657 24.7292 25.0469C25.0847 24.9854 25.0847 24.9854 25.4949 25.0469C25.7854 25.2732 26.0241 25.5309 26.2605 25.8125C27.0085 25.1985 27.6852 24.5151 28.3689 23.8318C28.4978 23.7033 28.6267 23.5748 28.7556 23.4463C29.0241 23.1784 29.2924 22.9103 29.5606 22.6421C29.9049 22.2978 30.2499 21.9542 30.5952 21.6108C30.8608 21.3464 31.1259 21.0815 31.3909 20.8165C31.518 20.6895 31.6453 20.5627 31.7728 20.436C31.9501 20.2598 32.1266 20.083 32.303 19.906C32.4037 19.8054 32.5043 19.7049 32.6081 19.6014C32.8472 19.3861 32.8472 19.3861 32.823 19.1407C31.3289 18.3702 29.8207 17.7947 28.1199 17.7188C28.0393 17.7144 27.9588 17.71 27.8759 17.7055C25.0013 17.6258 22.2615 18.7657 20.1854 20.7216C18.2552 22.6107 17.0993 25.2311 17.0271 27.9277C17.0077 31.0266 18.1373 33.6197 20.2859 35.8408C22.3504 37.8517 25.0305 38.7671 27.8782 38.7588C30.6724 38.712 33.1025 37.484 35.1199 35.5879C37.1004 33.5354 38.1401 30.7699 38.0948 27.9253C38.052 27.2134 37.9722 26.4881 37.7936 25.7963C37.7058 25.4315 37.727 25.0933 37.7449 24.7188C37.9636 24.3907 37.9636 24.3907 38.2712 24.295C38.7003 24.2781 38.8348 24.3401 39.1667 24.6094C39.2775 24.8964 39.3513 25.1394 39.4128 25.4366C39.4306 25.5156 39.4484 25.5947 39.4668 25.6762C39.5954 26.2671 39.6917 26.848 39.7136 27.4532C39.7221 27.6304 39.7221 27.6304 39.7307 27.8112C39.8209 31.3357 38.4677 34.5064 36.07 37.0508C33.5393 39.4737 30.3255 40.4468 26.877 40.3936C24.1339 40.299 21.2317 39.1918 19.2912 37.2123C19.0737 36.9433 19.0737 36.9433 18.823 36.9688C18.7951 36.9055 18.7671 36.8422 18.7384 36.7769C18.5907 36.5065 18.4214 36.3223 18.2077 36.1006C16.0033 33.657 15.3196 30.4546 15.4128 27.2582C15.5781 24.289 17.0004 21.3565 19.1605 19.3192C21.8679 17.0097 25.1252 15.854 28.6863 16.1217C30.3568 16.2805 31.8546 16.732 33.331 17.5252C33.7206 17.7389 33.7206 17.7389 34.2449 17.9375C35.7066 16.4757 35.7066 16.4757 37.198 14.9844C36.8035 14.5899 36.4408 14.3385 35.9607 14.0752C35.883 14.0325 35.8054 13.9897 35.7253 13.9456C35.4879 13.8163 35.2495 13.689 35.0105 13.5625C34.9428 13.5265 34.8752 13.4904 34.8055 13.4533C33.6172 12.83 32.3734 12.456 31.073 12.1407C30.9515 12.111 30.9515 12.111 30.8275 12.0807C28.6518 11.5755 26.2415 11.6256 24.073 12.1407ZM38.4011 39.4844C38.3267 39.5588 38.2522 39.6333 38.1755 39.71C36.4563 41.552 36.0036 43.9739 36.0856 46.4024C36.198 48.2164 37.0733 49.9725 38.2917 51.2969C38.3724 51.3876 38.453 51.4782 38.5361 51.5716C39.8275 52.9495 41.6517 53.9935 43.5417 54.25C43.6441 54.2645 43.7464 54.2791 43.8519 54.294C46.1052 54.5416 48.3349 53.9392 50.1589 52.5889C51.9821 51.0978 53.3397 49.1977 53.6867 46.8151C53.9209 43.9375 53.1841 41.5598 51.3283 39.3592C49.7995 37.7351 47.5657 36.7492 45.3532 36.6184C42.6207 36.5825 40.317 37.5685 38.4011 39.4844Z" fill="#377E7F"/>
<path d="M45.2917 38.2813C45.5606 38.4629 45.7052 38.606 45.7741 38.929C45.7968 39.1786 45.8067 39.4252 45.8113 39.6758C45.8145 39.7625 45.8178 39.8492 45.8211 39.9385C45.8288 40.1517 45.834 40.3649 45.8386 40.5781C45.9036 40.5942 45.9686 40.6103 46.0356 40.6268C46.8639 40.851 47.8614 41.1513 48.3542 41.8906C48.4 42.3103 48.414 42.5591 48.1902 42.9229C47.7963 43.169 47.4841 43.1916 47.0417 43.0938C46.5857 42.9004 46.1652 42.6753 45.7292 42.4375C45.7292 43.1594 45.7292 43.8813 45.7292 44.625C46.0541 44.6791 46.0541 44.6791 46.3855 44.7344C47.2395 45.0631 47.9871 45.7072 48.3735 46.5442C48.6232 47.2873 48.6072 47.9362 48.3542 48.6719C47.8984 49.5184 47.1841 50.0299 46.2761 50.3125C45.9724 50.324 45.9724 50.324 45.7292 50.3125C45.7356 50.4495 45.7419 50.5866 45.7485 50.7278C45.7536 50.9084 45.7586 51.089 45.7634 51.2695C45.768 51.3598 45.7726 51.45 45.7773 51.543C45.7908 52.2119 45.7908 52.2119 45.4785 52.5637C45.0758 52.7746 44.8489 52.7294 44.4167 52.6094C44.1915 52.4367 44.1055 52.315 43.9792 52.0625C43.9714 51.7653 43.9691 51.4709 43.9724 51.1738C43.9729 51.0914 43.9734 51.0089 43.9739 50.9239C43.9752 50.7201 43.9772 50.5163 43.9792 50.3125C43.9064 50.2977 43.8335 50.2829 43.7584 50.2676C42.7099 50.0228 41.7658 49.5743 41.1355 48.6719C41.074 48.3438 41.074 48.3438 41.1355 48.0156C41.3679 47.7012 41.3679 47.7012 41.6824 47.4688C42.2282 47.4024 42.508 47.5302 42.9539 47.8379C43.2944 48.0697 43.6091 48.2681 43.9792 48.4531C43.9251 47.1538 43.9251 47.1538 43.8699 45.8281C43.5687 45.6928 43.5687 45.6928 43.2615 45.5547C42.6281 45.2395 42.1821 44.8893 41.7917 44.2969C41.5642 43.6143 41.551 42.7362 41.8396 42.0684C42.2336 41.4042 42.9286 40.9295 43.6511 40.6875C43.7594 40.6875 43.8677 40.6875 43.9792 40.6875C43.9754 40.5675 43.9716 40.4475 43.9677 40.3239C43.9646 40.1648 43.9616 40.0058 43.9587 39.8467C43.956 39.7678 43.9532 39.6889 43.9504 39.6076C43.9435 39.1058 43.9938 38.7877 44.3074 38.3906C44.6455 38.2216 44.9192 38.2491 45.2917 38.2813ZM43.6375 42.7178C43.3869 42.9827 43.3869 42.9827 43.4597 43.3945C43.4868 43.5118 43.5139 43.6291 43.5417 43.75C43.7583 43.8041 43.7583 43.8041 43.9792 43.8594C43.9792 43.4263 43.9792 42.9931 43.9792 42.5469C43.8365 42.5361 43.8365 42.5361 43.6375 42.7178ZM45.7292 46.4844C45.7292 47.1702 45.7292 47.8559 45.7292 48.5625C46.3912 48.3592 46.3912 48.3592 46.823 47.9063C46.9599 47.6502 46.9599 47.6502 46.9324 47.3594C46.5524 46.7722 46.4418 46.7219 45.7292 46.4844Z" fill="#377E7F"/>
</g>
<defs>
<clipPath id="clip0_16_108">
<rect width="56" height="56" fill="white" transform="translate(0.666748)"/>
</clipPath>
</defs>
</svg>
