<svg width="56" height="56" viewBox="0 0 56 56" fill="none" xmlns="http://www.w3.org/2000/svg">
<g clip-path="url(#clip0_16_101)">
<path d="M28.6563 0.218777C28.9434 0.472561 28.9434 0.472561 29.2032 0.779324C29.2966 0.887746 29.3901 0.996168 29.4864 1.10788C29.6169 1.26332 29.6169 1.26332 29.75 1.4219C29.8796 1.57031 30.0094 1.71845 30.1397 1.86624C30.1996 1.93518 30.2595 2.00413 30.3213 2.07516C30.5478 2.33353 30.7776 2.58871 31.0078 2.84378C31.2999 3.16738 31.59 3.49229 31.876 3.82132C32.1834 4.17439 32.4971 4.5213 32.8125 4.86721C33.1902 5.28138 33.5629 5.69899 33.9306 6.12204C34.1571 6.38041 34.387 6.63559 34.6172 6.89065C34.9742 7.28624 35.3268 7.68514 35.6768 8.08694C35.9048 8.34639 36.1358 8.60298 36.3672 8.8594C37.9386 10.6024 37.9386 10.6024 38.001 11.1016C37.9532 11.4844 37.9532 11.4844 37.7549 11.7442C37.396 12.0108 37.1121 12.0449 36.6784 12.0437C36.5741 12.0437 36.4697 12.0437 36.3622 12.0437C36.2529 12.0431 36.1436 12.0425 36.031 12.042C35.9302 12.0418 35.8295 12.0417 35.7257 12.0416C35.3494 12.0411 34.973 12.0395 34.5967 12.0381C33.7553 12.0359 32.9138 12.0336 32.0469 12.0313C32.083 14.5217 32.1191 17.0122 32.1563 19.5782C32.6977 19.3255 33.2391 19.0728 33.7969 18.8125C36.1899 17.9019 38.5145 17.7661 41.0567 17.8008C41.3408 17.803 41.6249 17.805 41.909 17.8068C42.5956 17.8115 43.2822 17.8188 43.9688 17.8282C43.9678 17.7677 43.9668 17.7073 43.9658 17.645C43.9561 17.0151 43.9496 16.3853 43.9447 15.7553C43.9425 15.5203 43.9396 15.2854 43.9358 15.0504C43.9305 14.7124 43.928 14.3744 43.9261 14.0363C43.9238 13.9315 43.9215 13.8267 43.9192 13.7187C43.9191 13.2517 43.9275 12.978 44.1641 12.5667C44.4554 12.3174 44.6736 12.278 45.0549 12.3035C45.4693 12.4059 45.7309 12.665 46.0332 12.9541C46.1323 13.0439 46.1323 13.0439 46.2333 13.1354C46.4281 13.3124 46.6204 13.492 46.8125 13.6719C47.0013 13.8432 47.1904 14.0141 47.3799 14.1846C47.4663 14.2631 47.5528 14.3417 47.6418 14.4226C47.9199 14.6683 48.2053 14.902 48.4942 15.1348C48.9922 15.5374 49.4633 15.9609 49.9318 16.3968C50.2854 16.7239 50.648 17.0338 51.0235 17.336C51.4584 17.6859 51.8729 18.0497 52.2813 18.4297C52.7847 18.8981 53.3052 19.3366 53.8412 19.7678C54.2643 20.1179 54.6668 20.4888 55.0695 20.862C55.2558 21.03 55.4482 21.1915 55.6454 21.3465C55.9907 21.6287 55.9951 21.7224 56.0466 22.1762C56.0405 22.5797 56.0013 22.639 55.7313 22.9786C55.6112 23.085 55.4887 23.1887 55.3643 23.2901C55.2673 23.3741 55.2673 23.3741 55.1684 23.4599C54.9739 23.6272 54.7768 23.7907 54.5782 23.9532C54.4738 24.0392 54.3695 24.1252 54.262 24.2138C54.0671 24.3728 53.8715 24.531 53.6754 24.6884C53.3462 24.9614 53.0317 25.2479 52.7188 25.5391C52.2146 26.0083 51.6931 26.4474 51.1563 26.8794C50.8477 27.1347 50.5525 27.4006 50.2578 27.6719C49.8688 28.03 49.4734 28.3726 49.0616 28.7041C48.6246 29.0565 48.2076 29.4226 47.7969 29.8047C47.2813 30.2842 46.7502 30.7376 46.2003 31.1779C45.9849 31.3523 45.7801 31.5325 45.5752 31.7188C45.2417 31.9669 45.039 32.0379 44.625 32.0469C44.2575 31.9244 44.1915 31.8341 43.9688 31.5C43.9425 31.2446 43.9425 31.2446 43.9439 30.9407C43.944 30.8268 43.944 30.713 43.944 30.5957C43.9451 30.473 43.9463 30.3503 43.9474 30.2238C43.9479 30.0352 43.9479 30.0352 43.9484 29.8427C43.9496 29.4404 43.9523 29.0381 43.9551 28.6358C43.9562 28.3633 43.9572 28.0907 43.9581 27.8182C43.9605 27.1497 43.9642 26.4811 43.9688 25.8125C43.2044 25.8171 42.44 25.8251 41.6757 25.8352C41.4163 25.8383 41.157 25.8406 40.8977 25.8422C38.2451 25.8589 36.0916 26.1935 34.1084 28.1192C32.665 29.6512 32.142 31.412 32.1373 33.4688C32.1366 33.6005 32.1358 33.7322 32.1351 33.8678C32.1331 34.2276 32.1317 34.5873 32.1303 34.9471C32.1287 35.3241 32.1264 35.7011 32.124 36.078C32.1163 37.3611 32.1097 38.6442 32.1041 39.9273C32.101 40.6367 32.0972 41.3461 32.0925 42.0555C32.09 42.4306 32.088 42.8057 32.0869 43.1809C32.0856 43.5988 32.083 44.0166 32.08 44.4345C32.08 44.5587 32.0799 44.683 32.0798 44.8109C32.0788 44.9247 32.0777 45.0385 32.0766 45.1557C32.0762 45.2545 32.0757 45.3532 32.0752 45.455C32.0443 45.7426 31.9891 45.9164 31.8282 46.1563C31.3755 46.3565 31.1627 46.4121 30.6934 46.2383C30.4063 46.0469 30.4063 46.0469 30.2969 45.8282C30.2839 45.6329 30.2773 45.4372 30.2738 45.2415C30.271 45.1208 30.2681 45 30.2652 44.8755C30.2621 44.7455 30.259 44.6155 30.2559 44.4815C30.1266 40.3814 28.9967 36.8391 26.0313 33.9063C22.7111 30.8391 18.9149 30.146 14.5242 30.127C13.8962 30.1243 13.2681 30.12 12.6401 30.1137C12.4224 30.1119 12.2048 30.1116 11.9872 30.1112C11.8556 30.1101 11.724 30.109 11.5885 30.1078C11.473 30.1074 11.3575 30.1069 11.2385 30.1064C10.9342 30.0778 10.756 30.0225 10.5 29.8594C10.2178 29.4791 10.2435 29.045 10.236 28.5896C10.2339 28.5101 10.2318 28.4306 10.2296 28.3487C10.2231 28.0958 10.218 27.8428 10.2129 27.5899C10.2087 27.418 10.2045 27.2461 10.2001 27.0742C10.1896 26.6537 10.1804 26.2331 10.1719 25.8125C9.1813 26.66 8.19374 27.5109 7.20927 28.3655C6.99648 28.55 6.78339 28.7341 6.57022 28.9182C5.97036 29.4364 5.37154 29.9547 4.78518 30.4883C4.31762 30.9123 3.83328 31.3123 3.3428 31.7094C2.98844 31.9978 2.64218 32.2945 2.2969 32.5938C2.60278 33.0016 2.92377 33.3158 3.32229 33.6328C3.42804 33.7183 3.53378 33.8037 3.64273 33.8918C3.81026 34.0243 3.9788 34.1557 4.1503 34.2831C4.59586 34.6212 4.77066 34.9082 4.9219 35.4375C4.85237 35.7775 4.74873 35.9338 4.51858 36.1895C4.13763 36.3748 3.90839 36.3032 3.50003 36.2032C3.21616 36.0236 2.97892 35.8035 2.7344 35.5742C2.5916 35.4453 2.44876 35.3164 2.30587 35.1876C2.23293 35.1209 2.15998 35.0542 2.08483 34.9854C1.71266 34.6484 1.33103 34.3224 0.950222 33.9951C0.00377907 33.1788 0.00377912 33.1788 -0.0409889 32.7237C-0.0606042 32.2627 0.132038 32.0518 0.437527 31.7188C0.617917 31.5612 0.802824 31.4087 0.991238 31.2608C1.42196 30.9158 1.83663 30.5617 2.24221 30.1875C2.63123 29.8294 3.02661 29.4868 3.4385 29.1553C3.87543 28.8029 4.29251 28.4368 4.70315 28.0547C5.20738 27.5855 5.72885 27.1465 6.26559 26.7144C6.5742 26.4591 6.86942 26.1932 7.16409 25.9219C7.5531 25.5638 7.94848 25.2212 8.36038 24.8897C8.87216 24.4772 9.35778 24.0431 9.83734 23.5941C10.6753 22.8122 10.6753 22.8122 11.1563 22.8047C11.2646 22.7996 11.2646 22.7996 11.375 22.7945C11.7369 22.9019 11.8359 23.0865 12.0313 23.4063C12.0915 23.7835 12.0822 24.1552 12.074 24.5363C12.0734 24.6448 12.0728 24.7533 12.0721 24.865C12.0697 25.2106 12.0642 25.5559 12.0586 25.9014C12.0564 26.136 12.0544 26.3707 12.0526 26.6053C12.0478 27.1796 12.0405 27.7539 12.0313 28.3282C12.1378 28.3271 12.1378 28.3271 12.2464 28.3259C12.9954 28.3186 13.7443 28.3137 14.4933 28.3101C14.7716 28.3085 15.0499 28.3063 15.3282 28.3034C16.9251 28.2874 18.453 28.3074 20.0157 28.6563C20.1261 28.6809 20.1261 28.6809 20.2388 28.706C21.5168 28.9943 22.6777 29.4912 23.8438 30.0782C23.8444 29.9355 23.8451 29.7928 23.8457 29.6458C23.852 28.302 23.8599 26.9582 23.8696 25.6144C23.8745 24.9235 23.8787 24.2326 23.8817 23.5417C23.8845 22.875 23.8889 22.2084 23.8944 21.5418C23.8963 21.2874 23.8975 21.0329 23.8982 20.7785C23.8993 20.4223 23.9023 20.0662 23.9059 19.7101C23.9057 19.6047 23.9055 19.4992 23.9054 19.3906C23.9129 18.8571 23.9253 18.4756 24.2813 18.0469C24.5972 17.8889 24.8059 17.8963 25.1563 17.9375C25.509 18.2166 25.6824 18.3822 25.7731 18.8284C25.7742 19.0218 25.7742 19.0218 25.7753 19.2192C25.7764 19.2907 25.7776 19.3623 25.7788 19.436C25.7819 19.671 25.7812 19.9058 25.7805 20.1408C25.7819 20.3044 25.7836 20.4679 25.7855 20.6314C25.7899 21.0606 25.791 21.4898 25.7914 21.919C25.7924 22.3574 25.7965 22.7959 25.8004 23.2343C25.8074 24.0937 25.811 24.9531 25.8125 25.8125C25.8638 25.7233 25.915 25.634 25.9678 25.542C26.0357 25.4245 26.1036 25.3069 26.1736 25.1858C26.2407 25.0695 26.3077 24.9531 26.3768 24.8333C26.6413 24.3955 26.9405 24.0027 27.2686 23.6114C27.3299 23.5373 27.3912 23.4632 27.4544 23.3868C28.7568 21.8314 28.7568 21.8314 29.3579 21.519C29.7674 21.2757 30.1133 21.0418 30.2497 20.563C30.3482 19.8828 30.3178 19.1951 30.3029 18.51C30.3022 18.2867 30.302 18.0634 30.3024 17.8401C30.3022 17.254 30.2959 16.6681 30.2878 16.0821C30.2758 15.1427 30.2723 14.2033 30.2704 13.2638C30.2687 12.9358 30.2639 12.608 30.2587 12.2801C30.2572 12.0795 30.2558 11.8789 30.2546 11.6783C30.2511 11.5415 30.2511 11.5415 30.2477 11.4021C30.2474 11.0095 30.2614 10.7691 30.4907 10.4438C30.7484 10.2719 30.8702 10.2255 31.1756 10.2216C31.261 10.2194 31.3464 10.2173 31.4343 10.215C31.5254 10.2149 31.6164 10.2148 31.7102 10.2146C31.8513 10.2119 31.8513 10.2119 31.9953 10.2091C32.295 10.2038 32.5947 10.2015 32.8946 10.1992C33.0981 10.1962 33.3016 10.1929 33.5051 10.1894C34.0034 10.1813 34.5017 10.1759 35 10.1719C34.8766 10.0376 34.8766 10.0376 34.7508 9.90065C34.6416 9.78172 34.5324 9.66279 34.4232 9.54385C34.3692 9.48503 34.3151 9.42621 34.2594 9.36561C33.9079 8.98257 33.5624 8.59506 33.2218 8.2023C32.9968 7.945 32.7681 7.69124 32.5391 7.43753C32.1821 7.04194 31.8295 6.64304 31.4795 6.24124C31.2515 5.98178 31.0205 5.7252 30.7891 5.46878C30.4325 5.07364 30.0802 4.67527 29.7308 4.27377C29.4172 3.91724 29.0975 3.5663 28.778 3.21505C28.5459 2.95207 28.3263 2.68189 28.1094 2.40628C27.7635 2.55634 27.5632 2.71871 27.3233 3.00784C27.0297 3.35456 26.7324 3.69617 26.4278 4.03323C26.3034 4.17112 26.3034 4.17112 26.1765 4.31179C26.0068 4.49978 25.837 4.68777 25.6673 4.87576C25.231 5.35954 24.798 5.8457 24.3701 6.33694C24.0591 6.69091 23.7425 7.03985 23.4268 7.38968C23.1554 7.69209 22.8882 7.99789 22.6214 8.30441C22.3079 8.66094 21.9881 9.01188 21.6687 9.36312C21.4366 9.62613 21.2182 9.89733 21 10.1719C21.127 10.1729 21.2539 10.1739 21.3847 10.175C21.856 10.1794 22.3272 10.1866 22.7985 10.1946C23.0024 10.1977 23.2063 10.2 23.4102 10.2015C23.7035 10.2039 23.9966 10.209 24.2898 10.2146C24.4264 10.2148 24.4264 10.2148 24.5657 10.215C24.9481 10.2247 25.2028 10.2469 25.5415 10.4324C25.8011 10.8923 25.7677 11.3474 25.7651 11.8668C25.7658 11.979 25.7665 12.0912 25.7672 12.2067C25.7679 12.4438 25.7676 12.681 25.7662 12.9181C25.7647 13.2806 25.7684 13.6428 25.7726 14.0054C25.7727 14.2359 25.7725 14.4664 25.7719 14.6969C25.7734 14.8051 25.7748 14.9134 25.7763 15.0249C25.7694 15.5361 25.759 15.7831 25.4502 16.2055C25.1563 16.4063 25.1563 16.4063 24.7598 16.4063C24.4108 16.3029 24.2701 16.2571 24.0625 15.9688C23.8949 15.6334 23.9399 15.2829 23.9425 14.9152C23.9427 14.7918 23.9427 14.7918 23.9429 14.666C23.9436 14.403 23.9449 14.14 23.9463 13.877C23.9469 13.6988 23.9474 13.5207 23.9478 13.3425C23.949 12.9054 23.9509 12.4683 23.9532 12.0313C23.8587 12.0324 23.8587 12.0324 23.7624 12.0335C23.1059 12.0408 22.4494 12.0457 21.7929 12.0493C21.548 12.0509 21.3032 12.0532 21.0583 12.056C20.7059 12.06 20.3536 12.0619 20.0011 12.0633C19.8375 12.0659 19.8375 12.0659 19.6706 12.0685C19.0847 12.0686 18.6589 12.042 18.1563 11.7032C17.9841 11.3588 17.9423 11.0854 18.0469 10.7188C18.3395 10.3198 18.6847 9.97716 19.0313 9.62503C19.1601 9.4803 19.2879 9.33455 19.4141 9.18753C19.7851 8.7615 20.1635 8.3423 20.542 7.92288C20.7513 7.68973 20.9583 7.45501 21.1641 7.21878C21.5351 6.79275 21.9135 6.37355 22.292 5.95413C22.5013 5.72098 22.7083 5.48626 22.9141 5.25003C23.4469 4.63864 23.9924 4.03866 24.5359 3.43679C24.9094 3.02263 25.282 2.60798 25.6485 2.18753C27.6878 -0.150646 27.6878 -0.150646 28.6563 0.218777ZM45.7188 15.2032C45.7147 15.3687 45.7147 15.3687 45.7105 15.5376C45.7002 15.9477 45.6892 16.3578 45.6781 16.7679C45.6733 16.9453 45.6688 17.1227 45.6644 17.3001C45.658 17.5553 45.6511 17.8105 45.644 18.0657C45.6422 18.1448 45.6404 18.2239 45.6385 18.3054C45.6278 18.6702 45.6111 19.01 45.5 19.3594C45.0898 19.4542 44.7087 19.4834 44.288 19.486C44.1561 19.4872 44.0242 19.4883 43.8883 19.4894C43.7462 19.4902 43.6042 19.491 43.4578 19.4918C43.3085 19.4933 43.1593 19.4948 43.01 19.4964C42.3789 19.5031 41.7479 19.509 41.1167 19.5127C39.0346 19.5256 37.0466 19.5593 35.0547 20.2481C34.9591 20.2807 34.8634 20.3134 34.7649 20.347C31.2226 21.6042 28.4389 24.2998 26.8302 27.6672C26.3103 28.8798 26.0219 30.0954 25.8125 31.3907C25.9129 31.4752 26.0133 31.5598 26.1167 31.647C27.7793 33.0541 29.2287 34.5464 30.1875 36.5313C30.2236 36.5313 30.2597 36.5313 30.2969 36.5313C30.2985 36.404 30.3001 36.2768 30.3017 36.1457C30.3082 35.6656 30.3166 35.1855 30.3256 34.7055C30.3292 34.4992 30.3323 34.2929 30.3348 34.0866C30.3703 31.2408 30.9703 28.8253 32.9698 26.7012C34.6041 25.1885 36.7453 24.1724 38.9931 24.1525C39.2017 24.1504 39.2017 24.1504 39.4145 24.1483C39.5647 24.1474 39.7149 24.1466 39.8651 24.1458C39.9413 24.1454 40.0175 24.1449 40.096 24.1445C40.4985 24.1422 40.901 24.1406 41.3035 24.1396C41.7191 24.1384 42.1347 24.1346 42.5503 24.1303C42.8703 24.1274 43.1904 24.1265 43.5104 24.1261C43.6637 24.1256 43.817 24.1243 43.9703 24.1223C44.1841 24.1196 44.398 24.12 44.6119 24.1205C44.7335 24.1199 44.8552 24.1192 44.9805 24.1186C45.2813 24.1719 45.2813 24.1719 45.4842 24.365C45.6173 24.6248 45.6522 24.7811 45.6567 25.0707C45.6599 25.2053 45.6599 25.2053 45.6633 25.3427C45.6643 25.4864 45.6643 25.4864 45.6654 25.6331C45.6673 25.732 45.6693 25.8309 45.6713 25.9328C45.6772 26.2482 45.6809 26.5635 45.6846 26.8789C45.6882 27.093 45.692 27.307 45.6959 27.5211C45.7052 28.0453 45.7125 28.5695 45.7188 29.0938C46.1162 28.9066 46.3888 28.6782 46.71 28.376C47.1137 28.0005 47.5239 27.6413 47.9541 27.2959C48.3911 26.9435 48.8081 26.5774 49.2188 26.1953C49.723 25.7262 50.2445 25.2871 50.7812 24.8551C51.1935 24.514 51.5839 24.1509 51.9771 23.7882C52.382 23.4254 52.8045 23.0872 53.2315 22.7509C53.4662 22.5471 53.6381 22.3497 53.8125 22.0938C53.264 21.5905 52.7109 21.0978 52.1309 20.6309C51.6328 20.2282 51.1617 19.8048 50.6933 19.3689C50.3397 19.0418 49.9771 18.7318 49.6016 18.4297C49.1667 18.0798 48.7521 17.7159 48.3438 17.336C47.7455 16.7796 47.1209 16.2623 46.4844 15.75C46.352 15.6387 46.2197 15.5271 46.0879 15.4151C45.8699 15.1916 45.8699 15.1916 45.7188 15.2032Z" fill="#377E7F"/>
<path d="M11.3867 34.4952C11.5219 34.4942 11.657 34.4932 11.7963 34.4921C11.9438 34.4938 12.0914 34.4956 12.2389 34.4976C12.3915 34.4977 12.5442 34.4977 12.6968 34.4975C13.0174 34.4977 13.3378 34.4998 13.6584 34.5032C14.0648 34.5075 14.4711 34.508 14.8776 34.5072C15.1935 34.5069 15.5093 34.5082 15.8252 34.5101C16.0466 34.5112 16.2679 34.5113 16.4892 34.5113C19.1117 34.5442 21.3359 35.4952 23.2144 37.314C24.9048 39.0595 25.7244 41.3098 25.7155 43.7081C25.7156 43.8224 25.7156 43.9366 25.7156 44.0543C25.7155 44.4301 25.7147 44.8059 25.7138 45.1817C25.7136 45.443 25.7134 45.7043 25.7133 45.9656C25.7129 46.6519 25.7118 47.3382 25.7106 48.0246C25.7095 48.7255 25.709 49.4264 25.7085 50.1273C25.7073 51.5015 25.7054 52.8758 25.7031 54.25C27.2191 54.25 28.735 54.25 30.2969 54.25C30.2918 53.8287 30.2867 53.4074 30.2815 52.9734C30.2781 52.5658 30.2754 52.1582 30.2728 51.7506C30.2706 51.4671 30.2677 51.1836 30.2639 50.9002C30.2586 50.4929 30.2561 50.0857 30.2542 49.6785C30.2519 49.5515 30.2496 49.4246 30.2473 49.2938C30.2473 49.1756 30.2472 49.0574 30.2472 48.9356C30.2462 48.8316 30.2453 48.7277 30.2443 48.6206C30.3125 48.2618 30.4541 48.1323 30.7344 47.9063C31.0524 47.8287 31.275 47.8691 31.6094 47.9063C31.9019 48.1044 31.933 48.221 32.0469 48.5625C32.0577 48.7799 32.062 48.9976 32.0628 49.2153C32.0635 49.3496 32.0642 49.484 32.0649 49.6224C32.065 49.7691 32.0652 49.9158 32.0652 50.0626C32.0656 50.2131 32.066 50.3636 32.0663 50.5141C32.067 50.8296 32.0672 51.145 32.0671 51.4605C32.0671 51.8644 32.0686 52.2684 32.0705 52.6723C32.0717 52.9832 32.0719 53.294 32.0719 53.6049C32.072 53.7538 32.0725 53.9027 32.0733 54.0517C32.0744 54.26 32.074 54.4684 32.0734 54.6768C32.0736 54.7953 32.0738 54.9138 32.0739 55.0359C32.046 55.3532 32.0178 55.5262 31.8281 55.7812C31.4267 56.0014 31.0781 56.0276 30.6254 56.0283C30.4311 56.0293 30.4311 56.0293 30.2328 56.0304C30.0938 56.03 29.9547 56.0295 29.8115 56.0291C29.6679 56.0293 29.5243 56.0295 29.3764 56.0297C29.073 56.03 28.7696 56.0295 28.4662 56.0285C28.0782 56.0273 27.6903 56.028 27.3023 56.0293C26.931 56.0303 26.5597 56.0296 26.1885 56.0291C26.0495 56.0295 25.9105 56.0299 25.7672 56.0304C25.6377 56.0297 25.5081 56.029 25.3746 56.0283C25.2609 56.0281 25.1471 56.028 25.03 56.0278C24.6959 55.998 24.4661 55.9426 24.1719 55.7812C23.9655 55.4551 23.9258 55.2027 23.9256 54.8205C23.9247 54.663 23.9247 54.663 23.9238 54.5024C23.9243 54.3879 23.9247 54.2734 23.9252 54.1554C23.9246 53.9737 23.9246 53.9737 23.924 53.7882C23.9232 53.5248 23.923 53.2614 23.9231 52.998C23.9232 52.5798 23.9218 52.1617 23.9199 51.7436C23.9149 50.5546 23.9122 49.3657 23.9115 48.1767C23.911 47.4492 23.9082 46.7218 23.9043 45.9944C23.9033 45.7183 23.903 45.4422 23.9036 45.166C23.9089 42.5047 23.5759 40.3603 21.6426 38.3701C20.1589 36.9712 18.2891 36.3982 16.293 36.3766C16.1706 36.3745 16.0482 36.3724 15.9221 36.3702C15.5343 36.3637 15.1466 36.3586 14.7588 36.3535C14.4945 36.3493 14.2303 36.3451 13.966 36.3407C13.3211 36.3302 12.6762 36.3209 12.0312 36.3125C12.0322 36.3828 12.0332 36.4531 12.0342 36.5255C12.0439 37.2565 12.0505 37.9874 12.0553 38.7184C12.0575 38.9913 12.0605 39.2642 12.0643 39.537C12.0696 39.9291 12.072 40.3211 12.074 40.7131C12.0762 40.8353 12.0785 40.9574 12.0808 41.0833C12.0809 41.1971 12.0809 41.311 12.0809 41.4282C12.0819 41.5283 12.0829 41.6284 12.0839 41.7315C12.0144 42.086 11.8712 42.2136 11.5938 42.4375C11.2793 42.5469 11.2793 42.5469 10.9375 42.5469C10.4814 42.2757 10.0997 41.9591 9.71387 41.5967C9.3113 41.2246 8.90347 40.8673 8.47656 40.5234C7.95119 40.0992 7.45091 39.6534 6.95471 39.1956C6.63317 38.9022 6.30266 38.6211 5.96735 38.3436C5.7763 38.1512 5.67595 37.9868 5.57812 37.7344C5.59845 37.4024 5.63932 37.1632 5.80371 36.873C6.0764 36.7147 6.31756 36.6647 6.63214 36.6774C7.22068 36.8427 7.65421 37.3296 8.09375 37.7344C8.19724 37.8274 8.30072 37.9205 8.40735 38.0164C8.60269 38.1928 8.7972 38.3701 8.99054 38.5487C9.37909 38.9031 9.7751 39.2486 10.1719 39.5938C10.1729 39.4608 10.1739 39.3278 10.175 39.1908C10.1793 38.6964 10.1865 38.2022 10.1946 37.7079C10.1977 37.4941 10.2 37.2803 10.2015 37.0666C10.2039 36.7589 10.209 36.4514 10.2146 36.1437C10.2148 36.0008 10.2148 36.0008 10.215 35.855C10.2172 35.7653 10.2193 35.6756 10.2215 35.5831C10.223 35.4654 10.223 35.4654 10.2245 35.3454C10.3828 34.6872 10.7468 34.494 11.3867 34.4952Z" fill="#377E7F"/>
</g>
<defs>
<clipPath id="clip0_16_101">
<rect width="56" height="56" fill="white"/>
</clipPath>
</defs>
</svg>
