<svg width="56" height="56" viewBox="0 0 56 56" fill="none" xmlns="http://www.w3.org/2000/svg">
<g clip-path="url(#clip0_14_176)">
<path d="M13.4412 0.2999C14.4388 0.894753 14.887 1.62773 15.2032 2.73435C15.2032 3.5645 15.2032 4.39466 15.2032 5.24997C18.2712 5.24997 21.3391 5.24997 24.5001 5.24997C24.5001 4.492 24.5001 3.73404 24.5001 2.9531C24.8955 1.63506 25.4235 0.77893 26.626 0.12302C27.4551 -0.147382 28.612 -0.155921 29.4219 0.170872C30.2207 0.605331 30.9107 1.23769 31.2813 2.0781C31.5001 2.9531 31.5001 2.9531 31.5001 5.24997C34.568 5.24997 37.636 5.24997 40.7969 5.24997C40.7969 4.41982 40.7969 3.58966 40.7969 2.73435C41.2064 1.50582 41.607 0.86531 42.7294 0.228977C43.5625 -0.16179 44.6803 -0.149908 45.5518 0.115757C46.5833 0.596975 47.1922 1.25678 47.5998 2.31095C47.7568 2.87252 47.7332 3.42727 47.7149 4.00583C47.7129 4.1261 47.711 4.24636 47.7089 4.37027C47.7038 4.66361 47.6967 4.95674 47.6876 5.24997C47.8039 5.24883 47.9201 5.24768 48.04 5.2465C48.4768 5.2425 48.9136 5.24002 49.3505 5.23796C49.5385 5.23687 49.7266 5.23538 49.9147 5.23347C52.9985 5.20298 52.9985 5.20298 54.2543 6.32407C55.2583 7.37929 55.2981 8.55425 55.29 9.93279C55.2905 10.1193 55.2912 10.3058 55.2921 10.4923C55.2939 11.0027 55.293 11.5131 55.2916 12.0236C55.2906 12.5749 55.2922 13.1262 55.2934 13.6774C55.2953 14.7566 55.2949 15.8358 55.2936 16.9149C55.2926 17.7921 55.2925 18.6693 55.293 19.5464C55.293 19.6713 55.2931 19.7963 55.2932 19.9249C55.2933 20.1787 55.2935 20.4324 55.2936 20.6862C55.2949 23.0649 55.2934 25.4436 55.2911 27.8223C55.2891 29.8627 55.2895 31.9032 55.2915 33.9437C55.2938 36.3139 55.2947 38.6842 55.2934 41.0544C55.2933 41.3073 55.2931 41.5601 55.293 41.8129C55.2929 41.9995 55.2929 41.9995 55.2928 42.1898C55.2924 43.0658 55.293 43.9418 55.2941 44.8177C55.2953 45.8855 55.295 46.9532 55.2926 48.0209C55.2915 48.5655 55.291 49.1101 55.2925 49.6547C55.2938 50.1536 55.2931 50.6524 55.2907 51.1513C55.2902 51.3314 55.2905 51.5116 55.2916 51.6918C55.299 53.0604 55.1385 54.099 54.165 55.1271C53.442 55.7714 52.7387 56.0106 51.7846 56.0211C51.7138 56.022 51.643 56.0229 51.57 56.0238C51.3366 56.0265 51.1031 56.0283 50.8697 56.0299C50.7498 56.0308 50.7498 56.0308 50.6276 56.0316C50.2051 56.0346 49.7826 56.0367 49.3602 56.0383C49.0107 56.0397 48.6613 56.0428 48.3118 56.0472C47.8894 56.0526 47.4669 56.0553 47.0444 56.0561C46.8836 56.0569 46.7228 56.0585 46.562 56.0611C46.337 56.0646 46.1123 56.0646 45.8874 56.0638C45.7595 56.0647 45.6316 56.0656 45.4998 56.0665C45.1719 56 45.1719 56 44.908 55.7473C44.7344 55.4531 44.7344 55.4531 44.7413 55.0566C44.8744 54.5774 44.8744 54.5774 45.1719 54.3593C45.4505 54.3172 45.4505 54.3172 45.7877 54.3155C45.914 54.3141 46.0404 54.3126 46.1706 54.3111C46.3073 54.3111 46.444 54.3111 46.5848 54.3111C46.7998 54.3089 47.0148 54.3067 47.2298 54.3044C47.5315 54.3016 47.8332 54.3002 48.1349 54.2989C48.6605 54.2965 49.186 54.293 49.7116 54.2878C49.9912 54.2851 50.2708 54.2835 50.5505 54.283C51.7306 54.2769 51.7306 54.2769 52.8077 53.8398C53.467 53.1617 53.4223 52.4568 53.4187 51.563C53.4198 51.3532 53.4198 51.3532 53.4209 51.1391C53.4228 50.7515 53.4228 50.3639 53.4224 49.9763C53.4223 49.558 53.4241 49.1398 53.4257 48.7215C53.4282 47.9971 53.4295 47.2727 53.43 46.5483C53.4307 45.5009 53.4332 44.4535 53.4362 43.4062C53.4409 41.7068 53.4442 40.0075 53.4465 38.3082C53.4488 36.6575 53.4518 35.0069 53.4557 33.3562C53.456 33.2544 53.4562 33.1527 53.4565 33.0478C53.4577 32.5373 53.4589 32.0268 53.4601 31.5163C53.4703 27.2817 53.4781 23.0471 53.4844 18.8125C53.365 18.8132 53.365 18.8132 53.2431 18.814C51.3061 18.8261 49.3691 18.8351 47.432 18.8408C46.4953 18.8436 45.5586 18.8475 44.6219 18.8537C43.8055 18.8592 42.9892 18.8627 42.1728 18.8639C41.7404 18.8646 41.3081 18.8663 40.8758 18.8703C40.4689 18.874 40.0621 18.8752 39.6552 18.8743C39.4346 18.8746 39.2139 18.8775 38.9933 18.8805C38.862 18.8798 38.7307 18.879 38.5954 18.8782C38.4813 18.8787 38.3672 18.8792 38.2496 18.8798C37.9532 18.8125 37.9532 18.8125 37.6973 18.5559C37.4763 18.2026 37.4546 18.0192 37.5157 17.6093C37.7104 17.2664 37.7916 17.1892 38.1719 17.0625C38.3787 17.0525 38.5857 17.0491 38.7927 17.0493C38.922 17.0492 39.0513 17.049 39.1845 17.0489C39.3975 17.0495 39.3975 17.0495 39.6148 17.0501C39.7657 17.0501 39.9166 17.0501 40.0676 17.05C40.4775 17.05 40.8873 17.0506 41.2972 17.0514C41.7255 17.0521 42.1538 17.0521 42.5821 17.0523C43.3932 17.0526 44.2044 17.0535 45.0155 17.0546C45.9389 17.0558 46.8623 17.0564 47.7857 17.057C49.6853 17.0581 51.5849 17.06 53.4844 17.0625C53.4803 15.9491 53.4738 14.8357 53.4643 13.7223C53.46 13.2053 53.4565 12.6883 53.4548 12.1713C53.4531 11.672 53.4494 11.1728 53.4442 10.6735C53.4425 10.4833 53.4417 10.2932 53.4416 10.103C53.4413 9.83593 53.4384 9.569 53.4348 9.30195C53.4353 9.2239 53.4359 9.14586 53.4364 9.06545C53.4241 8.46946 53.266 8.1369 52.9376 7.65622C52.2589 7.10749 51.6414 7.09278 50.7958 7.07474C50.7067 7.07247 50.6177 7.0702 50.5259 7.06785C50.2429 7.06073 49.9599 7.05427 49.6768 7.04782C49.4843 7.0431 49.2919 7.03833 49.0994 7.03351C48.6288 7.02183 48.1582 7.01075 47.6876 6.99997C47.6899 7.07708 47.6921 7.15418 47.6945 7.23362C47.7037 7.58867 47.7093 7.94368 47.7149 8.2988C47.7186 8.42005 47.7222 8.54131 47.726 8.66623C47.7393 9.79829 47.4882 10.675 46.7032 11.5108C45.8307 12.2777 44.9647 12.4113 43.8342 12.3901C43.2857 12.3492 42.901 12.2088 42.4376 11.9218C42.3695 11.8835 42.3014 11.8451 42.2312 11.8056C41.4035 11.2886 41.0582 10.5393 40.7969 9.62497C40.7969 8.75872 40.7969 7.89247 40.7969 6.99997C37.729 6.99997 34.661 6.99997 31.5001 6.99997C31.5001 7.79404 31.5001 8.5881 31.5001 9.40622C31.1121 10.6993 30.6289 11.5249 29.4356 12.1748C28.5964 12.5187 27.6113 12.5066 26.7512 12.2461C25.8592 11.8403 25.1381 11.2101 24.7256 10.3086C24.349 9.15643 24.5001 8.37812 24.5001 6.99997C21.4321 6.99997 18.3641 6.99997 15.2032 6.99997C15.2032 7.86622 15.2032 8.73247 15.2032 9.62497C14.797 10.8435 14.3822 11.5399 13.2344 12.1406C12.3383 12.502 11.2538 12.5175 10.3428 12.1884C9.4252 11.7525 8.82246 11.1018 8.42193 10.1718C8.30825 9.80736 8.29993 9.47425 8.30188 9.09348C8.30241 8.91054 8.30241 8.91054 8.30295 8.72391C8.30432 8.53378 8.30432 8.53378 8.30572 8.33982C8.30622 8.21137 8.30671 8.08293 8.30722 7.9506C8.30851 7.63372 8.31031 7.31685 8.31256 6.99997C7.75419 7.00756 7.19592 7.0172 6.63762 7.02868C6.44808 7.03229 6.25852 7.03537 6.06896 7.03786C5.79495 7.04157 5.52104 7.0473 5.24707 7.05338C5.16363 7.05408 5.08019 7.05478 4.99422 7.0555C4.34664 7.07282 3.60931 7.15305 3.10271 7.59235C2.64357 8.12435 2.60792 8.5801 2.6026 9.25228C2.60098 9.37877 2.60098 9.37877 2.59932 9.50781C2.59587 9.78655 2.59316 10.0653 2.59045 10.344C2.5882 10.5373 2.5859 10.7305 2.58356 10.9238C2.57753 11.4325 2.57212 11.9412 2.56685 12.4498C2.56135 12.9689 2.55526 13.488 2.54922 14.007C2.53746 15.0255 2.52636 16.044 2.51568 17.0625C2.58444 17.0623 2.6532 17.0621 2.72405 17.062C6.79753 17.0522 10.871 17.0447 14.9445 17.0401C15.4334 17.0396 15.9223 17.039 16.4112 17.0384C16.5085 17.0383 16.6059 17.0382 16.7061 17.0381C18.283 17.0362 19.8599 17.0327 21.4367 17.0287C23.0542 17.0246 24.6717 17.0222 26.2892 17.0213C27.2876 17.0207 28.286 17.0188 29.2844 17.0153C29.9687 17.013 30.6529 17.0122 31.3372 17.0128C31.7323 17.0131 32.1273 17.0127 32.5223 17.0103C32.9503 17.0078 33.3783 17.0087 33.8063 17.0099C33.9315 17.0086 34.0567 17.0073 34.1858 17.006C35.0252 17.0124 35.0252 17.0124 35.46 17.2708C35.672 17.5182 35.7285 17.6161 35.7178 17.9375C35.718 18.0097 35.7181 18.0819 35.7183 18.1562C35.6288 18.472 35.469 18.604 35.2188 18.8125C34.9548 18.8668 34.9548 18.8668 34.6542 18.8663C34.5395 18.8672 34.4247 18.868 34.3064 18.8689C34.1804 18.8677 34.0545 18.8664 33.9247 18.8651C33.7238 18.8656 33.7238 18.8656 33.5188 18.8662C33.1469 18.8668 32.7751 18.8654 32.4032 18.8633C32.0023 18.8614 31.6013 18.862 31.2003 18.8623C30.5056 18.8626 29.8108 18.8612 29.1161 18.8587C28.1116 18.8552 27.1071 18.854 26.1026 18.8535C24.4729 18.8525 22.8432 18.8496 21.2135 18.8455C19.6303 18.8415 18.0471 18.8384 16.4639 18.8365C16.3664 18.8364 16.2688 18.8363 16.1683 18.8362C15.6788 18.8356 15.1893 18.835 14.6999 18.8345C10.6385 18.83 6.57707 18.8222 2.51568 18.8125C2.51665 18.9072 2.51763 19.0019 2.51863 19.0995C2.5274 19.9926 2.53406 20.8857 2.53835 21.7789C2.54063 22.2381 2.54373 22.6972 2.54869 23.1564C2.55345 23.5996 2.55606 24.0428 2.55719 24.4861C2.558 24.6551 2.55958 24.824 2.56194 24.993C2.56512 25.23 2.56555 25.4668 2.56535 25.7038C2.56632 25.8386 2.56729 25.9734 2.56829 26.1123C2.50554 26.5375 2.38162 26.7164 2.07818 27.0156C1.67461 27.153 1.50245 27.1625 1.11432 26.9814C0.875058 26.7968 0.875058 26.7968 0.765683 26.5781C0.754409 26.3381 0.75042 26.0977 0.749586 25.8574C0.749184 25.7825 0.748782 25.7076 0.748368 25.6305C0.747159 25.3782 0.74674 25.126 0.746324 24.8738C0.745639 24.6934 0.744912 24.5131 0.744146 24.3327C0.741842 23.7391 0.74071 23.1454 0.739621 22.5517C0.739179 22.3473 0.738728 22.1429 0.73827 21.9385C0.736185 20.9777 0.73463 20.0169 0.733719 19.0562C0.732651 17.9479 0.729776 16.8396 0.725352 15.7313C0.722048 14.8744 0.720433 14.0175 0.720071 13.1606C0.719815 12.6491 0.71884 12.1375 0.716083 11.6259C0.713529 11.144 0.713077 10.6621 0.714198 10.1802C0.714252 10.0039 0.713566 9.82766 0.712059 9.6514C0.701233 8.30925 0.855797 7.24879 1.815 6.23948C2.83997 5.36758 3.94657 5.23062 5.23639 5.23929C5.32497 5.23945 5.41356 5.2396 5.50483 5.23976C5.78449 5.24037 6.06415 5.24174 6.34381 5.24314C6.53479 5.24369 6.72577 5.24419 6.91675 5.24463C7.38202 5.24583 7.84729 5.24771 8.31256 5.24997C8.30912 5.13929 8.30912 5.13929 8.30562 5.02636C8.29642 4.6862 8.2908 4.34607 8.28521 4.00583C8.28155 3.8898 8.27788 3.77376 8.27411 3.65421C8.26076 2.56657 8.51229 1.655 9.28027 0.856175C10.4509 -0.13814 12.0397 -0.37266 13.4412 0.2999ZM10.5381 2.12937C10.1487 2.58991 10.0488 2.86873 10.0432 3.45882C10.0418 3.58772 10.0404 3.71662 10.0389 3.84943C10.0381 3.98944 10.0373 4.12946 10.0365 4.27372C10.0356 4.41725 10.0347 4.56079 10.0338 4.70867C10.0322 5.01311 10.0311 5.31754 10.0303 5.62197C10.0291 6.01059 10.0253 6.39915 10.021 6.78774C10.0174 7.15969 10.0169 7.53163 10.016 7.9036C10.0141 8.04251 10.0122 8.18142 10.0102 8.32453C10.012 9.07404 10.0386 9.56869 10.5001 10.1718C10.8844 10.5287 11.1834 10.6399 11.6963 10.664C12.2589 10.6378 12.5707 10.5189 13.0157 10.1718C13.5505 9.47344 13.5186 8.80731 13.5151 7.9506C13.5158 7.81052 13.5165 7.67045 13.5172 7.52613C13.5183 7.23055 13.5178 6.93503 13.5162 6.63946C13.5144 6.26272 13.5169 5.88616 13.5208 5.50944C13.5238 5.14737 13.5227 4.78534 13.522 4.42325C13.5234 4.28902 13.5249 4.15478 13.5264 4.01648C13.5179 3.23452 13.4388 2.67447 12.9063 2.0781C12.1918 1.51012 11.2319 1.5126 10.5381 2.12937ZM26.544 2.46091C26.2559 2.88774 26.236 3.25169 26.2307 3.75985C26.2293 3.87743 26.2279 3.99501 26.2264 4.11615C26.2256 4.24273 26.2248 4.36931 26.224 4.49973C26.2231 4.63056 26.2222 4.76139 26.2213 4.89618C26.2198 5.1731 26.2186 5.45002 26.2178 5.72694C26.2159 6.14919 26.2111 6.57134 26.2063 6.99356C26.2052 7.26287 26.2042 7.53218 26.2035 7.80149C26.2016 7.92718 26.1997 8.05288 26.1977 8.18238C26.1997 8.93499 26.2811 9.42339 26.6876 10.0625C27.2177 10.5547 27.5617 10.6489 28.2692 10.6397C28.6809 10.5947 28.8989 10.4472 29.2032 10.1718C29.6014 9.64454 29.763 9.26548 29.7677 8.61016C29.7687 8.49222 29.7698 8.37427 29.7709 8.25276C29.7716 8.06153 29.7716 8.06153 29.7723 7.86643C29.7729 7.73519 29.7735 7.60394 29.7742 7.46872C29.7752 7.19069 29.7759 6.91266 29.7763 6.63462C29.7774 6.21022 29.7808 5.78587 29.7842 5.36148C29.785 5.09132 29.7855 4.82116 29.7859 4.551C29.7873 4.4244 29.7887 4.29779 29.79 4.16735C29.788 3.4225 29.7684 2.79938 29.254 2.21567C28.2858 1.49752 27.3843 1.55243 26.544 2.46091ZM43.1212 2.11228C42.7077 2.60618 42.5062 2.94284 42.5027 3.59541C42.5014 3.72209 42.5 3.84878 42.4985 3.9793C42.4989 4.11523 42.4992 4.25116 42.4995 4.39121C42.4989 4.53185 42.4984 4.6725 42.4978 4.8174C42.4968 5.11474 42.4971 5.41204 42.4981 5.70937C42.4994 6.0888 42.4972 6.46811 42.494 6.84753C42.4915 7.21138 42.4923 7.5752 42.4927 7.93906C42.4908 8.14229 42.4908 8.14229 42.489 8.34963C42.4949 9.08852 42.5273 9.57859 42.9844 10.1718C43.4508 10.5583 43.8881 10.6827 44.493 10.6508C45.0564 10.5541 45.3914 10.3133 45.737 9.86359C46.0596 9.26717 46 8.60748 45.9957 7.94675C45.9961 7.80642 45.9965 7.66608 45.9969 7.52149C45.9976 7.22546 45.9967 6.92948 45.9946 6.63345C45.9921 6.25574 45.9935 5.87817 45.9962 5.50046C45.9981 5.13782 45.9967 4.77522 45.9957 4.41257C45.9966 4.27777 45.9974 4.14297 45.9984 4.00408C45.9903 3.26682 45.9528 2.78104 45.5001 2.18747C44.7356 1.55596 43.9124 1.44694 43.1212 2.11228Z" fill="#377E7F"/>
<path d="M2.07814 28.9844C2.42347 29.306 2.51035 29.4892 2.56996 29.9619C2.57203 30.1348 2.57169 30.3076 2.56946 30.4804C2.56997 30.5759 2.57049 30.6715 2.57101 30.7699C2.57221 31.0899 2.5703 31.4098 2.56841 31.7298C2.56865 31.9592 2.56908 32.1887 2.5697 32.4181C2.57064 32.9122 2.57023 33.4063 2.56878 33.9004C2.56656 34.6817 2.56765 35.463 2.56925 36.2443C2.57243 38.0442 2.57125 39.844 2.57005 41.6438C2.56899 43.2928 2.56885 44.9417 2.57222 46.5906C2.57369 47.3673 2.57303 48.1439 2.57076 48.9205C2.56978 49.4038 2.57059 49.8871 2.5719 50.3704C2.57213 50.5945 2.57162 50.8185 2.57029 51.0425C2.56858 51.3485 2.56956 51.6545 2.5712 51.9605C2.57005 52.049 2.5689 52.1374 2.56772 52.2286C2.575 52.8418 2.7111 53.1978 3.06252 53.7031C3.68452 54.2169 4.26668 54.2635 5.051 54.2642C5.18507 54.2646 5.31914 54.265 5.45727 54.2654C5.60514 54.2653 5.75301 54.2652 5.90088 54.2651C6.05866 54.2653 6.21645 54.2657 6.37423 54.266C6.80733 54.2669 7.24044 54.267 7.67354 54.2671C8.14079 54.2673 8.60804 54.2682 9.07528 54.2689C9.88474 54.2702 10.6942 54.2711 11.5036 54.2718C12.7824 54.2729 14.0612 54.2752 15.34 54.2776C15.7774 54.2784 16.2149 54.2792 16.6523 54.28C16.8163 54.2803 16.8163 54.2803 16.9836 54.2806C18.2275 54.2829 19.4714 54.285 20.7153 54.2869C20.829 54.2871 20.9427 54.2873 21.0598 54.2875C22.9045 54.2904 24.7492 54.2924 26.5938 54.2942C28.487 54.2961 30.3801 54.2993 32.2732 54.3035C33.4415 54.3061 34.6097 54.3076 35.778 54.3078C36.5778 54.308 37.3776 54.3095 38.1773 54.3118C38.6392 54.3131 39.1011 54.3139 39.563 54.3133C39.9854 54.3127 40.4078 54.3136 40.8302 54.3157C40.9834 54.3162 41.1366 54.3162 41.2899 54.3155C41.4973 54.3147 41.7048 54.3161 41.9122 54.3176C42.0277 54.3177 42.1432 54.3179 42.2621 54.318C42.5469 54.3594 42.5469 54.3594 42.7451 54.5098C42.9238 54.7542 42.9628 54.9327 42.9844 55.2344C42.882 55.573 42.798 55.7489 42.5469 56C42.2706 56.0277 42.2706 56.0277 41.9132 56.0281C41.7096 56.0292 41.7096 56.0292 41.5018 56.0303C41.3497 56.0299 41.1976 56.0296 41.0456 56.0292C40.8851 56.0296 40.7246 56.0301 40.5642 56.0307C40.1216 56.0321 39.679 56.032 39.2364 56.0318C38.7597 56.0317 38.2829 56.0329 37.8062 56.034C36.8714 56.0358 35.9365 56.0364 35.0017 56.0365C34.2417 56.0366 33.4818 56.0371 32.7218 56.0378C30.5679 56.0397 28.414 56.0407 26.26 56.0405C26.0857 56.0405 26.0857 56.0405 25.9078 56.0405C25.7915 56.0405 25.6751 56.0405 25.5552 56.0405C23.6707 56.0404 21.7862 56.0425 19.9018 56.0456C17.9675 56.0487 16.0332 56.0502 14.0989 56.05C13.0127 56.05 11.9265 56.0506 10.8403 56.0529C9.91506 56.0549 8.98984 56.0554 8.06461 56.0539C7.59263 56.0532 7.12069 56.0532 6.64872 56.0551C6.21622 56.0568 5.78376 56.0565 5.35126 56.0546C5.19521 56.0542 5.03915 56.0546 4.8831 56.0559C3.57191 56.0654 2.60703 55.8519 1.63851 54.9383C0.967025 54.1608 0.749243 53.3272 0.750282 52.3239C0.749957 52.2266 0.749632 52.1292 0.749297 52.0289C0.748346 51.7015 0.748182 51.374 0.748019 51.0465C0.747513 50.8123 0.746963 50.578 0.746374 50.3438C0.744937 49.7065 0.744233 49.0693 0.743747 48.432C0.743427 48.0342 0.742978 47.6364 0.742489 47.2386C0.740993 45.9948 0.739936 44.751 0.739514 43.5072C0.739023 42.0697 0.737102 40.6322 0.733936 39.1947C0.731575 38.0846 0.730468 36.9745 0.730322 35.8644C0.730207 35.2009 0.729556 34.5374 0.727607 33.8739C0.725811 33.25 0.725566 32.6262 0.726529 32.0024C0.726613 31.7731 0.726134 31.5438 0.725057 31.3145C0.723675 31.0021 0.724303 30.6898 0.725449 30.3775C0.724567 30.2862 0.723686 30.1949 0.722778 30.1009C0.725888 29.7397 0.73889 29.4716 0.91171 29.1502C1.28545 28.8097 1.61781 28.8528 2.07814 28.9844Z" fill="#377E7F"/>
<path d="M7.86594 23.2386C7.96311 23.2376 8.06028 23.2367 8.1604 23.2357C8.48099 23.2332 8.80147 23.234 9.12207 23.235C9.34532 23.2344 9.56857 23.2337 9.79182 23.2329C10.2595 23.2318 10.7272 23.2323 11.1949 23.2339C11.7938 23.2357 12.3926 23.2332 12.9915 23.2293C13.4525 23.2269 13.9135 23.2271 14.3745 23.228C14.5953 23.2281 14.8161 23.2273 15.0369 23.2257C15.3458 23.2238 15.6546 23.2254 15.9635 23.2279C16.0544 23.2266 16.1453 23.2253 16.2389 23.224C16.8808 23.2345 17.1597 23.3839 17.6093 23.8438C17.8906 24.2322 17.8909 24.6905 17.9374 25.1563C18.0457 25.1021 18.0457 25.1021 18.1562 25.0469C18.5402 25.0185 18.827 25.0045 19.1816 25.1631C19.4634 25.4992 19.4902 25.7028 19.4687 26.1407C19.2121 26.5379 18.8672 26.8698 18.5146 27.183C18.0804 27.6073 17.8864 27.9194 17.8457 28.5318C17.8435 28.7775 17.8452 29.0233 17.8503 29.2689C17.8494 29.465 17.8494 29.465 17.8486 29.6651C17.8473 30.0809 17.851 30.4964 17.8554 30.9121C17.8575 31.3286 17.8584 31.745 17.8576 32.1615C17.8573 32.4201 17.8588 32.6787 17.8623 32.9372C17.8652 34.0752 17.8652 34.0752 17.4999 34.5625C16.9529 35.0155 16.5553 35.0634 15.876 35.0566C15.7809 35.0574 15.6859 35.0582 15.5879 35.059C15.275 35.0609 14.9623 35.0596 14.6494 35.0581C14.4312 35.0584 14.213 35.0589 13.9948 35.0594C13.538 35.06 13.0813 35.0591 12.6245 35.0571C12.0397 35.0546 11.455 35.056 10.8702 35.0586C10.4198 35.0602 9.96946 35.0597 9.51907 35.0586C9.30347 35.0583 9.08788 35.0586 8.87229 35.0597C8.57069 35.0608 8.26924 35.0591 7.96765 35.0566C7.83467 35.058 7.83467 35.058 7.699 35.0593C7.12792 35.0508 6.786 34.9558 6.34369 34.5625C5.986 34.038 5.96836 33.581 5.97311 32.9687C5.97253 32.8768 5.97196 32.785 5.97136 32.6903C5.96993 32.3881 5.97087 32.0859 5.97199 31.7837C5.97176 31.5729 5.97145 31.3621 5.97103 31.1512C5.97055 30.7099 5.97125 30.2686 5.97279 29.8273C5.97466 29.2624 5.97358 28.6975 5.97161 28.1326C5.97043 27.6974 5.97081 27.2622 5.97166 26.827C5.97187 26.6188 5.97161 26.4105 5.97084 26.2022C5.97001 25.9109 5.97128 25.6196 5.97311 25.3282C5.97244 25.2427 5.97178 25.1571 5.97109 25.0689C5.9787 24.4109 6.12326 23.9767 6.57667 23.4783C7.01293 23.2262 7.37017 23.2347 7.86594 23.2386ZM7.76556 24.9375C7.76556 27.6807 7.76556 30.4238 7.76556 33.25C10.5087 33.25 13.2518 33.25 16.0781 33.25C16.0781 32.095 16.0781 30.94 16.0781 29.75C15.4657 30.2704 15.4657 30.2704 14.8942 30.8216C14.8246 30.8925 14.755 30.9634 14.6833 31.0365C14.5407 31.183 14.3983 31.3297 14.2561 31.4765C14.1869 31.5469 14.1178 31.6172 14.0465 31.6897C13.9849 31.7531 13.9234 31.8165 13.8599 31.8819C13.5603 32.1447 13.3338 32.2634 12.9335 32.2725C12.0923 31.9975 11.4058 31.1243 10.7802 30.5157C10.7016 30.4421 10.623 30.3685 10.542 30.2926C10.1786 29.9371 9.97607 29.7205 9.83301 29.2237C9.84369 28.875 9.84369 28.875 10.0624 28.5469C10.4017 28.3207 10.543 28.2795 10.9392 28.3503C11.4121 28.5404 11.7377 28.9537 12.079 29.3194C12.1991 29.4438 12.1991 29.4438 12.3215 29.5708C12.518 29.775 12.7127 29.9805 12.9062 30.1875C13.297 30.0215 13.5475 29.7917 13.8457 29.492C13.9405 29.3969 14.0353 29.3019 14.133 29.204C14.2312 29.1045 14.3294 29.0049 14.4306 28.9024C14.5284 28.8045 14.6262 28.7067 14.7269 28.6059C16.0209 27.3032 16.0781 27.1456 16.0781 24.9375C13.3349 24.9375 10.5918 24.9375 7.76556 24.9375Z" fill="#377E7F"/>
<path d="M23.9441 23.2386C24.0412 23.2376 24.1384 23.2367 24.2385 23.2357C24.5591 23.2332 24.8796 23.234 25.2002 23.235C25.4234 23.2344 25.6467 23.2337 25.8699 23.2329C26.3377 23.2318 26.8053 23.2323 27.2731 23.2339C27.872 23.2357 28.4708 23.2332 29.0697 23.2293C29.5307 23.2269 29.9916 23.2271 30.4526 23.228C30.6734 23.2281 30.8942 23.2273 31.115 23.2257C31.4239 23.2238 31.7327 23.2254 32.0417 23.2279C32.1325 23.2266 32.2234 23.2253 32.317 23.224C32.7688 23.2314 33.0542 23.2701 33.412 23.5586C33.9004 24.0643 33.9359 24.502 33.9745 25.1905C33.9868 25.3962 33.9868 25.3962 33.9993 25.6062C34.0047 25.7104 34.01 25.8146 34.0156 25.9219C34.0683 25.8679 34.121 25.8139 34.1754 25.7583C34.279 25.6532 34.279 25.6532 34.3847 25.5459C34.4532 25.4761 34.5217 25.4063 34.5923 25.3344C34.8669 25.0754 34.9835 25.0484 35.3691 25.0127C35.7656 25.0469 35.7656 25.0469 36.0322 25.211C36.2244 25.5185 36.2842 25.7624 36.277 26.1255C36.1738 26.4521 36.0087 26.5427 35.7284 26.735C34.9348 27.287 34.1697 27.8551 33.9504 28.8392C33.761 30.2317 33.8224 31.6711 33.9042 33.0707C33.9322 33.6546 33.9367 34.0708 33.5781 34.5625C33.0318 35.016 32.6331 35.0634 31.9541 35.0566C31.859 35.0574 31.764 35.0582 31.6661 35.059C31.3532 35.0609 31.0404 35.0596 30.7275 35.0581C30.5093 35.0584 30.2911 35.0589 30.0729 35.0594C29.6161 35.06 29.1594 35.0591 28.7027 35.0571C28.1179 35.0546 27.5332 35.056 26.9484 35.0586C26.498 35.0602 26.0476 35.0597 25.5972 35.0586C25.3816 35.0583 25.166 35.0586 24.9504 35.0597C24.6488 35.0608 24.3474 35.0591 24.0458 35.0566C23.9128 35.058 23.9128 35.058 23.7771 35.0593C23.206 35.0508 22.8641 34.9558 22.4218 34.5625C22.0641 34.038 22.0465 33.581 22.0512 32.9687C22.0507 32.8768 22.0501 32.785 22.0495 32.6903C22.0481 32.3881 22.049 32.0859 22.0501 31.7837C22.0499 31.5729 22.0496 31.3621 22.0492 31.1512C22.0487 30.7099 22.0494 30.2686 22.0509 29.8273C22.0528 29.2624 22.0517 28.6975 22.0497 28.1326C22.0486 27.6974 22.0489 27.2622 22.0498 26.827C22.05 26.6188 22.0497 26.4105 22.049 26.2022C22.0481 25.9109 22.0494 25.6196 22.0512 25.3282C22.0506 25.2427 22.0499 25.1571 22.0492 25.0689C22.0568 24.4109 22.2014 23.9767 22.6548 23.4783C23.0911 23.2262 23.4483 23.2347 23.9441 23.2386ZM23.8437 24.9375C23.8437 27.6807 23.8437 30.4238 23.8437 33.25C26.5868 33.25 29.3299 33.25 32.1562 33.25C32.1562 32.3116 32.1562 31.3732 32.1562 30.4063C31.5824 30.8981 31.0812 31.3786 30.5732 31.9294C30.2454 32.1984 30.0633 32.2629 29.6406 32.2657C29.2031 32.0448 28.8858 31.7565 28.5417 31.4107C28.4403 31.3091 28.3389 31.2076 28.2345 31.1029C28.1826 31.0503 28.1306 30.9977 28.0771 30.9435C27.9174 30.7818 27.7569 30.621 27.5962 30.4603C26.699 29.5575 26.699 29.5575 26.6601 29.1006C26.6874 28.7657 26.6874 28.7657 26.8105 28.5674C27.1095 28.3781 27.317 28.3351 27.6718 28.3282C28.2228 28.6413 28.6406 29.0516 29.08 29.5039C29.1449 29.5698 29.2097 29.6356 29.2766 29.7035C29.4349 29.8643 29.5925 30.0259 29.7499 30.1875C29.8584 30.0932 29.9668 29.9989 30.0785 29.9017C30.3605 29.6581 30.6487 29.4323 30.9492 29.2121C31.484 28.7969 31.484 28.7969 32.1562 27.8907C32.1562 26.9161 32.1562 25.9416 32.1562 24.9375C29.4131 24.9375 26.6699 24.9375 23.8437 24.9375Z" fill="#377E7F"/>
<path d="M40.114 38.2264C40.255 38.2255 40.255 38.2255 40.3988 38.2246C40.7081 38.2232 41.0174 38.225 41.3267 38.227C41.5424 38.227 41.7582 38.2268 41.9739 38.2265C42.4255 38.2264 42.8771 38.2277 43.3287 38.2302C43.9069 38.2333 44.485 38.233 45.0632 38.2316C45.5085 38.2309 45.9538 38.2317 46.3991 38.2331C46.6123 38.2336 46.8254 38.2336 47.0386 38.2332C47.3368 38.2329 47.6348 38.2347 47.933 38.2371C48.0206 38.2366 48.1083 38.2361 48.1986 38.2356C48.724 38.2425 49.1048 38.2966 49.5469 38.6094C49.9744 39.1829 50.048 39.6226 50.0393 40.325C50.0402 40.4628 50.0402 40.4628 50.0411 40.6034C50.0424 40.9051 50.0407 41.2066 50.0387 41.5083C50.0387 41.7189 50.0389 41.9296 50.0392 42.1403C50.0393 42.5809 50.0379 43.0216 50.0355 43.4622C50.0323 44.0263 50.0326 44.5903 50.034 45.1544C50.0348 45.5891 50.0339 46.0238 50.0326 46.4585C50.0321 46.6665 50.0321 46.8744 50.0325 47.0824C50.0328 47.3732 50.031 47.664 50.0286 47.9548C50.0291 48.0402 50.0296 48.1256 50.0301 48.2136C50.021 48.8815 49.8775 49.3315 49.3965 49.7998C48.8653 50.1413 48.3044 50.11 47.6893 50.1097C47.603 50.11 47.5167 50.1104 47.4277 50.1108C47.1432 50.1118 46.8587 50.112 46.5741 50.1121C46.3757 50.1125 46.1772 50.1129 45.9787 50.1132C45.563 50.1139 45.1472 50.1141 44.7315 50.114C44.1998 50.114 43.6682 50.1155 43.1365 50.1174C42.7266 50.1186 42.3168 50.1188 41.9069 50.1188C41.7109 50.1189 41.515 50.1194 41.319 50.1202C41.0444 50.1213 40.7699 50.121 40.4953 50.1203C40.4151 50.1209 40.3348 50.1216 40.2522 50.1222C39.6923 50.1188 39.0857 50.0875 38.6376 49.7178C38.2168 49.1374 38.1553 48.8077 38.1543 48.102C38.1538 48.0092 38.1532 47.9163 38.1527 47.8207C38.1511 47.5125 38.1503 47.2044 38.1497 46.8963C38.1491 46.6823 38.1484 46.4684 38.1478 46.2545C38.1467 45.8055 38.146 45.3564 38.1456 44.9073C38.145 44.3323 38.1424 43.7574 38.1393 43.1824C38.1373 42.7403 38.1367 42.2981 38.1365 41.856C38.1362 41.6441 38.1353 41.4321 38.1339 41.2202C38.132 40.9233 38.1322 40.6265 38.1329 40.3296C38.1319 40.2423 38.1309 40.155 38.1299 40.065C38.1338 39.5384 38.1935 39.1662 38.5 38.7188C39.0245 38.2532 39.4463 38.2183 40.114 38.2264ZM39.9219 40.0313C39.9219 42.7744 39.9219 45.5175 39.9219 48.3438C42.665 48.3438 45.4082 48.3438 48.2344 48.3438C48.2344 45.6006 48.2344 42.8575 48.2344 40.0313C45.4913 40.0313 42.7482 40.0313 39.9219 40.0313Z" fill="#377E7F"/>
<path d="M8.06703 38.237C8.20801 38.2359 8.20801 38.2359 8.35184 38.2348C8.66117 38.2328 8.97044 38.2332 9.27977 38.2338C9.49551 38.2333 9.71124 38.2327 9.92698 38.2321C10.3786 38.2311 10.8302 38.2313 11.2818 38.2324C11.86 38.2337 12.4381 38.2315 13.0162 38.2283C13.4616 38.2263 13.9069 38.2263 14.3522 38.2269C14.5653 38.227 14.7785 38.2263 14.9916 38.2249C15.2898 38.2233 15.5879 38.2245 15.8861 38.2263C15.9737 38.2253 16.0613 38.2242 16.1516 38.2231C16.7203 38.2306 17.0594 38.3276 17.5 38.7187C17.8596 39.2453 17.8758 39.7076 17.8723 40.3226C17.8731 40.4155 17.8738 40.5084 17.8746 40.6042C17.8766 40.91 17.8762 41.2157 17.8755 41.5215C17.876 41.7347 17.8766 41.948 17.8773 42.1613C17.8782 42.6078 17.878 43.0542 17.8769 43.5007C17.8756 44.0722 17.8779 44.6437 17.881 45.2152C17.8831 45.6555 17.883 46.0957 17.8824 46.536C17.8824 46.7467 17.883 46.9574 17.8844 47.1681C17.886 47.4629 17.8849 47.7576 17.883 48.0523C17.884 48.139 17.8851 48.2256 17.8862 48.3148C17.8786 48.8841 17.7606 49.2009 17.3906 49.6562C16.8583 50.1542 16.227 50.11 15.533 50.1096C15.4467 50.11 15.3603 50.1103 15.2714 50.1107C14.9869 50.1118 14.7024 50.112 14.4178 50.1121C14.2194 50.1124 14.0209 50.1128 13.8224 50.1132C13.4067 50.1139 12.9909 50.1141 12.5752 50.114C12.0435 50.114 11.5118 50.1155 10.9802 50.1174C10.5703 50.1186 10.1605 50.1188 9.75059 50.1187C9.55462 50.1189 9.35866 50.1193 9.16269 50.1202C8.88813 50.1213 8.6136 50.1209 8.33903 50.1203C8.25877 50.1209 8.17852 50.1215 8.09584 50.1222C7.5357 50.1188 6.93341 50.0855 6.48131 49.7216C6.04627 49.132 5.99867 48.7052 5.99625 47.992C5.99553 47.9004 5.99481 47.8087 5.99407 47.7143C5.99192 47.4109 5.99064 47.1074 5.98955 46.8039C5.9891 46.7002 5.98866 46.5965 5.9882 46.4896C5.98592 45.9405 5.98435 45.3915 5.98333 44.8424C5.98212 44.2759 5.97835 43.7094 5.97401 43.1429C5.97115 42.7068 5.97023 42.2706 5.96984 41.8345C5.96931 41.6257 5.96804 41.4169 5.96601 41.2081C5.96334 40.9155 5.96345 40.6229 5.96421 40.3302C5.96281 40.2445 5.9614 40.1588 5.95996 40.0705C5.96568 39.4627 6.0865 39.1004 6.45311 38.6093C6.97407 38.2408 7.4524 38.2336 8.06703 38.237ZM7.76561 40.0312C7.76561 42.7743 7.76561 45.5175 7.76561 48.3437C10.5087 48.3437 13.2519 48.3437 16.0781 48.3437C16.0781 45.6006 16.0781 42.8575 16.0781 40.0312C13.335 40.0312 10.5919 40.0312 7.76561 40.0312Z" fill="#377E7F"/>
<path d="M24.0979 38.2636C24.1908 38.2631 24.2837 38.2625 24.3794 38.262C24.6869 38.2604 24.9944 38.2596 25.302 38.259C25.5157 38.2584 25.7295 38.2578 25.9433 38.2571C26.3917 38.256 26.8401 38.2553 27.2885 38.255C27.8626 38.2544 28.4367 38.2517 29.0108 38.2486C29.4525 38.2466 29.8941 38.246 30.3358 38.2458C30.5474 38.2455 30.7591 38.2446 30.9707 38.2432C31.267 38.2413 31.5633 38.2415 31.8597 38.2423C31.9468 38.2412 32.034 38.2402 32.1237 38.2392C32.6523 38.2432 33.0085 38.3222 33.4688 38.6094C33.9299 39.1182 33.923 39.6185 33.9239 40.2753C33.9247 40.413 33.9247 40.413 33.9256 40.5535C33.9272 40.8575 33.9279 41.1615 33.9285 41.4655C33.9291 41.6768 33.9298 41.8881 33.9304 42.0994C33.9316 42.5427 33.9322 42.9859 33.9326 43.4292C33.9332 43.9967 33.9358 44.5642 33.9389 45.1317C33.941 45.5683 33.9415 46.0049 33.9417 46.4415C33.942 46.6506 33.9429 46.8598 33.9443 47.069C33.9462 47.362 33.946 47.6549 33.9453 47.9478C33.9463 48.0339 33.9473 48.12 33.9483 48.2087C33.9444 48.7349 33.864 49.0889 33.5782 49.5469C32.9848 50.1246 32.4043 50.1101 31.6112 50.1096C31.5249 50.11 31.4385 50.1104 31.3496 50.1107C31.0651 50.1118 30.7805 50.112 30.496 50.1121C30.2976 50.1125 30.0991 50.1128 29.9006 50.1132C29.4849 50.1139 29.0691 50.1141 28.6534 50.114C28.1217 50.114 27.59 50.1155 27.0584 50.1174C26.6485 50.1186 26.2386 50.1188 25.8288 50.1188C25.6328 50.1189 25.4368 50.1194 25.2409 50.1202C24.9663 50.1213 24.6918 50.121 24.4172 50.1203C24.337 50.1209 24.2567 50.1215 24.174 50.1222C23.6139 50.1188 23.0116 50.0855 22.5595 49.7216C22.1237 49.1311 22.0772 48.7046 22.0762 47.9903C22.0756 47.8985 22.0751 47.8067 22.0745 47.7121C22.0729 47.4081 22.0722 47.1041 22.0716 46.8001C22.071 46.5888 22.0703 46.3775 22.0697 46.1662C22.0685 45.7229 22.0679 45.2797 22.0675 44.8364C22.0669 44.2689 22.0643 43.7014 22.0612 43.1339C22.0591 42.6973 22.0586 42.2607 22.0584 41.8241C22.0581 41.615 22.0572 41.4058 22.0558 41.1966C22.0539 40.9036 22.0541 40.6107 22.0548 40.3178C22.0538 40.2317 22.0528 40.1456 22.0518 40.0569C22.0557 39.5309 22.1367 39.1769 22.4219 38.7187C22.9333 38.2553 23.4379 38.2645 24.0979 38.2636ZM23.8438 40.0312C23.8438 42.7744 23.8438 45.5175 23.8438 48.3437C26.5869 48.3437 29.33 48.3437 32.1563 48.3437C32.1563 45.6006 32.1563 42.8575 32.1563 40.0312C29.4132 40.0312 26.67 40.0312 23.8438 40.0312Z" fill="#377E7F"/>
<path d="M40.0098 23.2509C40.107 23.25 40.2041 23.2491 40.3042 23.2481C40.6254 23.2456 40.9465 23.2454 41.2677 23.2456C41.4911 23.2448 41.7145 23.244 41.9379 23.2431C42.4063 23.2416 42.8746 23.2414 43.343 23.2421C43.9427 23.2427 44.5424 23.2394 45.1422 23.2349C45.6036 23.2321 46.0651 23.2318 46.5265 23.2322C46.7476 23.232 46.9687 23.2309 47.1898 23.229C47.4993 23.2266 47.8086 23.2276 48.1181 23.2296C48.2547 23.2274 48.2547 23.2274 48.394 23.2252C48.834 23.2315 49.1313 23.2671 49.4858 23.5403C49.9996 24.0974 50.017 24.5789 50.0161 25.314C50.0169 25.4057 50.0176 25.4974 50.0184 25.5918C50.0204 25.8941 50.0209 26.1963 50.0211 26.4986C50.0218 26.7094 50.0225 26.9201 50.0233 27.1308C50.0246 27.5723 50.025 28.0138 50.0249 28.4553C50.0249 29.0201 50.0278 29.5848 50.0316 30.1496C50.0341 30.5848 50.0345 31.02 50.0344 31.4552C50.0346 31.6634 50.0356 31.8716 50.0373 32.0797C50.0394 32.3714 50.0388 32.6629 50.0375 32.9545C50.0387 33.0398 50.0399 33.1252 50.0412 33.2132C50.0343 33.8197 49.9055 34.1779 49.5468 34.6718C49.094 35.0647 48.6182 35.0473 48.0447 35.0442C47.9021 35.0453 47.9021 35.0453 47.7567 35.0464C47.4432 35.0484 47.1298 35.048 46.8163 35.0474C46.598 35.0479 46.3796 35.0485 46.1613 35.0491C45.7039 35.0501 45.2465 35.0498 44.7891 35.0488C44.2034 35.0475 43.6178 35.0497 43.0322 35.0529C42.5813 35.0549 42.1305 35.0549 41.6796 35.0543C41.4637 35.0542 41.2478 35.0549 41.0319 35.0563C40.7298 35.0579 40.4278 35.0567 40.1257 35.0548C39.9924 35.0564 39.9924 35.0564 39.8565 35.0581C39.2846 35.0506 38.9428 34.9566 38.5 34.5625C38.1404 34.0359 38.1242 33.5736 38.1277 32.9586C38.1265 32.8192 38.1265 32.8192 38.1254 32.677C38.1234 32.3712 38.1238 32.0655 38.1244 31.7597C38.1239 31.5465 38.1233 31.3332 38.1227 31.1199C38.1217 30.6734 38.122 30.227 38.1231 29.7805C38.1243 29.209 38.1221 28.6375 38.1189 28.066C38.1169 27.6257 38.1169 27.1854 38.1176 26.7452C38.1176 26.5345 38.1169 26.3238 38.1156 26.1131C38.1139 25.8183 38.1151 25.5236 38.117 25.2289C38.1159 25.1422 38.1149 25.0556 38.1138 24.9664C38.1227 24.2925 38.3357 23.9226 38.7953 23.4228C39.1864 23.227 39.5818 23.2494 40.0098 23.2509ZM39.9218 24.9375C39.9218 27.6806 39.9218 30.4237 39.9218 33.25C42.665 33.25 45.4081 33.25 48.2343 33.25C48.2343 30.5068 48.2343 27.7637 48.2343 24.9375C45.4912 24.9375 42.7481 24.9375 39.9218 24.9375Z" fill="#377E7F"/>
</g>
<defs>
<clipPath id="clip0_14_176">
<rect width="56" height="56" fill="white"/>
</clipPath>
</defs>
</svg>
