<svg width="24" height="24" viewBox="0 0 24 24" fill="none" xmlns="http://www.w3.org/2000/svg">
<path d="M19.0997 14.7827C18.7887 15.0839 18.6467 15.5195 18.7167 15.9466L19.7837 21.85C19.8737 22.35 19.6627 22.856 19.2437 23.146C18.8337 23.446 18.2877 23.482 17.8397 23.242L12.5257 20.47C12.3407 20.372 12.1357 20.319 11.9257 20.313H11.6007C11.4877 20.33 11.3777 20.366 11.2767 20.421L5.96173 23.206C5.69873 23.338 5.40172 23.384 5.10972 23.338C4.39972 23.203 3.92573 22.527 4.04173 21.813L5.10972 15.9094C5.18072 15.4787 5.03773 15.0407 4.72673 14.7348L0.394726 10.5353C0.0317264 10.1837 -0.0942717 9.65578 0.0717283 9.17948C0.232728 8.70428 0.64273 8.35759 1.13873 8.27959L7.10173 7.41448C7.55473 7.36768 7.95373 7.09178 8.15773 6.68378L10.7847 1.29649C10.8477 1.17649 10.9277 1.06609 11.0247 0.972588L11.1327 0.888588C11.1897 0.826188 11.2537 0.774582 11.3257 0.732582L11.4567 0.684586L11.6607 0.600586H12.1657C12.6167 0.647386 13.0147 0.917388 13.2217 1.32049L15.8847 6.68378C16.0767 7.07618 16.4497 7.34848 16.8797 7.41448L22.8437 8.27959C23.3477 8.35159 23.7687 8.69948 23.9357 9.17948C24.0927 9.66058 23.9567 10.1885 23.5877 10.5353L19.0997 14.7827Z" fill="white"/>
</svg>
