<svg width="24" height="24" viewBox="0 0 24 24" fill="none" xmlns="http://www.w3.org/2000/svg">
<path d="M19.0989 14.7827C18.7881 15.0839 18.6453 15.5195 18.7161 15.9466L19.7828 21.85C19.8728 22.35 19.6616 22.856 19.2428 23.146C18.8325 23.446 18.2866 23.482 17.839 23.242L12.5249 20.47C12.3401 20.372 12.135 20.319 11.925 20.313H11.5998C11.4871 20.33 11.3767 20.366 11.2759 20.421L5.96053 23.206C5.69777 23.338 5.40021 23.384 5.10864 23.338C4.39834 23.203 3.9244 22.527 4.04078 21.813L5.10864 15.9094C5.17943 15.4787 5.03665 15.0407 4.72589 14.7348L0.393256 10.5353C0.030904 10.1837 -0.0950796 9.65578 0.0704988 9.17948C0.231278 8.70428 0.641624 8.35759 1.13716 8.27959L7.10038 7.41448C7.55392 7.36768 7.95227 7.09178 8.15625 6.68378L10.7839 1.29649C10.8463 1.17649 10.9267 1.06609 11.0239 0.972588L11.1319 0.888588C11.1883 0.826188 11.2531 0.774582 11.3251 0.732582L11.4559 0.684586L11.6598 0.600586H12.165C12.6161 0.647386 13.0133 0.917388 13.2208 1.32049L15.8833 6.68378C16.0753 7.07618 16.4484 7.34848 16.8791 7.41448L22.8424 8.27959C23.3463 8.35159 23.7674 8.69948 23.9342 9.17948C24.0914 9.66058 23.9558 10.1885 23.5863 10.5353L19.0989 14.7827Z" fill="#DEAA3A"/>
</svg>
